%TF.GenerationSoftware,KiCad,Pcbnew,9.0.0*%
%TF.CreationDate,2025-07-25T12:15:42+02:00*%
%TF.ProjectId,Spruzzatore,53707275-7a7a-4617-946f-72652e6b6963,rev?*%
%TF.SameCoordinates,Original*%
%TF.FileFunction,Copper,L2,Inr*%
%TF.FilePolarity,Positive*%
%FSLAX46Y46*%
G04 Gerber Fmt 4.6, Leading zero omitted, Abs format (unit mm)*
G04 Created by KiCad (PCBNEW 9.0.0) date 2025-07-25 12:15:42*
%MOMM*%
%LPD*%
G01*
G04 APERTURE LIST*
%TA.AperFunction,ComponentPad*%
%ADD10C,5.600000*%
%TD*%
%TA.AperFunction,ComponentPad*%
%ADD11C,1.800000*%
%TD*%
%TA.AperFunction,ComponentPad*%
%ADD12C,2.000000*%
%TD*%
%TA.AperFunction,ComponentPad*%
%ADD13R,1.500000X0.900000*%
%TD*%
%TA.AperFunction,ComponentPad*%
%ADD14C,1.400000*%
%TD*%
%TA.AperFunction,ComponentPad*%
%ADD15C,1.520000*%
%TD*%
%TA.AperFunction,ComponentPad*%
%ADD16C,0.650000*%
%TD*%
%TA.AperFunction,ComponentPad*%
%ADD17O,1.000000X2.100000*%
%TD*%
%TA.AperFunction,ComponentPad*%
%ADD18O,1.000000X1.800000*%
%TD*%
%TA.AperFunction,ComponentPad*%
%ADD19R,1.520000X0.900000*%
%TD*%
%TA.AperFunction,ComponentPad*%
%ADD20O,1.520000X0.900000*%
%TD*%
%TA.AperFunction,ViaPad*%
%ADD21C,0.450000*%
%TD*%
%TA.AperFunction,Conductor*%
%ADD22C,0.200000*%
%TD*%
G04 APERTURE END LIST*
D10*
%TO.N,N/C*%
%TO.C,H4*%
X114680000Y-107510000D03*
%TD*%
D11*
%TO.N,GND*%
%TO.C,SW3*%
X182480000Y-90330000D03*
%TO.N,/LED\u002C Buzzer\u002C Lasers/PB_Switch*%
X182480000Y-85830000D03*
D12*
%TO.N,unconnected-(SW3-Pad3)*%
X179940000Y-84580000D03*
%TO.N,unconnected-(SW3-Pad4)*%
X179940000Y-91580000D03*
%TD*%
D10*
%TO.N,N/C*%
%TO.C,H2*%
X181680000Y-80510000D03*
%TD*%
D13*
%TO.N,GND*%
%TO.C,J5*%
X172160000Y-92100000D03*
%TO.N,3V3*%
X172160000Y-93350000D03*
%TO.N,/MCU/SCL_Display*%
X172160000Y-94600000D03*
%TO.N,/MCU/SCA_Display*%
X172160000Y-95860000D03*
%TD*%
D10*
%TO.N,N/C*%
%TO.C,H1*%
X114680000Y-80510000D03*
%TD*%
%TO.N,N/C*%
%TO.C,H3*%
X181680000Y-107510000D03*
%TD*%
D11*
%TO.N,GND*%
%TO.C,J7*%
X183750000Y-98380000D03*
X183750000Y-102380000D03*
D14*
%TO.N,/LED\u002C Buzzer\u002C Lasers/CLK_Encoder*%
X181250000Y-98380000D03*
%TO.N,/LED\u002C Buzzer\u002C Lasers/DT_Encoder*%
X181250000Y-102380000D03*
%TO.N,GND*%
X181250000Y-100380000D03*
D15*
X178250000Y-102380000D03*
%TO.N,/LED\u002C Buzzer\u002C Lasers/PB_Encoder*%
X178250000Y-98380000D03*
%TD*%
D16*
%TO.N,*%
%TO.C,USB1*%
X138560000Y-104480000D03*
X144360000Y-104470000D03*
D17*
%TO.N,N/C*%
X137140000Y-103980000D03*
D18*
X137140000Y-108130000D03*
D17*
X145780000Y-103980000D03*
D18*
X145780000Y-108130000D03*
%TD*%
D19*
%TO.N,Net-(J2-Pad1)*%
%TO.C,J2*%
X151330000Y-108720000D03*
D20*
%TO.N,GND*%
X151330000Y-107470000D03*
%TO.N,SDA*%
X151330000Y-106210000D03*
%TO.N,SCL*%
X151330000Y-104960000D03*
%TO.N,/MCU/Conf{slash}XSHUT LIDAR*%
X151330000Y-103720000D03*
%TO.N,/MCU/MUX{slash}GPIO1 LIDAR*%
X151330000Y-102470000D03*
%TD*%
D21*
%TO.N,GND*%
X133920000Y-81280000D03*
%TO.N,/Charger/BATT-*%
X135130000Y-82830000D03*
X136320000Y-82660000D03*
X134190000Y-83050000D03*
%TO.N,/MCU/TX0_MCU*%
X122210000Y-83200000D03*
%TO.N,/MCU/RX0_MCU*%
X122290000Y-84200000D03*
%TO.N,3V3*%
X129320000Y-108400000D03*
X120760000Y-104340000D03*
X133500000Y-90890000D03*
X148120000Y-92660000D03*
X148750000Y-80700000D03*
X122480000Y-107530000D03*
X174760000Y-101760000D03*
X137350000Y-94070000D03*
X166070000Y-80710000D03*
X120810000Y-103660000D03*
X155310000Y-102530000D03*
X157520000Y-80700000D03*
X138010000Y-92200000D03*
X157790000Y-96600000D03*
X122060000Y-106640000D03*
X150000000Y-88850000D03*
X175710000Y-91540000D03*
X162570000Y-94260000D03*
X157800000Y-101130000D03*
X155610000Y-96610000D03*
X166420000Y-109490000D03*
X120000000Y-105030000D03*
X130040000Y-106327000D03*
X183870000Y-95650000D03*
X164640000Y-98390000D03*
X121560000Y-104770000D03*
X173140000Y-105310000D03*
X166370000Y-98350000D03*
X138000000Y-94070000D03*
X120770000Y-104990000D03*
X155870000Y-107940000D03*
X175740000Y-95060000D03*
X156440000Y-101000000D03*
X120750000Y-105590000D03*
X121230000Y-106580000D03*
X148420000Y-106195000D03*
X159050000Y-92400000D03*
X137380000Y-92200000D03*
%TO.N,EN*%
X119285000Y-99045000D03*
X130800000Y-104909798D03*
%TO.N,GND*%
X119980000Y-94970000D03*
X126400000Y-81960000D03*
X125060000Y-89630000D03*
X125630000Y-93240000D03*
X124830000Y-95660000D03*
X127890000Y-95810000D03*
X132440000Y-86250000D03*
X123410000Y-110080000D03*
X131750000Y-103210000D03*
X126740000Y-97010000D03*
X120270000Y-90960000D03*
X144660000Y-100880000D03*
X121210000Y-93970000D03*
X122070000Y-98190000D03*
X122380000Y-91190000D03*
X148930000Y-92360000D03*
X155410000Y-85090000D03*
X144000000Y-90410000D03*
X121030000Y-89610000D03*
X131040000Y-85500000D03*
X138260000Y-101100000D03*
X154190000Y-91090000D03*
X136020000Y-90510000D03*
X162838750Y-85941250D03*
X118830000Y-95800000D03*
X128140000Y-99360000D03*
X120860000Y-99200000D03*
X141730000Y-100610000D03*
X125630000Y-94840000D03*
X155390000Y-91120000D03*
X127160000Y-90570000D03*
X136020000Y-89890000D03*
X118880000Y-92030000D03*
X119080000Y-97540000D03*
X161076250Y-85043750D03*
X122610000Y-88390000D03*
X122330000Y-94840000D03*
X149130000Y-93760000D03*
X118180000Y-99740000D03*
X123970000Y-93190000D03*
X127750000Y-92990000D03*
X120870000Y-97630000D03*
X122350000Y-93190000D03*
X121210000Y-92350000D03*
X119950000Y-88240000D03*
X175810000Y-87890000D03*
X136090000Y-94090000D03*
X129400000Y-96760000D03*
X123190000Y-89630000D03*
X132460000Y-85210000D03*
X120070000Y-96450000D03*
X123170000Y-94010000D03*
X127770000Y-81130000D03*
X124760000Y-102250000D03*
X155990000Y-92450000D03*
X121260000Y-95690000D03*
X119960000Y-93140000D03*
X124010000Y-91040000D03*
X123140000Y-95710000D03*
X123980000Y-94850000D03*
X125660000Y-91130000D03*
X136030000Y-91110000D03*
X124820000Y-94030000D03*
X118830000Y-89630000D03*
X122380000Y-96810000D03*
X118820000Y-94030000D03*
X174827500Y-98290000D03*
X124800000Y-92370000D03*
X124690000Y-88300000D03*
X124310000Y-84940000D03*
X134530000Y-102780000D03*
X123150000Y-92370000D03*
%TO.N,BOOT*%
X120600000Y-102240000D03*
X124090000Y-106150000D03*
%TO.N,BATT+*%
X154533000Y-108898000D03*
X120670000Y-81830000D03*
X136890000Y-85630000D03*
%TO.N,/Charger/B_CHG_+*%
X122790000Y-80510000D03*
X140570000Y-81310000D03*
X122620000Y-79000000D03*
X140300000Y-82200000D03*
X122690000Y-79730000D03*
X140810000Y-80480000D03*
%TO.N,/Charger/BATT-*%
X128820000Y-77810000D03*
X133070000Y-77310000D03*
%TO.N,Net-(U5-VCC)*%
X133790000Y-80400000D03*
X127140000Y-84925000D03*
%TO.N,/MCU/D-*%
X133990000Y-100750000D03*
X141160000Y-104730000D03*
%TO.N,/MCU/D+*%
X137308750Y-100648750D03*
X141750000Y-101280000D03*
%TO.N,/MCU/MUX{slash}GPIO1 LIDAR*%
X129250000Y-93760000D03*
%TO.N,/MCU/Conf{slash}XSHUT LIDAR*%
X129770000Y-95010000D03*
%TO.N,/IMU/PS0*%
X146570000Y-89520000D03*
X157770000Y-92590000D03*
%TO.N,/PS1_IMU*%
X146460000Y-88040000D03*
X132870000Y-97110000D03*
%TO.N,Net-(LED1-+)*%
X167875000Y-88075000D03*
X129150000Y-95450000D03*
%TO.N,/STAT_CHARGER*%
X122260000Y-99950000D03*
X142360000Y-87060000D03*
%TO.N,/MCU/BATT+_SENSE*%
X121440000Y-102140000D03*
X156690000Y-108500000D03*
%TO.N,/Humidity\u002C pressure and temperature sensor/SDA*%
X149410000Y-98990000D03*
X154620000Y-99020000D03*
X155930000Y-105820000D03*
%TO.N,/Humidity\u002C pressure and temperature sensor/SCL*%
X157170000Y-97740000D03*
X146620000Y-96970000D03*
%TO.N,Net-(U4-PROG)*%
X145020000Y-85090000D03*
X144720000Y-87450000D03*
%TO.N,/MCU/EXT_5V_SENSE*%
X135410000Y-97070000D03*
X147280000Y-103200000D03*
%TO.N,/BOOTN*%
X147440000Y-92510000D03*
X125970000Y-88040000D03*
%TO.N,/PS0_IMU{slash}WAKE*%
X144770000Y-88900000D03*
X133630000Y-97220000D03*
%TO.N,/H_SDA{slash}H_MISO{slash}TX*%
X132700000Y-98880000D03*
X149730000Y-96950000D03*
%TO.N,/H_SCL{slash}SCK{slash}RX*%
X149450000Y-97880000D03*
X132130000Y-100080000D03*
%TO.N,/LED\u002C Buzzer\u002C Lasers/Buzzer*%
X123360000Y-102000000D03*
X168580000Y-110470000D03*
%TO.N,/LED\u002C Buzzer\u002C Lasers/Ext_LED*%
X156610000Y-88260000D03*
X125710000Y-100150000D03*
%TO.N,/LED\u002C Buzzer\u002C Lasers/LASER1*%
X158370000Y-89150000D03*
X121685000Y-85915000D03*
%TO.N,/LED\u002C Buzzer\u002C Lasers/LASER2*%
X160970000Y-88990000D03*
X118890000Y-85670000D03*
%TO.N,/LED\u002C Buzzer\u002C Lasers/PB_Encoder*%
X128240000Y-89710000D03*
X172740000Y-100090000D03*
%TO.N,/CLKSEL0*%
X144630000Y-93810000D03*
X132120000Y-96570000D03*
%TO.N,/LED\u002C Buzzer\u002C Lasers/PB_Switch*%
X128020000Y-85720000D03*
X175890000Y-85760000D03*
%TO.N,SCL*%
X124070000Y-99170000D03*
%TO.N,SDA*%
X124840000Y-99260000D03*
%TO.N,/H_INTN*%
X145465000Y-96045000D03*
X126540000Y-99330000D03*
%TO.N,/SA0{slash}H_MOSI*%
X130265000Y-98655000D03*
X147920000Y-96770000D03*
%TO.N,/MCU/SCA_Display*%
X127390000Y-102040000D03*
%TO.N,/NRST*%
X145300000Y-94260000D03*
X128750000Y-91210000D03*
%TO.N,/H_CSN*%
X129120000Y-99980000D03*
X148430000Y-97980000D03*
%TO.N,/MCU/SCL_Display*%
X128240000Y-101600000D03*
%TO.N,/IMU/PS1*%
X153690000Y-89940000D03*
X148390000Y-89940000D03*
%TO.N,/MCU/PIEZO*%
X174490000Y-87630000D03*
X132120000Y-94770000D03*
%TO.N,/LED\u002C Buzzer\u002C Lasers/DT_Encoder*%
X130174500Y-87945500D03*
X165905000Y-91355000D03*
%TO.N,/LED\u002C Buzzer\u002C Lasers/CLK_Encoder*%
X163160000Y-90460000D03*
X129465000Y-88445000D03*
%TD*%
D22*
%TO.N,/LED\u002C Buzzer\u002C Lasers/LASER2*%
X120550000Y-83730000D02*
X118890000Y-85390000D01*
X118890000Y-85390000D02*
X118890000Y-85670000D01*
X155710000Y-83730000D02*
X120550000Y-83730000D01*
X160970000Y-88990000D02*
X155710000Y-83730000D01*
%TO.N,/IMU/PS0*%
X157770000Y-92590000D02*
X154590000Y-89410000D01*
X154590000Y-89410000D02*
X146680000Y-89410000D01*
X146680000Y-89410000D02*
X146570000Y-89520000D01*
%TO.N,Net-(LED1-+)*%
X167880000Y-88070000D02*
X167880000Y-88060000D01*
X167875000Y-88075000D02*
X167880000Y-88070000D01*
X129150000Y-95450000D02*
X129150000Y-94630000D01*
X130540000Y-93240000D02*
X162710000Y-93240000D01*
X162710000Y-93240000D02*
X167875000Y-88075000D01*
X129150000Y-94630000D02*
X130540000Y-93240000D01*
%TO.N,/STAT_CHARGER*%
X122260000Y-99270000D02*
X122260000Y-99950000D01*
X126480000Y-92490000D02*
X126480000Y-95050000D01*
X142360000Y-87060000D02*
X131910000Y-87060000D01*
X126480000Y-95050000D02*
X122260000Y-99270000D01*
X131910000Y-87060000D02*
X126480000Y-92490000D01*
%TO.N,/H_SDA{slash}H_MISO{slash}TX*%
X149380000Y-97300000D02*
X148210000Y-97300000D01*
X148210000Y-97300000D02*
X146630000Y-98880000D01*
X149730000Y-96950000D02*
X149380000Y-97300000D01*
X146630000Y-98880000D02*
X132700000Y-98880000D01*
%TO.N,/H_SCL{slash}SCK{slash}RX*%
X149450000Y-97880000D02*
X147250000Y-100080000D01*
X147250000Y-100080000D02*
X132130000Y-100080000D01*
%TO.N,/LED\u002C Buzzer\u002C Lasers/Buzzer*%
X168580000Y-110470000D02*
X129560000Y-110470000D01*
X129560000Y-110470000D02*
X123360000Y-104270000D01*
X123360000Y-104270000D02*
X123360000Y-102000000D01*
%TO.N,/LED\u002C Buzzer\u002C Lasers/Ext_LED*%
X125710000Y-96540000D02*
X125710000Y-100150000D01*
X146970000Y-88260000D02*
X142520000Y-92710000D01*
X129540000Y-92710000D02*
X125710000Y-96540000D01*
X156610000Y-88260000D02*
X146970000Y-88260000D01*
X142520000Y-92710000D02*
X129540000Y-92710000D01*
%TO.N,/LED\u002C Buzzer\u002C Lasers/LASER1*%
X158370000Y-89150000D02*
X153550000Y-84330000D01*
X123270000Y-84330000D02*
X121685000Y-85915000D01*
X153550000Y-84330000D02*
X123270000Y-84330000D01*
%TO.N,/CLKSEL0*%
X132120000Y-96570000D02*
X141870000Y-96570000D01*
X141870000Y-96570000D02*
X144630000Y-93810000D01*
%TO.N,/H_INTN*%
X127980000Y-97890000D02*
X126540000Y-99330000D01*
X143620000Y-97890000D02*
X127980000Y-97890000D01*
X145465000Y-96045000D02*
X143620000Y-97890000D01*
%TO.N,/SA0{slash}H_MOSI*%
X146332000Y-98358000D02*
X130562000Y-98358000D01*
X130562000Y-98358000D02*
X130265000Y-98655000D01*
X147920000Y-96770000D02*
X146332000Y-98358000D01*
%TO.N,/MCU/SCA_Display*%
X172160000Y-95860000D02*
X153870000Y-95860000D01*
X153870000Y-95860000D02*
X147500000Y-102230000D01*
X147500000Y-102230000D02*
X127580000Y-102230000D01*
X127580000Y-102230000D02*
X127390000Y-102040000D01*
%TO.N,/H_CSN*%
X129520000Y-99580000D02*
X129120000Y-99980000D01*
X148430000Y-97980000D02*
X146830000Y-99580000D01*
X146830000Y-99580000D02*
X129520000Y-99580000D01*
%TO.N,/MCU/SCL_Display*%
X128240000Y-101600000D02*
X128420000Y-101780000D01*
X154359000Y-94761000D02*
X171999000Y-94761000D01*
X171999000Y-94761000D02*
X172160000Y-94600000D01*
X128420000Y-101780000D02*
X147340000Y-101780000D01*
X147340000Y-101780000D02*
X154359000Y-94761000D01*
%TO.N,/IMU/PS1*%
X153690000Y-89940000D02*
X148390000Y-89940000D01*
%TD*%
%TA.AperFunction,Conductor*%
%TO.N,GND*%
G36*
X128522734Y-77029407D02*
G01*
X128558698Y-77078907D01*
X128558698Y-77140093D01*
X128530180Y-77183614D01*
X128467102Y-77239476D01*
X128426416Y-77296276D01*
X128399469Y-77348192D01*
X128232131Y-77827383D01*
X128220927Y-77884323D01*
X128220925Y-77884341D01*
X128217281Y-77953563D01*
X128217281Y-77953583D01*
X128217466Y-77978253D01*
X128243790Y-78065839D01*
X128278283Y-78126591D01*
X128278291Y-78126601D01*
X128314107Y-78172829D01*
X128314111Y-78172833D01*
X130586411Y-80371037D01*
X130711122Y-80491681D01*
X131496074Y-81251037D01*
X133572078Y-83259346D01*
X133600755Y-83313395D01*
X133592186Y-83373977D01*
X133549645Y-83417953D01*
X133503244Y-83429500D01*
X122718035Y-83429500D01*
X122659844Y-83410593D01*
X122623880Y-83361093D01*
X122622408Y-83304877D01*
X122623740Y-83299907D01*
X122635500Y-83256018D01*
X122635500Y-83143982D01*
X122606503Y-83035763D01*
X122606501Y-83035760D01*
X122606501Y-83035758D01*
X122550486Y-82938739D01*
X122550485Y-82938737D01*
X122471263Y-82859515D01*
X122471260Y-82859513D01*
X122374240Y-82803498D01*
X122374242Y-82803498D01*
X122332251Y-82792247D01*
X122266018Y-82774500D01*
X122153982Y-82774500D01*
X122087748Y-82792247D01*
X122045758Y-82803498D01*
X121948739Y-82859513D01*
X121869513Y-82938739D01*
X121813498Y-83035758D01*
X121813497Y-83035763D01*
X121784500Y-83143982D01*
X121784500Y-83256018D01*
X121796260Y-83299907D01*
X121797592Y-83304877D01*
X121794389Y-83365979D01*
X121755884Y-83413529D01*
X121701965Y-83429500D01*
X120589562Y-83429500D01*
X120510438Y-83429500D01*
X120463661Y-83442033D01*
X120434007Y-83449979D01*
X120365493Y-83489536D01*
X118705489Y-85149540D01*
X118705488Y-85149539D01*
X118649539Y-85205489D01*
X118609980Y-85274007D01*
X118609979Y-85274009D01*
X118589661Y-85349833D01*
X118564042Y-85394208D01*
X118549515Y-85408736D01*
X118493498Y-85505758D01*
X118480101Y-85555758D01*
X118464500Y-85613982D01*
X118464500Y-85726018D01*
X118482779Y-85794237D01*
X118493498Y-85834241D01*
X118545461Y-85924241D01*
X118549515Y-85931263D01*
X118628737Y-86010485D01*
X118628739Y-86010486D01*
X118725759Y-86066501D01*
X118725757Y-86066501D01*
X118725761Y-86066502D01*
X118725763Y-86066503D01*
X118833982Y-86095500D01*
X118833984Y-86095500D01*
X118946016Y-86095500D01*
X118946018Y-86095500D01*
X119054237Y-86066503D01*
X119054239Y-86066501D01*
X119054241Y-86066501D01*
X119083064Y-86049859D01*
X119151263Y-86010485D01*
X119230485Y-85931263D01*
X119272216Y-85858983D01*
X119286501Y-85834241D01*
X119286501Y-85834239D01*
X119286503Y-85834237D01*
X119315500Y-85726018D01*
X119315500Y-85613982D01*
X119286503Y-85505763D01*
X119286502Y-85505761D01*
X119286248Y-85505148D01*
X119286210Y-85504674D01*
X119284823Y-85499495D01*
X119285783Y-85499237D01*
X119281449Y-85444151D01*
X119307707Y-85397262D01*
X120645475Y-84059496D01*
X120699992Y-84031719D01*
X120715479Y-84030500D01*
X121766552Y-84030500D01*
X121824743Y-84049407D01*
X121860707Y-84098907D01*
X121864253Y-84137493D01*
X121864500Y-84137493D01*
X121864500Y-84140176D01*
X121864706Y-84142418D01*
X121864500Y-84143981D01*
X121864500Y-84143982D01*
X121864500Y-84256018D01*
X121890072Y-84351455D01*
X121893498Y-84364241D01*
X121949513Y-84461260D01*
X121949515Y-84461263D01*
X122028737Y-84540485D01*
X122028739Y-84540486D01*
X122125759Y-84596501D01*
X122125757Y-84596501D01*
X122125761Y-84596502D01*
X122125763Y-84596503D01*
X122233982Y-84625500D01*
X122233984Y-84625500D01*
X122310521Y-84625500D01*
X122368712Y-84644407D01*
X122404676Y-84693907D01*
X122404676Y-84755093D01*
X122380525Y-84794504D01*
X121714525Y-85460504D01*
X121660008Y-85488281D01*
X121644521Y-85489500D01*
X121628982Y-85489500D01*
X121568306Y-85505758D01*
X121520758Y-85518498D01*
X121423739Y-85574513D01*
X121344513Y-85653739D01*
X121288498Y-85750758D01*
X121281730Y-85776018D01*
X121259500Y-85858982D01*
X121259500Y-85971018D01*
X121272962Y-86021260D01*
X121288498Y-86079241D01*
X121344513Y-86176260D01*
X121344515Y-86176263D01*
X121423737Y-86255485D01*
X121423739Y-86255486D01*
X121520759Y-86311501D01*
X121520757Y-86311501D01*
X121520761Y-86311502D01*
X121520763Y-86311503D01*
X121628982Y-86340500D01*
X121628984Y-86340500D01*
X121741016Y-86340500D01*
X121741018Y-86340500D01*
X121849237Y-86311503D01*
X121849239Y-86311501D01*
X121849241Y-86311501D01*
X121878064Y-86294859D01*
X121946263Y-86255485D01*
X122025485Y-86176263D01*
X122069235Y-86100486D01*
X122081501Y-86079241D01*
X122081501Y-86079239D01*
X122081503Y-86079237D01*
X122110500Y-85971018D01*
X122110500Y-85955479D01*
X122129407Y-85897288D01*
X122139496Y-85885475D01*
X122360989Y-85663982D01*
X127594500Y-85663982D01*
X127594500Y-85776018D01*
X127605218Y-85816018D01*
X127623498Y-85884241D01*
X127673292Y-85970485D01*
X127679515Y-85981263D01*
X127758737Y-86060485D01*
X127791079Y-86079157D01*
X127855759Y-86116501D01*
X127855757Y-86116501D01*
X127855761Y-86116502D01*
X127855763Y-86116503D01*
X127963982Y-86145500D01*
X127963984Y-86145500D01*
X128076016Y-86145500D01*
X128076018Y-86145500D01*
X128184237Y-86116503D01*
X128184239Y-86116501D01*
X128184241Y-86116501D01*
X128220615Y-86095500D01*
X128281263Y-86060485D01*
X128360485Y-85981263D01*
X128412447Y-85891263D01*
X128416501Y-85884241D01*
X128416501Y-85884239D01*
X128416503Y-85884237D01*
X128445500Y-85776018D01*
X128445500Y-85663982D01*
X128421385Y-85573982D01*
X136464500Y-85573982D01*
X136464500Y-85686018D01*
X136481847Y-85750758D01*
X136493498Y-85794241D01*
X136545461Y-85884241D01*
X136549515Y-85891263D01*
X136628737Y-85970485D01*
X136628739Y-85970486D01*
X136725759Y-86026501D01*
X136725757Y-86026501D01*
X136725761Y-86026502D01*
X136725763Y-86026503D01*
X136833982Y-86055500D01*
X136833984Y-86055500D01*
X136946016Y-86055500D01*
X136946018Y-86055500D01*
X137054237Y-86026503D01*
X137054239Y-86026501D01*
X137054241Y-86026501D01*
X137083064Y-86009859D01*
X137151263Y-85970485D01*
X137230485Y-85891263D01*
X137286503Y-85794237D01*
X137315500Y-85686018D01*
X137315500Y-85573982D01*
X137286503Y-85465763D01*
X137286501Y-85465760D01*
X137286501Y-85465758D01*
X137236708Y-85379515D01*
X137230485Y-85368737D01*
X137151263Y-85289515D01*
X137151260Y-85289513D01*
X137054240Y-85233498D01*
X137054242Y-85233498D01*
X137012251Y-85222247D01*
X136946018Y-85204500D01*
X136833982Y-85204500D01*
X136767748Y-85222247D01*
X136725758Y-85233498D01*
X136628739Y-85289513D01*
X136549513Y-85368739D01*
X136493498Y-85465758D01*
X136483071Y-85504674D01*
X136464500Y-85573982D01*
X128421385Y-85573982D01*
X128416503Y-85555763D01*
X128416501Y-85555760D01*
X128416501Y-85555758D01*
X128364541Y-85465763D01*
X128360485Y-85458737D01*
X128281263Y-85379515D01*
X128281260Y-85379513D01*
X128184240Y-85323498D01*
X128184242Y-85323498D01*
X128142251Y-85312247D01*
X128076018Y-85294500D01*
X127963982Y-85294500D01*
X127897748Y-85312247D01*
X127855758Y-85323498D01*
X127758739Y-85379513D01*
X127679513Y-85458739D01*
X127623498Y-85555758D01*
X127623497Y-85555763D01*
X127594500Y-85663982D01*
X122360989Y-85663982D01*
X123365475Y-84659496D01*
X123419992Y-84631719D01*
X123435479Y-84630500D01*
X126649382Y-84630500D01*
X126707573Y-84649407D01*
X126743537Y-84698907D01*
X126745009Y-84755123D01*
X126743498Y-84760760D01*
X126743497Y-84760763D01*
X126714500Y-84868982D01*
X126714500Y-84981018D01*
X126717064Y-84990586D01*
X126743498Y-85089241D01*
X126799513Y-85186260D01*
X126799515Y-85186263D01*
X126878737Y-85265485D01*
X126911079Y-85284157D01*
X126975759Y-85321501D01*
X126975757Y-85321501D01*
X126975761Y-85321502D01*
X126975763Y-85321503D01*
X127083982Y-85350500D01*
X127083984Y-85350500D01*
X127196016Y-85350500D01*
X127196018Y-85350500D01*
X127304237Y-85321503D01*
X127304239Y-85321501D01*
X127304241Y-85321501D01*
X127333064Y-85304859D01*
X127401263Y-85265485D01*
X127480485Y-85186263D01*
X127536503Y-85089237D01*
X127565500Y-84981018D01*
X127565500Y-84868982D01*
X127536503Y-84760763D01*
X127536501Y-84760760D01*
X127534991Y-84755123D01*
X127538194Y-84694022D01*
X127576699Y-84646472D01*
X127630618Y-84630500D01*
X144638745Y-84630500D01*
X144696936Y-84649407D01*
X144732900Y-84698907D01*
X144732900Y-84760093D01*
X144708750Y-84799501D01*
X144679515Y-84828737D01*
X144679513Y-84828739D01*
X144623498Y-84925758D01*
X144623497Y-84925763D01*
X144594500Y-85033982D01*
X144594500Y-85146018D01*
X144611429Y-85209199D01*
X144623498Y-85254241D01*
X144679074Y-85350500D01*
X144679515Y-85351263D01*
X144758737Y-85430485D01*
X144758739Y-85430486D01*
X144855759Y-85486501D01*
X144855757Y-85486501D01*
X144855761Y-85486502D01*
X144855763Y-85486503D01*
X144963982Y-85515500D01*
X144963984Y-85515500D01*
X145076016Y-85515500D01*
X145076018Y-85515500D01*
X145184237Y-85486503D01*
X145184239Y-85486501D01*
X145184241Y-85486501D01*
X145220168Y-85465758D01*
X145281263Y-85430485D01*
X145360485Y-85351263D01*
X145399859Y-85283064D01*
X145416501Y-85254241D01*
X145416501Y-85254239D01*
X145416503Y-85254237D01*
X145445500Y-85146018D01*
X145445500Y-85033982D01*
X145416503Y-84925763D01*
X145416501Y-84925760D01*
X145416501Y-84925758D01*
X145360486Y-84828739D01*
X145360485Y-84828737D01*
X145331249Y-84799501D01*
X145303474Y-84744987D01*
X145313045Y-84684555D01*
X145356310Y-84641290D01*
X145401255Y-84630500D01*
X153384521Y-84630500D01*
X153442712Y-84649407D01*
X153454525Y-84659496D01*
X156492314Y-87697285D01*
X156520091Y-87751802D01*
X156510520Y-87812234D01*
X156473435Y-87852066D01*
X156461449Y-87859293D01*
X156445763Y-87863497D01*
X156348737Y-87919515D01*
X156329211Y-87939040D01*
X156318870Y-87945277D01*
X156300259Y-87949605D01*
X156283232Y-87958281D01*
X156267745Y-87959500D01*
X146954905Y-87959500D01*
X146896714Y-87940593D01*
X146860750Y-87891093D01*
X146859284Y-87886143D01*
X146856503Y-87875763D01*
X146800485Y-87778737D01*
X146721263Y-87699515D01*
X146697886Y-87686018D01*
X146624240Y-87643498D01*
X146624242Y-87643498D01*
X146582251Y-87632247D01*
X146516018Y-87614500D01*
X146403982Y-87614500D01*
X146337748Y-87632247D01*
X146295758Y-87643498D01*
X146198739Y-87699513D01*
X146119513Y-87778739D01*
X146063498Y-87875758D01*
X146059344Y-87891263D01*
X146034500Y-87983982D01*
X146034500Y-88096018D01*
X146038176Y-88109737D01*
X146063498Y-88204241D01*
X146107676Y-88280758D01*
X146119515Y-88301263D01*
X146198737Y-88380485D01*
X146213456Y-88388983D01*
X146230158Y-88398626D01*
X146271098Y-88444096D01*
X146277493Y-88504946D01*
X146250661Y-88554366D01*
X142424525Y-92380504D01*
X142370008Y-92408281D01*
X142354521Y-92409500D01*
X138523394Y-92409500D01*
X138465203Y-92390593D01*
X138429239Y-92341093D01*
X138427767Y-92284878D01*
X138430671Y-92274039D01*
X138435500Y-92256018D01*
X138435500Y-92143982D01*
X138406503Y-92035763D01*
X138406501Y-92035760D01*
X138406501Y-92035758D01*
X138350486Y-91938739D01*
X138350485Y-91938737D01*
X138271263Y-91859515D01*
X138254781Y-91849999D01*
X138174240Y-91803498D01*
X138174242Y-91803498D01*
X138132251Y-91792247D01*
X138066018Y-91774500D01*
X137953982Y-91774500D01*
X137887748Y-91792247D01*
X137845758Y-91803498D01*
X137744500Y-91861961D01*
X137684652Y-91874683D01*
X137645500Y-91861961D01*
X137544240Y-91803498D01*
X137544242Y-91803498D01*
X137502251Y-91792247D01*
X137436018Y-91774500D01*
X137323982Y-91774500D01*
X137257748Y-91792247D01*
X137215758Y-91803498D01*
X137118739Y-91859513D01*
X137039513Y-91938739D01*
X136983498Y-92035758D01*
X136978632Y-92053920D01*
X136955906Y-92138737D01*
X136954500Y-92143983D01*
X136954500Y-92256017D01*
X136962233Y-92284878D01*
X136959030Y-92345979D01*
X136920525Y-92393529D01*
X136866606Y-92409500D01*
X129500435Y-92409500D01*
X129424012Y-92429978D01*
X129381173Y-92454710D01*
X129381172Y-92454712D01*
X129378910Y-92456018D01*
X129355489Y-92469540D01*
X126949504Y-94875525D01*
X126894987Y-94903302D01*
X126834555Y-94893731D01*
X126791290Y-94850466D01*
X126780500Y-94805521D01*
X126780500Y-92655478D01*
X126799407Y-92597287D01*
X126809490Y-92585480D01*
X128161926Y-91233043D01*
X128216443Y-91205267D01*
X128276875Y-91214838D01*
X128320140Y-91258103D01*
X128327555Y-91277420D01*
X128333306Y-91298882D01*
X128353498Y-91374241D01*
X128409513Y-91471260D01*
X128409515Y-91471263D01*
X128488737Y-91550485D01*
X128488739Y-91550486D01*
X128585759Y-91606501D01*
X128585757Y-91606501D01*
X128585761Y-91606502D01*
X128585763Y-91606503D01*
X128693982Y-91635500D01*
X128693984Y-91635500D01*
X128806016Y-91635500D01*
X128806018Y-91635500D01*
X128914237Y-91606503D01*
X128914239Y-91606501D01*
X128914241Y-91606501D01*
X128967177Y-91575938D01*
X129011263Y-91550485D01*
X129090485Y-91471263D01*
X129146503Y-91374237D01*
X129175500Y-91266018D01*
X129175500Y-91153982D01*
X129146503Y-91045763D01*
X129146501Y-91045760D01*
X129146501Y-91045758D01*
X129098806Y-90963150D01*
X129090485Y-90948737D01*
X129011263Y-90869515D01*
X128988726Y-90856503D01*
X128949719Y-90833982D01*
X133074500Y-90833982D01*
X133074500Y-90946018D01*
X133077844Y-90958497D01*
X133103498Y-91054241D01*
X133155031Y-91143497D01*
X133159515Y-91151263D01*
X133238737Y-91230485D01*
X133271079Y-91249157D01*
X133335759Y-91286501D01*
X133335757Y-91286501D01*
X133335761Y-91286502D01*
X133335763Y-91286503D01*
X133443982Y-91315500D01*
X133443984Y-91315500D01*
X133556016Y-91315500D01*
X133556018Y-91315500D01*
X133664237Y-91286503D01*
X133664239Y-91286501D01*
X133664241Y-91286501D01*
X133699718Y-91266018D01*
X133761263Y-91230485D01*
X133840485Y-91151263D01*
X133896503Y-91054237D01*
X133925500Y-90946018D01*
X133925500Y-90833982D01*
X133896503Y-90725763D01*
X133896501Y-90725760D01*
X133896501Y-90725758D01*
X133840486Y-90628739D01*
X133840485Y-90628737D01*
X133761263Y-90549515D01*
X133703245Y-90516018D01*
X133664240Y-90493498D01*
X133664242Y-90493498D01*
X133622251Y-90482247D01*
X133556018Y-90464500D01*
X133443982Y-90464500D01*
X133377748Y-90482247D01*
X133335758Y-90493498D01*
X133238739Y-90549513D01*
X133159513Y-90628739D01*
X133103498Y-90725758D01*
X133103497Y-90725763D01*
X133074500Y-90833982D01*
X128949719Y-90833982D01*
X128914240Y-90813498D01*
X128914236Y-90813496D01*
X128817424Y-90787555D01*
X128766110Y-90754231D01*
X128744184Y-90697110D01*
X128760020Y-90638009D01*
X128773039Y-90621930D01*
X130550988Y-88843982D01*
X144344500Y-88843982D01*
X144344500Y-88956018D01*
X144350901Y-88979907D01*
X144373498Y-89064241D01*
X144425461Y-89154241D01*
X144429515Y-89161263D01*
X144508737Y-89240485D01*
X144508739Y-89240486D01*
X144605759Y-89296501D01*
X144605757Y-89296501D01*
X144605761Y-89296502D01*
X144605763Y-89296503D01*
X144713982Y-89325500D01*
X144713984Y-89325500D01*
X144826016Y-89325500D01*
X144826018Y-89325500D01*
X144934237Y-89296503D01*
X144934239Y-89296501D01*
X144934241Y-89296501D01*
X144963064Y-89279859D01*
X145031263Y-89240485D01*
X145110485Y-89161263D01*
X145166503Y-89064237D01*
X145195500Y-88956018D01*
X145195500Y-88843982D01*
X145166503Y-88735763D01*
X145166501Y-88735760D01*
X145166501Y-88735758D01*
X145116708Y-88649515D01*
X145110485Y-88638737D01*
X145031263Y-88559515D01*
X145022345Y-88554366D01*
X144934240Y-88503498D01*
X144934242Y-88503498D01*
X144892251Y-88492247D01*
X144826018Y-88474500D01*
X144713982Y-88474500D01*
X144647748Y-88492247D01*
X144605758Y-88503498D01*
X144508739Y-88559513D01*
X144429513Y-88638739D01*
X144373498Y-88735758D01*
X144373497Y-88735763D01*
X144344500Y-88843982D01*
X130550988Y-88843982D01*
X132005475Y-87389496D01*
X132059992Y-87361719D01*
X132075479Y-87360500D01*
X142017745Y-87360500D01*
X142075936Y-87379407D01*
X142087742Y-87389490D01*
X142098737Y-87400485D01*
X142098739Y-87400486D01*
X142195759Y-87456501D01*
X142195757Y-87456501D01*
X142195761Y-87456502D01*
X142195763Y-87456503D01*
X142303982Y-87485500D01*
X142303984Y-87485500D01*
X142416016Y-87485500D01*
X142416018Y-87485500D01*
X142524237Y-87456503D01*
X142524239Y-87456501D01*
X142524241Y-87456501D01*
X142553064Y-87439859D01*
X142621263Y-87400485D01*
X142627766Y-87393982D01*
X144294500Y-87393982D01*
X144294500Y-87506018D01*
X144312711Y-87573982D01*
X144323498Y-87614241D01*
X144372731Y-87699513D01*
X144379515Y-87711263D01*
X144458737Y-87790485D01*
X144458739Y-87790486D01*
X144555759Y-87846501D01*
X144555757Y-87846501D01*
X144555761Y-87846502D01*
X144555763Y-87846503D01*
X144663982Y-87875500D01*
X144663984Y-87875500D01*
X144776016Y-87875500D01*
X144776018Y-87875500D01*
X144884237Y-87846503D01*
X144884239Y-87846501D01*
X144884241Y-87846501D01*
X144913064Y-87829859D01*
X144981263Y-87790485D01*
X145060485Y-87711263D01*
X145116503Y-87614237D01*
X145145500Y-87506018D01*
X145145500Y-87393982D01*
X145116503Y-87285763D01*
X145116501Y-87285760D01*
X145116501Y-87285758D01*
X145060486Y-87188739D01*
X145060485Y-87188737D01*
X144981263Y-87109515D01*
X144981260Y-87109513D01*
X144884240Y-87053498D01*
X144884242Y-87053498D01*
X144842251Y-87042247D01*
X144776018Y-87024500D01*
X144663982Y-87024500D01*
X144597748Y-87042247D01*
X144555758Y-87053498D01*
X144458739Y-87109513D01*
X144379513Y-87188739D01*
X144323498Y-87285758D01*
X144313986Y-87321260D01*
X144294500Y-87393982D01*
X142627766Y-87393982D01*
X142700485Y-87321263D01*
X142756503Y-87224237D01*
X142785500Y-87116018D01*
X142785500Y-87003982D01*
X142756503Y-86895763D01*
X142756501Y-86895760D01*
X142756501Y-86895758D01*
X142700486Y-86798739D01*
X142700485Y-86798737D01*
X142621263Y-86719515D01*
X142621260Y-86719513D01*
X142524240Y-86663498D01*
X142524242Y-86663498D01*
X142482251Y-86652247D01*
X142416018Y-86634500D01*
X142303982Y-86634500D01*
X142237748Y-86652247D01*
X142195758Y-86663498D01*
X142098739Y-86719513D01*
X142098737Y-86719514D01*
X142098737Y-86719515D01*
X142087746Y-86730505D01*
X142033232Y-86758281D01*
X142017745Y-86759500D01*
X131949562Y-86759500D01*
X131870438Y-86759500D01*
X131826653Y-86771232D01*
X131794007Y-86779979D01*
X131725493Y-86819536D01*
X131725492Y-86819537D01*
X130732229Y-87812799D01*
X130677712Y-87840576D01*
X130617280Y-87831005D01*
X130574015Y-87787740D01*
X130571133Y-87781488D01*
X130523806Y-87699515D01*
X130514985Y-87684237D01*
X130435763Y-87605015D01*
X130435760Y-87605013D01*
X130338740Y-87548998D01*
X130338742Y-87548998D01*
X130296751Y-87537747D01*
X130230518Y-87520000D01*
X130118482Y-87520000D01*
X130052248Y-87537747D01*
X130010258Y-87548998D01*
X129913239Y-87605013D01*
X129834013Y-87684239D01*
X129777998Y-87781258D01*
X129769698Y-87812234D01*
X129749901Y-87886122D01*
X129749000Y-87889483D01*
X129749000Y-87951568D01*
X129730093Y-88009759D01*
X129680593Y-88045723D01*
X129624377Y-88047194D01*
X129521018Y-88019500D01*
X129408982Y-88019500D01*
X129342748Y-88037247D01*
X129300758Y-88048498D01*
X129203739Y-88104513D01*
X129124513Y-88183739D01*
X129068498Y-88280758D01*
X129053627Y-88336260D01*
X129041777Y-88380486D01*
X129039500Y-88388983D01*
X129039500Y-88501015D01*
X129039499Y-88501015D01*
X129068498Y-88609241D01*
X129112527Y-88685500D01*
X129124515Y-88706263D01*
X129203737Y-88785485D01*
X129203739Y-88785486D01*
X129300759Y-88841501D01*
X129300757Y-88841501D01*
X129300761Y-88841502D01*
X129300763Y-88841503D01*
X129408982Y-88870500D01*
X129408984Y-88870500D01*
X129435521Y-88870500D01*
X129493712Y-88889407D01*
X129529676Y-88938907D01*
X129529676Y-89000093D01*
X129505524Y-89039504D01*
X128833691Y-89711335D01*
X128779175Y-89739112D01*
X128718743Y-89729541D01*
X128675478Y-89686276D01*
X128667381Y-89660195D01*
X128667179Y-89660250D01*
X128665794Y-89655084D01*
X128665534Y-89654244D01*
X128665500Y-89653989D01*
X128665500Y-89653982D01*
X128636503Y-89545763D01*
X128636501Y-89545760D01*
X128636501Y-89545758D01*
X128580486Y-89448739D01*
X128580485Y-89448737D01*
X128501263Y-89369515D01*
X128501260Y-89369513D01*
X128404240Y-89313498D01*
X128404242Y-89313498D01*
X128362251Y-89302247D01*
X128296018Y-89284500D01*
X128183982Y-89284500D01*
X128117748Y-89302247D01*
X128075758Y-89313498D01*
X127978739Y-89369513D01*
X127899513Y-89448739D01*
X127843498Y-89545758D01*
X127835529Y-89575500D01*
X127814500Y-89653982D01*
X127814500Y-89766018D01*
X127818585Y-89781262D01*
X127843498Y-89874241D01*
X127890336Y-89955365D01*
X127899515Y-89971263D01*
X127978737Y-90050485D01*
X128001276Y-90063498D01*
X128075759Y-90106501D01*
X128075757Y-90106501D01*
X128075761Y-90106502D01*
X128075763Y-90106503D01*
X128183982Y-90135500D01*
X128183989Y-90135500D01*
X128184244Y-90135534D01*
X128184414Y-90135615D01*
X128190250Y-90137179D01*
X128189960Y-90138259D01*
X128239472Y-90161870D01*
X128268672Y-90215638D01*
X128260691Y-90276301D01*
X128241335Y-90303692D01*
X126295489Y-92249540D01*
X126295488Y-92249539D01*
X126239539Y-92305489D01*
X126199980Y-92374007D01*
X126199978Y-92374011D01*
X126179500Y-92450435D01*
X126179500Y-94884521D01*
X126160593Y-94942712D01*
X126150504Y-94954525D01*
X122075489Y-99029540D01*
X122075488Y-99029539D01*
X122019539Y-99085489D01*
X121979980Y-99154007D01*
X121979978Y-99154011D01*
X121959500Y-99230435D01*
X121959500Y-99607744D01*
X121940593Y-99665935D01*
X121930506Y-99677745D01*
X121919514Y-99688736D01*
X121863498Y-99785758D01*
X121853458Y-99823228D01*
X121834500Y-99893982D01*
X121834500Y-100006018D01*
X121848943Y-100059921D01*
X121863498Y-100114241D01*
X121919513Y-100211260D01*
X121919515Y-100211263D01*
X121998737Y-100290485D01*
X121998739Y-100290486D01*
X122095759Y-100346501D01*
X122095757Y-100346501D01*
X122095761Y-100346502D01*
X122095763Y-100346503D01*
X122203982Y-100375500D01*
X122203984Y-100375500D01*
X122316016Y-100375500D01*
X122316018Y-100375500D01*
X122424237Y-100346503D01*
X122424239Y-100346501D01*
X122424241Y-100346501D01*
X122457430Y-100327339D01*
X122521263Y-100290485D01*
X122600485Y-100211263D01*
X122656503Y-100114237D01*
X122685500Y-100006018D01*
X122685500Y-99893982D01*
X122656503Y-99785763D01*
X122656501Y-99785760D01*
X122656501Y-99785758D01*
X122600485Y-99688736D01*
X122589494Y-99677745D01*
X122585868Y-99670629D01*
X122579407Y-99665935D01*
X122572242Y-99643885D01*
X122561718Y-99623228D01*
X122560500Y-99607744D01*
X122560500Y-99435479D01*
X122579407Y-99377288D01*
X122589496Y-99365475D01*
X125240496Y-96714475D01*
X125295013Y-96686698D01*
X125355445Y-96696269D01*
X125398710Y-96739534D01*
X125409500Y-96784479D01*
X125409500Y-99025929D01*
X125390593Y-99084120D01*
X125341093Y-99120084D01*
X125279907Y-99120084D01*
X125230407Y-99084120D01*
X125224764Y-99075430D01*
X125207783Y-99046018D01*
X125180485Y-98998737D01*
X125101263Y-98919515D01*
X125101260Y-98919513D01*
X125004240Y-98863498D01*
X125004242Y-98863498D01*
X124962251Y-98852247D01*
X124896018Y-98834500D01*
X124783982Y-98834500D01*
X124717748Y-98852247D01*
X124675758Y-98863498D01*
X124578736Y-98919514D01*
X124567242Y-98931009D01*
X124512725Y-98958785D01*
X124452293Y-98949211D01*
X124414783Y-98913615D01*
X124414434Y-98913883D01*
X124412742Y-98911678D01*
X124411506Y-98910505D01*
X124410486Y-98908739D01*
X124410485Y-98908737D01*
X124331263Y-98829515D01*
X124331260Y-98829513D01*
X124234240Y-98773498D01*
X124234242Y-98773498D01*
X124179159Y-98758739D01*
X124126018Y-98744500D01*
X124013982Y-98744500D01*
X123960841Y-98758739D01*
X123905758Y-98773498D01*
X123808739Y-98829513D01*
X123729513Y-98908739D01*
X123673498Y-99005758D01*
X123667901Y-99026648D01*
X123644500Y-99113982D01*
X123644500Y-99226018D01*
X123667616Y-99312288D01*
X123673498Y-99334241D01*
X123729513Y-99431260D01*
X123729515Y-99431263D01*
X123808737Y-99510485D01*
X123822297Y-99518314D01*
X123905759Y-99566501D01*
X123905757Y-99566501D01*
X123905761Y-99566502D01*
X123905763Y-99566503D01*
X124013982Y-99595500D01*
X124013984Y-99595500D01*
X124126016Y-99595500D01*
X124126018Y-99595500D01*
X124234237Y-99566503D01*
X124234239Y-99566501D01*
X124234241Y-99566501D01*
X124257138Y-99553281D01*
X124331263Y-99510485D01*
X124342754Y-99498993D01*
X124397268Y-99471215D01*
X124457700Y-99480785D01*
X124495217Y-99516384D01*
X124495566Y-99516117D01*
X124497252Y-99518314D01*
X124498491Y-99519490D01*
X124499515Y-99521263D01*
X124578737Y-99600485D01*
X124578739Y-99600486D01*
X124675759Y-99656501D01*
X124675757Y-99656501D01*
X124675761Y-99656502D01*
X124675763Y-99656503D01*
X124783982Y-99685500D01*
X124783984Y-99685500D01*
X124896016Y-99685500D01*
X124896018Y-99685500D01*
X125004237Y-99656503D01*
X125004239Y-99656501D01*
X125004241Y-99656501D01*
X125044337Y-99633351D01*
X125101263Y-99600485D01*
X125180485Y-99521263D01*
X125224764Y-99444570D01*
X125270233Y-99403629D01*
X125331083Y-99397233D01*
X125384071Y-99427826D01*
X125408958Y-99483722D01*
X125409500Y-99494070D01*
X125409500Y-99807744D01*
X125390593Y-99865935D01*
X125380506Y-99877745D01*
X125369514Y-99888736D01*
X125313498Y-99985758D01*
X125307737Y-100007260D01*
X125284500Y-100093982D01*
X125284500Y-100206018D01*
X125289749Y-100225606D01*
X125313498Y-100314241D01*
X125368495Y-100409496D01*
X125369515Y-100411263D01*
X125448737Y-100490485D01*
X125448739Y-100490486D01*
X125545759Y-100546501D01*
X125545757Y-100546501D01*
X125545761Y-100546502D01*
X125545763Y-100546503D01*
X125653982Y-100575500D01*
X125653984Y-100575500D01*
X125766016Y-100575500D01*
X125766018Y-100575500D01*
X125874237Y-100546503D01*
X125874239Y-100546501D01*
X125874241Y-100546501D01*
X125904551Y-100529001D01*
X125971263Y-100490485D01*
X126050485Y-100411263D01*
X126106503Y-100314237D01*
X126135500Y-100206018D01*
X126135500Y-100093982D01*
X126106503Y-99985763D01*
X126106501Y-99985760D01*
X126106501Y-99985758D01*
X126050485Y-99888736D01*
X126039494Y-99877745D01*
X126035868Y-99870629D01*
X126029407Y-99865935D01*
X126022242Y-99843885D01*
X126011718Y-99823228D01*
X126010500Y-99807744D01*
X126010500Y-99633351D01*
X126029407Y-99575160D01*
X126078907Y-99539196D01*
X126140093Y-99539196D01*
X126189593Y-99575160D01*
X126195227Y-99583836D01*
X126199515Y-99591263D01*
X126278737Y-99670485D01*
X126291312Y-99677745D01*
X126375759Y-99726501D01*
X126375757Y-99726501D01*
X126375761Y-99726502D01*
X126375763Y-99726503D01*
X126483982Y-99755500D01*
X126483984Y-99755500D01*
X126596016Y-99755500D01*
X126596018Y-99755500D01*
X126704237Y-99726503D01*
X126704239Y-99726501D01*
X126704241Y-99726501D01*
X126761405Y-99693497D01*
X126801263Y-99670485D01*
X126880485Y-99591263D01*
X126923871Y-99516117D01*
X126936501Y-99494241D01*
X126936501Y-99494239D01*
X126936503Y-99494237D01*
X126965500Y-99386018D01*
X126965500Y-99370479D01*
X126984407Y-99312288D01*
X126994496Y-99300475D01*
X128075475Y-98219496D01*
X128129992Y-98191719D01*
X128145479Y-98190500D01*
X129888745Y-98190500D01*
X129946936Y-98209407D01*
X129982900Y-98258907D01*
X129982900Y-98320093D01*
X129958750Y-98359501D01*
X129938253Y-98379999D01*
X129924513Y-98393739D01*
X129868498Y-98490758D01*
X129868497Y-98490763D01*
X129839500Y-98598982D01*
X129839500Y-98711018D01*
X129859726Y-98786503D01*
X129868498Y-98819241D01*
X129921868Y-98911678D01*
X129924515Y-98916263D01*
X130003737Y-98995485D01*
X130021530Y-99005758D01*
X130100759Y-99051501D01*
X130100757Y-99051501D01*
X130100761Y-99051502D01*
X130100763Y-99051503D01*
X130208982Y-99080500D01*
X130208984Y-99080500D01*
X130321016Y-99080500D01*
X130321018Y-99080500D01*
X130429237Y-99051503D01*
X130429239Y-99051501D01*
X130429241Y-99051501D01*
X130473532Y-99025929D01*
X130526263Y-98995485D01*
X130605485Y-98916263D01*
X130657735Y-98825763D01*
X130661501Y-98819241D01*
X130661501Y-98819240D01*
X130661503Y-98819237D01*
X130684911Y-98731874D01*
X130718234Y-98680563D01*
X130775355Y-98658636D01*
X130780537Y-98658500D01*
X132189822Y-98658500D01*
X132248013Y-98677407D01*
X132283977Y-98726907D01*
X132285447Y-98783123D01*
X132283223Y-98791426D01*
X132274500Y-98823979D01*
X132274500Y-98823982D01*
X132274500Y-98936018D01*
X132291306Y-98998738D01*
X132303498Y-99044241D01*
X132353589Y-99131000D01*
X132366311Y-99190848D01*
X132341424Y-99246744D01*
X132288436Y-99277337D01*
X132267853Y-99279500D01*
X129480435Y-99279500D01*
X129404012Y-99299978D01*
X129359861Y-99325469D01*
X129359860Y-99325468D01*
X129335488Y-99339540D01*
X129149524Y-99525504D01*
X129095008Y-99553281D01*
X129079521Y-99554500D01*
X129063982Y-99554500D01*
X128997748Y-99572247D01*
X128955758Y-99583498D01*
X128858739Y-99639513D01*
X128779513Y-99718739D01*
X128723498Y-99815758D01*
X128708796Y-99870629D01*
X128694500Y-99923982D01*
X128694500Y-100036018D01*
X128710032Y-100093983D01*
X128723498Y-100144241D01*
X128762194Y-100211263D01*
X128779515Y-100241263D01*
X128858737Y-100320485D01*
X128891079Y-100339157D01*
X128955759Y-100376501D01*
X128955757Y-100376501D01*
X128955761Y-100376502D01*
X128955763Y-100376503D01*
X129063982Y-100405500D01*
X129063984Y-100405500D01*
X129176016Y-100405500D01*
X129176018Y-100405500D01*
X129284237Y-100376503D01*
X129284239Y-100376501D01*
X129284241Y-100376501D01*
X129327959Y-100351260D01*
X129381263Y-100320485D01*
X129460485Y-100241263D01*
X129516503Y-100144237D01*
X129545500Y-100036018D01*
X129545500Y-100020479D01*
X129547968Y-100012881D01*
X129546719Y-100004992D01*
X129557243Y-99984336D01*
X129564407Y-99962288D01*
X129574496Y-99950475D01*
X129615475Y-99909496D01*
X129669992Y-99881719D01*
X129685479Y-99880500D01*
X131613927Y-99880500D01*
X131672118Y-99899407D01*
X131708082Y-99948907D01*
X131709553Y-100005124D01*
X131704500Y-100023979D01*
X131704500Y-100023982D01*
X131704500Y-100136018D01*
X131723256Y-100206016D01*
X131733498Y-100244241D01*
X131777519Y-100320486D01*
X131789515Y-100341263D01*
X131868737Y-100420485D01*
X131901079Y-100439157D01*
X131965759Y-100476501D01*
X131965757Y-100476501D01*
X131965761Y-100476502D01*
X131965763Y-100476503D01*
X132073982Y-100505500D01*
X132073984Y-100505500D01*
X132186016Y-100505500D01*
X132186018Y-100505500D01*
X132294237Y-100476503D01*
X132294239Y-100476501D01*
X132294241Y-100476501D01*
X132323064Y-100459859D01*
X132391263Y-100420485D01*
X132402253Y-100409494D01*
X132456768Y-100381719D01*
X132472255Y-100380500D01*
X133540533Y-100380500D01*
X133598724Y-100399407D01*
X133634688Y-100448907D01*
X133634688Y-100510093D01*
X133626269Y-100529001D01*
X133593498Y-100585760D01*
X133593497Y-100585762D01*
X133593497Y-100585763D01*
X133564500Y-100693982D01*
X133564500Y-100806018D01*
X133581306Y-100868739D01*
X133593498Y-100914241D01*
X133649513Y-101011260D01*
X133649515Y-101011263D01*
X133728737Y-101090485D01*
X133728739Y-101090486D01*
X133825759Y-101146501D01*
X133825757Y-101146501D01*
X133825761Y-101146502D01*
X133825763Y-101146503D01*
X133933982Y-101175500D01*
X133933984Y-101175500D01*
X134046016Y-101175500D01*
X134046018Y-101175500D01*
X134154237Y-101146503D01*
X134154239Y-101146501D01*
X134154241Y-101146501D01*
X134207480Y-101115763D01*
X134251263Y-101090485D01*
X134330485Y-101011263D01*
X134386503Y-100914237D01*
X134415500Y-100806018D01*
X134415500Y-100693982D01*
X134386503Y-100585763D01*
X134353730Y-100528999D01*
X134341009Y-100469153D01*
X134365895Y-100413257D01*
X134418883Y-100382664D01*
X134439467Y-100380500D01*
X136811098Y-100380500D01*
X136869289Y-100399407D01*
X136905253Y-100448907D01*
X136906724Y-100505121D01*
X136883250Y-100592732D01*
X136883250Y-100704768D01*
X136896104Y-100752740D01*
X136912248Y-100812991D01*
X136968263Y-100910010D01*
X136968265Y-100910013D01*
X137047487Y-100989235D01*
X137047489Y-100989236D01*
X137144509Y-101045251D01*
X137144507Y-101045251D01*
X137144511Y-101045252D01*
X137144513Y-101045253D01*
X137252732Y-101074250D01*
X137252734Y-101074250D01*
X137364766Y-101074250D01*
X137364768Y-101074250D01*
X137472987Y-101045253D01*
X137472989Y-101045251D01*
X137472991Y-101045251D01*
X137501814Y-101028609D01*
X137570013Y-100989235D01*
X137649235Y-100910013D01*
X137705253Y-100812987D01*
X137734250Y-100704768D01*
X137734250Y-100592732D01*
X137710775Y-100505121D01*
X137713978Y-100444021D01*
X137752483Y-100396471D01*
X137806402Y-100380500D01*
X147289563Y-100380500D01*
X147289563Y-100380499D01*
X147365989Y-100360021D01*
X147434511Y-100320460D01*
X147490460Y-100264511D01*
X148815496Y-98939475D01*
X148870013Y-98911698D01*
X148930445Y-98921269D01*
X148973710Y-98964534D01*
X148984500Y-99009479D01*
X148984500Y-99046018D01*
X149007271Y-99131000D01*
X149013498Y-99154241D01*
X149066415Y-99245894D01*
X149069515Y-99251263D01*
X149148737Y-99330485D01*
X149173818Y-99344965D01*
X149214758Y-99390433D01*
X149221155Y-99451283D01*
X149194322Y-99500705D01*
X147244525Y-101450504D01*
X147190008Y-101478281D01*
X147174521Y-101479500D01*
X142266073Y-101479500D01*
X142207882Y-101460593D01*
X142171918Y-101411093D01*
X142170447Y-101354876D01*
X142175500Y-101336018D01*
X142175500Y-101223982D01*
X142146503Y-101115763D01*
X142146501Y-101115760D01*
X142146501Y-101115758D01*
X142090486Y-101018739D01*
X142090485Y-101018737D01*
X142011263Y-100939515D01*
X142011260Y-100939513D01*
X141914240Y-100883498D01*
X141914242Y-100883498D01*
X141859159Y-100868739D01*
X141806018Y-100854500D01*
X141693982Y-100854500D01*
X141640841Y-100868739D01*
X141585758Y-100883498D01*
X141488739Y-100939513D01*
X141409513Y-101018739D01*
X141353498Y-101115758D01*
X141324500Y-101223983D01*
X141324500Y-101336020D01*
X141329553Y-101354876D01*
X141326352Y-101415978D01*
X141287847Y-101463528D01*
X141233927Y-101479500D01*
X128718912Y-101479500D01*
X128660721Y-101460593D01*
X128633176Y-101430000D01*
X128580486Y-101338739D01*
X128580485Y-101338737D01*
X128501263Y-101259515D01*
X128501260Y-101259513D01*
X128404240Y-101203498D01*
X128404242Y-101203498D01*
X128362251Y-101192247D01*
X128296018Y-101174500D01*
X128183982Y-101174500D01*
X128117748Y-101192247D01*
X128075758Y-101203498D01*
X127978739Y-101259513D01*
X127899513Y-101338739D01*
X127843498Y-101435758D01*
X127842577Y-101439196D01*
X127819184Y-101526503D01*
X127814500Y-101543983D01*
X127814500Y-101624019D01*
X127795593Y-101682210D01*
X127746093Y-101718174D01*
X127684907Y-101718174D01*
X127655235Y-101702563D01*
X127651260Y-101699513D01*
X127554240Y-101643498D01*
X127554242Y-101643498D01*
X127512251Y-101632247D01*
X127446018Y-101614500D01*
X127333982Y-101614500D01*
X127267748Y-101632247D01*
X127225758Y-101643498D01*
X127128739Y-101699513D01*
X127049513Y-101778739D01*
X126993498Y-101875758D01*
X126980507Y-101924241D01*
X126964500Y-101983982D01*
X126964500Y-102096018D01*
X126989552Y-102189513D01*
X126993498Y-102204241D01*
X127049368Y-102301009D01*
X127049515Y-102301263D01*
X127128737Y-102380485D01*
X127128739Y-102380486D01*
X127225759Y-102436501D01*
X127225757Y-102436501D01*
X127225761Y-102436502D01*
X127225763Y-102436503D01*
X127333982Y-102465500D01*
X127360371Y-102465500D01*
X127409871Y-102478763D01*
X127464012Y-102510022D01*
X127540438Y-102530500D01*
X127540440Y-102530500D01*
X147539563Y-102530500D01*
X147539563Y-102530499D01*
X147615989Y-102510021D01*
X147684511Y-102470460D01*
X147740460Y-102414511D01*
X147749041Y-102405930D01*
X150369500Y-102405930D01*
X150369500Y-102534069D01*
X150394499Y-102659742D01*
X150394500Y-102659747D01*
X150443534Y-102778125D01*
X150443538Y-102778133D01*
X150481353Y-102834726D01*
X150514724Y-102884669D01*
X150514727Y-102884672D01*
X150605331Y-102975276D01*
X150661317Y-103012685D01*
X150699196Y-103060735D01*
X150701598Y-103121874D01*
X150667604Y-103172747D01*
X150661317Y-103177315D01*
X150605331Y-103214723D01*
X150514727Y-103305327D01*
X150514724Y-103305331D01*
X150443538Y-103411866D01*
X150443534Y-103411874D01*
X150394500Y-103530252D01*
X150394499Y-103530257D01*
X150369500Y-103655930D01*
X150369500Y-103784069D01*
X150394499Y-103909742D01*
X150394500Y-103909747D01*
X150443534Y-104028125D01*
X150443538Y-104028133D01*
X150464494Y-104059495D01*
X150514724Y-104134669D01*
X150514727Y-104134672D01*
X150605331Y-104225276D01*
X150653834Y-104257685D01*
X150691713Y-104305735D01*
X150694115Y-104366874D01*
X150660121Y-104417747D01*
X150653834Y-104422315D01*
X150605331Y-104454723D01*
X150514727Y-104545327D01*
X150514724Y-104545331D01*
X150443538Y-104651866D01*
X150443534Y-104651874D01*
X150394500Y-104770252D01*
X150394499Y-104770255D01*
X150394499Y-104770256D01*
X150388052Y-104802665D01*
X150370580Y-104890504D01*
X150369500Y-104895931D01*
X150369500Y-105024069D01*
X150385128Y-105102636D01*
X150394499Y-105149742D01*
X150394500Y-105149747D01*
X150443534Y-105268125D01*
X150443538Y-105268133D01*
X150469042Y-105306301D01*
X150514724Y-105374669D01*
X150514727Y-105374672D01*
X150605331Y-105465276D01*
X150661317Y-105502685D01*
X150699196Y-105550735D01*
X150701598Y-105611874D01*
X150667604Y-105662747D01*
X150661317Y-105667315D01*
X150605331Y-105704723D01*
X150514727Y-105795327D01*
X150514724Y-105795331D01*
X150443538Y-105901866D01*
X150443534Y-105901874D01*
X150394500Y-106020252D01*
X150394499Y-106020255D01*
X150394499Y-106020256D01*
X150387326Y-106056316D01*
X150380730Y-106089478D01*
X150369500Y-106145931D01*
X150369500Y-106274069D01*
X150390320Y-106378737D01*
X150394499Y-106399742D01*
X150394500Y-106399747D01*
X150443534Y-106518125D01*
X150443538Y-106518133D01*
X150462495Y-106546503D01*
X150514724Y-106624669D01*
X150514727Y-106624672D01*
X150605331Y-106715276D01*
X150669249Y-106757985D01*
X150707128Y-106806035D01*
X150709530Y-106867173D01*
X150675537Y-106918047D01*
X150669249Y-106922615D01*
X150605653Y-106965108D01*
X150515109Y-107055652D01*
X150443976Y-107162112D01*
X150419999Y-107219999D01*
X150419999Y-107220000D01*
X151085009Y-107220000D01*
X151049921Y-107255088D01*
X151003841Y-107334901D01*
X150979988Y-107423920D01*
X150979988Y-107516080D01*
X151003841Y-107605099D01*
X151049921Y-107684912D01*
X151085009Y-107720000D01*
X150419999Y-107720000D01*
X150443976Y-107777887D01*
X150515109Y-107884347D01*
X150544406Y-107913644D01*
X150572183Y-107968161D01*
X150562612Y-108028593D01*
X150519347Y-108071858D01*
X150493720Y-108080745D01*
X150491771Y-108081132D01*
X150491766Y-108081134D01*
X150425451Y-108125445D01*
X150425445Y-108125451D01*
X150381134Y-108191766D01*
X150381132Y-108191772D01*
X150369501Y-108250241D01*
X150369500Y-108250253D01*
X150369500Y-109189746D01*
X150369501Y-109189758D01*
X150381132Y-109248227D01*
X150381133Y-109248231D01*
X150425448Y-109314552D01*
X150491769Y-109358867D01*
X150536231Y-109367711D01*
X150550241Y-109370498D01*
X150550246Y-109370498D01*
X150550252Y-109370500D01*
X150550253Y-109370500D01*
X152109747Y-109370500D01*
X152109748Y-109370500D01*
X152168231Y-109358867D01*
X152234552Y-109314552D01*
X152278867Y-109248231D01*
X152290500Y-109189748D01*
X152290500Y-108841982D01*
X154107500Y-108841982D01*
X154107500Y-108954018D01*
X154133072Y-109049455D01*
X154136498Y-109062241D01*
X154192513Y-109159260D01*
X154192515Y-109159263D01*
X154271737Y-109238485D01*
X154304079Y-109257157D01*
X154368759Y-109294501D01*
X154368757Y-109294501D01*
X154368761Y-109294502D01*
X154368763Y-109294503D01*
X154476982Y-109323500D01*
X154476984Y-109323500D01*
X154589016Y-109323500D01*
X154589018Y-109323500D01*
X154697237Y-109294503D01*
X154697239Y-109294501D01*
X154697241Y-109294501D01*
X154726064Y-109277859D01*
X154794263Y-109238485D01*
X154873485Y-109159263D01*
X154922646Y-109074114D01*
X154929501Y-109062241D01*
X154929501Y-109062239D01*
X154929503Y-109062237D01*
X154958500Y-108954018D01*
X154958500Y-108841982D01*
X154929503Y-108733763D01*
X154929501Y-108733760D01*
X154929501Y-108733758D01*
X154873486Y-108636739D01*
X154873485Y-108636737D01*
X154794263Y-108557515D01*
X154794260Y-108557513D01*
X154697240Y-108501498D01*
X154697242Y-108501498D01*
X154655251Y-108490247D01*
X154589018Y-108472500D01*
X154476982Y-108472500D01*
X154410748Y-108490247D01*
X154368758Y-108501498D01*
X154271739Y-108557513D01*
X154192513Y-108636739D01*
X154136498Y-108733758D01*
X154129129Y-108761260D01*
X154107500Y-108841982D01*
X152290500Y-108841982D01*
X152290500Y-108250252D01*
X152278867Y-108191769D01*
X152234552Y-108125448D01*
X152202814Y-108104241D01*
X152168233Y-108081134D01*
X152168228Y-108081132D01*
X152166280Y-108080745D01*
X152163404Y-108079134D01*
X152159224Y-108077403D01*
X152159413Y-108076945D01*
X152151736Y-108076677D01*
X152133305Y-108062277D01*
X152112897Y-108050847D01*
X152109643Y-108043790D01*
X152103522Y-108039007D01*
X152097075Y-108016524D01*
X152087283Y-107995282D01*
X152088798Y-107987661D01*
X152086657Y-107980192D01*
X152093344Y-107964812D01*
X152099221Y-107935272D01*
X152107585Y-107922697D01*
X152137833Y-107883982D01*
X155444500Y-107883982D01*
X155444500Y-107996018D01*
X155461513Y-108059513D01*
X155473498Y-108104241D01*
X155524035Y-108191772D01*
X155529515Y-108201263D01*
X155608737Y-108280485D01*
X155641079Y-108299157D01*
X155705759Y-108336501D01*
X155705757Y-108336501D01*
X155705761Y-108336502D01*
X155705763Y-108336503D01*
X155813982Y-108365500D01*
X155813984Y-108365500D01*
X155926016Y-108365500D01*
X155926018Y-108365500D01*
X156034237Y-108336503D01*
X156131263Y-108280485D01*
X156131264Y-108280483D01*
X156133723Y-108279064D01*
X156193572Y-108266342D01*
X156249467Y-108291228D01*
X156280060Y-108344216D01*
X156278851Y-108390422D01*
X156264500Y-108443982D01*
X156264500Y-108556018D01*
X156286129Y-108636739D01*
X156293498Y-108664241D01*
X156337519Y-108740486D01*
X156349515Y-108761263D01*
X156428737Y-108840485D01*
X156428739Y-108840486D01*
X156525759Y-108896501D01*
X156525757Y-108896501D01*
X156525761Y-108896502D01*
X156525763Y-108896503D01*
X156633982Y-108925500D01*
X156633984Y-108925500D01*
X156746016Y-108925500D01*
X156746018Y-108925500D01*
X156854237Y-108896503D01*
X156854239Y-108896501D01*
X156854241Y-108896501D01*
X156883064Y-108879859D01*
X156951263Y-108840485D01*
X157030485Y-108761263D01*
X157086503Y-108664237D01*
X157115500Y-108556018D01*
X157115500Y-108443982D01*
X157086503Y-108335763D01*
X157086501Y-108335760D01*
X157086501Y-108335758D01*
X157030486Y-108238739D01*
X157030485Y-108238737D01*
X156951263Y-108159515D01*
X156951260Y-108159513D01*
X156854240Y-108103498D01*
X156854242Y-108103498D01*
X156812251Y-108092247D01*
X156746018Y-108074500D01*
X156633982Y-108074500D01*
X156579872Y-108088998D01*
X156525761Y-108103497D01*
X156426275Y-108160936D01*
X156366426Y-108173657D01*
X156310531Y-108148770D01*
X156279938Y-108095782D01*
X156281148Y-108049577D01*
X156295500Y-107996018D01*
X156295500Y-107883982D01*
X156266503Y-107775763D01*
X156266501Y-107775760D01*
X156266501Y-107775758D01*
X156210486Y-107678739D01*
X156210485Y-107678737D01*
X156131263Y-107599515D01*
X156107886Y-107586018D01*
X156034240Y-107543498D01*
X156034242Y-107543498D01*
X155992251Y-107532247D01*
X155926018Y-107514500D01*
X155813982Y-107514500D01*
X155747748Y-107532247D01*
X155705758Y-107543498D01*
X155608739Y-107599513D01*
X155529513Y-107678739D01*
X155473498Y-107775758D01*
X155469344Y-107791263D01*
X155444500Y-107883982D01*
X152137833Y-107883982D01*
X152188256Y-107819444D01*
X152216023Y-107777887D01*
X152240001Y-107720000D01*
X151574991Y-107720000D01*
X151610079Y-107684912D01*
X151656159Y-107605099D01*
X151680012Y-107516080D01*
X151680012Y-107423920D01*
X151657926Y-107341494D01*
X178679500Y-107341494D01*
X178679500Y-107678505D01*
X178717232Y-108013392D01*
X178792224Y-108341957D01*
X178903530Y-108660049D01*
X178903531Y-108660051D01*
X179049746Y-108963671D01*
X179049752Y-108963683D01*
X179049754Y-108963686D01*
X179222422Y-109238485D01*
X179229056Y-109249042D01*
X179229058Y-109249045D01*
X179439165Y-109512512D01*
X179439171Y-109512518D01*
X179439175Y-109512523D01*
X179677477Y-109750825D01*
X179677481Y-109750828D01*
X179677487Y-109750834D01*
X179940954Y-109960941D01*
X179940958Y-109960943D01*
X179940961Y-109960946D01*
X180120086Y-110073498D01*
X180226316Y-110140247D01*
X180226328Y-110140253D01*
X180327205Y-110188832D01*
X180529949Y-110286469D01*
X180678440Y-110338428D01*
X180848042Y-110397775D01*
X180848045Y-110397775D01*
X180848046Y-110397776D01*
X181176606Y-110472767D01*
X181511496Y-110510500D01*
X181511497Y-110510500D01*
X181848503Y-110510500D01*
X181848504Y-110510500D01*
X182183394Y-110472767D01*
X182511954Y-110397776D01*
X182830051Y-110286469D01*
X183133686Y-110140246D01*
X183419039Y-109960946D01*
X183682523Y-109750825D01*
X183920825Y-109512523D01*
X183983459Y-109433983D01*
X184130941Y-109249045D01*
X184130946Y-109249039D01*
X184310246Y-108963686D01*
X184456469Y-108660051D01*
X184560388Y-108363067D01*
X184567775Y-108341957D01*
X184569020Y-108336503D01*
X184642767Y-108013394D01*
X184680500Y-107678504D01*
X184680500Y-107341496D01*
X184642767Y-107006606D01*
X184567776Y-106678046D01*
X184456469Y-106359949D01*
X184350057Y-106138982D01*
X184310253Y-106056328D01*
X184310247Y-106056316D01*
X184294188Y-106030758D01*
X184130946Y-105770961D01*
X184130943Y-105770957D01*
X184130941Y-105770954D01*
X183920834Y-105507487D01*
X183920828Y-105507481D01*
X183920825Y-105507477D01*
X183682523Y-105269175D01*
X183682518Y-105269171D01*
X183682512Y-105269165D01*
X183419045Y-105059058D01*
X183419042Y-105059056D01*
X183287722Y-104976542D01*
X183187389Y-104913498D01*
X183133683Y-104879752D01*
X183133671Y-104879746D01*
X182830051Y-104733531D01*
X182830049Y-104733530D01*
X182511957Y-104622224D01*
X182183392Y-104547232D01*
X181848505Y-104509500D01*
X181848504Y-104509500D01*
X181511496Y-104509500D01*
X181511494Y-104509500D01*
X181176607Y-104547232D01*
X180848042Y-104622224D01*
X180529950Y-104733530D01*
X180529948Y-104733531D01*
X180226328Y-104879746D01*
X180226316Y-104879752D01*
X179940957Y-105059056D01*
X179940954Y-105059058D01*
X179677487Y-105269165D01*
X179439165Y-105507487D01*
X179229058Y-105770954D01*
X179229056Y-105770957D01*
X179049752Y-106056316D01*
X179049746Y-106056328D01*
X178903531Y-106359948D01*
X178903530Y-106359950D01*
X178792224Y-106678042D01*
X178717232Y-107006607D01*
X178679500Y-107341494D01*
X151657926Y-107341494D01*
X151656159Y-107334901D01*
X151610079Y-107255088D01*
X151574991Y-107220000D01*
X152240001Y-107220000D01*
X152240000Y-107219999D01*
X152216023Y-107162112D01*
X152144890Y-107055652D01*
X152054347Y-106965109D01*
X151990751Y-106922616D01*
X151952871Y-106874566D01*
X151950469Y-106813428D01*
X151984461Y-106762554D01*
X151990750Y-106757985D01*
X151998959Y-106752500D01*
X152054669Y-106715276D01*
X152145276Y-106624669D01*
X152216465Y-106518127D01*
X152265501Y-106399744D01*
X152290500Y-106274069D01*
X152290500Y-106145931D01*
X152265501Y-106020256D01*
X152216465Y-105901873D01*
X152216463Y-105901870D01*
X152216461Y-105901866D01*
X152184820Y-105854513D01*
X152145276Y-105795331D01*
X152113927Y-105763982D01*
X155504500Y-105763982D01*
X155504500Y-105876018D01*
X155519095Y-105930486D01*
X155533498Y-105984241D01*
X155580551Y-106065737D01*
X155589515Y-106081263D01*
X155668737Y-106160485D01*
X155668739Y-106160486D01*
X155765759Y-106216501D01*
X155765757Y-106216501D01*
X155765761Y-106216502D01*
X155765763Y-106216503D01*
X155873982Y-106245500D01*
X155873984Y-106245500D01*
X155986016Y-106245500D01*
X155986018Y-106245500D01*
X156094237Y-106216503D01*
X156094239Y-106216501D01*
X156094241Y-106216501D01*
X156151405Y-106183497D01*
X156191263Y-106160485D01*
X156270485Y-106081263D01*
X156309859Y-106013064D01*
X156326501Y-105984241D01*
X156326501Y-105984239D01*
X156326503Y-105984237D01*
X156355500Y-105876018D01*
X156355500Y-105763982D01*
X156326503Y-105655763D01*
X156326501Y-105655760D01*
X156326501Y-105655758D01*
X156270486Y-105558739D01*
X156270485Y-105558737D01*
X156191263Y-105479515D01*
X156191260Y-105479513D01*
X156094240Y-105423498D01*
X156094242Y-105423498D01*
X156052251Y-105412247D01*
X155986018Y-105394500D01*
X155873982Y-105394500D01*
X155807748Y-105412247D01*
X155765758Y-105423498D01*
X155668739Y-105479513D01*
X155589513Y-105558739D01*
X155533498Y-105655758D01*
X155529563Y-105670445D01*
X155504500Y-105763982D01*
X152113927Y-105763982D01*
X152054669Y-105704724D01*
X151998681Y-105667314D01*
X151960803Y-105619265D01*
X151958401Y-105558127D01*
X151992394Y-105507253D01*
X151998682Y-105502685D01*
X152054669Y-105465276D01*
X152145276Y-105374669D01*
X152216465Y-105268127D01*
X152222324Y-105253982D01*
X172714500Y-105253982D01*
X172714500Y-105366018D01*
X172740072Y-105461455D01*
X172743498Y-105474241D01*
X172791931Y-105558127D01*
X172799515Y-105571263D01*
X172878737Y-105650485D01*
X172878739Y-105650486D01*
X172975759Y-105706501D01*
X172975757Y-105706501D01*
X172975761Y-105706502D01*
X172975763Y-105706503D01*
X173083982Y-105735500D01*
X173083984Y-105735500D01*
X173196016Y-105735500D01*
X173196018Y-105735500D01*
X173304237Y-105706503D01*
X173304239Y-105706501D01*
X173304241Y-105706501D01*
X173366691Y-105670445D01*
X173401263Y-105650485D01*
X173480485Y-105571263D01*
X173536503Y-105474237D01*
X173565500Y-105366018D01*
X173565500Y-105253982D01*
X173536503Y-105145763D01*
X173536501Y-105145760D01*
X173536501Y-105145758D01*
X173486443Y-105059056D01*
X173480485Y-105048737D01*
X173401263Y-104969515D01*
X173401260Y-104969513D01*
X173304240Y-104913498D01*
X173304242Y-104913498D01*
X173255746Y-104900504D01*
X173196018Y-104884500D01*
X173083982Y-104884500D01*
X173024254Y-104900504D01*
X172975758Y-104913498D01*
X172878739Y-104969513D01*
X172799513Y-105048739D01*
X172743498Y-105145758D01*
X172730507Y-105194241D01*
X172714500Y-105253982D01*
X152222324Y-105253982D01*
X152265501Y-105149744D01*
X152290500Y-105024069D01*
X152290500Y-104895931D01*
X152265501Y-104770256D01*
X152216465Y-104651873D01*
X152216463Y-104651870D01*
X152216461Y-104651866D01*
X152184811Y-104604500D01*
X152145276Y-104545331D01*
X152054669Y-104454724D01*
X152006164Y-104422314D01*
X151968286Y-104374265D01*
X151965884Y-104313127D01*
X151999877Y-104262253D01*
X152006165Y-104257685D01*
X152054669Y-104225276D01*
X152145276Y-104134669D01*
X152216465Y-104028127D01*
X152265501Y-103909744D01*
X152290500Y-103784069D01*
X152290500Y-103655931D01*
X152265501Y-103530256D01*
X152216465Y-103411873D01*
X152216463Y-103411870D01*
X152216461Y-103411866D01*
X152168440Y-103339999D01*
X152145276Y-103305331D01*
X152054669Y-103214724D01*
X151995304Y-103175058D01*
X151992136Y-103172543D01*
X151977351Y-103150257D01*
X151960803Y-103129265D01*
X151960637Y-103125063D01*
X151958312Y-103121557D01*
X151959450Y-103094840D01*
X151958401Y-103068127D01*
X151960737Y-103064629D01*
X151960917Y-103060427D01*
X151977536Y-103039488D01*
X151992394Y-103017253D01*
X151998682Y-103012685D01*
X152054669Y-102975276D01*
X152145276Y-102884669D01*
X152216465Y-102778127D01*
X152265501Y-102659744D01*
X152290500Y-102534069D01*
X152290500Y-102473982D01*
X154884500Y-102473982D01*
X154884500Y-102586018D01*
X154904329Y-102660020D01*
X154913498Y-102694241D01*
X154961931Y-102778127D01*
X154969515Y-102791263D01*
X155048737Y-102870485D01*
X155048739Y-102870486D01*
X155145759Y-102926501D01*
X155145757Y-102926501D01*
X155145761Y-102926502D01*
X155145763Y-102926503D01*
X155253982Y-102955500D01*
X155253984Y-102955500D01*
X155366016Y-102955500D01*
X155366018Y-102955500D01*
X155474237Y-102926503D01*
X155474239Y-102926501D01*
X155474241Y-102926501D01*
X155503064Y-102909859D01*
X155571263Y-102870485D01*
X155650485Y-102791263D01*
X155706503Y-102694237D01*
X155735500Y-102586018D01*
X155735500Y-102473982D01*
X155706503Y-102365763D01*
X155706501Y-102365760D01*
X155706501Y-102365758D01*
X155660131Y-102285445D01*
X177290000Y-102285445D01*
X177290000Y-102474554D01*
X177326891Y-102660020D01*
X177399257Y-102834726D01*
X177416264Y-102860180D01*
X177801982Y-102474462D01*
X177823958Y-102556473D01*
X177884149Y-102660727D01*
X177969273Y-102745851D01*
X178073527Y-102806042D01*
X178155535Y-102828016D01*
X177769817Y-103213735D01*
X177795269Y-103230741D01*
X177969979Y-103303108D01*
X178155445Y-103339999D01*
X178155449Y-103340000D01*
X178344551Y-103340000D01*
X178344554Y-103339999D01*
X178530020Y-103303108D01*
X178704730Y-103230741D01*
X178730181Y-103213735D01*
X178344462Y-102828016D01*
X178426473Y-102806042D01*
X178530727Y-102745851D01*
X178615851Y-102660727D01*
X178676042Y-102556473D01*
X178698016Y-102474462D01*
X179083735Y-102860181D01*
X179100741Y-102834730D01*
X179173108Y-102660020D01*
X179209999Y-102474554D01*
X179210000Y-102474550D01*
X179210000Y-102291306D01*
X180349500Y-102291306D01*
X180349500Y-102468693D01*
X180384106Y-102642665D01*
X180384106Y-102642667D01*
X180451985Y-102806544D01*
X180451985Y-102806545D01*
X180540314Y-102938737D01*
X180550536Y-102954035D01*
X180675965Y-103079464D01*
X180823453Y-103178013D01*
X180987334Y-103245894D01*
X181161309Y-103280500D01*
X181161310Y-103280500D01*
X181338690Y-103280500D01*
X181338691Y-103280500D01*
X181512666Y-103245894D01*
X181607175Y-103206747D01*
X181654624Y-103187094D01*
X181666635Y-103182118D01*
X181676547Y-103178013D01*
X181824035Y-103079464D01*
X181949464Y-102954035D01*
X182048013Y-102806547D01*
X182115894Y-102642666D01*
X182150500Y-102468691D01*
X182150500Y-102293424D01*
X182650000Y-102293424D01*
X182650000Y-102466575D01*
X182677084Y-102637579D01*
X182730588Y-102802248D01*
X182809196Y-102956524D01*
X182813708Y-102962735D01*
X183185387Y-102591055D01*
X183190890Y-102611591D01*
X183269882Y-102748408D01*
X183381592Y-102860118D01*
X183518409Y-102939110D01*
X183538940Y-102944611D01*
X183167262Y-103316289D01*
X183167262Y-103316290D01*
X183173469Y-103320800D01*
X183173475Y-103320804D01*
X183327751Y-103399411D01*
X183492420Y-103452915D01*
X183663425Y-103480000D01*
X183836575Y-103480000D01*
X184007579Y-103452915D01*
X184172248Y-103399411D01*
X184326523Y-103320804D01*
X184326530Y-103320800D01*
X184332736Y-103316290D01*
X183961057Y-102944611D01*
X183981591Y-102939110D01*
X184118408Y-102860118D01*
X184230118Y-102748408D01*
X184309110Y-102611591D01*
X184314611Y-102591057D01*
X184686290Y-102962736D01*
X184690800Y-102956530D01*
X184690804Y-102956523D01*
X184769411Y-102802248D01*
X184822915Y-102637579D01*
X184850000Y-102466575D01*
X184850000Y-102293424D01*
X184822915Y-102122420D01*
X184769411Y-101957751D01*
X184690804Y-101803475D01*
X184690798Y-101803466D01*
X184686290Y-101797262D01*
X184686289Y-101797262D01*
X184314611Y-102168940D01*
X184309110Y-102148409D01*
X184230118Y-102011592D01*
X184118408Y-101899882D01*
X183981591Y-101820890D01*
X183961056Y-101815387D01*
X184332736Y-101443708D01*
X184326524Y-101439196D01*
X184172248Y-101360588D01*
X184007579Y-101307084D01*
X183836575Y-101280000D01*
X183663425Y-101280000D01*
X183492420Y-101307084D01*
X183327751Y-101360588D01*
X183173478Y-101439194D01*
X183167262Y-101443708D01*
X183538942Y-101815388D01*
X183518409Y-101820890D01*
X183381592Y-101899882D01*
X183269882Y-102011592D01*
X183190890Y-102148409D01*
X183185388Y-102168942D01*
X182813708Y-101797262D01*
X182809194Y-101803478D01*
X182730588Y-101957751D01*
X182677084Y-102122420D01*
X182650000Y-102293424D01*
X182150500Y-102293424D01*
X182150500Y-102291309D01*
X182115894Y-102117334D01*
X182048014Y-101953455D01*
X182048014Y-101953454D01*
X181949464Y-101805965D01*
X181824034Y-101680535D01*
X181676546Y-101581986D01*
X181654614Y-101572902D01*
X181654613Y-101572901D01*
X181512666Y-101514106D01*
X181338693Y-101479500D01*
X181338691Y-101479500D01*
X181161309Y-101479500D01*
X181161306Y-101479500D01*
X180987334Y-101514106D01*
X180987332Y-101514106D01*
X180823455Y-101581985D01*
X180823454Y-101581985D01*
X180675965Y-101680535D01*
X180550535Y-101805965D01*
X180451985Y-101953454D01*
X180451985Y-101953455D01*
X180384106Y-102117332D01*
X180384106Y-102117334D01*
X180349500Y-102291306D01*
X179210000Y-102291306D01*
X179210000Y-102285449D01*
X179209999Y-102285445D01*
X179173108Y-102099979D01*
X179100741Y-101925269D01*
X179083734Y-101899817D01*
X178698016Y-102285535D01*
X178676042Y-102203527D01*
X178615851Y-102099273D01*
X178530727Y-102014149D01*
X178426473Y-101953958D01*
X178344461Y-101931982D01*
X178730180Y-101546264D01*
X178704726Y-101529257D01*
X178530020Y-101456891D01*
X178344554Y-101420000D01*
X178155445Y-101420000D01*
X177969979Y-101456891D01*
X177795268Y-101529259D01*
X177769816Y-101546264D01*
X178155536Y-101931983D01*
X178073527Y-101953958D01*
X177969273Y-102014149D01*
X177884149Y-102099273D01*
X177823958Y-102203527D01*
X177801983Y-102285536D01*
X177416264Y-101899816D01*
X177399259Y-101925268D01*
X177326891Y-102099979D01*
X177290000Y-102285445D01*
X155660131Y-102285445D01*
X155650486Y-102268739D01*
X155650485Y-102268737D01*
X155571263Y-102189515D01*
X155564309Y-102185500D01*
X155474240Y-102133498D01*
X155474242Y-102133498D01*
X155413915Y-102117334D01*
X155366018Y-102104500D01*
X155253982Y-102104500D01*
X155206085Y-102117334D01*
X155145758Y-102133498D01*
X155048739Y-102189513D01*
X154969513Y-102268739D01*
X154913498Y-102365758D01*
X154909552Y-102380485D01*
X154884500Y-102473982D01*
X152290500Y-102473982D01*
X152290500Y-102405931D01*
X152265501Y-102280256D01*
X152216465Y-102161873D01*
X152216463Y-102161870D01*
X152216461Y-102161866D01*
X152186704Y-102117332D01*
X152145276Y-102055331D01*
X152054669Y-101964724D01*
X152004530Y-101931222D01*
X151948133Y-101893538D01*
X151948125Y-101893534D01*
X151829747Y-101844500D01*
X151829745Y-101844499D01*
X151829744Y-101844499D01*
X151704069Y-101819500D01*
X150955931Y-101819500D01*
X150955930Y-101819500D01*
X150893093Y-101831999D01*
X150830256Y-101844499D01*
X150830255Y-101844499D01*
X150830252Y-101844500D01*
X150711874Y-101893534D01*
X150711866Y-101893538D01*
X150605331Y-101964724D01*
X150605327Y-101964727D01*
X150514727Y-102055327D01*
X150514724Y-102055331D01*
X150443538Y-102161866D01*
X150443534Y-102161874D01*
X150394500Y-102280252D01*
X150394499Y-102280255D01*
X150394499Y-102280256D01*
X150392300Y-102291310D01*
X150369500Y-102405930D01*
X147749041Y-102405930D01*
X148450989Y-101703982D01*
X174334500Y-101703982D01*
X174334500Y-101816018D01*
X174356954Y-101899817D01*
X174363498Y-101924241D01*
X174419513Y-102021260D01*
X174419515Y-102021263D01*
X174498737Y-102100485D01*
X174498739Y-102100486D01*
X174595759Y-102156501D01*
X174595757Y-102156501D01*
X174595761Y-102156502D01*
X174595763Y-102156503D01*
X174703982Y-102185500D01*
X174703984Y-102185500D01*
X174816017Y-102185500D01*
X174816018Y-102185500D01*
X174924237Y-102156503D01*
X174924239Y-102156501D01*
X174924241Y-102156501D01*
X174964083Y-102133498D01*
X175021263Y-102100485D01*
X175100485Y-102021263D01*
X175152470Y-101931222D01*
X175156501Y-101924241D01*
X175156501Y-101924239D01*
X175156503Y-101924237D01*
X175185500Y-101816018D01*
X175185500Y-101703982D01*
X175156503Y-101595763D01*
X175148549Y-101581987D01*
X175100486Y-101498739D01*
X175100485Y-101498737D01*
X175021263Y-101419515D01*
X175006676Y-101411093D01*
X174924240Y-101363498D01*
X174924242Y-101363498D01*
X174882251Y-101352247D01*
X174816018Y-101334500D01*
X174703982Y-101334500D01*
X174637748Y-101352247D01*
X174595758Y-101363498D01*
X174498739Y-101419513D01*
X174419513Y-101498739D01*
X174363498Y-101595758D01*
X174347352Y-101656018D01*
X174334500Y-101703982D01*
X148450989Y-101703982D01*
X149210989Y-100943982D01*
X156014500Y-100943982D01*
X156014500Y-101056018D01*
X156023736Y-101090486D01*
X156043498Y-101164241D01*
X156098506Y-101259515D01*
X156099515Y-101261263D01*
X156178737Y-101340485D01*
X156178739Y-101340486D01*
X156275759Y-101396501D01*
X156275757Y-101396501D01*
X156275761Y-101396502D01*
X156275763Y-101396503D01*
X156383982Y-101425500D01*
X156383984Y-101425500D01*
X156496016Y-101425500D01*
X156496018Y-101425500D01*
X156604237Y-101396503D01*
X156604239Y-101396501D01*
X156604241Y-101396501D01*
X156661405Y-101363497D01*
X156701263Y-101340485D01*
X156780485Y-101261263D01*
X156828805Y-101177570D01*
X156836501Y-101164241D01*
X156836501Y-101164239D01*
X156836503Y-101164237D01*
X156860687Y-101073982D01*
X157374500Y-101073982D01*
X157374500Y-101186018D01*
X157384673Y-101223983D01*
X157403498Y-101294241D01*
X157459513Y-101391260D01*
X157459515Y-101391263D01*
X157538737Y-101470485D01*
X157571079Y-101489157D01*
X157635759Y-101526501D01*
X157635757Y-101526501D01*
X157635761Y-101526502D01*
X157635763Y-101526503D01*
X157743982Y-101555500D01*
X157743984Y-101555500D01*
X157856016Y-101555500D01*
X157856018Y-101555500D01*
X157964237Y-101526503D01*
X157964239Y-101526501D01*
X157964241Y-101526501D01*
X157993064Y-101509859D01*
X158061263Y-101470485D01*
X158140485Y-101391263D01*
X158196503Y-101294237D01*
X158225500Y-101186018D01*
X158225500Y-101073982D01*
X158196503Y-100965763D01*
X158196501Y-100965760D01*
X158196501Y-100965758D01*
X158140486Y-100868739D01*
X158140485Y-100868737D01*
X158061263Y-100789515D01*
X158044781Y-100779999D01*
X157964240Y-100733498D01*
X157964242Y-100733498D01*
X157922251Y-100722247D01*
X157856018Y-100704500D01*
X157743982Y-100704500D01*
X157677748Y-100722247D01*
X157635758Y-100733498D01*
X157538739Y-100789513D01*
X157459513Y-100868739D01*
X157403498Y-100965758D01*
X157403497Y-100965763D01*
X157374500Y-101073982D01*
X156860687Y-101073982D01*
X156865500Y-101056018D01*
X156865500Y-100943982D01*
X156836503Y-100835763D01*
X156836501Y-100835760D01*
X156836501Y-100835758D01*
X156780486Y-100738739D01*
X156780485Y-100738737D01*
X156701263Y-100659515D01*
X156671829Y-100642521D01*
X156604240Y-100603498D01*
X156604242Y-100603498D01*
X156538052Y-100585763D01*
X156496018Y-100574500D01*
X156383982Y-100574500D01*
X156341948Y-100585763D01*
X156275758Y-100603498D01*
X156178739Y-100659513D01*
X156099513Y-100738739D01*
X156043498Y-100835758D01*
X156027286Y-100896263D01*
X156014500Y-100943982D01*
X149210989Y-100943982D01*
X150120989Y-100033982D01*
X172314500Y-100033982D01*
X172314500Y-100146018D01*
X172331982Y-100211263D01*
X172343498Y-100254241D01*
X172399513Y-100351260D01*
X172399515Y-100351263D01*
X172478737Y-100430485D01*
X172478739Y-100430486D01*
X172575759Y-100486501D01*
X172575757Y-100486501D01*
X172575761Y-100486502D01*
X172575763Y-100486503D01*
X172683982Y-100515500D01*
X172683984Y-100515500D01*
X172796016Y-100515500D01*
X172796018Y-100515500D01*
X172904237Y-100486503D01*
X172904239Y-100486501D01*
X172904241Y-100486501D01*
X172935175Y-100468641D01*
X173001263Y-100430485D01*
X173080485Y-100351263D01*
X173115072Y-100291355D01*
X180350000Y-100291355D01*
X180350000Y-100468644D01*
X180384586Y-100642519D01*
X180384586Y-100642521D01*
X180452428Y-100806307D01*
X180459521Y-100816923D01*
X180850001Y-100426443D01*
X180850001Y-100432661D01*
X180877260Y-100534394D01*
X180929921Y-100625605D01*
X181004395Y-100700079D01*
X181095606Y-100752740D01*
X181197339Y-100779999D01*
X181203553Y-100779999D01*
X180813075Y-101170477D01*
X180823690Y-101177570D01*
X180823693Y-101177571D01*
X180987479Y-101245413D01*
X181161355Y-101279999D01*
X181161359Y-101280000D01*
X181338641Y-101280000D01*
X181338644Y-101279999D01*
X181512518Y-101245414D01*
X181676311Y-101177568D01*
X181676316Y-101177566D01*
X181686923Y-101170477D01*
X181296445Y-100779999D01*
X181302661Y-100779999D01*
X181404394Y-100752740D01*
X181495605Y-100700079D01*
X181570079Y-100625605D01*
X181622740Y-100534394D01*
X181649999Y-100432661D01*
X181649999Y-100426445D01*
X182040477Y-100816923D01*
X182047566Y-100806316D01*
X182047568Y-100806311D01*
X182115414Y-100642518D01*
X182149999Y-100468644D01*
X182150000Y-100468641D01*
X182150000Y-100291358D01*
X182149999Y-100291355D01*
X182115413Y-100117480D01*
X182115413Y-100117478D01*
X182047571Y-99953693D01*
X182047570Y-99953690D01*
X182040476Y-99943075D01*
X181649999Y-100333552D01*
X181649999Y-100327339D01*
X181622740Y-100225606D01*
X181570079Y-100134395D01*
X181495605Y-100059921D01*
X181404394Y-100007260D01*
X181302661Y-99980001D01*
X181296443Y-99980001D01*
X181686923Y-99589521D01*
X181676307Y-99582428D01*
X181512520Y-99514586D01*
X181338644Y-99480000D01*
X181161355Y-99480000D01*
X180987481Y-99514585D01*
X180823689Y-99582430D01*
X180813075Y-99589521D01*
X181203555Y-99980001D01*
X181197339Y-99980001D01*
X181095606Y-100007260D01*
X181004395Y-100059921D01*
X180929921Y-100134395D01*
X180877260Y-100225606D01*
X180850001Y-100327339D01*
X180850001Y-100333555D01*
X180459521Y-99943075D01*
X180452430Y-99953689D01*
X180384585Y-100117481D01*
X180350000Y-100291355D01*
X173115072Y-100291355D01*
X173119859Y-100283064D01*
X173136501Y-100254241D01*
X173136501Y-100254239D01*
X173136503Y-100254237D01*
X173165500Y-100146018D01*
X173165500Y-100033982D01*
X173136503Y-99925763D01*
X173136501Y-99925760D01*
X173136501Y-99925758D01*
X173080486Y-99828739D01*
X173080485Y-99828737D01*
X173001263Y-99749515D01*
X172961402Y-99726501D01*
X172936547Y-99712151D01*
X172936545Y-99712149D01*
X172904240Y-99693498D01*
X172904242Y-99693498D01*
X172845449Y-99677745D01*
X172796018Y-99664500D01*
X172683982Y-99664500D01*
X172634551Y-99677745D01*
X172575758Y-99693498D01*
X172478739Y-99749513D01*
X172399513Y-99828739D01*
X172343498Y-99925758D01*
X172336875Y-99950475D01*
X172314500Y-100033982D01*
X150120989Y-100033982D01*
X151190989Y-98963982D01*
X154194500Y-98963982D01*
X154194500Y-99076018D01*
X154211982Y-99141263D01*
X154223498Y-99184241D01*
X154277248Y-99277337D01*
X154279515Y-99281263D01*
X154358737Y-99360485D01*
X154358739Y-99360486D01*
X154455759Y-99416501D01*
X154455757Y-99416501D01*
X154455761Y-99416502D01*
X154455763Y-99416503D01*
X154563982Y-99445500D01*
X154563984Y-99445500D01*
X154676016Y-99445500D01*
X154676018Y-99445500D01*
X154784237Y-99416503D01*
X154784239Y-99416501D01*
X154784241Y-99416501D01*
X154817614Y-99397233D01*
X154881263Y-99360485D01*
X154960485Y-99281263D01*
X155016503Y-99184237D01*
X155045500Y-99076018D01*
X155045500Y-98963982D01*
X155016503Y-98855763D01*
X155016501Y-98855760D01*
X155016501Y-98855758D01*
X154960486Y-98758739D01*
X154960485Y-98758737D01*
X154881263Y-98679515D01*
X154877612Y-98677407D01*
X154784240Y-98623498D01*
X154784242Y-98623498D01*
X154738579Y-98611263D01*
X154676018Y-98594500D01*
X154563982Y-98594500D01*
X154501421Y-98611263D01*
X154455758Y-98623498D01*
X154358739Y-98679513D01*
X154279513Y-98758739D01*
X154223498Y-98855758D01*
X154216798Y-98880763D01*
X154194500Y-98963982D01*
X151190989Y-98963982D01*
X151820989Y-98333982D01*
X164214500Y-98333982D01*
X164214500Y-98446018D01*
X164229649Y-98502555D01*
X164243498Y-98554241D01*
X164298506Y-98649515D01*
X164299515Y-98651263D01*
X164378737Y-98730485D01*
X164378739Y-98730486D01*
X164475759Y-98786501D01*
X164475757Y-98786501D01*
X164475761Y-98786502D01*
X164475763Y-98786503D01*
X164583982Y-98815500D01*
X164583984Y-98815500D01*
X164696016Y-98815500D01*
X164696018Y-98815500D01*
X164804237Y-98786503D01*
X164804239Y-98786501D01*
X164804241Y-98786501D01*
X164833064Y-98769859D01*
X164901263Y-98730485D01*
X164980485Y-98651263D01*
X165036503Y-98554237D01*
X165065500Y-98446018D01*
X165065500Y-98333982D01*
X165062486Y-98322733D01*
X165059914Y-98313134D01*
X165059909Y-98313116D01*
X165054782Y-98293982D01*
X165944500Y-98293982D01*
X165944500Y-98406018D01*
X165958694Y-98458991D01*
X165973498Y-98514241D01*
X166022425Y-98598983D01*
X166029515Y-98611263D01*
X166108737Y-98690485D01*
X166108739Y-98690486D01*
X166205759Y-98746501D01*
X166205757Y-98746501D01*
X166205761Y-98746502D01*
X166205763Y-98746503D01*
X166313982Y-98775500D01*
X166313984Y-98775500D01*
X166426016Y-98775500D01*
X166426018Y-98775500D01*
X166534237Y-98746503D01*
X166534239Y-98746501D01*
X166534241Y-98746501D01*
X166587480Y-98715763D01*
X166631263Y-98690485D01*
X166710485Y-98611263D01*
X166766503Y-98514237D01*
X166795500Y-98406018D01*
X166795500Y-98293982D01*
X166793199Y-98285396D01*
X177289500Y-98285396D01*
X177289500Y-98285399D01*
X177289500Y-98474601D01*
X177326107Y-98658636D01*
X177326412Y-98660166D01*
X177326412Y-98660168D01*
X177398815Y-98834966D01*
X177429416Y-98880763D01*
X177503931Y-98992283D01*
X177637717Y-99126069D01*
X177795033Y-99231184D01*
X177969833Y-99303588D01*
X178155399Y-99340500D01*
X178155400Y-99340500D01*
X178344600Y-99340500D01*
X178344601Y-99340500D01*
X178530167Y-99303588D01*
X178704967Y-99231184D01*
X178862283Y-99126069D01*
X178996069Y-98992283D01*
X179101184Y-98834967D01*
X179173588Y-98660167D01*
X179210500Y-98474601D01*
X179210500Y-98291306D01*
X180349500Y-98291306D01*
X180349500Y-98468693D01*
X180384106Y-98642665D01*
X180384106Y-98642667D01*
X180451985Y-98806544D01*
X180451985Y-98806545D01*
X180550535Y-98954034D01*
X180550536Y-98954035D01*
X180675965Y-99079464D01*
X180823453Y-99178013D01*
X180987334Y-99245894D01*
X181161309Y-99280500D01*
X181161310Y-99280500D01*
X181338690Y-99280500D01*
X181338691Y-99280500D01*
X181512666Y-99245894D01*
X181613852Y-99203982D01*
X181654624Y-99187094D01*
X181670543Y-99180500D01*
X181676547Y-99178013D01*
X181824035Y-99079464D01*
X181949464Y-98954035D01*
X182048013Y-98806547D01*
X182115894Y-98642666D01*
X182150500Y-98468691D01*
X182150500Y-98293424D01*
X182650000Y-98293424D01*
X182650000Y-98466575D01*
X182677084Y-98637579D01*
X182730588Y-98802248D01*
X182809196Y-98956524D01*
X182813708Y-98962735D01*
X183185387Y-98591055D01*
X183190890Y-98611591D01*
X183269882Y-98748408D01*
X183381592Y-98860118D01*
X183518409Y-98939110D01*
X183538940Y-98944611D01*
X183167262Y-99316289D01*
X183167262Y-99316290D01*
X183173469Y-99320800D01*
X183173475Y-99320804D01*
X183327751Y-99399411D01*
X183492420Y-99452915D01*
X183663425Y-99480000D01*
X183836575Y-99480000D01*
X184007579Y-99452915D01*
X184172248Y-99399411D01*
X184326523Y-99320804D01*
X184326530Y-99320800D01*
X184332736Y-99316290D01*
X183961057Y-98944611D01*
X183981591Y-98939110D01*
X184118408Y-98860118D01*
X184230118Y-98748408D01*
X184309110Y-98611591D01*
X184314611Y-98591057D01*
X184686290Y-98962736D01*
X184690800Y-98956530D01*
X184690804Y-98956523D01*
X184769411Y-98802248D01*
X184822915Y-98637579D01*
X184850000Y-98466575D01*
X184850000Y-98293424D01*
X184822915Y-98122420D01*
X184769411Y-97957751D01*
X184690804Y-97803475D01*
X184690800Y-97803469D01*
X184686290Y-97797262D01*
X184686289Y-97797262D01*
X184314611Y-98168940D01*
X184309110Y-98148409D01*
X184230118Y-98011592D01*
X184118408Y-97899882D01*
X183981591Y-97820890D01*
X183961056Y-97815387D01*
X184332736Y-97443708D01*
X184326524Y-97439196D01*
X184172248Y-97360588D01*
X184007579Y-97307084D01*
X183836575Y-97280000D01*
X183663425Y-97280000D01*
X183492420Y-97307084D01*
X183327751Y-97360588D01*
X183173478Y-97439194D01*
X183167262Y-97443708D01*
X183538942Y-97815388D01*
X183518409Y-97820890D01*
X183381592Y-97899882D01*
X183269882Y-98011592D01*
X183190890Y-98148409D01*
X183185388Y-98168942D01*
X182813708Y-97797262D01*
X182809194Y-97803478D01*
X182730588Y-97957751D01*
X182677084Y-98122420D01*
X182650000Y-98293424D01*
X182150500Y-98293424D01*
X182150500Y-98291309D01*
X182115894Y-98117334D01*
X182064600Y-97993497D01*
X182048014Y-97953455D01*
X182048014Y-97953454D01*
X181949464Y-97805965D01*
X181824034Y-97680535D01*
X181676546Y-97581986D01*
X181654614Y-97572902D01*
X181654613Y-97572901D01*
X181512666Y-97514106D01*
X181338693Y-97479500D01*
X181338691Y-97479500D01*
X181161309Y-97479500D01*
X181161306Y-97479500D01*
X180987334Y-97514106D01*
X180987332Y-97514106D01*
X180823455Y-97581985D01*
X180823454Y-97581985D01*
X180675965Y-97680535D01*
X180550535Y-97805965D01*
X180451985Y-97953454D01*
X180451985Y-97953455D01*
X180384106Y-98117332D01*
X180384106Y-98117334D01*
X180349500Y-98291306D01*
X179210500Y-98291306D01*
X179210500Y-98285399D01*
X179173588Y-98099833D01*
X179101184Y-97925033D01*
X178996069Y-97767717D01*
X178862283Y-97633931D01*
X178728446Y-97544504D01*
X178704966Y-97528815D01*
X178530167Y-97456412D01*
X178344603Y-97419500D01*
X178344601Y-97419500D01*
X178155399Y-97419500D01*
X178155396Y-97419500D01*
X177969833Y-97456412D01*
X177969831Y-97456412D01*
X177795033Y-97528815D01*
X177637717Y-97633931D01*
X177637713Y-97633934D01*
X177503934Y-97767713D01*
X177503931Y-97767717D01*
X177398815Y-97925033D01*
X177326412Y-98099831D01*
X177326412Y-98099833D01*
X177289500Y-98285396D01*
X166793199Y-98285396D01*
X166766503Y-98185763D01*
X166766501Y-98185760D01*
X166766501Y-98185758D01*
X166710486Y-98088739D01*
X166710485Y-98088737D01*
X166631263Y-98009515D01*
X166631260Y-98009513D01*
X166534240Y-97953498D01*
X166534242Y-97953498D01*
X166492251Y-97942247D01*
X166426018Y-97924500D01*
X166313982Y-97924500D01*
X166247748Y-97942247D01*
X166205758Y-97953498D01*
X166108739Y-98009513D01*
X166029513Y-98088739D01*
X165973498Y-98185758D01*
X165964458Y-98219496D01*
X165944500Y-98293982D01*
X165054782Y-98293982D01*
X165036503Y-98225763D01*
X165036501Y-98225760D01*
X165036501Y-98225758D01*
X164984969Y-98136503D01*
X164980485Y-98128737D01*
X164901263Y-98049515D01*
X164901260Y-98049513D01*
X164804240Y-97993498D01*
X164804242Y-97993498D01*
X164755839Y-97980529D01*
X164696018Y-97964500D01*
X164583982Y-97964500D01*
X164524161Y-97980529D01*
X164475758Y-97993498D01*
X164378739Y-98049513D01*
X164299513Y-98128739D01*
X164243498Y-98225758D01*
X164234726Y-98258497D01*
X164214500Y-98333982D01*
X151820989Y-98333982D01*
X152470989Y-97683982D01*
X156744500Y-97683982D01*
X156744500Y-97796018D01*
X156767145Y-97880529D01*
X156773498Y-97904241D01*
X156825031Y-97993497D01*
X156829515Y-98001263D01*
X156908737Y-98080485D01*
X156908739Y-98080486D01*
X157005759Y-98136501D01*
X157005757Y-98136501D01*
X157005761Y-98136502D01*
X157005763Y-98136503D01*
X157113982Y-98165500D01*
X157113984Y-98165500D01*
X157226016Y-98165500D01*
X157226018Y-98165500D01*
X157334237Y-98136503D01*
X157334239Y-98136501D01*
X157334241Y-98136501D01*
X157397751Y-98099833D01*
X157431263Y-98080485D01*
X157510485Y-98001263D01*
X157552837Y-97927907D01*
X157566501Y-97904241D01*
X157566501Y-97904239D01*
X157566503Y-97904237D01*
X157595500Y-97796018D01*
X157595500Y-97683982D01*
X157566503Y-97575763D01*
X157566501Y-97575760D01*
X157566501Y-97575758D01*
X157511943Y-97481263D01*
X157510485Y-97478737D01*
X157431263Y-97399515D01*
X157408357Y-97386290D01*
X157334240Y-97343498D01*
X157334242Y-97343498D01*
X157288579Y-97331263D01*
X157226018Y-97314500D01*
X157113982Y-97314500D01*
X157051421Y-97331263D01*
X157005758Y-97343498D01*
X156908739Y-97399513D01*
X156829513Y-97478739D01*
X156773498Y-97575758D01*
X156771829Y-97581987D01*
X156744500Y-97683982D01*
X152470989Y-97683982D01*
X153965475Y-96189496D01*
X154019992Y-96161719D01*
X154035479Y-96160500D01*
X155218745Y-96160500D01*
X155276936Y-96179407D01*
X155312900Y-96228907D01*
X155312900Y-96290093D01*
X155288750Y-96329501D01*
X155273752Y-96344500D01*
X155269513Y-96348739D01*
X155213498Y-96445758D01*
X155213497Y-96445763D01*
X155184500Y-96553982D01*
X155184500Y-96666018D01*
X155210072Y-96761455D01*
X155213498Y-96774241D01*
X155263741Y-96861263D01*
X155269515Y-96871263D01*
X155348737Y-96950485D01*
X155376478Y-96966501D01*
X155445759Y-97006501D01*
X155445757Y-97006501D01*
X155445761Y-97006502D01*
X155445763Y-97006503D01*
X155553982Y-97035500D01*
X155553984Y-97035500D01*
X155666016Y-97035500D01*
X155666018Y-97035500D01*
X155774237Y-97006503D01*
X155774239Y-97006501D01*
X155774241Y-97006501D01*
X155834505Y-96971707D01*
X155871263Y-96950485D01*
X155950485Y-96871263D01*
X155998723Y-96787712D01*
X156006501Y-96774241D01*
X156006501Y-96774239D01*
X156006503Y-96774237D01*
X156035500Y-96666018D01*
X156035500Y-96553982D01*
X156006503Y-96445763D01*
X156006501Y-96445760D01*
X156006501Y-96445758D01*
X155950486Y-96348739D01*
X155950485Y-96348737D01*
X155931249Y-96329501D01*
X155903474Y-96274987D01*
X155913045Y-96214555D01*
X155956310Y-96171290D01*
X156001255Y-96160500D01*
X157388745Y-96160500D01*
X157446936Y-96179407D01*
X157482900Y-96228907D01*
X157482900Y-96290093D01*
X157458750Y-96329501D01*
X157449515Y-96338737D01*
X157449513Y-96338739D01*
X157393498Y-96435758D01*
X157388462Y-96454554D01*
X157364500Y-96543982D01*
X157364500Y-96656018D01*
X157384195Y-96729521D01*
X157393498Y-96764241D01*
X157432194Y-96831263D01*
X157449515Y-96861263D01*
X157528737Y-96940485D01*
X157528739Y-96940486D01*
X157625759Y-96996501D01*
X157625757Y-96996501D01*
X157625761Y-96996502D01*
X157625763Y-96996503D01*
X157733982Y-97025500D01*
X157733984Y-97025500D01*
X157846016Y-97025500D01*
X157846018Y-97025500D01*
X157954237Y-96996503D01*
X157954239Y-96996501D01*
X157954241Y-96996501D01*
X157997185Y-96971707D01*
X158051263Y-96940485D01*
X158130485Y-96861263D01*
X158180727Y-96774241D01*
X158186501Y-96764241D01*
X158186501Y-96764239D01*
X158186503Y-96764237D01*
X158215500Y-96656018D01*
X158215500Y-96543982D01*
X158186503Y-96435763D01*
X158186501Y-96435760D01*
X158186501Y-96435758D01*
X158136260Y-96348739D01*
X158130485Y-96338737D01*
X158121249Y-96329501D01*
X158093474Y-96274987D01*
X158103045Y-96214555D01*
X158146310Y-96171290D01*
X158191255Y-96160500D01*
X171110500Y-96160500D01*
X171168691Y-96179407D01*
X171204655Y-96228907D01*
X171209500Y-96259500D01*
X171209500Y-96329746D01*
X171209501Y-96329758D01*
X171221132Y-96388227D01*
X171221134Y-96388233D01*
X171259572Y-96445758D01*
X171265448Y-96454552D01*
X171331769Y-96498867D01*
X171376231Y-96507711D01*
X171390241Y-96510498D01*
X171390246Y-96510498D01*
X171390252Y-96510500D01*
X171390253Y-96510500D01*
X172929747Y-96510500D01*
X172929748Y-96510500D01*
X172988231Y-96498867D01*
X173054552Y-96454552D01*
X173098867Y-96388231D01*
X173110500Y-96329748D01*
X173110500Y-95593982D01*
X183444500Y-95593982D01*
X183444500Y-95706018D01*
X183465325Y-95783737D01*
X183473498Y-95814241D01*
X183529513Y-95911260D01*
X183529515Y-95911263D01*
X183608737Y-95990485D01*
X183608739Y-95990486D01*
X183705759Y-96046501D01*
X183705757Y-96046501D01*
X183705761Y-96046502D01*
X183705763Y-96046503D01*
X183813982Y-96075500D01*
X183813984Y-96075500D01*
X183926016Y-96075500D01*
X183926018Y-96075500D01*
X184034237Y-96046503D01*
X184034239Y-96046501D01*
X184034241Y-96046501D01*
X184063064Y-96029859D01*
X184131263Y-95990485D01*
X184210485Y-95911263D01*
X184266503Y-95814237D01*
X184295500Y-95706018D01*
X184295500Y-95593982D01*
X184266503Y-95485763D01*
X184266501Y-95485760D01*
X184266501Y-95485758D01*
X184213513Y-95393982D01*
X184210485Y-95388737D01*
X184131263Y-95309515D01*
X184131260Y-95309513D01*
X184034240Y-95253498D01*
X184034242Y-95253498D01*
X183975016Y-95237629D01*
X183926018Y-95224500D01*
X183813982Y-95224500D01*
X183764984Y-95237629D01*
X183705758Y-95253498D01*
X183608739Y-95309513D01*
X183529513Y-95388739D01*
X183473498Y-95485758D01*
X183464674Y-95518691D01*
X183444500Y-95593982D01*
X173110500Y-95593982D01*
X173110500Y-95390252D01*
X173098867Y-95331769D01*
X173067615Y-95284999D01*
X173051008Y-95226115D01*
X173067615Y-95175001D01*
X173098867Y-95128231D01*
X173110500Y-95069748D01*
X173110500Y-95003982D01*
X175314500Y-95003982D01*
X175314500Y-95116018D01*
X175330100Y-95174237D01*
X175343498Y-95224241D01*
X175392731Y-95309513D01*
X175399515Y-95321263D01*
X175478737Y-95400485D01*
X175511079Y-95419157D01*
X175575759Y-95456501D01*
X175575757Y-95456501D01*
X175575761Y-95456502D01*
X175575763Y-95456503D01*
X175683982Y-95485500D01*
X175683984Y-95485500D01*
X175796016Y-95485500D01*
X175796018Y-95485500D01*
X175904237Y-95456503D01*
X175904239Y-95456501D01*
X175904241Y-95456501D01*
X175948018Y-95431226D01*
X176001263Y-95400485D01*
X176080485Y-95321263D01*
X176136503Y-95224237D01*
X176165500Y-95116018D01*
X176165500Y-95003982D01*
X176136503Y-94895763D01*
X176136501Y-94895760D01*
X176136501Y-94895758D01*
X176080486Y-94798739D01*
X176080485Y-94798737D01*
X176001263Y-94719515D01*
X176001260Y-94719513D01*
X175904240Y-94663498D01*
X175904242Y-94663498D01*
X175862251Y-94652247D01*
X175796018Y-94634500D01*
X175683982Y-94634500D01*
X175617748Y-94652247D01*
X175575758Y-94663498D01*
X175478739Y-94719513D01*
X175399513Y-94798739D01*
X175343498Y-94895758D01*
X175343497Y-94895763D01*
X175314500Y-95003982D01*
X173110500Y-95003982D01*
X173110500Y-94130252D01*
X173109657Y-94126016D01*
X173104579Y-94100484D01*
X173098867Y-94071769D01*
X173070956Y-94029999D01*
X173054349Y-93971115D01*
X173070956Y-93920001D01*
X173098867Y-93878231D01*
X173110500Y-93819748D01*
X173110500Y-92880252D01*
X173098867Y-92821769D01*
X173070657Y-92779551D01*
X173054049Y-92720664D01*
X173070658Y-92669547D01*
X173098396Y-92628034D01*
X173109999Y-92569700D01*
X173110000Y-92569697D01*
X173110000Y-92350001D01*
X173109999Y-92350000D01*
X172404991Y-92350000D01*
X172440079Y-92314912D01*
X172486159Y-92235099D01*
X172510012Y-92146080D01*
X172510012Y-92053920D01*
X172486159Y-91964901D01*
X172440079Y-91885088D01*
X172374912Y-91819921D01*
X172295099Y-91773841D01*
X172206080Y-91749988D01*
X172113920Y-91749988D01*
X172024901Y-91773841D01*
X171945088Y-91819921D01*
X171879921Y-91885088D01*
X171833841Y-91964901D01*
X171809988Y-92053920D01*
X171809988Y-92146080D01*
X171833841Y-92235099D01*
X171879921Y-92314912D01*
X171915009Y-92350000D01*
X171210001Y-92350000D01*
X171210000Y-92350001D01*
X171210000Y-92569700D01*
X171221603Y-92628035D01*
X171249342Y-92669549D01*
X171265950Y-92728437D01*
X171249342Y-92779551D01*
X171221134Y-92821767D01*
X171221132Y-92821772D01*
X171209501Y-92880241D01*
X171209500Y-92880253D01*
X171209500Y-93819746D01*
X171209501Y-93819758D01*
X171221132Y-93878227D01*
X171221134Y-93878233D01*
X171249041Y-93919998D01*
X171265650Y-93978886D01*
X171249041Y-94030002D01*
X171221134Y-94071766D01*
X171221132Y-94071772D01*
X171209501Y-94130241D01*
X171209500Y-94130253D01*
X171209500Y-94361500D01*
X171190593Y-94419691D01*
X171141093Y-94455655D01*
X171110500Y-94460500D01*
X163085805Y-94460500D01*
X163027614Y-94441593D01*
X162991650Y-94392093D01*
X162990179Y-94335876D01*
X162995499Y-94316020D01*
X162995500Y-94316017D01*
X162995500Y-94203983D01*
X162982778Y-94156503D01*
X162966503Y-94095763D01*
X162966501Y-94095760D01*
X162966501Y-94095758D01*
X162910486Y-93998739D01*
X162910485Y-93998737D01*
X162831263Y-93919515D01*
X162828390Y-93917856D01*
X162734240Y-93863498D01*
X162734242Y-93863498D01*
X162692251Y-93852247D01*
X162626018Y-93834500D01*
X162513982Y-93834500D01*
X162447748Y-93852247D01*
X162405758Y-93863498D01*
X162308739Y-93919513D01*
X162229513Y-93998739D01*
X162173498Y-94095758D01*
X162144500Y-94203983D01*
X162144500Y-94316020D01*
X162149821Y-94335876D01*
X162146620Y-94396977D01*
X162108115Y-94444528D01*
X162054195Y-94460500D01*
X154319435Y-94460500D01*
X154243011Y-94480978D01*
X154243010Y-94480978D01*
X154185800Y-94514010D01*
X154185798Y-94514011D01*
X154174493Y-94520537D01*
X154174489Y-94520540D01*
X149920705Y-98774322D01*
X149866188Y-98802099D01*
X149805756Y-98792528D01*
X149764966Y-98753818D01*
X149750485Y-98728737D01*
X149671263Y-98649515D01*
X149659402Y-98642667D01*
X149574240Y-98593498D01*
X149574242Y-98593498D01*
X149532251Y-98582247D01*
X149466018Y-98564500D01*
X149429479Y-98564500D01*
X149407431Y-98557336D01*
X149384534Y-98553710D01*
X149378885Y-98548061D01*
X149371288Y-98545593D01*
X149357660Y-98526836D01*
X149341269Y-98510445D01*
X149340019Y-98502555D01*
X149335324Y-98496093D01*
X149335324Y-98472907D01*
X149331698Y-98450013D01*
X149335324Y-98442896D01*
X149335324Y-98434907D01*
X149359475Y-98395496D01*
X149420475Y-98334496D01*
X149474992Y-98306719D01*
X149490479Y-98305500D01*
X149506016Y-98305500D01*
X149506018Y-98305500D01*
X149614237Y-98276503D01*
X149614239Y-98276501D01*
X149614241Y-98276501D01*
X149645424Y-98258497D01*
X149711263Y-98220485D01*
X149790485Y-98141263D01*
X149838846Y-98057500D01*
X149846501Y-98044241D01*
X149846501Y-98044239D01*
X149846503Y-98044237D01*
X149875500Y-97936018D01*
X149875500Y-97823982D01*
X149846503Y-97715763D01*
X149846501Y-97715760D01*
X149846501Y-97715758D01*
X149790486Y-97618739D01*
X149790485Y-97618737D01*
X149716249Y-97544501D01*
X149688474Y-97489987D01*
X149698045Y-97429555D01*
X149741310Y-97386290D01*
X149779680Y-97377078D01*
X149779584Y-97376347D01*
X149786015Y-97375500D01*
X149786018Y-97375500D01*
X149894237Y-97346503D01*
X149894240Y-97346501D01*
X149894241Y-97346501D01*
X149923064Y-97329859D01*
X149991263Y-97290485D01*
X150070485Y-97211263D01*
X150119701Y-97126018D01*
X150126501Y-97114241D01*
X150126501Y-97114239D01*
X150126503Y-97114237D01*
X150155500Y-97006018D01*
X150155500Y-96893982D01*
X150126503Y-96785763D01*
X150126501Y-96785760D01*
X150126501Y-96785758D01*
X150070486Y-96688739D01*
X150070485Y-96688737D01*
X149991263Y-96609515D01*
X149991260Y-96609513D01*
X149894240Y-96553498D01*
X149894242Y-96553498D01*
X149852251Y-96542247D01*
X149786018Y-96524500D01*
X149673982Y-96524500D01*
X149607748Y-96542247D01*
X149565758Y-96553498D01*
X149468739Y-96609513D01*
X149389513Y-96688739D01*
X149333498Y-96785758D01*
X149322711Y-96826016D01*
X149306513Y-96886472D01*
X149304500Y-96893983D01*
X149304500Y-96900500D01*
X149285593Y-96958691D01*
X149236093Y-96994655D01*
X149205500Y-96999500D01*
X148428035Y-96999500D01*
X148369844Y-96980593D01*
X148333880Y-96931093D01*
X148332408Y-96874877D01*
X148333001Y-96872664D01*
X148345500Y-96826018D01*
X148345500Y-96713982D01*
X148316503Y-96605763D01*
X148316501Y-96605760D01*
X148316501Y-96605758D01*
X148260486Y-96508739D01*
X148260485Y-96508737D01*
X148181263Y-96429515D01*
X148181260Y-96429513D01*
X148084240Y-96373498D01*
X148084242Y-96373498D01*
X148042251Y-96362247D01*
X147976018Y-96344500D01*
X147863982Y-96344500D01*
X147797748Y-96362247D01*
X147755758Y-96373498D01*
X147658739Y-96429513D01*
X147579513Y-96508739D01*
X147523498Y-96605758D01*
X147517133Y-96629513D01*
X147495906Y-96708737D01*
X147494500Y-96713983D01*
X147494500Y-96729521D01*
X147475593Y-96787712D01*
X147465504Y-96799525D01*
X147214504Y-97050525D01*
X147159987Y-97078302D01*
X147099555Y-97068731D01*
X147056290Y-97025466D01*
X147045500Y-96980521D01*
X147045500Y-96913983D01*
X147044563Y-96910485D01*
X147016503Y-96805763D01*
X147016501Y-96805760D01*
X147016501Y-96805758D01*
X146960486Y-96708739D01*
X146960485Y-96708737D01*
X146881263Y-96629515D01*
X146881260Y-96629513D01*
X146784240Y-96573498D01*
X146784242Y-96573498D01*
X146742251Y-96562247D01*
X146676018Y-96544500D01*
X146563982Y-96544500D01*
X146497748Y-96562247D01*
X146455758Y-96573498D01*
X146358739Y-96629513D01*
X146279513Y-96708739D01*
X146223498Y-96805758D01*
X146216665Y-96831260D01*
X146194500Y-96913982D01*
X146194500Y-97026018D01*
X146218138Y-97114237D01*
X146223498Y-97134241D01*
X146267966Y-97211260D01*
X146279515Y-97231263D01*
X146358737Y-97310485D01*
X146358739Y-97310486D01*
X146455759Y-97366501D01*
X146455757Y-97366501D01*
X146455761Y-97366502D01*
X146455763Y-97366503D01*
X146563982Y-97395500D01*
X146563984Y-97395500D01*
X146630521Y-97395500D01*
X146688712Y-97414407D01*
X146724676Y-97463907D01*
X146724676Y-97525093D01*
X146700525Y-97564504D01*
X146236525Y-98028504D01*
X146182008Y-98056281D01*
X146166521Y-98057500D01*
X144116479Y-98057500D01*
X144058288Y-98038593D01*
X144022324Y-97989093D01*
X144022324Y-97927907D01*
X144046475Y-97888496D01*
X145435475Y-96499496D01*
X145489992Y-96471719D01*
X145505479Y-96470500D01*
X145521016Y-96470500D01*
X145521018Y-96470500D01*
X145629237Y-96441503D01*
X145629239Y-96441501D01*
X145629241Y-96441501D01*
X145691149Y-96405758D01*
X145726263Y-96385485D01*
X145805485Y-96306263D01*
X145844859Y-96238064D01*
X145861501Y-96209241D01*
X145861501Y-96209239D01*
X145861503Y-96209237D01*
X145890500Y-96101018D01*
X145890500Y-95988982D01*
X145861503Y-95880763D01*
X145861501Y-95880760D01*
X145861501Y-95880758D01*
X145813806Y-95798150D01*
X145805485Y-95783737D01*
X145726263Y-95704515D01*
X145726260Y-95704513D01*
X145629240Y-95648498D01*
X145629242Y-95648498D01*
X145587251Y-95637247D01*
X145521018Y-95619500D01*
X145408982Y-95619500D01*
X145342748Y-95637247D01*
X145300758Y-95648498D01*
X145203739Y-95704513D01*
X145124513Y-95783739D01*
X145068498Y-95880758D01*
X145039500Y-95988983D01*
X145039500Y-96004521D01*
X145020593Y-96062712D01*
X145010504Y-96074525D01*
X143524525Y-97560504D01*
X143470008Y-97588281D01*
X143454521Y-97589500D01*
X135729610Y-97589500D01*
X135671419Y-97570593D01*
X135635455Y-97521093D01*
X135635455Y-97459907D01*
X135666948Y-97415347D01*
X135666674Y-97415073D01*
X135668273Y-97413473D01*
X135669346Y-97411956D01*
X135671258Y-97410488D01*
X135671258Y-97410487D01*
X135671263Y-97410485D01*
X135750485Y-97331263D01*
X135806503Y-97234237D01*
X135835500Y-97126018D01*
X135835500Y-97013982D01*
X135830447Y-96995123D01*
X135833648Y-96934022D01*
X135872153Y-96886472D01*
X135926073Y-96870500D01*
X141909563Y-96870500D01*
X141909563Y-96870499D01*
X141985989Y-96850021D01*
X142054511Y-96810460D01*
X142110460Y-96754511D01*
X144600475Y-94264496D01*
X144651526Y-94237331D01*
X144660913Y-94235500D01*
X144686018Y-94235500D01*
X144753198Y-94217499D01*
X144756547Y-94216846D01*
X144783685Y-94220160D01*
X144810978Y-94221590D01*
X144813745Y-94223831D01*
X144817281Y-94224263D01*
X144837285Y-94242893D01*
X144858528Y-94260095D01*
X144859583Y-94263659D01*
X144862056Y-94265962D01*
X144865507Y-94283657D01*
X144873204Y-94309642D01*
X144873653Y-94309584D01*
X144874025Y-94312413D01*
X144874500Y-94314015D01*
X144874500Y-94316018D01*
X144889902Y-94373498D01*
X144903498Y-94424241D01*
X144959513Y-94521260D01*
X144959515Y-94521263D01*
X145038737Y-94600485D01*
X145061276Y-94613498D01*
X145135759Y-94656501D01*
X145135757Y-94656501D01*
X145135761Y-94656502D01*
X145135763Y-94656503D01*
X145243982Y-94685500D01*
X145243984Y-94685500D01*
X145356016Y-94685500D01*
X145356018Y-94685500D01*
X145464237Y-94656503D01*
X145464239Y-94656501D01*
X145464241Y-94656501D01*
X145502347Y-94634500D01*
X145561263Y-94600485D01*
X145640485Y-94521263D01*
X145696503Y-94424237D01*
X145725500Y-94316018D01*
X145725500Y-94203982D01*
X145696503Y-94095763D01*
X145696501Y-94095760D01*
X145696501Y-94095758D01*
X145640486Y-93998739D01*
X145640485Y-93998737D01*
X145561263Y-93919515D01*
X145558390Y-93917856D01*
X145464240Y-93863498D01*
X145464242Y-93863498D01*
X145422251Y-93852247D01*
X145356018Y-93834500D01*
X145243982Y-93834500D01*
X145180122Y-93851611D01*
X145119021Y-93848408D01*
X145071471Y-93809903D01*
X145058090Y-93778482D01*
X145055500Y-93767383D01*
X145055500Y-93753982D01*
X145031270Y-93663555D01*
X145030907Y-93661998D01*
X145033371Y-93633038D01*
X145034893Y-93604021D01*
X145035953Y-93602711D01*
X145036096Y-93601033D01*
X145055113Y-93579051D01*
X145073398Y-93556472D01*
X145075078Y-93555974D01*
X145076128Y-93554761D01*
X145090479Y-93551411D01*
X145127317Y-93540500D01*
X162749563Y-93540500D01*
X162749563Y-93540499D01*
X162825989Y-93520021D01*
X162894511Y-93480460D01*
X162950460Y-93424511D01*
X165075989Y-91298982D01*
X165479500Y-91298982D01*
X165479500Y-91411018D01*
X165499051Y-91483982D01*
X165508498Y-91519241D01*
X165558879Y-91606501D01*
X165564515Y-91616263D01*
X165643737Y-91695485D01*
X165643739Y-91695486D01*
X165740759Y-91751501D01*
X165740757Y-91751501D01*
X165740761Y-91751502D01*
X165740763Y-91751503D01*
X165848982Y-91780500D01*
X165848984Y-91780500D01*
X165961016Y-91780500D01*
X165961018Y-91780500D01*
X166069237Y-91751503D01*
X166069239Y-91751501D01*
X166069241Y-91751501D01*
X166098064Y-91734859D01*
X166166263Y-91695485D01*
X166231449Y-91630299D01*
X171210000Y-91630299D01*
X171210000Y-91849999D01*
X171210001Y-91850000D01*
X171909999Y-91850000D01*
X171910000Y-91849999D01*
X171910000Y-91450001D01*
X172410000Y-91450001D01*
X172410000Y-91849999D01*
X172410001Y-91850000D01*
X173109999Y-91850000D01*
X173110000Y-91849999D01*
X173110000Y-91630302D01*
X173109999Y-91630299D01*
X173098396Y-91571963D01*
X173072024Y-91532495D01*
X173054194Y-91505811D01*
X173054189Y-91505806D01*
X173021528Y-91483982D01*
X175284500Y-91483982D01*
X175284500Y-91596018D01*
X175295079Y-91635500D01*
X175313498Y-91704241D01*
X175354063Y-91774500D01*
X175369515Y-91801263D01*
X175448737Y-91880485D01*
X175448739Y-91880486D01*
X175545759Y-91936501D01*
X175545757Y-91936501D01*
X175545761Y-91936502D01*
X175545763Y-91936503D01*
X175653982Y-91965500D01*
X175653984Y-91965500D01*
X175766016Y-91965500D01*
X175766018Y-91965500D01*
X175874237Y-91936503D01*
X175874239Y-91936501D01*
X175874241Y-91936501D01*
X175914509Y-91913252D01*
X175971263Y-91880485D01*
X176050485Y-91801263D01*
X176106503Y-91704237D01*
X176135500Y-91596018D01*
X176135500Y-91485515D01*
X178739500Y-91485515D01*
X178739500Y-91674484D01*
X178769058Y-91861113D01*
X178827453Y-92040832D01*
X178890464Y-92164500D01*
X178913240Y-92209199D01*
X179024310Y-92362073D01*
X179157927Y-92495690D01*
X179310801Y-92606760D01*
X179479168Y-92692547D01*
X179658882Y-92750940D01*
X179658883Y-92750940D01*
X179658886Y-92750941D01*
X179845516Y-92780500D01*
X179845519Y-92780500D01*
X180034484Y-92780500D01*
X180221113Y-92750941D01*
X180221114Y-92750940D01*
X180221118Y-92750940D01*
X180400832Y-92692547D01*
X180569199Y-92606760D01*
X180722073Y-92495690D01*
X180855690Y-92362073D01*
X180966760Y-92209199D01*
X181052547Y-92040832D01*
X181110940Y-91861118D01*
X181120420Y-91801263D01*
X181140500Y-91674484D01*
X181140500Y-91485515D01*
X181110940Y-91298880D01*
X181098031Y-91259153D01*
X181052547Y-91119168D01*
X180966760Y-90950801D01*
X180855690Y-90797927D01*
X180722073Y-90664310D01*
X180569199Y-90553240D01*
X180569198Y-90553239D01*
X180569196Y-90553238D01*
X180400832Y-90467453D01*
X180221113Y-90409058D01*
X180034484Y-90379500D01*
X180034481Y-90379500D01*
X179845519Y-90379500D01*
X179845516Y-90379500D01*
X179658886Y-90409058D01*
X179479167Y-90467453D01*
X179310803Y-90553238D01*
X179157928Y-90664309D01*
X179024309Y-90797928D01*
X178913238Y-90950803D01*
X178827453Y-91119167D01*
X178769058Y-91298886D01*
X178739500Y-91485515D01*
X176135500Y-91485515D01*
X176135500Y-91483982D01*
X176106503Y-91375763D01*
X176106501Y-91375760D01*
X176106501Y-91375758D01*
X176054969Y-91286503D01*
X176050485Y-91278737D01*
X175971263Y-91199515D01*
X175971260Y-91199513D01*
X175874240Y-91143498D01*
X175874242Y-91143498D01*
X175832251Y-91132247D01*
X175766018Y-91114500D01*
X175653982Y-91114500D01*
X175587748Y-91132247D01*
X175545758Y-91143498D01*
X175448739Y-91199513D01*
X175369513Y-91278739D01*
X175313498Y-91375758D01*
X175298964Y-91430000D01*
X175284500Y-91483982D01*
X173021528Y-91483982D01*
X172988036Y-91461603D01*
X172929700Y-91450000D01*
X172410001Y-91450000D01*
X172410000Y-91450001D01*
X171910000Y-91450001D01*
X171909999Y-91450000D01*
X171390299Y-91450000D01*
X171331963Y-91461603D01*
X171265810Y-91505806D01*
X171265806Y-91505810D01*
X171221603Y-91571963D01*
X171210000Y-91630299D01*
X166231449Y-91630299D01*
X166245485Y-91616263D01*
X166301503Y-91519237D01*
X166330500Y-91411018D01*
X166330500Y-91298982D01*
X166301503Y-91190763D01*
X166301501Y-91190760D01*
X166301501Y-91190758D01*
X166245486Y-91093739D01*
X166245485Y-91093737D01*
X166166263Y-91014515D01*
X166166260Y-91014513D01*
X166069240Y-90958498D01*
X166069242Y-90958498D01*
X166022657Y-90946016D01*
X165961018Y-90929500D01*
X165848982Y-90929500D01*
X165787343Y-90946016D01*
X165740758Y-90958498D01*
X165643739Y-91014513D01*
X165564513Y-91093739D01*
X165508498Y-91190758D01*
X165497853Y-91230486D01*
X165479500Y-91298982D01*
X165075989Y-91298982D01*
X166131547Y-90243424D01*
X181380000Y-90243424D01*
X181380000Y-90416575D01*
X181407084Y-90587579D01*
X181460588Y-90752248D01*
X181539196Y-90906524D01*
X181543708Y-90912735D01*
X181915428Y-90541014D01*
X181920937Y-90561571D01*
X181999922Y-90698377D01*
X182111623Y-90810078D01*
X182248429Y-90889063D01*
X182268981Y-90894570D01*
X181897262Y-91266289D01*
X181897262Y-91266290D01*
X181903469Y-91270800D01*
X181903475Y-91270804D01*
X182057751Y-91349411D01*
X182222420Y-91402915D01*
X182393425Y-91430000D01*
X182566575Y-91430000D01*
X182737579Y-91402915D01*
X182902248Y-91349411D01*
X183056523Y-91270804D01*
X183056530Y-91270800D01*
X183062736Y-91266290D01*
X182691016Y-90894570D01*
X182711571Y-90889063D01*
X182848377Y-90810078D01*
X182960078Y-90698377D01*
X183039063Y-90561571D01*
X183044570Y-90541016D01*
X183416290Y-90912736D01*
X183420800Y-90906530D01*
X183420804Y-90906523D01*
X183499411Y-90752248D01*
X183552915Y-90587579D01*
X183580000Y-90416575D01*
X183580000Y-90243424D01*
X183552915Y-90072420D01*
X183499411Y-89907751D01*
X183420804Y-89753475D01*
X183420800Y-89753469D01*
X183416290Y-89747262D01*
X183416289Y-89747262D01*
X183044570Y-90118981D01*
X183039063Y-90098429D01*
X182960078Y-89961623D01*
X182848377Y-89849922D01*
X182711571Y-89770937D01*
X182691014Y-89765429D01*
X183062736Y-89393708D01*
X183056524Y-89389196D01*
X182902248Y-89310588D01*
X182737579Y-89257084D01*
X182566575Y-89230000D01*
X182393425Y-89230000D01*
X182222420Y-89257084D01*
X182057751Y-89310588D01*
X181903478Y-89389194D01*
X181897262Y-89393708D01*
X182268983Y-89765429D01*
X182248429Y-89770937D01*
X182111623Y-89849922D01*
X181999922Y-89961623D01*
X181920937Y-90098429D01*
X181915429Y-90118983D01*
X181543708Y-89747262D01*
X181539194Y-89753478D01*
X181460588Y-89907751D01*
X181407084Y-90072420D01*
X181380000Y-90243424D01*
X166131547Y-90243424D01*
X167845475Y-88529496D01*
X167899992Y-88501719D01*
X167915479Y-88500500D01*
X167931016Y-88500500D01*
X167931018Y-88500500D01*
X168039237Y-88471503D01*
X168039239Y-88471501D01*
X168039241Y-88471501D01*
X168086707Y-88444096D01*
X168136263Y-88415485D01*
X168215485Y-88336263D01*
X168271503Y-88239237D01*
X168300500Y-88131018D01*
X168300500Y-88018982D01*
X168271503Y-87910763D01*
X168271501Y-87910760D01*
X168271501Y-87910758D01*
X168215486Y-87813739D01*
X168215485Y-87813737D01*
X168136263Y-87734515D01*
X168136260Y-87734513D01*
X168039240Y-87678498D01*
X168039242Y-87678498D01*
X168016061Y-87672287D01*
X167931018Y-87649500D01*
X167818982Y-87649500D01*
X167752748Y-87667247D01*
X167710758Y-87678498D01*
X167613739Y-87734513D01*
X167534513Y-87813739D01*
X167478498Y-87910758D01*
X167469249Y-87945277D01*
X167454180Y-88001518D01*
X167449500Y-88018983D01*
X167449500Y-88034521D01*
X167430593Y-88092712D01*
X167420504Y-88104525D01*
X162614525Y-92910504D01*
X162560008Y-92938281D01*
X162544521Y-92939500D01*
X159336032Y-92939500D01*
X159277841Y-92920593D01*
X159241877Y-92871093D01*
X159241877Y-92809907D01*
X159277841Y-92760407D01*
X159286531Y-92754764D01*
X159287444Y-92754237D01*
X159311263Y-92740485D01*
X159390485Y-92661263D01*
X159446503Y-92564237D01*
X159475500Y-92456018D01*
X159475500Y-92343982D01*
X159446503Y-92235763D01*
X159446501Y-92235760D01*
X159446501Y-92235758D01*
X159390486Y-92138739D01*
X159390485Y-92138737D01*
X159311263Y-92059515D01*
X159311260Y-92059513D01*
X159214240Y-92003498D01*
X159214242Y-92003498D01*
X159172251Y-91992247D01*
X159106018Y-91974500D01*
X158993982Y-91974500D01*
X158927748Y-91992247D01*
X158885758Y-92003498D01*
X158788739Y-92059513D01*
X158709513Y-92138739D01*
X158653498Y-92235758D01*
X158646066Y-92263497D01*
X158624500Y-92343982D01*
X158624500Y-92456018D01*
X158635150Y-92495763D01*
X158653498Y-92564241D01*
X158700712Y-92646016D01*
X158709515Y-92661263D01*
X158788737Y-92740485D01*
X158812556Y-92754237D01*
X158813469Y-92754764D01*
X158854409Y-92800234D01*
X158860804Y-92861084D01*
X158830211Y-92914072D01*
X158774315Y-92938958D01*
X158763968Y-92939500D01*
X158231014Y-92939500D01*
X158172823Y-92920593D01*
X158136859Y-92871093D01*
X158136859Y-92809907D01*
X158145278Y-92790999D01*
X158166503Y-92754237D01*
X158195500Y-92646018D01*
X158195500Y-92533982D01*
X158166503Y-92425763D01*
X158166501Y-92425760D01*
X158166501Y-92425758D01*
X158110486Y-92328739D01*
X158110485Y-92328737D01*
X158031263Y-92249515D01*
X158029919Y-92248739D01*
X157934240Y-92193498D01*
X157934242Y-92193498D01*
X157892251Y-92182247D01*
X157826018Y-92164500D01*
X157826016Y-92164500D01*
X157810479Y-92164500D01*
X157752288Y-92145593D01*
X157740475Y-92135504D01*
X156920471Y-91315500D01*
X156008953Y-90403982D01*
X162734500Y-90403982D01*
X162734500Y-90516018D01*
X162744473Y-90553238D01*
X162763498Y-90624241D01*
X162819513Y-90721260D01*
X162819515Y-90721263D01*
X162898737Y-90800485D01*
X162921276Y-90813498D01*
X162995759Y-90856501D01*
X162995757Y-90856501D01*
X162995761Y-90856502D01*
X162995763Y-90856503D01*
X163103982Y-90885500D01*
X163103984Y-90885500D01*
X163216016Y-90885500D01*
X163216018Y-90885500D01*
X163324237Y-90856503D01*
X163324239Y-90856501D01*
X163324241Y-90856501D01*
X163363243Y-90833983D01*
X163421263Y-90800485D01*
X163500485Y-90721263D01*
X163556503Y-90624237D01*
X163585500Y-90516018D01*
X163585500Y-90403982D01*
X163556503Y-90295763D01*
X163556501Y-90295760D01*
X163556501Y-90295758D01*
X163500486Y-90198739D01*
X163500485Y-90198737D01*
X163421263Y-90119515D01*
X163398726Y-90106503D01*
X163324240Y-90063498D01*
X163324242Y-90063498D01*
X163275675Y-90050485D01*
X163216018Y-90034500D01*
X163103982Y-90034500D01*
X163044325Y-90050485D01*
X162995758Y-90063498D01*
X162898739Y-90119513D01*
X162819513Y-90198739D01*
X162763498Y-90295758D01*
X162752581Y-90336501D01*
X162734500Y-90403982D01*
X156008953Y-90403982D01*
X154774511Y-89169540D01*
X154760169Y-89161260D01*
X154748005Y-89154237D01*
X154721366Y-89138857D01*
X154705988Y-89129978D01*
X154629564Y-89109500D01*
X154629562Y-89109500D01*
X150499996Y-89109500D01*
X150441805Y-89090593D01*
X150405841Y-89041093D01*
X150404369Y-88984880D01*
X150425500Y-88906018D01*
X150425500Y-88793982D01*
X150396503Y-88685763D01*
X150396502Y-88685761D01*
X150396331Y-88685123D01*
X150399534Y-88624021D01*
X150438039Y-88576472D01*
X150491958Y-88560500D01*
X156267745Y-88560500D01*
X156325936Y-88579407D01*
X156337742Y-88589490D01*
X156348737Y-88600485D01*
X156348739Y-88600486D01*
X156445759Y-88656501D01*
X156445757Y-88656501D01*
X156445761Y-88656502D01*
X156445763Y-88656503D01*
X156553982Y-88685500D01*
X156553984Y-88685500D01*
X156666016Y-88685500D01*
X156666018Y-88685500D01*
X156774237Y-88656503D01*
X156774239Y-88656501D01*
X156774241Y-88656501D01*
X156805009Y-88638737D01*
X156871263Y-88600485D01*
X156950485Y-88521263D01*
X157006503Y-88424237D01*
X157007082Y-88422075D01*
X157007955Y-88420730D01*
X157008985Y-88418245D01*
X157009445Y-88418435D01*
X157040397Y-88370760D01*
X157097515Y-88348825D01*
X157156618Y-88364653D01*
X157172714Y-88377685D01*
X157915504Y-89120475D01*
X157943281Y-89174992D01*
X157944500Y-89190479D01*
X157944500Y-89206018D01*
X157958183Y-89257084D01*
X157973498Y-89314241D01*
X158029513Y-89411260D01*
X158029515Y-89411263D01*
X158108737Y-89490485D01*
X158108739Y-89490486D01*
X158205759Y-89546501D01*
X158205757Y-89546501D01*
X158205761Y-89546502D01*
X158205763Y-89546503D01*
X158313982Y-89575500D01*
X158313984Y-89575500D01*
X158426016Y-89575500D01*
X158426018Y-89575500D01*
X158534237Y-89546503D01*
X158534239Y-89546501D01*
X158534241Y-89546501D01*
X158596646Y-89510471D01*
X158631263Y-89490485D01*
X158710485Y-89411263D01*
X158766503Y-89314237D01*
X158795500Y-89206018D01*
X158795500Y-89093982D01*
X158766503Y-88985763D01*
X158766501Y-88985760D01*
X158766501Y-88985758D01*
X158710486Y-88888739D01*
X158710485Y-88888737D01*
X158631263Y-88809515D01*
X158604361Y-88793983D01*
X158534240Y-88753498D01*
X158534242Y-88753498D01*
X158468052Y-88735763D01*
X158426018Y-88724500D01*
X158426016Y-88724500D01*
X158410479Y-88724500D01*
X158352288Y-88705593D01*
X158340475Y-88695504D01*
X156191897Y-86546926D01*
X153844472Y-84199501D01*
X153816697Y-84144987D01*
X153826268Y-84084555D01*
X153869533Y-84041290D01*
X153914478Y-84030500D01*
X155544521Y-84030500D01*
X155602712Y-84049407D01*
X155614525Y-84059496D01*
X160515504Y-88960475D01*
X160543281Y-89014992D01*
X160544500Y-89030479D01*
X160544500Y-89046018D01*
X160549382Y-89064237D01*
X160573498Y-89154241D01*
X160623292Y-89240485D01*
X160629515Y-89251263D01*
X160708737Y-89330485D01*
X160708739Y-89330486D01*
X160805759Y-89386501D01*
X160805757Y-89386501D01*
X160805761Y-89386502D01*
X160805763Y-89386503D01*
X160913982Y-89415500D01*
X160913984Y-89415500D01*
X161026016Y-89415500D01*
X161026018Y-89415500D01*
X161134237Y-89386503D01*
X161134239Y-89386501D01*
X161134241Y-89386501D01*
X161163665Y-89369513D01*
X161231263Y-89330485D01*
X161310485Y-89251263D01*
X161362447Y-89161263D01*
X161366501Y-89154241D01*
X161366501Y-89154239D01*
X161366503Y-89154237D01*
X161395500Y-89046018D01*
X161395500Y-88933982D01*
X161366503Y-88825763D01*
X161366501Y-88825760D01*
X161366501Y-88825758D01*
X161314541Y-88735763D01*
X161310485Y-88728737D01*
X161231263Y-88649515D01*
X161231260Y-88649513D01*
X161134240Y-88593498D01*
X161134242Y-88593498D01*
X161070698Y-88576472D01*
X161026018Y-88564500D01*
X161026016Y-88564500D01*
X161010479Y-88564500D01*
X160952288Y-88545593D01*
X160940475Y-88535504D01*
X159978953Y-87573982D01*
X174064500Y-87573982D01*
X174064500Y-87686018D01*
X174077494Y-87734513D01*
X174093498Y-87794241D01*
X174148487Y-87889483D01*
X174149515Y-87891263D01*
X174228737Y-87970485D01*
X174252116Y-87983983D01*
X174325759Y-88026501D01*
X174325757Y-88026501D01*
X174325761Y-88026502D01*
X174325763Y-88026503D01*
X174433982Y-88055500D01*
X174433984Y-88055500D01*
X174546016Y-88055500D01*
X174546018Y-88055500D01*
X174654237Y-88026503D01*
X174654239Y-88026501D01*
X174654241Y-88026501D01*
X174697512Y-88001518D01*
X174751263Y-87970485D01*
X174830485Y-87891263D01*
X174875786Y-87812799D01*
X174886501Y-87794241D01*
X174886501Y-87794239D01*
X174886503Y-87794237D01*
X174915500Y-87686018D01*
X174915500Y-87573982D01*
X174886503Y-87465763D01*
X174886501Y-87465760D01*
X174886501Y-87465758D01*
X174830486Y-87368739D01*
X174830485Y-87368737D01*
X174751263Y-87289515D01*
X174751260Y-87289513D01*
X174654240Y-87233498D01*
X174654242Y-87233498D01*
X174612251Y-87222247D01*
X174546018Y-87204500D01*
X174433982Y-87204500D01*
X174367748Y-87222247D01*
X174325758Y-87233498D01*
X174228739Y-87289513D01*
X174149513Y-87368739D01*
X174093498Y-87465758D01*
X174082711Y-87506016D01*
X174064500Y-87573982D01*
X159978953Y-87573982D01*
X159593708Y-87188737D01*
X158108953Y-85703982D01*
X175464500Y-85703982D01*
X175464500Y-85816018D01*
X175482779Y-85884237D01*
X175493498Y-85924241D01*
X175543292Y-86010485D01*
X175549515Y-86021263D01*
X175628737Y-86100485D01*
X175628739Y-86100486D01*
X175725759Y-86156501D01*
X175725757Y-86156501D01*
X175725761Y-86156502D01*
X175725763Y-86156503D01*
X175833982Y-86185500D01*
X175833984Y-86185500D01*
X175946016Y-86185500D01*
X175946018Y-86185500D01*
X176054237Y-86156503D01*
X176054239Y-86156501D01*
X176054241Y-86156501D01*
X176083064Y-86139859D01*
X176151263Y-86100485D01*
X176230485Y-86021263D01*
X176282447Y-85931263D01*
X176286501Y-85924241D01*
X176286501Y-85924239D01*
X176286503Y-85924237D01*
X176315500Y-85816018D01*
X176315500Y-85703982D01*
X176286503Y-85595763D01*
X176286501Y-85595760D01*
X176286501Y-85595758D01*
X176234540Y-85505761D01*
X176230485Y-85498737D01*
X176151263Y-85419515D01*
X176151260Y-85419513D01*
X176054240Y-85363498D01*
X176054242Y-85363498D01*
X176008579Y-85351263D01*
X175946018Y-85334500D01*
X175833982Y-85334500D01*
X175771421Y-85351263D01*
X175725758Y-85363498D01*
X175628739Y-85419513D01*
X175549513Y-85498739D01*
X175493498Y-85595758D01*
X175493497Y-85595763D01*
X175464500Y-85703982D01*
X158108953Y-85703982D01*
X156890486Y-84485515D01*
X178739500Y-84485515D01*
X178739500Y-84674484D01*
X178769058Y-84861113D01*
X178827453Y-85040832D01*
X178911349Y-85205489D01*
X178913240Y-85209199D01*
X179024310Y-85362073D01*
X179157927Y-85495690D01*
X179310801Y-85606760D01*
X179479168Y-85692547D01*
X179658882Y-85750940D01*
X179658883Y-85750940D01*
X179658886Y-85750941D01*
X179845516Y-85780500D01*
X179845519Y-85780500D01*
X180034484Y-85780500D01*
X180221113Y-85750941D01*
X180221114Y-85750940D01*
X180221118Y-85750940D01*
X180244370Y-85743385D01*
X181379500Y-85743385D01*
X181379500Y-85916614D01*
X181406597Y-86087702D01*
X181406598Y-86087706D01*
X181460123Y-86252438D01*
X181460125Y-86252441D01*
X181460126Y-86252444D01*
X181460127Y-86252445D01*
X181538768Y-86406788D01*
X181640586Y-86546928D01*
X181763072Y-86669414D01*
X181903212Y-86771232D01*
X182057555Y-86849873D01*
X182057557Y-86849873D01*
X182057558Y-86849874D01*
X182057561Y-86849876D01*
X182222293Y-86903401D01*
X182222297Y-86903402D01*
X182393386Y-86930500D01*
X182393389Y-86930500D01*
X182566614Y-86930500D01*
X182737702Y-86903402D01*
X182737706Y-86903401D01*
X182902438Y-86849876D01*
X182902440Y-86849874D01*
X182902445Y-86849873D01*
X183056788Y-86771232D01*
X183196928Y-86669414D01*
X183319414Y-86546928D01*
X183421232Y-86406788D01*
X183499873Y-86252445D01*
X183499874Y-86252440D01*
X183499876Y-86252438D01*
X183553401Y-86087706D01*
X183553402Y-86087702D01*
X183580500Y-85916614D01*
X183580500Y-85743385D01*
X183553402Y-85572297D01*
X183553401Y-85572293D01*
X183499876Y-85407561D01*
X183499874Y-85407558D01*
X183499873Y-85407557D01*
X183499873Y-85407555D01*
X183421232Y-85253212D01*
X183319414Y-85113072D01*
X183196928Y-84990586D01*
X183056788Y-84888768D01*
X183056787Y-84888767D01*
X183056785Y-84888766D01*
X182902441Y-84810125D01*
X182902438Y-84810123D01*
X182737706Y-84756598D01*
X182737702Y-84756597D01*
X182566614Y-84729500D01*
X182566611Y-84729500D01*
X182393389Y-84729500D01*
X182393386Y-84729500D01*
X182222297Y-84756597D01*
X182222293Y-84756598D01*
X182057561Y-84810123D01*
X182057558Y-84810125D01*
X181903214Y-84888766D01*
X181763073Y-84990585D01*
X181640585Y-85113073D01*
X181538766Y-85253214D01*
X181460125Y-85407558D01*
X181460123Y-85407561D01*
X181406598Y-85572293D01*
X181406597Y-85572297D01*
X181379500Y-85743385D01*
X180244370Y-85743385D01*
X180400832Y-85692547D01*
X180569199Y-85606760D01*
X180722073Y-85495690D01*
X180855690Y-85362073D01*
X180966760Y-85209199D01*
X181052547Y-85040832D01*
X181110940Y-84861118D01*
X181110941Y-84861113D01*
X181140500Y-84674484D01*
X181140500Y-84485515D01*
X181110941Y-84298886D01*
X181110940Y-84298882D01*
X181052547Y-84119168D01*
X180966760Y-83950801D01*
X180855690Y-83797927D01*
X180722073Y-83664310D01*
X180569199Y-83553240D01*
X180569198Y-83553239D01*
X180569196Y-83553238D01*
X180400832Y-83467453D01*
X180221113Y-83409058D01*
X180034484Y-83379500D01*
X180034481Y-83379500D01*
X179845519Y-83379500D01*
X179845516Y-83379500D01*
X179658886Y-83409058D01*
X179479167Y-83467453D01*
X179310803Y-83553238D01*
X179157928Y-83664309D01*
X179024309Y-83797928D01*
X178913238Y-83950803D01*
X178827453Y-84119167D01*
X178769058Y-84298886D01*
X178739500Y-84485515D01*
X156890486Y-84485515D01*
X155894511Y-83489540D01*
X155890617Y-83487292D01*
X155865459Y-83472766D01*
X155865459Y-83472767D01*
X155825989Y-83449979D01*
X155825988Y-83449978D01*
X155825987Y-83449978D01*
X155749564Y-83429500D01*
X155749562Y-83429500D01*
X136286802Y-83429500D01*
X136228611Y-83410593D01*
X136192647Y-83361093D01*
X136192647Y-83299907D01*
X136228611Y-83250407D01*
X136268204Y-83233262D01*
X136507478Y-83187504D01*
X136556167Y-83171702D01*
X136611656Y-83145667D01*
X136627410Y-83137426D01*
X136694350Y-83075109D01*
X136733614Y-83017315D01*
X136759263Y-82964749D01*
X136858215Y-82657069D01*
X136865235Y-82628246D01*
X136871160Y-82593027D01*
X136866917Y-82505416D01*
X136848721Y-82437958D01*
X136825607Y-82384229D01*
X136678622Y-82143982D01*
X139874500Y-82143982D01*
X139874500Y-82256018D01*
X139900072Y-82351455D01*
X139903498Y-82364241D01*
X139959513Y-82461260D01*
X139959515Y-82461263D01*
X140038737Y-82540485D01*
X140038739Y-82540486D01*
X140135759Y-82596501D01*
X140135757Y-82596501D01*
X140135761Y-82596502D01*
X140135763Y-82596503D01*
X140243982Y-82625500D01*
X140243984Y-82625500D01*
X140356016Y-82625500D01*
X140356018Y-82625500D01*
X140464237Y-82596503D01*
X140464239Y-82596501D01*
X140464241Y-82596501D01*
X140493064Y-82579859D01*
X140561263Y-82540485D01*
X140640485Y-82461263D01*
X140696503Y-82364237D01*
X140725500Y-82256018D01*
X140725500Y-82143982D01*
X140696503Y-82035763D01*
X140696501Y-82035760D01*
X140696501Y-82035758D01*
X140640486Y-81938739D01*
X140640485Y-81938737D01*
X140598386Y-81896638D01*
X140570611Y-81842124D01*
X140580182Y-81781692D01*
X140623447Y-81738427D01*
X140642758Y-81731014D01*
X140734237Y-81706503D01*
X140831263Y-81650485D01*
X140910485Y-81571263D01*
X140957682Y-81489515D01*
X140966501Y-81474241D01*
X140966501Y-81474239D01*
X140966503Y-81474237D01*
X140995500Y-81366018D01*
X140995500Y-81253982D01*
X140966503Y-81145763D01*
X140966501Y-81145760D01*
X140966501Y-81145758D01*
X140910486Y-81048739D01*
X140910485Y-81048737D01*
X140909367Y-81047619D01*
X140908853Y-81046609D01*
X140906534Y-81043587D01*
X140907094Y-81043157D01*
X140881592Y-80993105D01*
X140891163Y-80932673D01*
X140934428Y-80889408D01*
X140953738Y-80881995D01*
X140974237Y-80876503D01*
X141071263Y-80820485D01*
X141150485Y-80741263D01*
X141206503Y-80644237D01*
X141206571Y-80643982D01*
X148324500Y-80643982D01*
X148324500Y-80756018D01*
X148328585Y-80771263D01*
X148353498Y-80864241D01*
X148404052Y-80951801D01*
X148409515Y-80961263D01*
X148488737Y-81040485D01*
X148490831Y-81041694D01*
X148585759Y-81096501D01*
X148585757Y-81096501D01*
X148585761Y-81096502D01*
X148585763Y-81096503D01*
X148693982Y-81125500D01*
X148693984Y-81125500D01*
X148806016Y-81125500D01*
X148806018Y-81125500D01*
X148914237Y-81096503D01*
X148914239Y-81096501D01*
X148914241Y-81096501D01*
X148975695Y-81061020D01*
X149011263Y-81040485D01*
X149090485Y-80961263D01*
X149140727Y-80874241D01*
X149146501Y-80864241D01*
X149146501Y-80864239D01*
X149146503Y-80864237D01*
X149175500Y-80756018D01*
X149175500Y-80643982D01*
X157094500Y-80643982D01*
X157094500Y-80756018D01*
X157098585Y-80771263D01*
X157123498Y-80864241D01*
X157174052Y-80951801D01*
X157179515Y-80961263D01*
X157258737Y-81040485D01*
X157260831Y-81041694D01*
X157355759Y-81096501D01*
X157355757Y-81096501D01*
X157355761Y-81096502D01*
X157355763Y-81096503D01*
X157463982Y-81125500D01*
X157463984Y-81125500D01*
X157576016Y-81125500D01*
X157576018Y-81125500D01*
X157684237Y-81096503D01*
X157684239Y-81096501D01*
X157684241Y-81096501D01*
X157745695Y-81061020D01*
X157781263Y-81040485D01*
X157860485Y-80961263D01*
X157910727Y-80874241D01*
X157916501Y-80864241D01*
X157916501Y-80864239D01*
X157916503Y-80864237D01*
X157945500Y-80756018D01*
X157945500Y-80653982D01*
X165644500Y-80653982D01*
X165644500Y-80766018D01*
X165659095Y-80820486D01*
X165673498Y-80874241D01*
X165728506Y-80969515D01*
X165729515Y-80971263D01*
X165808737Y-81050485D01*
X165808739Y-81050486D01*
X165905759Y-81106501D01*
X165905757Y-81106501D01*
X165905761Y-81106502D01*
X165905763Y-81106503D01*
X166013982Y-81135500D01*
X166013984Y-81135500D01*
X166126016Y-81135500D01*
X166126018Y-81135500D01*
X166234237Y-81106503D01*
X166234239Y-81106501D01*
X166234241Y-81106501D01*
X166263064Y-81089859D01*
X166331263Y-81050485D01*
X166410485Y-80971263D01*
X166465195Y-80876503D01*
X166466501Y-80874241D01*
X166466501Y-80874239D01*
X166466503Y-80874237D01*
X166495500Y-80766018D01*
X166495500Y-80653982D01*
X166466503Y-80545763D01*
X166466501Y-80545760D01*
X166466501Y-80545758D01*
X166410486Y-80448739D01*
X166410485Y-80448737D01*
X166331263Y-80369515D01*
X166331260Y-80369513D01*
X166282730Y-80341494D01*
X178679500Y-80341494D01*
X178679500Y-80678505D01*
X178717232Y-81013392D01*
X178792224Y-81341957D01*
X178903530Y-81660049D01*
X178903531Y-81660051D01*
X179049746Y-81963671D01*
X179049752Y-81963683D01*
X179229056Y-82249042D01*
X179229058Y-82249045D01*
X179439165Y-82512512D01*
X179439171Y-82512518D01*
X179439175Y-82512523D01*
X179677477Y-82750825D01*
X179677481Y-82750828D01*
X179677487Y-82750834D01*
X179940954Y-82960941D01*
X179940958Y-82960943D01*
X179940961Y-82960946D01*
X180221823Y-83137424D01*
X180226316Y-83140247D01*
X180226328Y-83140253D01*
X180291629Y-83171700D01*
X180529949Y-83286469D01*
X180678440Y-83338428D01*
X180848042Y-83397775D01*
X180848045Y-83397775D01*
X180848046Y-83397776D01*
X181176606Y-83472767D01*
X181511496Y-83510500D01*
X181511497Y-83510500D01*
X181848503Y-83510500D01*
X181848504Y-83510500D01*
X182183394Y-83472767D01*
X182511954Y-83397776D01*
X182830051Y-83286469D01*
X183133686Y-83140246D01*
X183419039Y-82960946D01*
X183616474Y-82803497D01*
X183682512Y-82750834D01*
X183682513Y-82750832D01*
X183682523Y-82750825D01*
X183920825Y-82512523D01*
X183926494Y-82505415D01*
X184125382Y-82256016D01*
X184130946Y-82249039D01*
X184310246Y-81963686D01*
X184456469Y-81660051D01*
X184567776Y-81341954D01*
X184642767Y-81013394D01*
X184680500Y-80678504D01*
X184680500Y-80341496D01*
X184642767Y-80006606D01*
X184567776Y-79678046D01*
X184566354Y-79673983D01*
X184494536Y-79468739D01*
X184456469Y-79359949D01*
X184310246Y-79056314D01*
X184130946Y-78770961D01*
X184130943Y-78770957D01*
X184130941Y-78770954D01*
X183920834Y-78507487D01*
X183920828Y-78507481D01*
X183920825Y-78507477D01*
X183682523Y-78269175D01*
X183682518Y-78269171D01*
X183682512Y-78269165D01*
X183419045Y-78059058D01*
X183419042Y-78059056D01*
X183133683Y-77879752D01*
X183133671Y-77879746D01*
X182830051Y-77733531D01*
X182830049Y-77733530D01*
X182511957Y-77622224D01*
X182183392Y-77547232D01*
X181848505Y-77509500D01*
X181848504Y-77509500D01*
X181511496Y-77509500D01*
X181511494Y-77509500D01*
X181176607Y-77547232D01*
X180848042Y-77622224D01*
X180529950Y-77733530D01*
X180529948Y-77733531D01*
X180226328Y-77879746D01*
X180226316Y-77879752D01*
X179940957Y-78059056D01*
X179940954Y-78059058D01*
X179677487Y-78269165D01*
X179439165Y-78507487D01*
X179229058Y-78770954D01*
X179229056Y-78770957D01*
X179049752Y-79056316D01*
X179049746Y-79056328D01*
X178903531Y-79359948D01*
X178903530Y-79359950D01*
X178792224Y-79678042D01*
X178717232Y-80006607D01*
X178679500Y-80341494D01*
X166282730Y-80341494D01*
X166234240Y-80313498D01*
X166234242Y-80313498D01*
X166192251Y-80302247D01*
X166126018Y-80284500D01*
X166013982Y-80284500D01*
X165947748Y-80302247D01*
X165905758Y-80313498D01*
X165808739Y-80369513D01*
X165729513Y-80448739D01*
X165673498Y-80545758D01*
X165657286Y-80606263D01*
X165644500Y-80653982D01*
X157945500Y-80653982D01*
X157945500Y-80643982D01*
X157916503Y-80535763D01*
X157916501Y-80535760D01*
X157916501Y-80535758D01*
X157866260Y-80448739D01*
X157860485Y-80438737D01*
X157781263Y-80359515D01*
X157781260Y-80359513D01*
X157684240Y-80303498D01*
X157684242Y-80303498D01*
X157642251Y-80292247D01*
X157576018Y-80274500D01*
X157463982Y-80274500D01*
X157397748Y-80292247D01*
X157355758Y-80303498D01*
X157258739Y-80359513D01*
X157179513Y-80438739D01*
X157123498Y-80535758D01*
X157115391Y-80566016D01*
X157094500Y-80643982D01*
X149175500Y-80643982D01*
X149146503Y-80535763D01*
X149146501Y-80535760D01*
X149146501Y-80535758D01*
X149096260Y-80448739D01*
X149090485Y-80438737D01*
X149011263Y-80359515D01*
X149011260Y-80359513D01*
X148914240Y-80303498D01*
X148914242Y-80303498D01*
X148872251Y-80292247D01*
X148806018Y-80274500D01*
X148693982Y-80274500D01*
X148627748Y-80292247D01*
X148585758Y-80303498D01*
X148488739Y-80359513D01*
X148409513Y-80438739D01*
X148353498Y-80535758D01*
X148345391Y-80566016D01*
X148324500Y-80643982D01*
X141206571Y-80643982D01*
X141235500Y-80536018D01*
X141235500Y-80423982D01*
X141206503Y-80315763D01*
X141206501Y-80315760D01*
X141206501Y-80315758D01*
X141150486Y-80218739D01*
X141150485Y-80218737D01*
X141071263Y-80139515D01*
X141048726Y-80126503D01*
X140974240Y-80083498D01*
X140974242Y-80083498D01*
X140925671Y-80070484D01*
X140866018Y-80054500D01*
X140753982Y-80054500D01*
X140694329Y-80070484D01*
X140645758Y-80083498D01*
X140548739Y-80139513D01*
X140469513Y-80218739D01*
X140413498Y-80315758D01*
X140401774Y-80359513D01*
X140384500Y-80423982D01*
X140384500Y-80536018D01*
X140404824Y-80611870D01*
X140413498Y-80644241D01*
X140469513Y-80741260D01*
X140469515Y-80741263D01*
X140470631Y-80742379D01*
X140471145Y-80743388D01*
X140473466Y-80746413D01*
X140472905Y-80746843D01*
X140498407Y-80796894D01*
X140488836Y-80857326D01*
X140445571Y-80900591D01*
X140426250Y-80908007D01*
X140405763Y-80913496D01*
X140405759Y-80913498D01*
X140308739Y-80969513D01*
X140229513Y-81048739D01*
X140173498Y-81145758D01*
X140163307Y-81183793D01*
X140144500Y-81253982D01*
X140144500Y-81366018D01*
X140154811Y-81404500D01*
X140173498Y-81474241D01*
X140229513Y-81571260D01*
X140229515Y-81571263D01*
X140271612Y-81613360D01*
X140299388Y-81667875D01*
X140289817Y-81728307D01*
X140246552Y-81771572D01*
X140227232Y-81778987D01*
X140181135Y-81791339D01*
X140135758Y-81803498D01*
X140038739Y-81859513D01*
X139959513Y-81938739D01*
X139903498Y-82035758D01*
X139903497Y-82035763D01*
X139874500Y-82143982D01*
X136678622Y-82143982D01*
X136646368Y-82091263D01*
X135626315Y-80423983D01*
X133630100Y-77161164D01*
X133615861Y-77101661D01*
X133639316Y-77045150D01*
X133691508Y-77013219D01*
X133714550Y-77010500D01*
X185080500Y-77010500D01*
X185138691Y-77029407D01*
X185174655Y-77078907D01*
X185179500Y-77109500D01*
X185179500Y-110910500D01*
X185160593Y-110968691D01*
X185111093Y-111004655D01*
X185080500Y-111009500D01*
X168866032Y-111009500D01*
X168807841Y-110990593D01*
X168771877Y-110941093D01*
X168771877Y-110879907D01*
X168807841Y-110830407D01*
X168816531Y-110824764D01*
X168841263Y-110810485D01*
X168920485Y-110731263D01*
X168976503Y-110634237D01*
X169005500Y-110526018D01*
X169005500Y-110413982D01*
X168976503Y-110305763D01*
X168976501Y-110305760D01*
X168976501Y-110305758D01*
X168920486Y-110208739D01*
X168920485Y-110208737D01*
X168841263Y-110129515D01*
X168841260Y-110129513D01*
X168744240Y-110073498D01*
X168744242Y-110073498D01*
X168702251Y-110062247D01*
X168636018Y-110044500D01*
X168523982Y-110044500D01*
X168457748Y-110062247D01*
X168415758Y-110073498D01*
X168318739Y-110129513D01*
X168318737Y-110129514D01*
X168318737Y-110129515D01*
X168307746Y-110140505D01*
X168253232Y-110168281D01*
X168237745Y-110169500D01*
X129725479Y-110169500D01*
X129667288Y-110150593D01*
X129655475Y-110140504D01*
X128948953Y-109433982D01*
X165994500Y-109433982D01*
X165994500Y-109546018D01*
X166020072Y-109641455D01*
X166023498Y-109654241D01*
X166079262Y-109750825D01*
X166079515Y-109751263D01*
X166158737Y-109830485D01*
X166158739Y-109830486D01*
X166255759Y-109886501D01*
X166255757Y-109886501D01*
X166255761Y-109886502D01*
X166255763Y-109886503D01*
X166363982Y-109915500D01*
X166363984Y-109915500D01*
X166476016Y-109915500D01*
X166476018Y-109915500D01*
X166584237Y-109886503D01*
X166584239Y-109886501D01*
X166584241Y-109886501D01*
X166613064Y-109869859D01*
X166681263Y-109830485D01*
X166760485Y-109751263D01*
X166816503Y-109654237D01*
X166845500Y-109546018D01*
X166845500Y-109433982D01*
X166816503Y-109325763D01*
X166816501Y-109325760D01*
X166816501Y-109325758D01*
X166760486Y-109228739D01*
X166760485Y-109228737D01*
X166681263Y-109149515D01*
X166681260Y-109149513D01*
X166584240Y-109093498D01*
X166584242Y-109093498D01*
X166542251Y-109082247D01*
X166476018Y-109064500D01*
X166363982Y-109064500D01*
X166297748Y-109082247D01*
X166255758Y-109093498D01*
X166158739Y-109149513D01*
X166079513Y-109228739D01*
X166023498Y-109325758D01*
X166023497Y-109325763D01*
X165994500Y-109433982D01*
X128948953Y-109433982D01*
X127858953Y-108343982D01*
X128894500Y-108343982D01*
X128894500Y-108456018D01*
X128920072Y-108551455D01*
X128923498Y-108564241D01*
X128965356Y-108636739D01*
X128979515Y-108661263D01*
X129058737Y-108740485D01*
X129058739Y-108740486D01*
X129155759Y-108796501D01*
X129155757Y-108796501D01*
X129155761Y-108796502D01*
X129155763Y-108796503D01*
X129263982Y-108825500D01*
X129263984Y-108825500D01*
X129376016Y-108825500D01*
X129376018Y-108825500D01*
X129484237Y-108796503D01*
X129484239Y-108796501D01*
X129484241Y-108796501D01*
X129545274Y-108761263D01*
X129581263Y-108740485D01*
X129660485Y-108661263D01*
X129716503Y-108564237D01*
X129745500Y-108456018D01*
X129745500Y-108343982D01*
X129716503Y-108235763D01*
X129716501Y-108235760D01*
X129716501Y-108235758D01*
X129660486Y-108138739D01*
X129660485Y-108138737D01*
X129581263Y-108059515D01*
X129566250Y-108050847D01*
X129484240Y-108003498D01*
X129484242Y-108003498D01*
X129442251Y-107992247D01*
X129376018Y-107974500D01*
X129263982Y-107974500D01*
X129197748Y-107992247D01*
X129155758Y-108003498D01*
X129058739Y-108059513D01*
X128979513Y-108138739D01*
X128923498Y-108235758D01*
X128908635Y-108291228D01*
X128894500Y-108343982D01*
X127858953Y-108343982D01*
X127175975Y-107661004D01*
X136439500Y-107661004D01*
X136439500Y-108598995D01*
X136466420Y-108734327D01*
X136466420Y-108734329D01*
X136519222Y-108861806D01*
X136519228Y-108861817D01*
X136595885Y-108976541D01*
X136693458Y-109074114D01*
X136808182Y-109150771D01*
X136808193Y-109150777D01*
X136855283Y-109170282D01*
X136935672Y-109203580D01*
X137071007Y-109230500D01*
X137071008Y-109230500D01*
X137208992Y-109230500D01*
X137208993Y-109230500D01*
X137344328Y-109203580D01*
X137471811Y-109150775D01*
X137586542Y-109074114D01*
X137684114Y-108976542D01*
X137760775Y-108861811D01*
X137813580Y-108734328D01*
X137840500Y-108598993D01*
X137840500Y-107661007D01*
X137840499Y-107661004D01*
X145079500Y-107661004D01*
X145079500Y-108598995D01*
X145106420Y-108734327D01*
X145106420Y-108734329D01*
X145159222Y-108861806D01*
X145159228Y-108861817D01*
X145235885Y-108976541D01*
X145333458Y-109074114D01*
X145448182Y-109150771D01*
X145448193Y-109150777D01*
X145495283Y-109170282D01*
X145575672Y-109203580D01*
X145711007Y-109230500D01*
X145711008Y-109230500D01*
X145848992Y-109230500D01*
X145848993Y-109230500D01*
X145984328Y-109203580D01*
X146111811Y-109150775D01*
X146226542Y-109074114D01*
X146324114Y-108976542D01*
X146400775Y-108861811D01*
X146453580Y-108734328D01*
X146480500Y-108598993D01*
X146480500Y-107661007D01*
X146453580Y-107525672D01*
X146400775Y-107398189D01*
X146400774Y-107398188D01*
X146400769Y-107398178D01*
X146397789Y-107393718D01*
X146324114Y-107283458D01*
X146226541Y-107185885D01*
X146111817Y-107109228D01*
X146111806Y-107109222D01*
X145984328Y-107056420D01*
X145848995Y-107029500D01*
X145848993Y-107029500D01*
X145711007Y-107029500D01*
X145711004Y-107029500D01*
X145575672Y-107056420D01*
X145575670Y-107056420D01*
X145448193Y-107109222D01*
X145448182Y-107109228D01*
X145333458Y-107185885D01*
X145235885Y-107283458D01*
X145159228Y-107398182D01*
X145159222Y-107398193D01*
X145106420Y-107525670D01*
X145106420Y-107525672D01*
X145079500Y-107661004D01*
X137840499Y-107661004D01*
X137813580Y-107525672D01*
X137760775Y-107398189D01*
X137760774Y-107398187D01*
X137760771Y-107398182D01*
X137684114Y-107283458D01*
X137586541Y-107185885D01*
X137471817Y-107109228D01*
X137471806Y-107109222D01*
X137344328Y-107056420D01*
X137208995Y-107029500D01*
X137208993Y-107029500D01*
X137071007Y-107029500D01*
X137071004Y-107029500D01*
X136935672Y-107056420D01*
X136935670Y-107056420D01*
X136808193Y-107109222D01*
X136808182Y-107109228D01*
X136693458Y-107185885D01*
X136595885Y-107283458D01*
X136519228Y-107398182D01*
X136519222Y-107398193D01*
X136466420Y-107525670D01*
X136466420Y-107525672D01*
X136439500Y-107661004D01*
X127175975Y-107661004D01*
X125785953Y-106270982D01*
X129614500Y-106270982D01*
X129614500Y-106383018D01*
X129623273Y-106415758D01*
X129643498Y-106491241D01*
X129692146Y-106575500D01*
X129699515Y-106588263D01*
X129778737Y-106667485D01*
X129778739Y-106667486D01*
X129875759Y-106723501D01*
X129875757Y-106723501D01*
X129875761Y-106723502D01*
X129875763Y-106723503D01*
X129983982Y-106752500D01*
X129983984Y-106752500D01*
X130096016Y-106752500D01*
X130096018Y-106752500D01*
X130204237Y-106723503D01*
X130204239Y-106723501D01*
X130204241Y-106723501D01*
X130251846Y-106696016D01*
X130301263Y-106667485D01*
X130380485Y-106588263D01*
X130436503Y-106491237D01*
X130465500Y-106383018D01*
X130465500Y-106270982D01*
X130436503Y-106162763D01*
X130435188Y-106160486D01*
X130422773Y-106138982D01*
X147994500Y-106138982D01*
X147994500Y-106251018D01*
X148012645Y-106318737D01*
X148023498Y-106359241D01*
X148056129Y-106415758D01*
X148079515Y-106456263D01*
X148158737Y-106535485D01*
X148158739Y-106535486D01*
X148255759Y-106591501D01*
X148255757Y-106591501D01*
X148255761Y-106591502D01*
X148255763Y-106591503D01*
X148363982Y-106620500D01*
X148363984Y-106620500D01*
X148476016Y-106620500D01*
X148476018Y-106620500D01*
X148584237Y-106591503D01*
X148584239Y-106591501D01*
X148584241Y-106591501D01*
X148655791Y-106550191D01*
X148681263Y-106535485D01*
X148760485Y-106456263D01*
X148816047Y-106360027D01*
X148816501Y-106359241D01*
X148816501Y-106359239D01*
X148816503Y-106359237D01*
X148845500Y-106251018D01*
X148845500Y-106138982D01*
X148816503Y-106030763D01*
X148816501Y-106030760D01*
X148816501Y-106030758D01*
X148760486Y-105933739D01*
X148760485Y-105933737D01*
X148681263Y-105854515D01*
X148681260Y-105854513D01*
X148584240Y-105798498D01*
X148584242Y-105798498D01*
X148542251Y-105787247D01*
X148476018Y-105769500D01*
X148363982Y-105769500D01*
X148297748Y-105787247D01*
X148255758Y-105798498D01*
X148158739Y-105854513D01*
X148079513Y-105933739D01*
X148023498Y-106030758D01*
X148016650Y-106056316D01*
X147994500Y-106138982D01*
X130422773Y-106138982D01*
X130380486Y-106065739D01*
X130380485Y-106065737D01*
X130301263Y-105986515D01*
X130301260Y-105986513D01*
X130204240Y-105930498D01*
X130204242Y-105930498D01*
X130162251Y-105919247D01*
X130096018Y-105901500D01*
X129983982Y-105901500D01*
X129917748Y-105919247D01*
X129875758Y-105930498D01*
X129778739Y-105986513D01*
X129699513Y-106065739D01*
X129643498Y-106162758D01*
X129627286Y-106223263D01*
X129614500Y-106270982D01*
X125785953Y-106270982D01*
X124368751Y-104853780D01*
X130374500Y-104853780D01*
X130374500Y-104965816D01*
X130396719Y-105048739D01*
X130403498Y-105074039D01*
X130456882Y-105166501D01*
X130459515Y-105171061D01*
X130538737Y-105250283D01*
X130545144Y-105253982D01*
X130635759Y-105306299D01*
X130635757Y-105306299D01*
X130635761Y-105306300D01*
X130635763Y-105306301D01*
X130743982Y-105335298D01*
X130743984Y-105335298D01*
X130856016Y-105335298D01*
X130856018Y-105335298D01*
X130964237Y-105306301D01*
X130964239Y-105306299D01*
X130964241Y-105306299D01*
X130993064Y-105289657D01*
X131061263Y-105250283D01*
X131140485Y-105171061D01*
X131189586Y-105086016D01*
X131196501Y-105074039D01*
X131196501Y-105074037D01*
X131196503Y-105074035D01*
X131225500Y-104965816D01*
X131225500Y-104853780D01*
X131196503Y-104745561D01*
X131196501Y-104745558D01*
X131196501Y-104745556D01*
X131140486Y-104648537D01*
X131140485Y-104648535D01*
X131061263Y-104569313D01*
X131061260Y-104569311D01*
X130964240Y-104513296D01*
X130964242Y-104513296D01*
X130922251Y-104502045D01*
X130856018Y-104484298D01*
X130743982Y-104484298D01*
X130677748Y-104502045D01*
X130635758Y-104513296D01*
X130538739Y-104569311D01*
X130459513Y-104648537D01*
X130403498Y-104745556D01*
X130392657Y-104786016D01*
X130374500Y-104853780D01*
X124368751Y-104853780D01*
X123689496Y-104174525D01*
X123661719Y-104120008D01*
X123660500Y-104104521D01*
X123660500Y-103361004D01*
X136439500Y-103361004D01*
X136439500Y-104598995D01*
X136456177Y-104682834D01*
X136466261Y-104733531D01*
X136466420Y-104734327D01*
X136466420Y-104734329D01*
X136519222Y-104861806D01*
X136519228Y-104861817D01*
X136595885Y-104976541D01*
X136693458Y-105074114D01*
X136808182Y-105150771D01*
X136808193Y-105150777D01*
X136819596Y-105155500D01*
X136935672Y-105203580D01*
X137071007Y-105230500D01*
X137071008Y-105230500D01*
X137208992Y-105230500D01*
X137208993Y-105230500D01*
X137344328Y-105203580D01*
X137471811Y-105150775D01*
X137586542Y-105074114D01*
X137684114Y-104976542D01*
X137760775Y-104861811D01*
X137813580Y-104734328D01*
X137840500Y-104598993D01*
X137840500Y-104410817D01*
X138034500Y-104410817D01*
X138034500Y-104549183D01*
X138070312Y-104682836D01*
X138139495Y-104802665D01*
X138237335Y-104900505D01*
X138357164Y-104969688D01*
X138490817Y-105005500D01*
X138490819Y-105005500D01*
X138629181Y-105005500D01*
X138629183Y-105005500D01*
X138762836Y-104969688D01*
X138882665Y-104900505D01*
X138980505Y-104802665D01*
X139049688Y-104682836D01*
X139052060Y-104673982D01*
X140734500Y-104673982D01*
X140734500Y-104786018D01*
X140759614Y-104879746D01*
X140763498Y-104894241D01*
X140819513Y-104991260D01*
X140819515Y-104991263D01*
X140898737Y-105070485D01*
X140925641Y-105086018D01*
X140995759Y-105126501D01*
X140995757Y-105126501D01*
X140995761Y-105126502D01*
X140995763Y-105126503D01*
X141103982Y-105155500D01*
X141103984Y-105155500D01*
X141216016Y-105155500D01*
X141216018Y-105155500D01*
X141324237Y-105126503D01*
X141324239Y-105126501D01*
X141324241Y-105126501D01*
X141365702Y-105102563D01*
X141421263Y-105070485D01*
X141500485Y-104991263D01*
X141552885Y-104900504D01*
X141556501Y-104894241D01*
X141556501Y-104894239D01*
X141556503Y-104894237D01*
X141585500Y-104786018D01*
X141585500Y-104673982D01*
X141556503Y-104565763D01*
X141556501Y-104565760D01*
X141556501Y-104565758D01*
X141500486Y-104468739D01*
X141500485Y-104468737D01*
X141432565Y-104400817D01*
X143834500Y-104400817D01*
X143834500Y-104539183D01*
X143870312Y-104672836D01*
X143939495Y-104792665D01*
X144037335Y-104890505D01*
X144157164Y-104959688D01*
X144290817Y-104995500D01*
X144290819Y-104995500D01*
X144429181Y-104995500D01*
X144429183Y-104995500D01*
X144562836Y-104959688D01*
X144682665Y-104890505D01*
X144780505Y-104792665D01*
X144849688Y-104672836D01*
X144885500Y-104539183D01*
X144885500Y-104400817D01*
X144849688Y-104267164D01*
X144780505Y-104147335D01*
X144682665Y-104049495D01*
X144562836Y-103980312D01*
X144429183Y-103944500D01*
X144290817Y-103944500D01*
X144157164Y-103980312D01*
X144037335Y-104049495D01*
X143939495Y-104147335D01*
X143870312Y-104267164D01*
X143834500Y-104400817D01*
X141432565Y-104400817D01*
X141421263Y-104389515D01*
X141414983Y-104385889D01*
X141324240Y-104333498D01*
X141324242Y-104333498D01*
X141282251Y-104322247D01*
X141216018Y-104304500D01*
X141103982Y-104304500D01*
X141037748Y-104322247D01*
X140995758Y-104333498D01*
X140898739Y-104389513D01*
X140819513Y-104468739D01*
X140763498Y-104565758D01*
X140752780Y-104605758D01*
X140734500Y-104673982D01*
X139052060Y-104673982D01*
X139085500Y-104549183D01*
X139085500Y-104410817D01*
X139049688Y-104277164D01*
X138980505Y-104157335D01*
X138882665Y-104059495D01*
X138762836Y-103990312D01*
X138629183Y-103954500D01*
X138490817Y-103954500D01*
X138357164Y-103990312D01*
X138237335Y-104059495D01*
X138139495Y-104157335D01*
X138070312Y-104277164D01*
X138034500Y-104410817D01*
X137840500Y-104410817D01*
X137840500Y-103361007D01*
X137840499Y-103361004D01*
X145079500Y-103361004D01*
X145079500Y-104598995D01*
X145096177Y-104682834D01*
X145106261Y-104733531D01*
X145106420Y-104734327D01*
X145106420Y-104734329D01*
X145159222Y-104861806D01*
X145159228Y-104861817D01*
X145235885Y-104976541D01*
X145333458Y-105074114D01*
X145448182Y-105150771D01*
X145448193Y-105150777D01*
X145459596Y-105155500D01*
X145575672Y-105203580D01*
X145711007Y-105230500D01*
X145711008Y-105230500D01*
X145848992Y-105230500D01*
X145848993Y-105230500D01*
X145984328Y-105203580D01*
X146111811Y-105150775D01*
X146226542Y-105074114D01*
X146324114Y-104976542D01*
X146400775Y-104861811D01*
X146453580Y-104734328D01*
X146480500Y-104598993D01*
X146480500Y-103361007D01*
X146453580Y-103225672D01*
X146437601Y-103187094D01*
X146432748Y-103175378D01*
X146419743Y-103143982D01*
X146854500Y-103143982D01*
X146854500Y-103256018D01*
X146877003Y-103340000D01*
X146883498Y-103364241D01*
X146934695Y-103452915D01*
X146939515Y-103461263D01*
X147018737Y-103540485D01*
X147018739Y-103540486D01*
X147115759Y-103596501D01*
X147115757Y-103596501D01*
X147115761Y-103596502D01*
X147115763Y-103596503D01*
X147223982Y-103625500D01*
X147223984Y-103625500D01*
X147336016Y-103625500D01*
X147336018Y-103625500D01*
X147444237Y-103596503D01*
X147444239Y-103596501D01*
X147444241Y-103596501D01*
X147473064Y-103579859D01*
X147541263Y-103540485D01*
X147620485Y-103461263D01*
X147676503Y-103364237D01*
X147705500Y-103256018D01*
X147705500Y-103143982D01*
X147676503Y-103035763D01*
X147676501Y-103035760D01*
X147676501Y-103035758D01*
X147620486Y-102938739D01*
X147620485Y-102938737D01*
X147541263Y-102859515D01*
X147541260Y-102859513D01*
X147444240Y-102803498D01*
X147444242Y-102803498D01*
X147398579Y-102791263D01*
X147336018Y-102774500D01*
X147223982Y-102774500D01*
X147161421Y-102791263D01*
X147115758Y-102803498D01*
X147018739Y-102859513D01*
X146939513Y-102938739D01*
X146883498Y-103035758D01*
X146883497Y-103035763D01*
X146854500Y-103143982D01*
X146419743Y-103143982D01*
X146400777Y-103098193D01*
X146400771Y-103098182D01*
X146324114Y-102983458D01*
X146226541Y-102885885D01*
X146111817Y-102809228D01*
X146111806Y-102809222D01*
X145984328Y-102756420D01*
X145848995Y-102729500D01*
X145848993Y-102729500D01*
X145711007Y-102729500D01*
X145711004Y-102729500D01*
X145575672Y-102756420D01*
X145575670Y-102756420D01*
X145448193Y-102809222D01*
X145448182Y-102809228D01*
X145333458Y-102885885D01*
X145235885Y-102983458D01*
X145159228Y-103098182D01*
X145159222Y-103098193D01*
X145106420Y-103225670D01*
X145106420Y-103225672D01*
X145079500Y-103361004D01*
X137840499Y-103361004D01*
X137813580Y-103225672D01*
X137795978Y-103183177D01*
X137760777Y-103098193D01*
X137760771Y-103098182D01*
X137684114Y-102983458D01*
X137586541Y-102885885D01*
X137471817Y-102809228D01*
X137471806Y-102809222D01*
X137344328Y-102756420D01*
X137208995Y-102729500D01*
X137208993Y-102729500D01*
X137071007Y-102729500D01*
X137071004Y-102729500D01*
X136935672Y-102756420D01*
X136935670Y-102756420D01*
X136808193Y-102809222D01*
X136808182Y-102809228D01*
X136693458Y-102885885D01*
X136595885Y-102983458D01*
X136519228Y-103098182D01*
X136519222Y-103098193D01*
X136466420Y-103225670D01*
X136466420Y-103225672D01*
X136439500Y-103361004D01*
X123660500Y-103361004D01*
X123660500Y-102342255D01*
X123679407Y-102284064D01*
X123689490Y-102272257D01*
X123700485Y-102261263D01*
X123756503Y-102164237D01*
X123785500Y-102056018D01*
X123785500Y-101943982D01*
X123756503Y-101835763D01*
X123756501Y-101835760D01*
X123756501Y-101835758D01*
X123700486Y-101738739D01*
X123700485Y-101738737D01*
X123621263Y-101659515D01*
X123621260Y-101659513D01*
X123524240Y-101603498D01*
X123524242Y-101603498D01*
X123482251Y-101592247D01*
X123416018Y-101574500D01*
X123303982Y-101574500D01*
X123237748Y-101592247D01*
X123195758Y-101603498D01*
X123098739Y-101659513D01*
X123019513Y-101738739D01*
X122963498Y-101835758D01*
X122961424Y-101843498D01*
X122934500Y-101943982D01*
X122934500Y-102056018D01*
X122952292Y-102122420D01*
X122963498Y-102164241D01*
X123005547Y-102237070D01*
X123019515Y-102261263D01*
X123030505Y-102272253D01*
X123058281Y-102326768D01*
X123059500Y-102342255D01*
X123059500Y-104309564D01*
X123076632Y-104373498D01*
X123079979Y-104385989D01*
X123105108Y-104429513D01*
X123105109Y-104429516D01*
X123105110Y-104429516D01*
X123119540Y-104454511D01*
X124220527Y-105555498D01*
X124248303Y-105610013D01*
X124238732Y-105670445D01*
X124195467Y-105713710D01*
X124150522Y-105724500D01*
X124146018Y-105724500D01*
X124033982Y-105724500D01*
X123967748Y-105742247D01*
X123925758Y-105753498D01*
X123828739Y-105809513D01*
X123749513Y-105888739D01*
X123693498Y-105985758D01*
X123690935Y-105995323D01*
X123664500Y-106093982D01*
X123664500Y-106206018D01*
X123674543Y-106243498D01*
X123693498Y-106314241D01*
X123742866Y-106399747D01*
X123749515Y-106411263D01*
X123828737Y-106490485D01*
X123861079Y-106509157D01*
X123925759Y-106546501D01*
X123925757Y-106546501D01*
X123925761Y-106546502D01*
X123925763Y-106546503D01*
X124033982Y-106575500D01*
X124033984Y-106575500D01*
X124146016Y-106575500D01*
X124146018Y-106575500D01*
X124254237Y-106546503D01*
X124254239Y-106546501D01*
X124254241Y-106546501D01*
X124293243Y-106523983D01*
X124351263Y-106490485D01*
X124430485Y-106411263D01*
X124486503Y-106314237D01*
X124515500Y-106206018D01*
X124515500Y-106093982D01*
X124515500Y-106089478D01*
X124534407Y-106031287D01*
X124583907Y-105995323D01*
X124645093Y-105995323D01*
X124684501Y-106019472D01*
X129319540Y-110654511D01*
X129319539Y-110654511D01*
X129375489Y-110710460D01*
X129444007Y-110750019D01*
X129444011Y-110750021D01*
X129520435Y-110770499D01*
X129520437Y-110770500D01*
X129520438Y-110770500D01*
X129599562Y-110770500D01*
X168237745Y-110770500D01*
X168295936Y-110789407D01*
X168296077Y-110789510D01*
X168302300Y-110794048D01*
X168318737Y-110810485D01*
X168348037Y-110827401D01*
X168352300Y-110830510D01*
X168367297Y-110851228D01*
X168384409Y-110870234D01*
X168384978Y-110875656D01*
X168388176Y-110880073D01*
X168388131Y-110905652D01*
X168390804Y-110931084D01*
X168388078Y-110935804D01*
X168388069Y-110941259D01*
X168372996Y-110961926D01*
X168360211Y-110984072D01*
X168355229Y-110986289D01*
X168352017Y-110990695D01*
X168327680Y-110998555D01*
X168304315Y-111008958D01*
X168293968Y-111009500D01*
X116469000Y-111009500D01*
X116410809Y-110990593D01*
X116374845Y-110941093D01*
X116370000Y-110910500D01*
X116370000Y-110046474D01*
X116388907Y-109988283D01*
X116416334Y-109962645D01*
X116419039Y-109960946D01*
X116682523Y-109750825D01*
X116920825Y-109512523D01*
X116983459Y-109433983D01*
X117130941Y-109249045D01*
X117130946Y-109249039D01*
X117310246Y-108963686D01*
X117456469Y-108660051D01*
X117560388Y-108363067D01*
X117567775Y-108341957D01*
X117569020Y-108336503D01*
X117642767Y-108013394D01*
X117680500Y-107678504D01*
X117680500Y-107341496D01*
X117642767Y-107006606D01*
X117567776Y-106678046D01*
X117549099Y-106624669D01*
X117523038Y-106550191D01*
X117513867Y-106523982D01*
X120804500Y-106523982D01*
X120804500Y-106636018D01*
X120820577Y-106696018D01*
X120833498Y-106744241D01*
X120873444Y-106813428D01*
X120889515Y-106841263D01*
X120968737Y-106920485D01*
X120972428Y-106922616D01*
X121065759Y-106976501D01*
X121065757Y-106976501D01*
X121065761Y-106976502D01*
X121065763Y-106976503D01*
X121173982Y-107005500D01*
X121173984Y-107005500D01*
X121286016Y-107005500D01*
X121286018Y-107005500D01*
X121394237Y-106976503D01*
X121394239Y-106976501D01*
X121394241Y-106976501D01*
X121465263Y-106935496D01*
X121491263Y-106920485D01*
X121551775Y-106859972D01*
X121606289Y-106832196D01*
X121666721Y-106841767D01*
X121707513Y-106880474D01*
X121719515Y-106901263D01*
X121798737Y-106980485D01*
X121798739Y-106980486D01*
X121895759Y-107036501D01*
X121895757Y-107036501D01*
X121895761Y-107036502D01*
X121895763Y-107036503D01*
X122003982Y-107065500D01*
X122003984Y-107065500D01*
X122103745Y-107065500D01*
X122161936Y-107084407D01*
X122197900Y-107133907D01*
X122197900Y-107195093D01*
X122173750Y-107234501D01*
X122153164Y-107255088D01*
X122139513Y-107268739D01*
X122083498Y-107365758D01*
X122074807Y-107398193D01*
X122054500Y-107473982D01*
X122054500Y-107586018D01*
X122059613Y-107605099D01*
X122083498Y-107694241D01*
X122115737Y-107750079D01*
X122139515Y-107791263D01*
X122218737Y-107870485D01*
X122242116Y-107883983D01*
X122315759Y-107926501D01*
X122315757Y-107926501D01*
X122315761Y-107926502D01*
X122315763Y-107926503D01*
X122423982Y-107955500D01*
X122423984Y-107955500D01*
X122536016Y-107955500D01*
X122536018Y-107955500D01*
X122644237Y-107926503D01*
X122644239Y-107926501D01*
X122644241Y-107926501D01*
X122673064Y-107909859D01*
X122741263Y-107870485D01*
X122820485Y-107791263D01*
X122876503Y-107694237D01*
X122905500Y-107586018D01*
X122905500Y-107473982D01*
X122876503Y-107365763D01*
X122876501Y-107365760D01*
X122876501Y-107365758D01*
X122820486Y-107268739D01*
X122820485Y-107268737D01*
X122741263Y-107189515D01*
X122741260Y-107189513D01*
X122644240Y-107133498D01*
X122644242Y-107133498D01*
X122593820Y-107119988D01*
X122536018Y-107104500D01*
X122436255Y-107104500D01*
X122378064Y-107085593D01*
X122342100Y-107036093D01*
X122342100Y-106974907D01*
X122366249Y-106935498D01*
X122400485Y-106901263D01*
X122456503Y-106804237D01*
X122485500Y-106696018D01*
X122485500Y-106583982D01*
X122456503Y-106475763D01*
X122456501Y-106475760D01*
X122456501Y-106475758D01*
X122400486Y-106378739D01*
X122400485Y-106378737D01*
X122321263Y-106299515D01*
X122321260Y-106299513D01*
X122224240Y-106243498D01*
X122224242Y-106243498D01*
X122182251Y-106232247D01*
X122116018Y-106214500D01*
X122003982Y-106214500D01*
X121937748Y-106232247D01*
X121895758Y-106243498D01*
X121798737Y-106299514D01*
X121738224Y-106360027D01*
X121683707Y-106387804D01*
X121623275Y-106378232D01*
X121582486Y-106339524D01*
X121570485Y-106318737D01*
X121491263Y-106239515D01*
X121491260Y-106239513D01*
X121394240Y-106183498D01*
X121394242Y-106183498D01*
X121352251Y-106172247D01*
X121286018Y-106154500D01*
X121173982Y-106154500D01*
X121107748Y-106172247D01*
X121065758Y-106183498D01*
X120968739Y-106239513D01*
X120889513Y-106318739D01*
X120833498Y-106415758D01*
X120833497Y-106415763D01*
X120804500Y-106523982D01*
X117513867Y-106523982D01*
X117475997Y-106415758D01*
X117456469Y-106359949D01*
X117350057Y-106138982D01*
X117310253Y-106056328D01*
X117310247Y-106056316D01*
X117294188Y-106030758D01*
X117130946Y-105770961D01*
X117130943Y-105770957D01*
X117130941Y-105770954D01*
X116920834Y-105507487D01*
X116920828Y-105507481D01*
X116920825Y-105507477D01*
X116682523Y-105269175D01*
X116682518Y-105269171D01*
X116682512Y-105269165D01*
X116419045Y-105059058D01*
X116419038Y-105059053D01*
X116416320Y-105057345D01*
X116404205Y-105042830D01*
X116388907Y-105031716D01*
X116385069Y-105019905D01*
X116377113Y-105010373D01*
X116370088Y-104973982D01*
X119574500Y-104973982D01*
X119574500Y-105086018D01*
X119591852Y-105150777D01*
X119603498Y-105194241D01*
X119646762Y-105269175D01*
X119659515Y-105291263D01*
X119738737Y-105370485D01*
X119738739Y-105370486D01*
X119835759Y-105426501D01*
X119835757Y-105426501D01*
X119835761Y-105426502D01*
X119835763Y-105426503D01*
X119943982Y-105455500D01*
X119943984Y-105455500D01*
X120056016Y-105455500D01*
X120056018Y-105455500D01*
X120164237Y-105426503D01*
X120180912Y-105416875D01*
X120240758Y-105404153D01*
X120296655Y-105429037D01*
X120327249Y-105482025D01*
X120326041Y-105528229D01*
X120324500Y-105533979D01*
X120324500Y-105533982D01*
X120324500Y-105646018D01*
X120350072Y-105741455D01*
X120353498Y-105754241D01*
X120387132Y-105812495D01*
X120409515Y-105851263D01*
X120488737Y-105930485D01*
X120488739Y-105930486D01*
X120585759Y-105986501D01*
X120585757Y-105986501D01*
X120585761Y-105986502D01*
X120585763Y-105986503D01*
X120693982Y-106015500D01*
X120693984Y-106015500D01*
X120806016Y-106015500D01*
X120806018Y-106015500D01*
X120914237Y-105986503D01*
X120914239Y-105986501D01*
X120914241Y-105986501D01*
X120943064Y-105969859D01*
X121011263Y-105930485D01*
X121090485Y-105851263D01*
X121129859Y-105783064D01*
X121146501Y-105754241D01*
X121146501Y-105754239D01*
X121146503Y-105754237D01*
X121175500Y-105646018D01*
X121175500Y-105533982D01*
X121146503Y-105425763D01*
X121106621Y-105356686D01*
X121102308Y-105336393D01*
X121093889Y-105317430D01*
X121096395Y-105308578D01*
X121093900Y-105296839D01*
X121106675Y-105257595D01*
X121110140Y-105251607D01*
X121110485Y-105251263D01*
X121166503Y-105154237D01*
X121166509Y-105154213D01*
X121168702Y-105150425D01*
X121169006Y-105149900D01*
X121169007Y-105149898D01*
X121169060Y-105149808D01*
X121191567Y-105129585D01*
X121214476Y-105108959D01*
X121214531Y-105108953D01*
X121214573Y-105108916D01*
X121244487Y-105105804D01*
X121275326Y-105102563D01*
X121275395Y-105102589D01*
X121275430Y-105102586D01*
X121275516Y-105102636D01*
X121304241Y-105113663D01*
X121395763Y-105166503D01*
X121503982Y-105195500D01*
X121503984Y-105195500D01*
X121616016Y-105195500D01*
X121616018Y-105195500D01*
X121724237Y-105166503D01*
X121724239Y-105166501D01*
X121724241Y-105166501D01*
X121760168Y-105145758D01*
X121821263Y-105110485D01*
X121900485Y-105031263D01*
X121956503Y-104934237D01*
X121985500Y-104826018D01*
X121985500Y-104713982D01*
X121956503Y-104605763D01*
X121956501Y-104605760D01*
X121956501Y-104605758D01*
X121903117Y-104513296D01*
X121900485Y-104508737D01*
X121821263Y-104429515D01*
X121821260Y-104429513D01*
X121724240Y-104373498D01*
X121724242Y-104373498D01*
X121682251Y-104362247D01*
X121616018Y-104344500D01*
X121503982Y-104344500D01*
X121449872Y-104358998D01*
X121395761Y-104373497D01*
X121334000Y-104409156D01*
X121274152Y-104421877D01*
X121218256Y-104396990D01*
X121187663Y-104344002D01*
X121185500Y-104323419D01*
X121185500Y-104283983D01*
X121183673Y-104277164D01*
X121156503Y-104175763D01*
X121100485Y-104078737D01*
X121100482Y-104078734D01*
X121099129Y-104076390D01*
X121086407Y-104016542D01*
X121111293Y-103960646D01*
X121114843Y-103956904D01*
X121150485Y-103921263D01*
X121206503Y-103824237D01*
X121235500Y-103716018D01*
X121235500Y-103603982D01*
X121206503Y-103495763D01*
X121206501Y-103495760D01*
X121206501Y-103495758D01*
X121150486Y-103398739D01*
X121150485Y-103398737D01*
X121071263Y-103319515D01*
X121071260Y-103319513D01*
X120974240Y-103263498D01*
X120974242Y-103263498D01*
X120908541Y-103245894D01*
X120866018Y-103234500D01*
X120753982Y-103234500D01*
X120711459Y-103245894D01*
X120645758Y-103263498D01*
X120548739Y-103319513D01*
X120469513Y-103398739D01*
X120413498Y-103495758D01*
X120397286Y-103556263D01*
X120384500Y-103603982D01*
X120384500Y-103716018D01*
X120413497Y-103824237D01*
X120469515Y-103921263D01*
X120469516Y-103921264D01*
X120470870Y-103923609D01*
X120483592Y-103983458D01*
X120458706Y-104039353D01*
X120455138Y-104043113D01*
X120419514Y-104078737D01*
X120363498Y-104175758D01*
X120363497Y-104175763D01*
X120334500Y-104283982D01*
X120334500Y-104396018D01*
X120358154Y-104484298D01*
X120363498Y-104504241D01*
X120390332Y-104550718D01*
X120403054Y-104610566D01*
X120378167Y-104666462D01*
X120325179Y-104697055D01*
X120264329Y-104690659D01*
X120255096Y-104685954D01*
X120164240Y-104633498D01*
X120164242Y-104633498D01*
X120122165Y-104622224D01*
X120056018Y-104604500D01*
X119943982Y-104604500D01*
X119877835Y-104622224D01*
X119835758Y-104633498D01*
X119738739Y-104689513D01*
X119659513Y-104768739D01*
X119603498Y-104865758D01*
X119587286Y-104926263D01*
X119574500Y-104973982D01*
X116370088Y-104973982D01*
X116370000Y-104973525D01*
X116370000Y-102183982D01*
X120174500Y-102183982D01*
X120174500Y-102296018D01*
X120197133Y-102380485D01*
X120203498Y-102404241D01*
X120247519Y-102480486D01*
X120259515Y-102501263D01*
X120338737Y-102580485D01*
X120371079Y-102599157D01*
X120435759Y-102636501D01*
X120435757Y-102636501D01*
X120435761Y-102636502D01*
X120435763Y-102636503D01*
X120543982Y-102665500D01*
X120543984Y-102665500D01*
X120656016Y-102665500D01*
X120656018Y-102665500D01*
X120764237Y-102636503D01*
X120764239Y-102636501D01*
X120764241Y-102636501D01*
X120807386Y-102611591D01*
X120861263Y-102580485D01*
X120940485Y-102501263D01*
X120970788Y-102448775D01*
X121016256Y-102407837D01*
X121077106Y-102401441D01*
X121126524Y-102428272D01*
X121178737Y-102480485D01*
X121178739Y-102480486D01*
X121275759Y-102536501D01*
X121275757Y-102536501D01*
X121275761Y-102536502D01*
X121275763Y-102536503D01*
X121383982Y-102565500D01*
X121383984Y-102565500D01*
X121496016Y-102565500D01*
X121496018Y-102565500D01*
X121604237Y-102536503D01*
X121604239Y-102536501D01*
X121604241Y-102536501D01*
X121650107Y-102510020D01*
X121701263Y-102480485D01*
X121780485Y-102401263D01*
X121836503Y-102304237D01*
X121865500Y-102196018D01*
X121865500Y-102083982D01*
X121836503Y-101975763D01*
X121836501Y-101975760D01*
X121836501Y-101975758D01*
X121780486Y-101878739D01*
X121780485Y-101878737D01*
X121701263Y-101799515D01*
X121697361Y-101797262D01*
X121604240Y-101743498D01*
X121604242Y-101743498D01*
X121562251Y-101732247D01*
X121496018Y-101714500D01*
X121383982Y-101714500D01*
X121317748Y-101732247D01*
X121275758Y-101743498D01*
X121178739Y-101799513D01*
X121099514Y-101878738D01*
X121069212Y-101931222D01*
X121023742Y-101972163D01*
X120962891Y-101978557D01*
X120913474Y-101951726D01*
X120861263Y-101899515D01*
X120850911Y-101893538D01*
X120764240Y-101843498D01*
X120764242Y-101843498D01*
X120722251Y-101832247D01*
X120656018Y-101814500D01*
X120543982Y-101814500D01*
X120477748Y-101832247D01*
X120435758Y-101843498D01*
X120338739Y-101899513D01*
X120259513Y-101978739D01*
X120203498Y-102075758D01*
X120195797Y-102104500D01*
X120174500Y-102183982D01*
X116370000Y-102183982D01*
X116370000Y-98988982D01*
X118859500Y-98988982D01*
X118859500Y-99101018D01*
X118873760Y-99154237D01*
X118888498Y-99209241D01*
X118944513Y-99306260D01*
X118944515Y-99306263D01*
X119023737Y-99385485D01*
X119023739Y-99385486D01*
X119120759Y-99441501D01*
X119120757Y-99441501D01*
X119120761Y-99441502D01*
X119120763Y-99441503D01*
X119228982Y-99470500D01*
X119228984Y-99470500D01*
X119341016Y-99470500D01*
X119341018Y-99470500D01*
X119449237Y-99441503D01*
X119449239Y-99441501D01*
X119449241Y-99441501D01*
X119492538Y-99416503D01*
X119546263Y-99385485D01*
X119625485Y-99306263D01*
X119669264Y-99230435D01*
X119681501Y-99209241D01*
X119681501Y-99209239D01*
X119681503Y-99209237D01*
X119710500Y-99101018D01*
X119710500Y-98988982D01*
X119681503Y-98880763D01*
X119681501Y-98880760D01*
X119681501Y-98880758D01*
X119625486Y-98783739D01*
X119625485Y-98783737D01*
X119546263Y-98704515D01*
X119546260Y-98704513D01*
X119449240Y-98648498D01*
X119449242Y-98648498D01*
X119407251Y-98637247D01*
X119341018Y-98619500D01*
X119228982Y-98619500D01*
X119162748Y-98637247D01*
X119120758Y-98648498D01*
X119023739Y-98704513D01*
X118944513Y-98783739D01*
X118888498Y-98880758D01*
X118875034Y-98931009D01*
X118859500Y-98988982D01*
X116370000Y-98988982D01*
X116370000Y-87983982D01*
X125544500Y-87983982D01*
X125544500Y-88096018D01*
X125548176Y-88109737D01*
X125573498Y-88204241D01*
X125617676Y-88280758D01*
X125629515Y-88301263D01*
X125708737Y-88380485D01*
X125708739Y-88380486D01*
X125805759Y-88436501D01*
X125805757Y-88436501D01*
X125805761Y-88436502D01*
X125805763Y-88436503D01*
X125913982Y-88465500D01*
X125913984Y-88465500D01*
X126026016Y-88465500D01*
X126026018Y-88465500D01*
X126134237Y-88436503D01*
X126134239Y-88436501D01*
X126134241Y-88436501D01*
X126165861Y-88418245D01*
X126231263Y-88380485D01*
X126310485Y-88301263D01*
X126366503Y-88204237D01*
X126395500Y-88096018D01*
X126395500Y-87983982D01*
X126366503Y-87875763D01*
X126366501Y-87875760D01*
X126366501Y-87875758D01*
X126311943Y-87781263D01*
X126310485Y-87778737D01*
X126231263Y-87699515D01*
X126207886Y-87686018D01*
X126134240Y-87643498D01*
X126134242Y-87643498D01*
X126092251Y-87632247D01*
X126026018Y-87614500D01*
X125913982Y-87614500D01*
X125847748Y-87632247D01*
X125805758Y-87643498D01*
X125708739Y-87699513D01*
X125629513Y-87778739D01*
X125573498Y-87875758D01*
X125569344Y-87891263D01*
X125544500Y-87983982D01*
X116370000Y-87983982D01*
X116370000Y-83046474D01*
X116388907Y-82988283D01*
X116416334Y-82962645D01*
X116419039Y-82960946D01*
X116616474Y-82803497D01*
X116682512Y-82750834D01*
X116682513Y-82750832D01*
X116682523Y-82750825D01*
X116920825Y-82512523D01*
X116926494Y-82505415D01*
X117125382Y-82256016D01*
X117130946Y-82249039D01*
X117310246Y-81963686D01*
X117401603Y-81773982D01*
X120244500Y-81773982D01*
X120244500Y-81886018D01*
X120265307Y-81963671D01*
X120273498Y-81994241D01*
X120329513Y-82091260D01*
X120329515Y-82091263D01*
X120408737Y-82170485D01*
X120408739Y-82170486D01*
X120505759Y-82226501D01*
X120505757Y-82226501D01*
X120505761Y-82226502D01*
X120505763Y-82226503D01*
X120613982Y-82255500D01*
X120613984Y-82255500D01*
X120726016Y-82255500D01*
X120726018Y-82255500D01*
X120834237Y-82226503D01*
X120834239Y-82226501D01*
X120834241Y-82226501D01*
X120863064Y-82209859D01*
X120931263Y-82170485D01*
X121010485Y-82091263D01*
X121066503Y-81994237D01*
X121095500Y-81886018D01*
X121095500Y-81773982D01*
X121066503Y-81665763D01*
X121066501Y-81665760D01*
X121066501Y-81665758D01*
X121010486Y-81568739D01*
X121010485Y-81568737D01*
X120931263Y-81489515D01*
X120931260Y-81489513D01*
X120834240Y-81433498D01*
X120834242Y-81433498D01*
X120792251Y-81422247D01*
X120726018Y-81404500D01*
X120613982Y-81404500D01*
X120547748Y-81422247D01*
X120505758Y-81433498D01*
X120408739Y-81489513D01*
X120329513Y-81568739D01*
X120273498Y-81665758D01*
X120273497Y-81665763D01*
X120244500Y-81773982D01*
X117401603Y-81773982D01*
X117456469Y-81660051D01*
X117567776Y-81341954D01*
X117642767Y-81013394D01*
X117680500Y-80678504D01*
X117680500Y-80341496D01*
X117642767Y-80006606D01*
X117567776Y-79678046D01*
X117566354Y-79673983D01*
X117494536Y-79468739D01*
X117456469Y-79359949D01*
X117310246Y-79056314D01*
X117239663Y-78943982D01*
X122194500Y-78943982D01*
X122194500Y-79056018D01*
X122220072Y-79151455D01*
X122223498Y-79164241D01*
X122279513Y-79261260D01*
X122279515Y-79261263D01*
X122348250Y-79329998D01*
X122376026Y-79384513D01*
X122366455Y-79444945D01*
X122353109Y-79463313D01*
X122353466Y-79463587D01*
X122349515Y-79468735D01*
X122293498Y-79565758D01*
X122293497Y-79565763D01*
X122264500Y-79673982D01*
X122264500Y-79786018D01*
X122290072Y-79881455D01*
X122293498Y-79894241D01*
X122349513Y-79991260D01*
X122349515Y-79991263D01*
X122428737Y-80070485D01*
X122443183Y-80078825D01*
X122484123Y-80124292D01*
X122490520Y-80185142D01*
X122463688Y-80234563D01*
X122449514Y-80248736D01*
X122393498Y-80345758D01*
X122389812Y-80359515D01*
X122364500Y-80453982D01*
X122364500Y-80566018D01*
X122376786Y-80611870D01*
X122393498Y-80674241D01*
X122449513Y-80771260D01*
X122449515Y-80771263D01*
X122528737Y-80850485D01*
X122528739Y-80850486D01*
X122625759Y-80906501D01*
X122625757Y-80906501D01*
X122625761Y-80906502D01*
X122625763Y-80906503D01*
X122733982Y-80935500D01*
X122733984Y-80935500D01*
X122846016Y-80935500D01*
X122846018Y-80935500D01*
X122954237Y-80906503D01*
X122954239Y-80906501D01*
X122954241Y-80906501D01*
X122992347Y-80884500D01*
X123051263Y-80850485D01*
X123130485Y-80771263D01*
X123184039Y-80678505D01*
X123186501Y-80674241D01*
X123186501Y-80674239D01*
X123186503Y-80674237D01*
X123215500Y-80566018D01*
X123215500Y-80453982D01*
X123186503Y-80345763D01*
X123186501Y-80345760D01*
X123186501Y-80345758D01*
X123130486Y-80248739D01*
X123130485Y-80248737D01*
X123051263Y-80169515D01*
X123036814Y-80161172D01*
X122995875Y-80115705D01*
X122989479Y-80054855D01*
X123016312Y-80005435D01*
X123030485Y-79991263D01*
X123086503Y-79894237D01*
X123115500Y-79786018D01*
X123115500Y-79673982D01*
X123086503Y-79565763D01*
X123086501Y-79565760D01*
X123086501Y-79565758D01*
X123030486Y-79468739D01*
X123030485Y-79468737D01*
X122961749Y-79400001D01*
X122933974Y-79345487D01*
X122943545Y-79285055D01*
X122956890Y-79266686D01*
X122956534Y-79266413D01*
X122960484Y-79261264D01*
X122960487Y-79261260D01*
X123016503Y-79164237D01*
X123045500Y-79056018D01*
X123045500Y-78943982D01*
X123016503Y-78835763D01*
X123016501Y-78835760D01*
X123016501Y-78835758D01*
X122960486Y-78738739D01*
X122960485Y-78738737D01*
X122881263Y-78659515D01*
X122881260Y-78659513D01*
X122784240Y-78603498D01*
X122784242Y-78603498D01*
X122742251Y-78592247D01*
X122676018Y-78574500D01*
X122563982Y-78574500D01*
X122497748Y-78592247D01*
X122455758Y-78603498D01*
X122358739Y-78659513D01*
X122279513Y-78738739D01*
X122223498Y-78835758D01*
X122223497Y-78835763D01*
X122194500Y-78943982D01*
X117239663Y-78943982D01*
X117130946Y-78770961D01*
X117130943Y-78770957D01*
X117130941Y-78770954D01*
X116920834Y-78507487D01*
X116920828Y-78507481D01*
X116920825Y-78507477D01*
X116682523Y-78269175D01*
X116682518Y-78269171D01*
X116682512Y-78269165D01*
X116419045Y-78059058D01*
X116419038Y-78059053D01*
X116416320Y-78057345D01*
X116377113Y-78010373D01*
X116370000Y-77973525D01*
X116370000Y-77109500D01*
X116388907Y-77051309D01*
X116438407Y-77015345D01*
X116469000Y-77010500D01*
X128464543Y-77010500D01*
X128522734Y-77029407D01*
G37*
%TD.AperFunction*%
%TA.AperFunction,Conductor*%
G36*
X137051748Y-93542157D02*
G01*
X137056996Y-93541042D01*
X137080436Y-93551478D01*
X137104839Y-93559407D01*
X137107992Y-93563746D01*
X137112891Y-93565928D01*
X137125716Y-93588142D01*
X137140803Y-93608907D01*
X137140803Y-93614272D01*
X137143484Y-93618916D01*
X137140803Y-93644426D01*
X137140803Y-93670093D01*
X137137649Y-93674433D01*
X137137089Y-93679766D01*
X137119924Y-93698830D01*
X137104839Y-93719593D01*
X137096153Y-93725233D01*
X137092949Y-93727083D01*
X137088738Y-93729514D01*
X137009513Y-93808739D01*
X136953498Y-93905758D01*
X136941559Y-93950317D01*
X136924500Y-94013982D01*
X136924500Y-94126018D01*
X136945390Y-94203982D01*
X136953498Y-94234241D01*
X137000713Y-94316018D01*
X137009515Y-94331263D01*
X137088737Y-94410485D01*
X137088739Y-94410486D01*
X137185759Y-94466501D01*
X137185757Y-94466501D01*
X137185761Y-94466502D01*
X137185763Y-94466503D01*
X137293982Y-94495500D01*
X137293984Y-94495500D01*
X137406016Y-94495500D01*
X137406018Y-94495500D01*
X137514237Y-94466503D01*
X137514239Y-94466501D01*
X137514241Y-94466501D01*
X137550634Y-94445489D01*
X137611263Y-94410485D01*
X137611269Y-94410478D01*
X137614732Y-94407823D01*
X137672407Y-94387398D01*
X137731073Y-94404775D01*
X137735268Y-94407823D01*
X137738733Y-94410481D01*
X137738737Y-94410485D01*
X137771698Y-94429515D01*
X137835759Y-94466501D01*
X137835757Y-94466501D01*
X137835761Y-94466502D01*
X137835763Y-94466503D01*
X137943982Y-94495500D01*
X137943984Y-94495500D01*
X138056016Y-94495500D01*
X138056018Y-94495500D01*
X138164237Y-94466503D01*
X138164239Y-94466501D01*
X138164241Y-94466501D01*
X138207382Y-94441593D01*
X138261263Y-94410485D01*
X138340485Y-94331263D01*
X138381574Y-94260095D01*
X138396501Y-94234241D01*
X138396501Y-94234239D01*
X138396503Y-94234237D01*
X138425500Y-94126018D01*
X138425500Y-94013982D01*
X138396503Y-93905763D01*
X138396501Y-93905760D01*
X138396501Y-93905758D01*
X138346841Y-93819746D01*
X138340485Y-93808737D01*
X138261263Y-93729515D01*
X138253850Y-93725235D01*
X138212911Y-93679766D01*
X138206516Y-93618916D01*
X138237109Y-93565928D01*
X138293004Y-93541042D01*
X138303352Y-93540500D01*
X144132683Y-93540500D01*
X144156937Y-93548380D01*
X144181896Y-93553599D01*
X144185610Y-93557696D01*
X144190874Y-93559407D01*
X144205866Y-93580041D01*
X144222989Y-93598931D01*
X144223411Y-93604191D01*
X144226838Y-93608907D01*
X144229588Y-93659760D01*
X144229025Y-93662452D01*
X144204500Y-93753982D01*
X144204500Y-93779760D01*
X144202405Y-93789781D01*
X144192037Y-93807876D01*
X144185593Y-93827712D01*
X144175504Y-93839525D01*
X141774525Y-96240504D01*
X141720008Y-96268281D01*
X141704521Y-96269500D01*
X132462255Y-96269500D01*
X132404064Y-96250593D01*
X132392257Y-96240509D01*
X132381263Y-96229515D01*
X132355352Y-96214555D01*
X132284240Y-96173498D01*
X132284242Y-96173498D01*
X132235731Y-96160500D01*
X132176018Y-96144500D01*
X132063982Y-96144500D01*
X132004269Y-96160500D01*
X131955758Y-96173498D01*
X131858739Y-96229513D01*
X131779513Y-96308739D01*
X131723498Y-96405758D01*
X131712780Y-96445758D01*
X131694500Y-96513982D01*
X131694500Y-96626018D01*
X131711306Y-96688739D01*
X131723498Y-96734241D01*
X131779513Y-96831260D01*
X131779515Y-96831263D01*
X131858737Y-96910485D01*
X131858739Y-96910486D01*
X131955759Y-96966501D01*
X131955757Y-96966501D01*
X131955761Y-96966502D01*
X131955763Y-96966503D01*
X132063982Y-96995500D01*
X132063984Y-96995500D01*
X132176016Y-96995500D01*
X132176018Y-96995500D01*
X132284237Y-96966503D01*
X132296289Y-96959545D01*
X132356137Y-96946822D01*
X132412033Y-96971707D01*
X132442627Y-97024695D01*
X132443525Y-97047493D01*
X132444500Y-97047493D01*
X132444500Y-97053982D01*
X132444500Y-97166018D01*
X132461982Y-97231263D01*
X132473498Y-97274241D01*
X132529513Y-97371260D01*
X132529515Y-97371263D01*
X132578750Y-97420498D01*
X132606526Y-97475013D01*
X132596955Y-97535445D01*
X132553690Y-97578710D01*
X132508745Y-97589500D01*
X128019562Y-97589500D01*
X127940438Y-97589500D01*
X127899385Y-97600500D01*
X127864007Y-97609979D01*
X127795493Y-97649536D01*
X126569525Y-98875504D01*
X126515008Y-98903281D01*
X126499521Y-98904500D01*
X126483982Y-98904500D01*
X126427949Y-98919514D01*
X126375758Y-98933498D01*
X126278739Y-98989513D01*
X126278737Y-98989515D01*
X126199515Y-99068737D01*
X126195312Y-99076018D01*
X126195236Y-99076149D01*
X126149766Y-99117089D01*
X126088916Y-99123484D01*
X126035928Y-99092891D01*
X126011042Y-99036996D01*
X126010500Y-99026648D01*
X126010500Y-96705478D01*
X126029407Y-96647287D01*
X126039490Y-96635480D01*
X128724654Y-93950315D01*
X128779169Y-93922540D01*
X128839601Y-93932111D01*
X128880392Y-93970821D01*
X128900384Y-94005448D01*
X128909515Y-94021263D01*
X128988737Y-94100485D01*
X129045518Y-94133267D01*
X129086458Y-94178736D01*
X129092854Y-94239586D01*
X129066021Y-94289006D01*
X128965489Y-94389539D01*
X128909539Y-94445489D01*
X128869980Y-94514007D01*
X128869979Y-94514010D01*
X128849500Y-94590435D01*
X128849500Y-95107744D01*
X128830593Y-95165935D01*
X128820506Y-95177745D01*
X128809514Y-95188736D01*
X128753498Y-95285758D01*
X128753497Y-95285763D01*
X128724500Y-95393982D01*
X128724500Y-95506018D01*
X128748070Y-95593982D01*
X128753498Y-95614241D01*
X128809513Y-95711260D01*
X128809515Y-95711263D01*
X128888737Y-95790485D01*
X128888739Y-95790486D01*
X128985759Y-95846501D01*
X128985757Y-95846501D01*
X128985761Y-95846502D01*
X128985763Y-95846503D01*
X129093982Y-95875500D01*
X129093984Y-95875500D01*
X129206016Y-95875500D01*
X129206018Y-95875500D01*
X129314237Y-95846503D01*
X129314239Y-95846501D01*
X129314241Y-95846501D01*
X129370123Y-95814237D01*
X129411263Y-95790485D01*
X129490485Y-95711263D01*
X129546503Y-95614237D01*
X129575500Y-95506018D01*
X129575500Y-95506014D01*
X129576782Y-95501230D01*
X129610106Y-95449915D01*
X129667227Y-95427988D01*
X129698028Y-95431225D01*
X129713982Y-95435500D01*
X129713984Y-95435500D01*
X129826016Y-95435500D01*
X129826018Y-95435500D01*
X129934237Y-95406503D01*
X129934239Y-95406501D01*
X129934241Y-95406501D01*
X129966070Y-95388124D01*
X130031263Y-95350485D01*
X130110485Y-95271263D01*
X130154774Y-95194552D01*
X130166501Y-95174241D01*
X130166501Y-95174239D01*
X130166503Y-95174237D01*
X130195500Y-95066018D01*
X130195500Y-94953982D01*
X130166503Y-94845763D01*
X130166501Y-94845760D01*
X130166501Y-94845758D01*
X130115253Y-94756995D01*
X130115252Y-94756994D01*
X130110485Y-94748737D01*
X130075730Y-94713982D01*
X131694500Y-94713982D01*
X131694500Y-94826018D01*
X131710176Y-94884521D01*
X131723498Y-94934241D01*
X131779513Y-95031260D01*
X131779515Y-95031263D01*
X131858737Y-95110485D01*
X131889467Y-95128227D01*
X131955759Y-95166501D01*
X131955757Y-95166501D01*
X131955761Y-95166502D01*
X131955763Y-95166503D01*
X132063982Y-95195500D01*
X132063984Y-95195500D01*
X132176016Y-95195500D01*
X132176018Y-95195500D01*
X132284237Y-95166503D01*
X132284239Y-95166501D01*
X132284241Y-95166501D01*
X132314983Y-95148752D01*
X132381263Y-95110485D01*
X132460485Y-95031263D01*
X132516503Y-94934237D01*
X132545500Y-94826018D01*
X132545500Y-94713982D01*
X132516503Y-94605763D01*
X132516501Y-94605760D01*
X132516501Y-94605758D01*
X132460486Y-94508739D01*
X132460485Y-94508737D01*
X132381263Y-94429515D01*
X132381260Y-94429513D01*
X132284240Y-94373498D01*
X132284242Y-94373498D01*
X132239463Y-94361500D01*
X132176018Y-94344500D01*
X132063982Y-94344500D01*
X132000537Y-94361500D01*
X131955758Y-94373498D01*
X131858739Y-94429513D01*
X131779513Y-94508739D01*
X131723498Y-94605758D01*
X131715797Y-94634500D01*
X131694500Y-94713982D01*
X130075730Y-94713982D01*
X130031263Y-94669515D01*
X130031260Y-94669513D01*
X129934240Y-94613498D01*
X129934241Y-94613498D01*
X129829538Y-94585443D01*
X129778223Y-94552118D01*
X129756297Y-94494997D01*
X129772133Y-94435896D01*
X129785158Y-94419812D01*
X130635476Y-93569496D01*
X130689992Y-93541719D01*
X130705479Y-93540500D01*
X137046648Y-93540500D01*
X137051748Y-93542157D01*
G37*
%TD.AperFunction*%
%TA.AperFunction,Conductor*%
G36*
X146103896Y-89624127D02*
G01*
X146124347Y-89627366D01*
X146131823Y-89634842D01*
X146141693Y-89638629D01*
X146152971Y-89655990D01*
X146167612Y-89670631D01*
X146170601Y-89678416D01*
X146171015Y-89678245D01*
X146173498Y-89684240D01*
X146229513Y-89781260D01*
X146229515Y-89781263D01*
X146308737Y-89860485D01*
X146308739Y-89860486D01*
X146405759Y-89916501D01*
X146405757Y-89916501D01*
X146405761Y-89916502D01*
X146405763Y-89916503D01*
X146513982Y-89945500D01*
X146513984Y-89945500D01*
X146626016Y-89945500D01*
X146626018Y-89945500D01*
X146734237Y-89916503D01*
X146734239Y-89916501D01*
X146734241Y-89916501D01*
X146790565Y-89883982D01*
X146831263Y-89860485D01*
X146910485Y-89781263D01*
X146922762Y-89759997D01*
X146968233Y-89719058D01*
X147008498Y-89710500D01*
X147881965Y-89710500D01*
X147940156Y-89729407D01*
X147976120Y-89778907D01*
X147977591Y-89835121D01*
X147964500Y-89883982D01*
X147964500Y-89996018D01*
X147979095Y-90050486D01*
X147993498Y-90104241D01*
X148049513Y-90201260D01*
X148049515Y-90201263D01*
X148128737Y-90280485D01*
X148128739Y-90280486D01*
X148225759Y-90336501D01*
X148225757Y-90336501D01*
X148225761Y-90336502D01*
X148225763Y-90336503D01*
X148333982Y-90365500D01*
X148333984Y-90365500D01*
X148446016Y-90365500D01*
X148446018Y-90365500D01*
X148554237Y-90336503D01*
X148554239Y-90336501D01*
X148554241Y-90336501D01*
X148611067Y-90303692D01*
X148651263Y-90280485D01*
X148662253Y-90269494D01*
X148716768Y-90241719D01*
X148732255Y-90240500D01*
X153347745Y-90240500D01*
X153405936Y-90259407D01*
X153417742Y-90269490D01*
X153428737Y-90280485D01*
X153428739Y-90280486D01*
X153525759Y-90336501D01*
X153525757Y-90336501D01*
X153525761Y-90336502D01*
X153525763Y-90336503D01*
X153633982Y-90365500D01*
X153633984Y-90365500D01*
X153746016Y-90365500D01*
X153746018Y-90365500D01*
X153854237Y-90336503D01*
X153854239Y-90336501D01*
X153854241Y-90336501D01*
X153911067Y-90303692D01*
X153951263Y-90280485D01*
X154030485Y-90201263D01*
X154077682Y-90119515D01*
X154086501Y-90104241D01*
X154086501Y-90104239D01*
X154086503Y-90104237D01*
X154115500Y-89996018D01*
X154115500Y-89883982D01*
X154102408Y-89835121D01*
X154105611Y-89774021D01*
X154144116Y-89726471D01*
X154198035Y-89710500D01*
X154424521Y-89710500D01*
X154482712Y-89729407D01*
X154494525Y-89739496D01*
X157315504Y-92560475D01*
X157343281Y-92614992D01*
X157344500Y-92630479D01*
X157344500Y-92646018D01*
X157373497Y-92754237D01*
X157386842Y-92777352D01*
X157394722Y-92790999D01*
X157407444Y-92850847D01*
X157382558Y-92906743D01*
X157329571Y-92937336D01*
X157308986Y-92939500D01*
X148614637Y-92939500D01*
X148556446Y-92920593D01*
X148520482Y-92871093D01*
X148519010Y-92814880D01*
X148545500Y-92716018D01*
X148545500Y-92603982D01*
X148516503Y-92495763D01*
X148516501Y-92495760D01*
X148516501Y-92495758D01*
X148460486Y-92398739D01*
X148460485Y-92398737D01*
X148381263Y-92319515D01*
X148381260Y-92319513D01*
X148284240Y-92263498D01*
X148284242Y-92263498D01*
X148232148Y-92249540D01*
X148176018Y-92234500D01*
X148063982Y-92234500D01*
X147968544Y-92260072D01*
X147955759Y-92263498D01*
X147916430Y-92286205D01*
X147856582Y-92298926D01*
X147800686Y-92274039D01*
X147781193Y-92249964D01*
X147780485Y-92248737D01*
X147701263Y-92169515D01*
X147692577Y-92164500D01*
X147604240Y-92113498D01*
X147604242Y-92113498D01*
X147562251Y-92102247D01*
X147496018Y-92084500D01*
X147383982Y-92084500D01*
X147317748Y-92102247D01*
X147275758Y-92113498D01*
X147178739Y-92169513D01*
X147099513Y-92248739D01*
X147043498Y-92345758D01*
X147042361Y-92350001D01*
X147014500Y-92453982D01*
X147014500Y-92566018D01*
X147031117Y-92628034D01*
X147043498Y-92674241D01*
X147099515Y-92771264D01*
X147103466Y-92776413D01*
X147102242Y-92777352D01*
X147126526Y-92825013D01*
X147116955Y-92885445D01*
X147073690Y-92928710D01*
X147028745Y-92939500D01*
X142954479Y-92939500D01*
X142896288Y-92920593D01*
X142860324Y-92871093D01*
X142860324Y-92809907D01*
X142884475Y-92770496D01*
X144440133Y-91214838D01*
X146009400Y-89645570D01*
X146018818Y-89640771D01*
X146025470Y-89632556D01*
X146045466Y-89627194D01*
X146063915Y-89617795D01*
X146074356Y-89619448D01*
X146084568Y-89616711D01*
X146103896Y-89624127D01*
G37*
%TD.AperFunction*%
%TA.AperFunction,Conductor*%
G36*
X133961799Y-81039793D02*
G01*
X133963882Y-81041686D01*
X133963888Y-81041693D01*
X133988465Y-81061020D01*
X134009868Y-81077851D01*
X134043794Y-81097438D01*
X134064299Y-81113171D01*
X134086827Y-81135699D01*
X134102559Y-81156203D01*
X134118490Y-81183796D01*
X134128380Y-81207672D01*
X134136626Y-81238445D01*
X134140000Y-81264069D01*
X134140000Y-81295929D01*
X134136626Y-81321553D01*
X134128380Y-81352326D01*
X134118490Y-81376202D01*
X134102559Y-81403795D01*
X134086827Y-81424299D01*
X134064299Y-81446827D01*
X134043793Y-81462561D01*
X134016200Y-81478491D01*
X133992331Y-81488378D01*
X133992329Y-81488379D01*
X133978167Y-81492174D01*
X133961552Y-81496626D01*
X133935929Y-81500000D01*
X133904072Y-81500000D01*
X133878448Y-81496626D01*
X133847667Y-81488378D01*
X133823792Y-81478489D01*
X133796202Y-81462559D01*
X133775701Y-81446829D01*
X133753171Y-81424299D01*
X133737438Y-81403795D01*
X133721509Y-81376205D01*
X133721508Y-81376202D01*
X133711619Y-81352325D01*
X133703373Y-81321547D01*
X133700000Y-81295927D01*
X133700000Y-81264071D01*
X133703373Y-81238449D01*
X133711620Y-81207669D01*
X133721510Y-81183793D01*
X133737440Y-81156199D01*
X133753172Y-81135697D01*
X133768376Y-81120495D01*
X133776759Y-81111598D01*
X133786548Y-81100569D01*
X133810979Y-81061020D01*
X133857646Y-81021449D01*
X133918660Y-81016867D01*
X133961799Y-81039793D01*
G37*
%TD.AperFunction*%
%TD*%
%TA.AperFunction,Conductor*%
%TO.N,/Charger/BATT-*%
G36*
X133294551Y-77030185D02*
G01*
X133333286Y-77069787D01*
X136650312Y-82491476D01*
X136668508Y-82558934D01*
X136662583Y-82594153D01*
X136563631Y-82901833D01*
X136524367Y-82959627D01*
X136468878Y-82985662D01*
X134280010Y-83404260D01*
X134220757Y-83401138D01*
X133948700Y-83318697D01*
X133898445Y-83289148D01*
X133498074Y-82901833D01*
X130854004Y-80343982D01*
X133364500Y-80343982D01*
X133364500Y-80456018D01*
X133393497Y-80564237D01*
X133449515Y-80661263D01*
X133528737Y-80740485D01*
X133597384Y-80780118D01*
X133645599Y-80830685D01*
X133658823Y-80899292D01*
X133632855Y-80964156D01*
X133623066Y-80975185D01*
X133579518Y-81018733D01*
X133579513Y-81018740D01*
X133523498Y-81115760D01*
X133523497Y-81115763D01*
X133494500Y-81223982D01*
X133494500Y-81336018D01*
X133523497Y-81444237D01*
X133579515Y-81541263D01*
X133658737Y-81620485D01*
X133755763Y-81676503D01*
X133863982Y-81705500D01*
X133863984Y-81705500D01*
X133976016Y-81705500D01*
X133976018Y-81705500D01*
X134084237Y-81676503D01*
X134181263Y-81620485D01*
X134260485Y-81541263D01*
X134316503Y-81444237D01*
X134345500Y-81336018D01*
X134345500Y-81223982D01*
X134316503Y-81115763D01*
X134260485Y-81018737D01*
X134181263Y-80939515D01*
X134112615Y-80899881D01*
X134064399Y-80849314D01*
X134051176Y-80780707D01*
X134077144Y-80715842D01*
X134086927Y-80704820D01*
X134130485Y-80661263D01*
X134186503Y-80564237D01*
X134215500Y-80456018D01*
X134215500Y-80343982D01*
X134186503Y-80235763D01*
X134130485Y-80138737D01*
X134051263Y-80059515D01*
X133954237Y-80003497D01*
X133846018Y-79974500D01*
X133733982Y-79974500D01*
X133625763Y-80003497D01*
X133625760Y-80003498D01*
X133528740Y-80059513D01*
X133528734Y-80059517D01*
X133449517Y-80138734D01*
X133449513Y-80138740D01*
X133393498Y-80235760D01*
X133393497Y-80235763D01*
X133364500Y-80343982D01*
X130854004Y-80343982D01*
X128456993Y-78025134D01*
X128422497Y-77964376D01*
X128426142Y-77895136D01*
X128593480Y-77415943D01*
X128634165Y-77359144D01*
X128699101Y-77333355D01*
X128700050Y-77333271D01*
X132535018Y-77010936D01*
X132545404Y-77010500D01*
X133227512Y-77010500D01*
X133294551Y-77030185D01*
G37*
%TD.AperFunction*%
%TD*%
M02*
