%TF.GenerationSoftware,KiCad,Pcbnew,9.0.0*%
%TF.CreationDate,2025-07-25T12:15:42+02:00*%
%TF.ProjectId,Spruzzatore,53707275-7a7a-4617-946f-72652e6b6963,rev?*%
%TF.SameCoordinates,Original*%
%TF.FileFunction,Soldermask,Top*%
%TF.FilePolarity,Negative*%
%FSLAX46Y46*%
G04 Gerber Fmt 4.6, Leading zero omitted, Abs format (unit mm)*
G04 Created by KiCad (PCBNEW 9.0.0) date 2025-07-25 12:15:42*
%MOMM*%
%LPD*%
G01*
G04 APERTURE LIST*
G04 APERTURE END LIST*
G36*
X115149017Y-104749561D02*
G01*
X115455139Y-104819431D01*
X115751514Y-104923137D01*
X116034413Y-105059374D01*
X116300280Y-105226430D01*
X116545770Y-105422202D01*
X116767798Y-105644230D01*
X116963570Y-105889720D01*
X117130626Y-106155587D01*
X117266863Y-106438486D01*
X117370569Y-106734861D01*
X117440439Y-107040983D01*
X117475595Y-107353003D01*
X117475595Y-107666997D01*
X117440439Y-107979017D01*
X117370569Y-108285139D01*
X117266863Y-108581514D01*
X117130626Y-108864413D01*
X116963570Y-109130280D01*
X116767798Y-109375770D01*
X116545770Y-109597798D01*
X116300280Y-109793570D01*
X116034413Y-109960626D01*
X115751514Y-110096863D01*
X115455139Y-110200569D01*
X115149017Y-110270439D01*
X114836997Y-110305595D01*
X114523003Y-110305595D01*
X114210983Y-110270439D01*
X113904861Y-110200569D01*
X113608486Y-110096863D01*
X113325587Y-109960626D01*
X113059720Y-109793570D01*
X112814230Y-109597798D01*
X112592202Y-109375770D01*
X112396430Y-109130280D01*
X112229374Y-108864413D01*
X112093137Y-108581514D01*
X111989431Y-108285139D01*
X111919561Y-107979017D01*
X111884405Y-107666997D01*
X111884405Y-107353003D01*
X111919561Y-107040983D01*
X111989431Y-106734861D01*
X112093137Y-106438486D01*
X112229374Y-106155587D01*
X112396430Y-105889720D01*
X112592202Y-105644230D01*
X112814230Y-105422202D01*
X113059720Y-105226430D01*
X113325587Y-105059374D01*
X113608486Y-104923137D01*
X113904861Y-104819431D01*
X114210983Y-104749561D01*
X114523003Y-104714405D01*
X114836997Y-104714405D01*
X115149017Y-104749561D01*
G37*
G36*
X182149017Y-104749561D02*
G01*
X182455139Y-104819431D01*
X182751514Y-104923137D01*
X183034413Y-105059374D01*
X183300280Y-105226430D01*
X183545770Y-105422202D01*
X183767798Y-105644230D01*
X183963570Y-105889720D01*
X184130626Y-106155587D01*
X184266863Y-106438486D01*
X184370569Y-106734861D01*
X184440439Y-107040983D01*
X184475595Y-107353003D01*
X184475595Y-107666997D01*
X184440439Y-107979017D01*
X184370569Y-108285139D01*
X184266863Y-108581514D01*
X184130626Y-108864413D01*
X183963570Y-109130280D01*
X183767798Y-109375770D01*
X183545770Y-109597798D01*
X183300280Y-109793570D01*
X183034413Y-109960626D01*
X182751514Y-110096863D01*
X182455139Y-110200569D01*
X182149017Y-110270439D01*
X181836997Y-110305595D01*
X181523003Y-110305595D01*
X181210983Y-110270439D01*
X180904861Y-110200569D01*
X180608486Y-110096863D01*
X180325587Y-109960626D01*
X180059720Y-109793570D01*
X179814230Y-109597798D01*
X179592202Y-109375770D01*
X179396430Y-109130280D01*
X179229374Y-108864413D01*
X179093137Y-108581514D01*
X178989431Y-108285139D01*
X178919561Y-107979017D01*
X178884405Y-107666997D01*
X178884405Y-107353003D01*
X178919561Y-107040983D01*
X178989431Y-106734861D01*
X179093137Y-106438486D01*
X179229374Y-106155587D01*
X179396430Y-105889720D01*
X179592202Y-105644230D01*
X179814230Y-105422202D01*
X180059720Y-105226430D01*
X180325587Y-105059374D01*
X180608486Y-104923137D01*
X180904861Y-104819431D01*
X181210983Y-104749561D01*
X181523003Y-104714405D01*
X181836997Y-104714405D01*
X182149017Y-104749561D01*
G37*
G36*
X164370000Y-110260000D02*
G01*
X163370000Y-110260000D01*
X163370000Y-108260000D01*
X164370000Y-108260000D01*
X164370000Y-110260000D01*
G37*
G36*
X167870000Y-110160000D02*
G01*
X166870000Y-110160000D01*
X166870000Y-108360000D01*
X167870000Y-108360000D01*
X167870000Y-110160000D01*
G37*
G36*
X169945000Y-110040000D02*
G01*
X169135000Y-110040000D01*
X169135000Y-109180000D01*
X169945000Y-109180000D01*
X169945000Y-110040000D01*
G37*
G36*
X171445000Y-110040000D02*
G01*
X170635000Y-110040000D01*
X170635000Y-109180000D01*
X171445000Y-109180000D01*
X171445000Y-110040000D01*
G37*
G36*
X157065000Y-109900000D02*
G01*
X156255000Y-109900000D01*
X156255000Y-109040000D01*
X157065000Y-109040000D01*
X157065000Y-109900000D01*
G37*
G36*
X158565000Y-109900000D02*
G01*
X157755000Y-109900000D01*
X157755000Y-109040000D01*
X158565000Y-109040000D01*
X158565000Y-109900000D01*
G37*
G36*
X154005000Y-109860000D02*
G01*
X153195000Y-109860000D01*
X153195000Y-109000000D01*
X154005000Y-109000000D01*
X154005000Y-109860000D01*
G37*
G36*
X155505000Y-109860000D02*
G01*
X154695000Y-109860000D01*
X154695000Y-109000000D01*
X155505000Y-109000000D01*
X155505000Y-109860000D01*
G37*
G36*
X130510000Y-109415000D02*
G01*
X129650000Y-109415000D01*
X129650000Y-108605000D01*
X130510000Y-108605000D01*
X130510000Y-109415000D01*
G37*
G36*
X132160000Y-109310000D02*
G01*
X131260000Y-109310000D01*
X131260000Y-108510000D01*
X132160000Y-108510000D01*
X132160000Y-109310000D01*
G37*
G36*
X128660000Y-109305000D02*
G01*
X126660000Y-109305000D01*
X126660000Y-107955000D01*
X128660000Y-107955000D01*
X128660000Y-109305000D01*
G37*
G36*
X135360000Y-109275000D02*
G01*
X133360000Y-109275000D01*
X133360000Y-107925000D01*
X135360000Y-107925000D01*
X135360000Y-109275000D01*
G37*
G36*
X122060000Y-109210000D02*
G01*
X121160000Y-109210000D01*
X121160000Y-108410000D01*
X122060000Y-108410000D01*
X122060000Y-109210000D01*
G37*
G36*
X123810000Y-109210000D02*
G01*
X122910000Y-109210000D01*
X122910000Y-108410000D01*
X123810000Y-108410000D01*
X123810000Y-109210000D01*
G37*
G36*
X125570000Y-109190000D02*
G01*
X124670000Y-109190000D01*
X124670000Y-108390000D01*
X125570000Y-108390000D01*
X125570000Y-109190000D01*
G37*
G36*
X152090000Y-109170000D02*
G01*
X150570000Y-109170000D01*
X150570000Y-108270000D01*
X152090000Y-108270000D01*
X152090000Y-109170000D01*
G37*
G36*
X148840000Y-109105000D02*
G01*
X147980000Y-109105000D01*
X147980000Y-108295000D01*
X148840000Y-108295000D01*
X148840000Y-109105000D01*
G37*
G36*
X137331342Y-107268060D02*
G01*
X137444381Y-107333323D01*
X137536677Y-107425619D01*
X137601940Y-107538658D01*
X137635722Y-107664737D01*
X137640000Y-107730000D01*
X137640000Y-108530000D01*
X137635722Y-108595263D01*
X137601940Y-108721342D01*
X137536677Y-108834381D01*
X137444381Y-108926677D01*
X137331342Y-108991940D01*
X137205263Y-109025722D01*
X137074737Y-109025722D01*
X136948658Y-108991940D01*
X136835619Y-108926677D01*
X136743323Y-108834381D01*
X136678060Y-108721342D01*
X136644278Y-108595263D01*
X136640000Y-108530000D01*
X136640000Y-107730000D01*
X136644278Y-107664737D01*
X136678060Y-107538658D01*
X136743323Y-107425619D01*
X136835619Y-107333323D01*
X136948658Y-107268060D01*
X137074737Y-107234278D01*
X137205263Y-107234278D01*
X137331342Y-107268060D01*
G37*
G36*
X145971342Y-107268060D02*
G01*
X146084381Y-107333323D01*
X146176677Y-107425619D01*
X146241940Y-107538658D01*
X146275722Y-107664737D01*
X146280000Y-107730000D01*
X146280000Y-108530000D01*
X146275722Y-108595263D01*
X146241940Y-108721342D01*
X146176677Y-108834381D01*
X146084381Y-108926677D01*
X145971342Y-108991940D01*
X145845263Y-109025722D01*
X145714737Y-109025722D01*
X145588658Y-108991940D01*
X145475619Y-108926677D01*
X145383323Y-108834381D01*
X145318060Y-108721342D01*
X145284278Y-108595263D01*
X145280000Y-108530000D01*
X145280000Y-107730000D01*
X145284278Y-107664737D01*
X145318060Y-107538658D01*
X145383323Y-107425619D01*
X145475619Y-107333323D01*
X145588658Y-107268060D01*
X145714737Y-107234278D01*
X145845263Y-107234278D01*
X145971342Y-107268060D01*
G37*
G36*
X171655000Y-108410000D02*
G01*
X170405000Y-108410000D01*
X170405000Y-107710000D01*
X171655000Y-107710000D01*
X171655000Y-108410000D01*
G37*
G36*
X153985000Y-108370000D02*
G01*
X153175000Y-108370000D01*
X153175000Y-107510000D01*
X153985000Y-107510000D01*
X153985000Y-108370000D01*
G37*
G36*
X155485000Y-108370000D02*
G01*
X154675000Y-108370000D01*
X154675000Y-107510000D01*
X155485000Y-107510000D01*
X155485000Y-108370000D01*
G37*
G36*
X157990000Y-108365000D02*
G01*
X157130000Y-108365000D01*
X157130000Y-107555000D01*
X157990000Y-107555000D01*
X157990000Y-108365000D01*
G37*
G36*
X159510000Y-108355000D02*
G01*
X158650000Y-108355000D01*
X158650000Y-107545000D01*
X159510000Y-107545000D01*
X159510000Y-108355000D01*
G37*
G36*
X151698737Y-107023850D02*
G01*
X151812208Y-107054254D01*
X151913943Y-107112991D01*
X151997009Y-107196057D01*
X152055746Y-107297792D01*
X152086150Y-107411263D01*
X152086150Y-107528737D01*
X152055746Y-107642208D01*
X151997009Y-107743943D01*
X151913943Y-107827009D01*
X151812208Y-107885746D01*
X151698737Y-107916150D01*
X151640000Y-107920000D01*
X151638029Y-107920000D01*
X151021971Y-107920000D01*
X151020000Y-107920000D01*
X150961263Y-107916150D01*
X150847792Y-107885746D01*
X150746057Y-107827009D01*
X150662991Y-107743943D01*
X150604254Y-107642208D01*
X150573850Y-107528737D01*
X150573850Y-107411263D01*
X150604254Y-107297792D01*
X150662991Y-107196057D01*
X150746057Y-107112991D01*
X150847792Y-107054254D01*
X150961263Y-107023850D01*
X151020000Y-107020000D01*
X151640000Y-107020000D01*
X151698737Y-107023850D01*
G37*
G36*
X130510000Y-107915000D02*
G01*
X129650000Y-107915000D01*
X129650000Y-107105000D01*
X130510000Y-107105000D01*
X130510000Y-107915000D01*
G37*
G36*
X132160000Y-107910000D02*
G01*
X131260000Y-107910000D01*
X131260000Y-107110000D01*
X132160000Y-107110000D01*
X132160000Y-107910000D01*
G37*
G36*
X120385000Y-107835000D02*
G01*
X118655000Y-107835000D01*
X118655000Y-106345000D01*
X120385000Y-106345000D01*
X120385000Y-107835000D01*
G37*
G36*
X122060000Y-107810000D02*
G01*
X121160000Y-107810000D01*
X121160000Y-107010000D01*
X122060000Y-107010000D01*
X122060000Y-107810000D01*
G37*
G36*
X123810000Y-107810000D02*
G01*
X122910000Y-107810000D01*
X122910000Y-107010000D01*
X123810000Y-107010000D01*
X123810000Y-107810000D01*
G37*
G36*
X125570000Y-107790000D02*
G01*
X124670000Y-107790000D01*
X124670000Y-106990000D01*
X125570000Y-106990000D01*
X125570000Y-107790000D01*
G37*
G36*
X148840000Y-107605000D02*
G01*
X147980000Y-107605000D01*
X147980000Y-106795000D01*
X148840000Y-106795000D01*
X148840000Y-107605000D01*
G37*
G36*
X169655000Y-107460000D02*
G01*
X168405000Y-107460000D01*
X168405000Y-106760000D01*
X169655000Y-106760000D01*
X169655000Y-107460000D01*
G37*
G36*
X157990000Y-106865000D02*
G01*
X157130000Y-106865000D01*
X157130000Y-106055000D01*
X157990000Y-106055000D01*
X157990000Y-106865000D01*
G37*
G36*
X159510000Y-106855000D02*
G01*
X158650000Y-106855000D01*
X158650000Y-106045000D01*
X159510000Y-106045000D01*
X159510000Y-106855000D01*
G37*
G36*
X153955000Y-106850000D02*
G01*
X153145000Y-106850000D01*
X153145000Y-105990000D01*
X153955000Y-105990000D01*
X153955000Y-106850000D01*
G37*
G36*
X155455000Y-106850000D02*
G01*
X154645000Y-106850000D01*
X154645000Y-105990000D01*
X155455000Y-105990000D01*
X155455000Y-106850000D01*
G37*
G36*
X151698737Y-105763850D02*
G01*
X151812208Y-105794254D01*
X151913943Y-105852991D01*
X151997009Y-105936057D01*
X152055746Y-106037792D01*
X152086150Y-106151263D01*
X152086150Y-106268737D01*
X152055746Y-106382208D01*
X151997009Y-106483943D01*
X151913943Y-106567009D01*
X151812208Y-106625746D01*
X151698737Y-106656150D01*
X151640000Y-106660000D01*
X151638029Y-106660000D01*
X151021971Y-106660000D01*
X151020000Y-106660000D01*
X150961263Y-106656150D01*
X150847792Y-106625746D01*
X150746057Y-106567009D01*
X150662991Y-106483943D01*
X150604254Y-106382208D01*
X150573850Y-106268737D01*
X150573850Y-106151263D01*
X150604254Y-106037792D01*
X150662991Y-105936057D01*
X150746057Y-105852991D01*
X150847792Y-105794254D01*
X150961263Y-105763850D01*
X151020000Y-105760000D01*
X151640000Y-105760000D01*
X151698737Y-105763850D01*
G37*
G36*
X167870000Y-106660000D02*
G01*
X166870000Y-106660000D01*
X166870000Y-104860000D01*
X167870000Y-104860000D01*
X167870000Y-106660000D01*
G37*
G36*
X171655000Y-106510000D02*
G01*
X170405000Y-106510000D01*
X170405000Y-105810000D01*
X171655000Y-105810000D01*
X171655000Y-106510000D01*
G37*
G36*
X121990000Y-106120000D02*
G01*
X121190000Y-106120000D01*
X121190000Y-105220000D01*
X121990000Y-105220000D01*
X121990000Y-106120000D01*
G37*
G36*
X123390000Y-106120000D02*
G01*
X122590000Y-106120000D01*
X122590000Y-105220000D01*
X123390000Y-105220000D01*
X123390000Y-106120000D01*
G37*
G36*
X125570000Y-106070000D02*
G01*
X124670000Y-106070000D01*
X124670000Y-105270000D01*
X125570000Y-105270000D01*
X125570000Y-106070000D01*
G37*
G36*
X130470000Y-106065000D02*
G01*
X129610000Y-106065000D01*
X129610000Y-105255000D01*
X130470000Y-105255000D01*
X130470000Y-106065000D01*
G37*
G36*
X132185000Y-105950000D02*
G01*
X131285000Y-105950000D01*
X131285000Y-105150000D01*
X132185000Y-105150000D01*
X132185000Y-105950000D01*
G37*
G36*
X151698737Y-104513850D02*
G01*
X151812208Y-104544254D01*
X151913943Y-104602991D01*
X151997009Y-104686057D01*
X152055746Y-104787792D01*
X152086150Y-104901263D01*
X152086150Y-105018737D01*
X152055746Y-105132208D01*
X151997009Y-105233943D01*
X151913943Y-105317009D01*
X151812208Y-105375746D01*
X151698737Y-105406150D01*
X151640000Y-105410000D01*
X151638029Y-105410000D01*
X151021971Y-105410000D01*
X151020000Y-105410000D01*
X150961263Y-105406150D01*
X150847792Y-105375746D01*
X150746057Y-105317009D01*
X150662991Y-105233943D01*
X150604254Y-105132208D01*
X150573850Y-105018737D01*
X150573850Y-104901263D01*
X150604254Y-104787792D01*
X150662991Y-104686057D01*
X150746057Y-104602991D01*
X150847792Y-104544254D01*
X150961263Y-104513850D01*
X151020000Y-104510000D01*
X151640000Y-104510000D01*
X151698737Y-104513850D01*
G37*
G36*
X153960000Y-105365000D02*
G01*
X153100000Y-105365000D01*
X153100000Y-104555000D01*
X153960000Y-104555000D01*
X153960000Y-105365000D01*
G37*
G36*
X155470000Y-105365000D02*
G01*
X154610000Y-105365000D01*
X154610000Y-104555000D01*
X155470000Y-104555000D01*
X155470000Y-105365000D01*
G37*
G36*
X157120000Y-105355000D02*
G01*
X156260000Y-105355000D01*
X156260000Y-104545000D01*
X157120000Y-104545000D01*
X157120000Y-105355000D01*
G37*
G36*
X158780000Y-105280000D02*
G01*
X157880000Y-105280000D01*
X157880000Y-104480000D01*
X158780000Y-104480000D01*
X158780000Y-105280000D01*
G37*
G36*
X137331342Y-102968060D02*
G01*
X137444381Y-103033323D01*
X137536677Y-103125619D01*
X137601940Y-103238658D01*
X137635722Y-103364737D01*
X137640000Y-103430000D01*
X137640000Y-104530000D01*
X137635722Y-104595263D01*
X137601940Y-104721342D01*
X137536677Y-104834381D01*
X137444381Y-104926677D01*
X137331342Y-104991940D01*
X137205263Y-105025722D01*
X137074737Y-105025722D01*
X136948658Y-104991940D01*
X136835619Y-104926677D01*
X136743323Y-104834381D01*
X136678060Y-104721342D01*
X136644278Y-104595263D01*
X136640000Y-104530000D01*
X136640000Y-103430000D01*
X136644278Y-103364737D01*
X136678060Y-103238658D01*
X136743323Y-103125619D01*
X136835619Y-103033323D01*
X136948658Y-102968060D01*
X137074737Y-102934278D01*
X137205263Y-102934278D01*
X137331342Y-102968060D01*
G37*
G36*
X145971342Y-102968060D02*
G01*
X146084381Y-103033323D01*
X146176677Y-103125619D01*
X146241940Y-103238658D01*
X146275722Y-103364737D01*
X146280000Y-103430000D01*
X146280000Y-104530000D01*
X146275722Y-104595263D01*
X146241940Y-104721342D01*
X146176677Y-104834381D01*
X146084381Y-104926677D01*
X145971342Y-104991940D01*
X145845263Y-105025722D01*
X145714737Y-105025722D01*
X145588658Y-104991940D01*
X145475619Y-104926677D01*
X145383323Y-104834381D01*
X145318060Y-104721342D01*
X145284278Y-104595263D01*
X145280000Y-104530000D01*
X145280000Y-103430000D01*
X145284278Y-103364737D01*
X145318060Y-103238658D01*
X145383323Y-103125619D01*
X145475619Y-103033323D01*
X145588658Y-102968060D01*
X145714737Y-102934278D01*
X145845263Y-102934278D01*
X145971342Y-102968060D01*
G37*
G36*
X169390000Y-104970000D02*
G01*
X168290000Y-104970000D01*
X168290000Y-103970000D01*
X169390000Y-103970000D01*
X169390000Y-104970000D01*
G37*
G36*
X172850000Y-104970000D02*
G01*
X171750000Y-104970000D01*
X171750000Y-103970000D01*
X172850000Y-103970000D01*
X172850000Y-104970000D01*
G37*
G36*
X128660000Y-104805000D02*
G01*
X126660000Y-104805000D01*
X126660000Y-103455000D01*
X128660000Y-103455000D01*
X128660000Y-104805000D01*
G37*
G36*
X138684372Y-104179739D02*
G01*
X138757847Y-104222160D01*
X138817840Y-104282153D01*
X138860261Y-104355628D01*
X138882220Y-104437579D01*
X138882220Y-104522421D01*
X138860261Y-104604372D01*
X138817840Y-104677847D01*
X138757847Y-104737840D01*
X138684372Y-104780261D01*
X138602421Y-104802220D01*
X138517579Y-104802220D01*
X138435628Y-104780261D01*
X138362153Y-104737840D01*
X138302160Y-104677847D01*
X138259739Y-104604372D01*
X138237780Y-104522421D01*
X138237780Y-104437579D01*
X138259739Y-104355628D01*
X138302160Y-104282153D01*
X138362153Y-104222160D01*
X138435628Y-104179739D01*
X138517579Y-104157780D01*
X138602421Y-104157780D01*
X138684372Y-104179739D01*
G37*
G36*
X144484372Y-104169739D02*
G01*
X144557847Y-104212160D01*
X144617840Y-104272153D01*
X144660261Y-104345628D01*
X144682220Y-104427579D01*
X144682220Y-104512421D01*
X144660261Y-104594372D01*
X144617840Y-104667847D01*
X144557847Y-104727840D01*
X144484372Y-104770261D01*
X144402421Y-104792220D01*
X144317579Y-104792220D01*
X144235628Y-104770261D01*
X144162153Y-104727840D01*
X144102160Y-104667847D01*
X144059739Y-104594372D01*
X144037780Y-104512421D01*
X144037780Y-104427579D01*
X144059739Y-104345628D01*
X144102160Y-104272153D01*
X144162153Y-104212160D01*
X144235628Y-104169739D01*
X144317579Y-104147780D01*
X144402421Y-104147780D01*
X144484372Y-104169739D01*
G37*
G36*
X135360000Y-104775000D02*
G01*
X133360000Y-104775000D01*
X133360000Y-103425000D01*
X135360000Y-103425000D01*
X135360000Y-104775000D01*
G37*
G36*
X148840000Y-104755000D02*
G01*
X147980000Y-104755000D01*
X147980000Y-103945000D01*
X148840000Y-103945000D01*
X148840000Y-104755000D01*
G37*
G36*
X125570000Y-104670000D02*
G01*
X124670000Y-104670000D01*
X124670000Y-103870000D01*
X125570000Y-103870000D01*
X125570000Y-104670000D01*
G37*
G36*
X120385000Y-104655000D02*
G01*
X118655000Y-104655000D01*
X118655000Y-103165000D01*
X120385000Y-103165000D01*
X120385000Y-104655000D01*
G37*
G36*
X130470000Y-104565000D02*
G01*
X129610000Y-104565000D01*
X129610000Y-103755000D01*
X130470000Y-103755000D01*
X130470000Y-104565000D01*
G37*
G36*
X132185000Y-104550000D02*
G01*
X131285000Y-104550000D01*
X131285000Y-103750000D01*
X132185000Y-103750000D01*
X132185000Y-104550000D01*
G37*
G36*
X175170000Y-104445000D02*
G01*
X174310000Y-104445000D01*
X174310000Y-103635000D01*
X175170000Y-103635000D01*
X175170000Y-104445000D01*
G37*
G36*
X121990000Y-104370000D02*
G01*
X121190000Y-104370000D01*
X121190000Y-103470000D01*
X121990000Y-103470000D01*
X121990000Y-104370000D01*
G37*
G36*
X123390000Y-104370000D02*
G01*
X122590000Y-104370000D01*
X122590000Y-103470000D01*
X123390000Y-103470000D01*
X123390000Y-104370000D01*
G37*
G36*
X151698737Y-103273850D02*
G01*
X151812208Y-103304254D01*
X151913943Y-103362991D01*
X151997009Y-103446057D01*
X152055746Y-103547792D01*
X152086150Y-103661263D01*
X152086150Y-103778737D01*
X152055746Y-103892208D01*
X151997009Y-103993943D01*
X151913943Y-104077009D01*
X151812208Y-104135746D01*
X151698737Y-104166150D01*
X151640000Y-104170000D01*
X151638029Y-104170000D01*
X151021971Y-104170000D01*
X151020000Y-104170000D01*
X150961263Y-104166150D01*
X150847792Y-104135746D01*
X150746057Y-104077009D01*
X150662991Y-103993943D01*
X150604254Y-103892208D01*
X150573850Y-103778737D01*
X150573850Y-103661263D01*
X150604254Y-103547792D01*
X150662991Y-103446057D01*
X150746057Y-103362991D01*
X150847792Y-103304254D01*
X150961263Y-103273850D01*
X151020000Y-103270000D01*
X151640000Y-103270000D01*
X151698737Y-103273850D01*
G37*
G36*
X138560000Y-103885000D02*
G01*
X137960000Y-103885000D01*
X137960000Y-102735000D01*
X138560000Y-102735000D01*
X138560000Y-103885000D01*
G37*
G36*
X139360000Y-103885000D02*
G01*
X138760000Y-103885000D01*
X138760000Y-102735000D01*
X139360000Y-102735000D01*
X139360000Y-103885000D01*
G37*
G36*
X139860000Y-103885000D02*
G01*
X139560000Y-103885000D01*
X139560000Y-102735000D01*
X139860000Y-102735000D01*
X139860000Y-103885000D01*
G37*
G36*
X140360000Y-103885000D02*
G01*
X140060000Y-103885000D01*
X140060000Y-102735000D01*
X140360000Y-102735000D01*
X140360000Y-103885000D01*
G37*
G36*
X140860000Y-103885000D02*
G01*
X140560000Y-103885000D01*
X140560000Y-102735000D01*
X140860000Y-102735000D01*
X140860000Y-103885000D01*
G37*
G36*
X141360000Y-103885000D02*
G01*
X141060000Y-103885000D01*
X141060000Y-102735000D01*
X141360000Y-102735000D01*
X141360000Y-103885000D01*
G37*
G36*
X141860000Y-103885000D02*
G01*
X141560000Y-103885000D01*
X141560000Y-102735000D01*
X141860000Y-102735000D01*
X141860000Y-103885000D01*
G37*
G36*
X142360000Y-103885000D02*
G01*
X142060000Y-103885000D01*
X142060000Y-102735000D01*
X142360000Y-102735000D01*
X142360000Y-103885000D01*
G37*
G36*
X142860000Y-103885000D02*
G01*
X142560000Y-103885000D01*
X142560000Y-102735000D01*
X142860000Y-102735000D01*
X142860000Y-103885000D01*
G37*
G36*
X143360000Y-103885000D02*
G01*
X143060000Y-103885000D01*
X143060000Y-102735000D01*
X143360000Y-102735000D01*
X143360000Y-103885000D01*
G37*
G36*
X144160000Y-103885000D02*
G01*
X143560000Y-103885000D01*
X143560000Y-102735000D01*
X144160000Y-102735000D01*
X144160000Y-103885000D01*
G37*
G36*
X144960000Y-103885000D02*
G01*
X144360000Y-103885000D01*
X144360000Y-102735000D01*
X144960000Y-102735000D01*
X144960000Y-103885000D01*
G37*
G36*
X158780000Y-103880000D02*
G01*
X157880000Y-103880000D01*
X157880000Y-103080000D01*
X158780000Y-103080000D01*
X158780000Y-103880000D01*
G37*
G36*
X153960000Y-103865000D02*
G01*
X153100000Y-103865000D01*
X153100000Y-103055000D01*
X153960000Y-103055000D01*
X153960000Y-103865000D01*
G37*
G36*
X155470000Y-103865000D02*
G01*
X154610000Y-103865000D01*
X154610000Y-103055000D01*
X155470000Y-103055000D01*
X155470000Y-103865000D01*
G37*
G36*
X157120000Y-103855000D02*
G01*
X156260000Y-103855000D01*
X156260000Y-103045000D01*
X157120000Y-103045000D01*
X157120000Y-103855000D01*
G37*
G36*
X184011256Y-101518754D02*
G01*
X184174257Y-101586271D01*
X184320954Y-101684291D01*
X184445709Y-101809046D01*
X184543729Y-101955743D01*
X184611246Y-102118744D01*
X184645666Y-102291785D01*
X184645666Y-102468215D01*
X184611246Y-102641256D01*
X184543729Y-102804257D01*
X184445709Y-102950954D01*
X184320954Y-103075709D01*
X184174257Y-103173729D01*
X184011256Y-103241246D01*
X183838215Y-103275666D01*
X183661785Y-103275666D01*
X183488744Y-103241246D01*
X183325743Y-103173729D01*
X183179046Y-103075709D01*
X183054291Y-102950954D01*
X182956271Y-102804257D01*
X182888754Y-102641256D01*
X182854334Y-102468215D01*
X182854334Y-102291785D01*
X182888754Y-102118744D01*
X182956271Y-101955743D01*
X183054291Y-101809046D01*
X183179046Y-101684291D01*
X183325743Y-101586271D01*
X183488744Y-101518754D01*
X183661785Y-101484334D01*
X183838215Y-101484334D01*
X184011256Y-101518754D01*
G37*
G36*
X148840000Y-103255000D02*
G01*
X147980000Y-103255000D01*
X147980000Y-102445000D01*
X148840000Y-102445000D01*
X148840000Y-103255000D01*
G37*
G36*
X178470616Y-101652725D02*
G01*
X178608262Y-101709740D01*
X178732139Y-101792512D01*
X178837488Y-101897861D01*
X178920260Y-102021738D01*
X178977275Y-102159384D01*
X179006340Y-102305507D01*
X179006340Y-102454493D01*
X178977275Y-102600616D01*
X178920260Y-102738262D01*
X178837488Y-102862139D01*
X178732139Y-102967488D01*
X178608262Y-103050260D01*
X178470616Y-103107275D01*
X178324493Y-103136340D01*
X178175507Y-103136340D01*
X178029384Y-103107275D01*
X177891738Y-103050260D01*
X177767861Y-102967488D01*
X177662512Y-102862139D01*
X177579740Y-102738262D01*
X177522725Y-102600616D01*
X177493660Y-102454493D01*
X177493660Y-102305507D01*
X177522725Y-102159384D01*
X177579740Y-102021738D01*
X177662512Y-101897861D01*
X177767861Y-101792512D01*
X177891738Y-101709740D01*
X178029384Y-101652725D01*
X178175507Y-101623660D01*
X178324493Y-101623660D01*
X178470616Y-101652725D01*
G37*
G36*
X181453199Y-101710142D02*
G01*
X181579978Y-101762655D01*
X181694075Y-101838893D01*
X181791107Y-101935925D01*
X181867345Y-102050022D01*
X181919858Y-102176801D01*
X181946629Y-102311388D01*
X181946629Y-102448612D01*
X181919858Y-102583199D01*
X181867345Y-102709978D01*
X181791107Y-102824075D01*
X181694075Y-102921107D01*
X181579978Y-102997345D01*
X181453199Y-103049858D01*
X181318612Y-103076629D01*
X181181388Y-103076629D01*
X181046801Y-103049858D01*
X180920022Y-102997345D01*
X180805925Y-102921107D01*
X180708893Y-102824075D01*
X180632655Y-102709978D01*
X180580142Y-102583199D01*
X180553371Y-102448612D01*
X180553371Y-102311388D01*
X180580142Y-102176801D01*
X180632655Y-102050022D01*
X180708893Y-101935925D01*
X180805925Y-101838893D01*
X180920022Y-101762655D01*
X181046801Y-101710142D01*
X181181388Y-101683371D01*
X181318612Y-101683371D01*
X181453199Y-101710142D01*
G37*
G36*
X175170000Y-102945000D02*
G01*
X174310000Y-102945000D01*
X174310000Y-102135000D01*
X175170000Y-102135000D01*
X175170000Y-102945000D01*
G37*
G36*
X151698737Y-102023850D02*
G01*
X151812208Y-102054254D01*
X151913943Y-102112991D01*
X151997009Y-102196057D01*
X152055746Y-102297792D01*
X152086150Y-102411263D01*
X152086150Y-102528737D01*
X152055746Y-102642208D01*
X151997009Y-102743943D01*
X151913943Y-102827009D01*
X151812208Y-102885746D01*
X151698737Y-102916150D01*
X151640000Y-102920000D01*
X151638029Y-102920000D01*
X151021971Y-102920000D01*
X151020000Y-102920000D01*
X150961263Y-102916150D01*
X150847792Y-102885746D01*
X150746057Y-102827009D01*
X150662991Y-102743943D01*
X150604254Y-102642208D01*
X150573850Y-102528737D01*
X150573850Y-102411263D01*
X150604254Y-102297792D01*
X150662991Y-102196057D01*
X150746057Y-102112991D01*
X150847792Y-102054254D01*
X150961263Y-102023850D01*
X151020000Y-102020000D01*
X151640000Y-102020000D01*
X151698737Y-102023850D01*
G37*
G36*
X133835000Y-102385000D02*
G01*
X133305000Y-102385000D01*
X133305000Y-101315000D01*
X133835000Y-101315000D01*
X133835000Y-102385000D01*
G37*
G36*
X134785000Y-102385000D02*
G01*
X134255000Y-102385000D01*
X134255000Y-101315000D01*
X134785000Y-101315000D01*
X134785000Y-102385000D01*
G37*
G36*
X135735000Y-102385000D02*
G01*
X135205000Y-102385000D01*
X135205000Y-101315000D01*
X135735000Y-101315000D01*
X135735000Y-102385000D01*
G37*
G36*
X140930000Y-102275000D02*
G01*
X140070000Y-102275000D01*
X140070000Y-101465000D01*
X140930000Y-101465000D01*
X140930000Y-102275000D01*
G37*
G36*
X143380000Y-102275000D02*
G01*
X142520000Y-102275000D01*
X142520000Y-101465000D01*
X143380000Y-101465000D01*
X143380000Y-102275000D01*
G37*
G36*
X146330000Y-101720000D02*
G01*
X145530000Y-101720000D01*
X145530000Y-100820000D01*
X146330000Y-100820000D01*
X146330000Y-101720000D01*
G37*
G36*
X147730000Y-101720000D02*
G01*
X146930000Y-101720000D01*
X146930000Y-100820000D01*
X147730000Y-100820000D01*
X147730000Y-101720000D01*
G37*
G36*
X117390000Y-101410000D02*
G01*
X116590000Y-101410000D01*
X116590000Y-100610000D01*
X117390000Y-100610000D01*
X117390000Y-101410000D01*
G37*
G36*
X131390000Y-101410000D02*
G01*
X130590000Y-101410000D01*
X130590000Y-100610000D01*
X131390000Y-100610000D01*
X131390000Y-101410000D01*
G37*
G36*
X118240000Y-101390000D02*
G01*
X117840000Y-101390000D01*
X117840000Y-100590000D01*
X118240000Y-100590000D01*
X118240000Y-101390000D01*
G37*
G36*
X119090000Y-101390000D02*
G01*
X118690000Y-101390000D01*
X118690000Y-100590000D01*
X119090000Y-100590000D01*
X119090000Y-101390000D01*
G37*
G36*
X119940000Y-101390000D02*
G01*
X119540000Y-101390000D01*
X119540000Y-100590000D01*
X119940000Y-100590000D01*
X119940000Y-101390000D01*
G37*
G36*
X120790000Y-101390000D02*
G01*
X120390000Y-101390000D01*
X120390000Y-100590000D01*
X120790000Y-100590000D01*
X120790000Y-101390000D01*
G37*
G36*
X121640000Y-101390000D02*
G01*
X121240000Y-101390000D01*
X121240000Y-100590000D01*
X121640000Y-100590000D01*
X121640000Y-101390000D01*
G37*
G36*
X122490000Y-101390000D02*
G01*
X122090000Y-101390000D01*
X122090000Y-100590000D01*
X122490000Y-100590000D01*
X122490000Y-101390000D01*
G37*
G36*
X123340000Y-101390000D02*
G01*
X122940000Y-101390000D01*
X122940000Y-100590000D01*
X123340000Y-100590000D01*
X123340000Y-101390000D01*
G37*
G36*
X124190000Y-101390000D02*
G01*
X123790000Y-101390000D01*
X123790000Y-100590000D01*
X124190000Y-100590000D01*
X124190000Y-101390000D01*
G37*
G36*
X125040000Y-101390000D02*
G01*
X124640000Y-101390000D01*
X124640000Y-100590000D01*
X125040000Y-100590000D01*
X125040000Y-101390000D01*
G37*
G36*
X125890000Y-101390000D02*
G01*
X125490000Y-101390000D01*
X125490000Y-100590000D01*
X125890000Y-100590000D01*
X125890000Y-101390000D01*
G37*
G36*
X126740000Y-101390000D02*
G01*
X126340000Y-101390000D01*
X126340000Y-100590000D01*
X126740000Y-100590000D01*
X126740000Y-101390000D01*
G37*
G36*
X127590000Y-101390000D02*
G01*
X127190000Y-101390000D01*
X127190000Y-100590000D01*
X127590000Y-100590000D01*
X127590000Y-101390000D01*
G37*
G36*
X128440000Y-101390000D02*
G01*
X128040000Y-101390000D01*
X128040000Y-100590000D01*
X128440000Y-100590000D01*
X128440000Y-101390000D01*
G37*
G36*
X129290000Y-101390000D02*
G01*
X128890000Y-101390000D01*
X128890000Y-100590000D01*
X129290000Y-100590000D01*
X129290000Y-101390000D01*
G37*
G36*
X130140000Y-101390000D02*
G01*
X129740000Y-101390000D01*
X129740000Y-100590000D01*
X130140000Y-100590000D01*
X130140000Y-101390000D01*
G37*
G36*
X175165000Y-101310000D02*
G01*
X174355000Y-101310000D01*
X174355000Y-100450000D01*
X175165000Y-100450000D01*
X175165000Y-101310000D01*
G37*
G36*
X176665000Y-101310000D02*
G01*
X175855000Y-101310000D01*
X175855000Y-100450000D01*
X176665000Y-100450000D01*
X176665000Y-101310000D01*
G37*
G36*
X159080000Y-101155000D02*
G01*
X158220000Y-101155000D01*
X158220000Y-100345000D01*
X159080000Y-100345000D01*
X159080000Y-101155000D01*
G37*
G36*
X181453199Y-99710142D02*
G01*
X181579978Y-99762655D01*
X181694075Y-99838893D01*
X181791107Y-99935925D01*
X181867345Y-100050022D01*
X181919858Y-100176801D01*
X181946629Y-100311388D01*
X181946629Y-100448612D01*
X181919858Y-100583199D01*
X181867345Y-100709978D01*
X181791107Y-100824075D01*
X181694075Y-100921107D01*
X181579978Y-100997345D01*
X181453199Y-101049858D01*
X181318612Y-101076629D01*
X181181388Y-101076629D01*
X181046801Y-101049858D01*
X180920022Y-100997345D01*
X180805925Y-100921107D01*
X180708893Y-100824075D01*
X180632655Y-100709978D01*
X180580142Y-100583199D01*
X180553371Y-100448612D01*
X180553371Y-100311388D01*
X180580142Y-100176801D01*
X180632655Y-100050022D01*
X180708893Y-99935925D01*
X180805925Y-99838893D01*
X180920022Y-99762655D01*
X181046801Y-99710142D01*
X181181388Y-99683371D01*
X181318612Y-99683371D01*
X181453199Y-99710142D01*
G37*
G36*
X140930000Y-100775000D02*
G01*
X140070000Y-100775000D01*
X140070000Y-99965000D01*
X140930000Y-99965000D01*
X140930000Y-100775000D01*
G37*
G36*
X143380000Y-100775000D02*
G01*
X142520000Y-100775000D01*
X142520000Y-99965000D01*
X143380000Y-99965000D01*
X143380000Y-100775000D01*
G37*
G36*
X156080000Y-100715000D02*
G01*
X155220000Y-100715000D01*
X155220000Y-99905000D01*
X156080000Y-99905000D01*
X156080000Y-100715000D01*
G37*
G36*
X157590000Y-100705000D02*
G01*
X156730000Y-100705000D01*
X156730000Y-99895000D01*
X157590000Y-99895000D01*
X157590000Y-100705000D01*
G37*
G36*
X138931342Y-99458060D02*
G01*
X139044381Y-99523323D01*
X139136677Y-99615619D01*
X139201940Y-99728658D01*
X139235722Y-99854737D01*
X139235722Y-99985263D01*
X139201940Y-100111342D01*
X139136677Y-100224381D01*
X139044381Y-100316677D01*
X138931342Y-100381940D01*
X138805263Y-100415722D01*
X138674737Y-100415722D01*
X138548658Y-100381940D01*
X138435619Y-100316677D01*
X138343323Y-100224381D01*
X138278060Y-100111342D01*
X138244278Y-99985263D01*
X138244278Y-99854737D01*
X138278060Y-99728658D01*
X138343323Y-99615619D01*
X138435619Y-99523323D01*
X138548658Y-99458060D01*
X138674737Y-99424278D01*
X138805263Y-99424278D01*
X138931342Y-99458060D01*
G37*
G36*
X164220000Y-100190000D02*
G01*
X163320000Y-100190000D01*
X163320000Y-99390000D01*
X164220000Y-99390000D01*
X164220000Y-100190000D01*
G37*
G36*
X117360000Y-100160000D02*
G01*
X116560000Y-100160000D01*
X116560000Y-99760000D01*
X117360000Y-99760000D01*
X117360000Y-100160000D01*
G37*
G36*
X131420000Y-100160000D02*
G01*
X130620000Y-100160000D01*
X130620000Y-99760000D01*
X131420000Y-99760000D01*
X131420000Y-100160000D01*
G37*
G36*
X165950000Y-100160000D02*
G01*
X165050000Y-100160000D01*
X165050000Y-99360000D01*
X165950000Y-99360000D01*
X165950000Y-100160000D01*
G37*
G36*
X167660000Y-100150000D02*
G01*
X166760000Y-100150000D01*
X166760000Y-99350000D01*
X167660000Y-99350000D01*
X167660000Y-100150000D01*
G37*
G36*
X133835000Y-100085000D02*
G01*
X133305000Y-100085000D01*
X133305000Y-99015000D01*
X133835000Y-99015000D01*
X133835000Y-100085000D01*
G37*
G36*
X134785000Y-100085000D02*
G01*
X134255000Y-100085000D01*
X134255000Y-99015000D01*
X134785000Y-99015000D01*
X134785000Y-100085000D01*
G37*
G36*
X135735000Y-100085000D02*
G01*
X135205000Y-100085000D01*
X135205000Y-99015000D01*
X135735000Y-99015000D01*
X135735000Y-100085000D01*
G37*
G36*
X145325000Y-100070000D02*
G01*
X144515000Y-100070000D01*
X144515000Y-99210000D01*
X145325000Y-99210000D01*
X145325000Y-100070000D01*
G37*
G36*
X146825000Y-100070000D02*
G01*
X146015000Y-100070000D01*
X146015000Y-99210000D01*
X146825000Y-99210000D01*
X146825000Y-100070000D01*
G37*
G36*
X160090116Y-99523459D02*
G01*
X160155003Y-99550335D01*
X160204665Y-99599997D01*
X160231541Y-99664884D01*
X160231541Y-99735116D01*
X160204665Y-99800003D01*
X160155003Y-99849665D01*
X160090116Y-99876541D01*
X160055000Y-99880000D01*
X160052052Y-99880000D01*
X159647948Y-99880000D01*
X159645000Y-99880000D01*
X159609884Y-99876541D01*
X159544997Y-99849665D01*
X159495335Y-99800003D01*
X159468459Y-99735116D01*
X159468459Y-99664884D01*
X159495335Y-99599997D01*
X159544997Y-99550335D01*
X159609884Y-99523459D01*
X159645000Y-99520000D01*
X160055000Y-99520000D01*
X160090116Y-99523459D01*
G37*
G36*
X162610116Y-99523459D02*
G01*
X162675003Y-99550335D01*
X162724665Y-99599997D01*
X162751541Y-99664884D01*
X162751541Y-99735116D01*
X162724665Y-99800003D01*
X162675003Y-99849665D01*
X162610116Y-99876541D01*
X162575000Y-99880000D01*
X162572052Y-99880000D01*
X162167948Y-99880000D01*
X162165000Y-99880000D01*
X162129884Y-99876541D01*
X162064997Y-99849665D01*
X162015335Y-99800003D01*
X161988459Y-99735116D01*
X161988459Y-99664884D01*
X162015335Y-99599997D01*
X162064997Y-99550335D01*
X162129884Y-99523459D01*
X162165000Y-99520000D01*
X162575000Y-99520000D01*
X162610116Y-99523459D01*
G37*
G36*
X159080000Y-99655000D02*
G01*
X158220000Y-99655000D01*
X158220000Y-98845000D01*
X159080000Y-98845000D01*
X159080000Y-99655000D01*
G37*
G36*
X175220000Y-99650000D02*
G01*
X174420000Y-99650000D01*
X174420000Y-98750000D01*
X175220000Y-98750000D01*
X175220000Y-99650000D01*
G37*
G36*
X176620000Y-99650000D02*
G01*
X175820000Y-99650000D01*
X175820000Y-98750000D01*
X176620000Y-98750000D01*
X176620000Y-99650000D01*
G37*
G36*
X117360000Y-99310000D02*
G01*
X116560000Y-99310000D01*
X116560000Y-98910000D01*
X117360000Y-98910000D01*
X117360000Y-99310000D01*
G37*
G36*
X131420000Y-99310000D02*
G01*
X130620000Y-99310000D01*
X130620000Y-98910000D01*
X131420000Y-98910000D01*
X131420000Y-99310000D01*
G37*
G36*
X184011256Y-97518754D02*
G01*
X184174257Y-97586271D01*
X184320954Y-97684291D01*
X184445709Y-97809046D01*
X184543729Y-97955743D01*
X184611246Y-98118744D01*
X184645666Y-98291785D01*
X184645666Y-98468215D01*
X184611246Y-98641256D01*
X184543729Y-98804257D01*
X184445709Y-98950954D01*
X184320954Y-99075709D01*
X184174257Y-99173729D01*
X184011256Y-99241246D01*
X183838215Y-99275666D01*
X183661785Y-99275666D01*
X183488744Y-99241246D01*
X183325743Y-99173729D01*
X183179046Y-99075709D01*
X183054291Y-98950954D01*
X182956271Y-98804257D01*
X182888754Y-98641256D01*
X182854334Y-98468215D01*
X182854334Y-98291785D01*
X182888754Y-98118744D01*
X182956271Y-97955743D01*
X183054291Y-97809046D01*
X183179046Y-97684291D01*
X183325743Y-97586271D01*
X183488744Y-97518754D01*
X183661785Y-97484334D01*
X183838215Y-97484334D01*
X184011256Y-97518754D01*
G37*
G36*
X160090116Y-98873459D02*
G01*
X160155003Y-98900335D01*
X160204665Y-98949997D01*
X160231541Y-99014884D01*
X160231541Y-99085116D01*
X160204665Y-99150003D01*
X160155003Y-99199665D01*
X160090116Y-99226541D01*
X160055000Y-99230000D01*
X160052052Y-99230000D01*
X159647948Y-99230000D01*
X159645000Y-99230000D01*
X159609884Y-99226541D01*
X159544997Y-99199665D01*
X159495335Y-99150003D01*
X159468459Y-99085116D01*
X159468459Y-99014884D01*
X159495335Y-98949997D01*
X159544997Y-98900335D01*
X159609884Y-98873459D01*
X159645000Y-98870000D01*
X160055000Y-98870000D01*
X160090116Y-98873459D01*
G37*
G36*
X162610116Y-98873459D02*
G01*
X162675003Y-98900335D01*
X162724665Y-98949997D01*
X162751541Y-99014884D01*
X162751541Y-99085116D01*
X162724665Y-99150003D01*
X162675003Y-99199665D01*
X162610116Y-99226541D01*
X162575000Y-99230000D01*
X162572052Y-99230000D01*
X162167948Y-99230000D01*
X162165000Y-99230000D01*
X162129884Y-99226541D01*
X162064997Y-99199665D01*
X162015335Y-99150003D01*
X161988459Y-99085116D01*
X161988459Y-99014884D01*
X162015335Y-98949997D01*
X162064997Y-98900335D01*
X162129884Y-98873459D01*
X162165000Y-98870000D01*
X162575000Y-98870000D01*
X162610116Y-98873459D01*
G37*
G36*
X156080000Y-99215000D02*
G01*
X155220000Y-99215000D01*
X155220000Y-98405000D01*
X156080000Y-98405000D01*
X156080000Y-99215000D01*
G37*
G36*
X157590000Y-99205000D02*
G01*
X156730000Y-99205000D01*
X156730000Y-98395000D01*
X157590000Y-98395000D01*
X157590000Y-99205000D01*
G37*
G36*
X178470616Y-97652725D02*
G01*
X178608262Y-97709740D01*
X178732139Y-97792512D01*
X178837488Y-97897861D01*
X178920260Y-98021738D01*
X178977275Y-98159384D01*
X179006340Y-98305507D01*
X179006340Y-98454493D01*
X178977275Y-98600616D01*
X178920260Y-98738262D01*
X178837488Y-98862139D01*
X178732139Y-98967488D01*
X178608262Y-99050260D01*
X178470616Y-99107275D01*
X178324493Y-99136340D01*
X178175507Y-99136340D01*
X178029384Y-99107275D01*
X177891738Y-99050260D01*
X177767861Y-98967488D01*
X177662512Y-98862139D01*
X177579740Y-98738262D01*
X177522725Y-98600616D01*
X177493660Y-98454493D01*
X177493660Y-98305507D01*
X177522725Y-98159384D01*
X177579740Y-98021738D01*
X177662512Y-97897861D01*
X177767861Y-97792512D01*
X177891738Y-97709740D01*
X178029384Y-97652725D01*
X178175507Y-97623660D01*
X178324493Y-97623660D01*
X178470616Y-97652725D01*
G37*
G36*
X181453199Y-97710142D02*
G01*
X181579978Y-97762655D01*
X181694075Y-97838893D01*
X181791107Y-97935925D01*
X181867345Y-98050022D01*
X181919858Y-98176801D01*
X181946629Y-98311388D01*
X181946629Y-98448612D01*
X181919858Y-98583199D01*
X181867345Y-98709978D01*
X181791107Y-98824075D01*
X181694075Y-98921107D01*
X181579978Y-98997345D01*
X181453199Y-99049858D01*
X181318612Y-99076629D01*
X181181388Y-99076629D01*
X181046801Y-99049858D01*
X180920022Y-98997345D01*
X180805925Y-98921107D01*
X180708893Y-98824075D01*
X180632655Y-98709978D01*
X180580142Y-98583199D01*
X180553371Y-98448612D01*
X180553371Y-98311388D01*
X180580142Y-98176801D01*
X180632655Y-98050022D01*
X180708893Y-97935925D01*
X180805925Y-97838893D01*
X180920022Y-97762655D01*
X181046801Y-97710142D01*
X181181388Y-97683371D01*
X181318612Y-97683371D01*
X181453199Y-97710142D01*
G37*
G36*
X164220000Y-98790000D02*
G01*
X163320000Y-98790000D01*
X163320000Y-97990000D01*
X164220000Y-97990000D01*
X164220000Y-98790000D01*
G37*
G36*
X165950000Y-98760000D02*
G01*
X165050000Y-98760000D01*
X165050000Y-97960000D01*
X165950000Y-97960000D01*
X165950000Y-98760000D01*
G37*
G36*
X167660000Y-98750000D02*
G01*
X166760000Y-98750000D01*
X166760000Y-97950000D01*
X167660000Y-97950000D01*
X167660000Y-98750000D01*
G37*
G36*
X160090116Y-98223459D02*
G01*
X160155003Y-98250335D01*
X160204665Y-98299997D01*
X160231541Y-98364884D01*
X160231541Y-98435116D01*
X160204665Y-98500003D01*
X160155003Y-98549665D01*
X160090116Y-98576541D01*
X160055000Y-98580000D01*
X160052052Y-98580000D01*
X159647948Y-98580000D01*
X159645000Y-98580000D01*
X159609884Y-98576541D01*
X159544997Y-98549665D01*
X159495335Y-98500003D01*
X159468459Y-98435116D01*
X159468459Y-98364884D01*
X159495335Y-98299997D01*
X159544997Y-98250335D01*
X159609884Y-98223459D01*
X159645000Y-98220000D01*
X160055000Y-98220000D01*
X160090116Y-98223459D01*
G37*
G36*
X162610116Y-98223459D02*
G01*
X162675003Y-98250335D01*
X162724665Y-98299997D01*
X162751541Y-98364884D01*
X162751541Y-98435116D01*
X162724665Y-98500003D01*
X162675003Y-98549665D01*
X162610116Y-98576541D01*
X162575000Y-98580000D01*
X162572052Y-98580000D01*
X162167948Y-98580000D01*
X162165000Y-98580000D01*
X162129884Y-98576541D01*
X162064997Y-98549665D01*
X162015335Y-98500003D01*
X161988459Y-98435116D01*
X161988459Y-98364884D01*
X162015335Y-98299997D01*
X162064997Y-98250335D01*
X162129884Y-98223459D01*
X162165000Y-98220000D01*
X162575000Y-98220000D01*
X162610116Y-98223459D01*
G37*
G36*
X144575000Y-98520000D02*
G01*
X143765000Y-98520000D01*
X143765000Y-97660000D01*
X144575000Y-97660000D01*
X144575000Y-98520000D01*
G37*
G36*
X146075000Y-98520000D02*
G01*
X145265000Y-98520000D01*
X145265000Y-97660000D01*
X146075000Y-97660000D01*
X146075000Y-98520000D01*
G37*
G36*
X117360000Y-98460000D02*
G01*
X116560000Y-98460000D01*
X116560000Y-98060000D01*
X117360000Y-98060000D01*
X117360000Y-98460000D01*
G37*
G36*
X131420000Y-98460000D02*
G01*
X130620000Y-98460000D01*
X130620000Y-98060000D01*
X131420000Y-98060000D01*
X131420000Y-98460000D01*
G37*
G36*
X137990000Y-98300000D02*
G01*
X135990000Y-98300000D01*
X135990000Y-96300000D01*
X137990000Y-96300000D01*
X137990000Y-98300000D01*
G37*
G36*
X142390000Y-98300000D02*
G01*
X140390000Y-98300000D01*
X140390000Y-96300000D01*
X142390000Y-96300000D01*
X142390000Y-98300000D01*
G37*
G36*
X160090116Y-97563459D02*
G01*
X160155003Y-97590335D01*
X160204665Y-97639997D01*
X160231541Y-97704884D01*
X160231541Y-97775116D01*
X160204665Y-97840003D01*
X160155003Y-97889665D01*
X160090116Y-97916541D01*
X160055000Y-97920000D01*
X160052052Y-97920000D01*
X159647948Y-97920000D01*
X159645000Y-97920000D01*
X159609884Y-97916541D01*
X159544997Y-97889665D01*
X159495335Y-97840003D01*
X159468459Y-97775116D01*
X159468459Y-97704884D01*
X159495335Y-97639997D01*
X159544997Y-97590335D01*
X159609884Y-97563459D01*
X159645000Y-97560000D01*
X160055000Y-97560000D01*
X160090116Y-97563459D01*
G37*
G36*
X162610116Y-97563459D02*
G01*
X162675003Y-97590335D01*
X162724665Y-97639997D01*
X162751541Y-97704884D01*
X162751541Y-97775116D01*
X162724665Y-97840003D01*
X162675003Y-97889665D01*
X162610116Y-97916541D01*
X162575000Y-97920000D01*
X162572052Y-97920000D01*
X162167948Y-97920000D01*
X162165000Y-97920000D01*
X162129884Y-97916541D01*
X162064997Y-97889665D01*
X162015335Y-97840003D01*
X161988459Y-97775116D01*
X161988459Y-97704884D01*
X162015335Y-97639997D01*
X162064997Y-97590335D01*
X162129884Y-97563459D01*
X162165000Y-97560000D01*
X162575000Y-97560000D01*
X162610116Y-97563459D01*
G37*
G36*
X175227500Y-97885000D02*
G01*
X174427500Y-97885000D01*
X174427500Y-96985000D01*
X175227500Y-96985000D01*
X175227500Y-97885000D01*
G37*
G36*
X176627500Y-97885000D02*
G01*
X175827500Y-97885000D01*
X175827500Y-96985000D01*
X176627500Y-96985000D01*
X176627500Y-97885000D01*
G37*
G36*
X151535000Y-97760000D02*
G01*
X150725000Y-97760000D01*
X150725000Y-96900000D01*
X151535000Y-96900000D01*
X151535000Y-97760000D01*
G37*
G36*
X153035000Y-97760000D02*
G01*
X152225000Y-97760000D01*
X152225000Y-96900000D01*
X153035000Y-96900000D01*
X153035000Y-97760000D01*
G37*
G36*
X154515000Y-97760000D02*
G01*
X153705000Y-97760000D01*
X153705000Y-96900000D01*
X154515000Y-96900000D01*
X154515000Y-97760000D01*
G37*
G36*
X156015000Y-97760000D02*
G01*
X155205000Y-97760000D01*
X155205000Y-96900000D01*
X156015000Y-96900000D01*
X156015000Y-97760000D01*
G37*
G36*
X117360000Y-97610000D02*
G01*
X116560000Y-97610000D01*
X116560000Y-97210000D01*
X117360000Y-97210000D01*
X117360000Y-97610000D01*
G37*
G36*
X131420000Y-97610000D02*
G01*
X130620000Y-97610000D01*
X130620000Y-97210000D01*
X131420000Y-97210000D01*
X131420000Y-97610000D01*
G37*
G36*
X165723536Y-94686464D02*
G01*
X165724701Y-94689278D01*
X165781327Y-94689278D01*
X165785263Y-94689278D01*
X165786557Y-94689448D01*
X165912636Y-94723230D01*
X165913842Y-94723730D01*
X165917244Y-94725694D01*
X165917246Y-94725695D01*
X166023473Y-94787025D01*
X166023475Y-94787026D01*
X166026881Y-94788993D01*
X166027917Y-94789787D01*
X166120213Y-94882083D01*
X166121007Y-94883119D01*
X166186270Y-94996158D01*
X166186770Y-94997364D01*
X166220552Y-95123443D01*
X166220722Y-95124737D01*
X166220722Y-95185298D01*
X166223536Y-95186464D01*
X166225000Y-95190000D01*
X166225000Y-95690000D01*
X166223536Y-95693536D01*
X166220251Y-95694895D01*
X166220000Y-95696160D01*
X166220000Y-95983838D01*
X166220251Y-95985104D01*
X166223536Y-95986464D01*
X166225000Y-95990000D01*
X166225000Y-96490000D01*
X166223536Y-96493536D01*
X166220722Y-96494701D01*
X166220722Y-96555263D01*
X166220552Y-96556557D01*
X166186770Y-96682636D01*
X166186270Y-96683842D01*
X166121007Y-96796881D01*
X166120213Y-96797917D01*
X166027917Y-96890213D01*
X166026881Y-96891007D01*
X165913842Y-96956270D01*
X165912636Y-96956770D01*
X165786557Y-96990552D01*
X165785263Y-96990722D01*
X165724701Y-96990722D01*
X165723536Y-96993536D01*
X165720000Y-96995000D01*
X165708066Y-96995000D01*
X165231934Y-96995000D01*
X165220000Y-96995000D01*
X165216464Y-96993536D01*
X165215299Y-96990722D01*
X165158673Y-96990722D01*
X165154737Y-96990722D01*
X165153443Y-96990552D01*
X165027364Y-96956770D01*
X165026158Y-96956270D01*
X164913119Y-96891007D01*
X164912083Y-96890213D01*
X164819787Y-96797917D01*
X164818993Y-96796881D01*
X164797699Y-96760000D01*
X164755695Y-96687246D01*
X164755694Y-96687244D01*
X164753730Y-96683842D01*
X164753230Y-96682636D01*
X164719448Y-96556557D01*
X164719278Y-96555263D01*
X164719278Y-96494701D01*
X164716464Y-96493536D01*
X164715000Y-96490000D01*
X164715000Y-95990000D01*
X164716464Y-95986464D01*
X164719748Y-95985104D01*
X164720000Y-95983838D01*
X164720000Y-95696160D01*
X164719748Y-95694895D01*
X164716464Y-95693536D01*
X164715000Y-95690000D01*
X164715000Y-95190000D01*
X164716464Y-95186464D01*
X164719278Y-95185298D01*
X164719278Y-95124737D01*
X164719448Y-95123443D01*
X164753230Y-94997364D01*
X164753730Y-94996158D01*
X164755692Y-94992758D01*
X164755695Y-94992753D01*
X164817025Y-94886526D01*
X164817028Y-94886520D01*
X164818993Y-94883119D01*
X164819787Y-94882083D01*
X164912083Y-94789787D01*
X164913119Y-94788993D01*
X164916520Y-94787028D01*
X164916526Y-94787025D01*
X165022753Y-94725695D01*
X165022758Y-94725692D01*
X165026158Y-94723730D01*
X165027364Y-94723230D01*
X165153443Y-94689448D01*
X165154737Y-94689278D01*
X165215299Y-94689278D01*
X165216464Y-94686464D01*
X165220000Y-94685000D01*
X165720000Y-94685000D01*
X165723536Y-94686464D01*
G37*
G36*
X159245000Y-96990000D02*
G01*
X158435000Y-96990000D01*
X158435000Y-96130000D01*
X159245000Y-96130000D01*
X159245000Y-96990000D01*
G37*
G36*
X160745000Y-96990000D02*
G01*
X159935000Y-96990000D01*
X159935000Y-96130000D01*
X160745000Y-96130000D01*
X160745000Y-96990000D01*
G37*
G36*
X162260000Y-96945000D02*
G01*
X161400000Y-96945000D01*
X161400000Y-96135000D01*
X162260000Y-96135000D01*
X162260000Y-96945000D01*
G37*
G36*
X163800000Y-96945000D02*
G01*
X162940000Y-96945000D01*
X162940000Y-96135000D01*
X163800000Y-96135000D01*
X163800000Y-96945000D01*
G37*
G36*
X117360000Y-96760000D02*
G01*
X116560000Y-96760000D01*
X116560000Y-96360000D01*
X117360000Y-96360000D01*
X117360000Y-96760000D01*
G37*
G36*
X131420000Y-96760000D02*
G01*
X130620000Y-96760000D01*
X130620000Y-96360000D01*
X131420000Y-96360000D01*
X131420000Y-96760000D01*
G37*
G36*
X147555000Y-96510000D02*
G01*
X147305000Y-96510000D01*
X147305000Y-96010000D01*
X147555000Y-96010000D01*
X147555000Y-96510000D01*
G37*
G36*
X148055000Y-96510000D02*
G01*
X147805000Y-96510000D01*
X147805000Y-96010000D01*
X148055000Y-96010000D01*
X148055000Y-96510000D01*
G37*
G36*
X148555000Y-96510000D02*
G01*
X148305000Y-96510000D01*
X148305000Y-96010000D01*
X148555000Y-96010000D01*
X148555000Y-96510000D01*
G37*
G36*
X149055000Y-96510000D02*
G01*
X148805000Y-96510000D01*
X148805000Y-96010000D01*
X149055000Y-96010000D01*
X149055000Y-96510000D01*
G37*
G36*
X146870000Y-96385000D02*
G01*
X146370000Y-96385000D01*
X146370000Y-96135000D01*
X146870000Y-96135000D01*
X146870000Y-96385000D01*
G37*
G36*
X149990000Y-96385000D02*
G01*
X149490000Y-96385000D01*
X149490000Y-96135000D01*
X149990000Y-96135000D01*
X149990000Y-96385000D01*
G37*
G36*
X172910000Y-96310000D02*
G01*
X171410000Y-96310000D01*
X171410000Y-95410000D01*
X172910000Y-95410000D01*
X172910000Y-96310000D01*
G37*
G36*
X122940000Y-96260000D02*
G01*
X121740000Y-96260000D01*
X121740000Y-95060000D01*
X122940000Y-95060000D01*
X122940000Y-96260000D01*
G37*
G36*
X124590000Y-96260000D02*
G01*
X123390000Y-96260000D01*
X123390000Y-95060000D01*
X124590000Y-95060000D01*
X124590000Y-96260000D01*
G37*
G36*
X126240000Y-96260000D02*
G01*
X125040000Y-96260000D01*
X125040000Y-95060000D01*
X126240000Y-95060000D01*
X126240000Y-96260000D01*
G37*
G36*
X151545000Y-96250000D02*
G01*
X150735000Y-96250000D01*
X150735000Y-95390000D01*
X151545000Y-95390000D01*
X151545000Y-96250000D01*
G37*
G36*
X153045000Y-96250000D02*
G01*
X152235000Y-96250000D01*
X152235000Y-95390000D01*
X153045000Y-95390000D01*
X153045000Y-96250000D01*
G37*
G36*
X154545000Y-96250000D02*
G01*
X153735000Y-96250000D01*
X153735000Y-95390000D01*
X154545000Y-95390000D01*
X154545000Y-96250000D01*
G37*
G36*
X156045000Y-96250000D02*
G01*
X155235000Y-96250000D01*
X155235000Y-95390000D01*
X156045000Y-95390000D01*
X156045000Y-96250000D01*
G37*
G36*
X174635000Y-96250000D02*
G01*
X173825000Y-96250000D01*
X173825000Y-95390000D01*
X174635000Y-95390000D01*
X174635000Y-96250000D01*
G37*
G36*
X176135000Y-96250000D02*
G01*
X175325000Y-96250000D01*
X175325000Y-95390000D01*
X176135000Y-95390000D01*
X176135000Y-96250000D01*
G37*
G36*
X181655000Y-96080000D02*
G01*
X180845000Y-96080000D01*
X180845000Y-95220000D01*
X181655000Y-95220000D01*
X181655000Y-96080000D01*
G37*
G36*
X183155000Y-96080000D02*
G01*
X182345000Y-96080000D01*
X182345000Y-95220000D01*
X183155000Y-95220000D01*
X183155000Y-96080000D01*
G37*
G36*
X117360000Y-95910000D02*
G01*
X116560000Y-95910000D01*
X116560000Y-95510000D01*
X117360000Y-95510000D01*
X117360000Y-95910000D01*
G37*
G36*
X131420000Y-95910000D02*
G01*
X130620000Y-95910000D01*
X130620000Y-95510000D01*
X131420000Y-95510000D01*
X131420000Y-95910000D01*
G37*
G36*
X146870000Y-95885000D02*
G01*
X146370000Y-95885000D01*
X146370000Y-95635000D01*
X146870000Y-95635000D01*
X146870000Y-95885000D01*
G37*
G36*
X149990000Y-95885000D02*
G01*
X149490000Y-95885000D01*
X149490000Y-95635000D01*
X149990000Y-95635000D01*
X149990000Y-95885000D01*
G37*
G36*
X162260000Y-95445000D02*
G01*
X161400000Y-95445000D01*
X161400000Y-94635000D01*
X162260000Y-94635000D01*
X162260000Y-95445000D01*
G37*
G36*
X163800000Y-95445000D02*
G01*
X162940000Y-95445000D01*
X162940000Y-94635000D01*
X163800000Y-94635000D01*
X163800000Y-95445000D01*
G37*
G36*
X136450000Y-95400000D02*
G01*
X135650000Y-95400000D01*
X135650000Y-94500000D01*
X136450000Y-94500000D01*
X136450000Y-95400000D01*
G37*
G36*
X137850000Y-95400000D02*
G01*
X137050000Y-95400000D01*
X137050000Y-94500000D01*
X137850000Y-94500000D01*
X137850000Y-95400000D01*
G37*
G36*
X146870000Y-95385000D02*
G01*
X146370000Y-95385000D01*
X146370000Y-95135000D01*
X146870000Y-95135000D01*
X146870000Y-95385000D01*
G37*
G36*
X149990000Y-95385000D02*
G01*
X149490000Y-95385000D01*
X149490000Y-95135000D01*
X149990000Y-95135000D01*
X149990000Y-95385000D01*
G37*
G36*
X117360000Y-95060000D02*
G01*
X116560000Y-95060000D01*
X116560000Y-94660000D01*
X117360000Y-94660000D01*
X117360000Y-95060000D01*
G37*
G36*
X131420000Y-95060000D02*
G01*
X130620000Y-95060000D01*
X130620000Y-94660000D01*
X131420000Y-94660000D01*
X131420000Y-95060000D01*
G37*
G36*
X172910000Y-95050000D02*
G01*
X171410000Y-95050000D01*
X171410000Y-94150000D01*
X172910000Y-94150000D01*
X172910000Y-95050000D01*
G37*
G36*
X146870000Y-94885000D02*
G01*
X146370000Y-94885000D01*
X146370000Y-94635000D01*
X146870000Y-94635000D01*
X146870000Y-94885000D01*
G37*
G36*
X149990000Y-94885000D02*
G01*
X149490000Y-94885000D01*
X149490000Y-94635000D01*
X149990000Y-94635000D01*
X149990000Y-94885000D01*
G37*
G36*
X174645000Y-94700000D02*
G01*
X173835000Y-94700000D01*
X173835000Y-93840000D01*
X174645000Y-93840000D01*
X174645000Y-94700000D01*
G37*
G36*
X176145000Y-94700000D02*
G01*
X175335000Y-94700000D01*
X175335000Y-93840000D01*
X176145000Y-93840000D01*
X176145000Y-94700000D01*
G37*
G36*
X153640000Y-94690000D02*
G01*
X152840000Y-94690000D01*
X152840000Y-93790000D01*
X153640000Y-93790000D01*
X153640000Y-94690000D01*
G37*
G36*
X155040000Y-94690000D02*
G01*
X154240000Y-94690000D01*
X154240000Y-93790000D01*
X155040000Y-93790000D01*
X155040000Y-94690000D01*
G37*
G36*
X122940000Y-94610000D02*
G01*
X121740000Y-94610000D01*
X121740000Y-93410000D01*
X122940000Y-93410000D01*
X122940000Y-94610000D01*
G37*
G36*
X124590000Y-94610000D02*
G01*
X123390000Y-94610000D01*
X123390000Y-93410000D01*
X124590000Y-93410000D01*
X124590000Y-94610000D01*
G37*
G36*
X126240000Y-94610000D02*
G01*
X125040000Y-94610000D01*
X125040000Y-93410000D01*
X126240000Y-93410000D01*
X126240000Y-94610000D01*
G37*
G36*
X157053536Y-93036464D02*
G01*
X157054895Y-93039748D01*
X157056162Y-93040000D01*
X158543838Y-93040000D01*
X158545104Y-93039748D01*
X158546464Y-93036464D01*
X158550000Y-93035000D01*
X159100000Y-93035000D01*
X159103536Y-93036464D01*
X159104701Y-93039278D01*
X159161327Y-93039278D01*
X159165263Y-93039278D01*
X159166557Y-93039448D01*
X159292636Y-93073230D01*
X159293842Y-93073730D01*
X159297244Y-93075694D01*
X159297246Y-93075695D01*
X159403473Y-93137025D01*
X159403475Y-93137026D01*
X159406881Y-93138993D01*
X159407917Y-93139787D01*
X159500213Y-93232083D01*
X159501007Y-93233119D01*
X159566270Y-93346158D01*
X159566770Y-93347364D01*
X159600552Y-93473443D01*
X159600722Y-93474737D01*
X159600722Y-93535298D01*
X159603536Y-93536464D01*
X159605000Y-93540000D01*
X159605000Y-94040000D01*
X159603536Y-94043536D01*
X159600722Y-94044701D01*
X159600722Y-94105263D01*
X159600552Y-94106557D01*
X159566770Y-94232636D01*
X159566270Y-94233842D01*
X159501007Y-94346881D01*
X159500213Y-94347917D01*
X159407917Y-94440213D01*
X159406881Y-94441007D01*
X159293842Y-94506270D01*
X159292636Y-94506770D01*
X159166557Y-94540552D01*
X159165263Y-94540722D01*
X159104701Y-94540722D01*
X159103536Y-94543536D01*
X159100000Y-94545000D01*
X159088066Y-94545000D01*
X158561934Y-94545000D01*
X158550000Y-94545000D01*
X158546464Y-94543536D01*
X158545104Y-94540251D01*
X158543838Y-94540000D01*
X157056162Y-94540000D01*
X157054895Y-94540251D01*
X157053536Y-94543536D01*
X157050000Y-94545000D01*
X157038066Y-94545000D01*
X156511934Y-94545000D01*
X156500000Y-94545000D01*
X156496464Y-94543536D01*
X156495299Y-94540722D01*
X156438673Y-94540722D01*
X156434737Y-94540722D01*
X156433443Y-94540552D01*
X156307364Y-94506770D01*
X156306158Y-94506270D01*
X156193119Y-94441007D01*
X156192083Y-94440213D01*
X156099787Y-94347917D01*
X156098993Y-94346881D01*
X156033730Y-94233842D01*
X156033230Y-94232636D01*
X155999448Y-94106557D01*
X155999278Y-94105263D01*
X155999278Y-94044701D01*
X155996464Y-94043536D01*
X155995000Y-94040000D01*
X155995000Y-93540000D01*
X155996464Y-93536464D01*
X155999278Y-93535298D01*
X155999278Y-93474737D01*
X155999448Y-93473443D01*
X156033230Y-93347364D01*
X156033730Y-93346158D01*
X156035692Y-93342758D01*
X156035695Y-93342753D01*
X156097025Y-93236526D01*
X156097028Y-93236520D01*
X156098993Y-93233119D01*
X156099787Y-93232083D01*
X156192083Y-93139787D01*
X156193119Y-93138993D01*
X156196520Y-93137028D01*
X156196526Y-93137025D01*
X156302753Y-93075695D01*
X156302758Y-93075692D01*
X156306158Y-93073730D01*
X156307364Y-93073230D01*
X156433443Y-93039448D01*
X156434737Y-93039278D01*
X156495299Y-93039278D01*
X156496464Y-93036464D01*
X156500000Y-93035000D01*
X157050000Y-93035000D01*
X157053536Y-93036464D01*
G37*
G36*
X152060000Y-94540000D02*
G01*
X150760000Y-94540000D01*
X150760000Y-93840000D01*
X152060000Y-93840000D01*
X152060000Y-94540000D01*
G37*
G36*
X146870000Y-94385000D02*
G01*
X146370000Y-94385000D01*
X146370000Y-94135000D01*
X146870000Y-94135000D01*
X146870000Y-94385000D01*
G37*
G36*
X149990000Y-94385000D02*
G01*
X149490000Y-94385000D01*
X149490000Y-94135000D01*
X149990000Y-94135000D01*
X149990000Y-94385000D01*
G37*
G36*
X117360000Y-94210000D02*
G01*
X116560000Y-94210000D01*
X116560000Y-93810000D01*
X117360000Y-93810000D01*
X117360000Y-94210000D01*
G37*
G36*
X131420000Y-94210000D02*
G01*
X130620000Y-94210000D01*
X130620000Y-93810000D01*
X131420000Y-93810000D01*
X131420000Y-94210000D01*
G37*
G36*
X146870000Y-93885000D02*
G01*
X146370000Y-93885000D01*
X146370000Y-93635000D01*
X146870000Y-93635000D01*
X146870000Y-93885000D01*
G37*
G36*
X149990000Y-93885000D02*
G01*
X149490000Y-93885000D01*
X149490000Y-93635000D01*
X149990000Y-93635000D01*
X149990000Y-93885000D01*
G37*
G36*
X172910000Y-93800000D02*
G01*
X171410000Y-93800000D01*
X171410000Y-92900000D01*
X172910000Y-92900000D01*
X172910000Y-93800000D01*
G37*
G36*
X136470000Y-93710000D02*
G01*
X135670000Y-93710000D01*
X135670000Y-92810000D01*
X136470000Y-92810000D01*
X136470000Y-93710000D01*
G37*
G36*
X137870000Y-93710000D02*
G01*
X137070000Y-93710000D01*
X137070000Y-92810000D01*
X137870000Y-92810000D01*
X137870000Y-93710000D01*
G37*
G36*
X144130000Y-93420000D02*
G01*
X143330000Y-93420000D01*
X143330000Y-92520000D01*
X144130000Y-92520000D01*
X144130000Y-93420000D01*
G37*
G36*
X145530000Y-93420000D02*
G01*
X144730000Y-93420000D01*
X144730000Y-92520000D01*
X145530000Y-92520000D01*
X145530000Y-93420000D01*
G37*
G36*
X146870000Y-93385000D02*
G01*
X146370000Y-93385000D01*
X146370000Y-93135000D01*
X146870000Y-93135000D01*
X146870000Y-93385000D01*
G37*
G36*
X149990000Y-93385000D02*
G01*
X149490000Y-93385000D01*
X149490000Y-93135000D01*
X149990000Y-93135000D01*
X149990000Y-93385000D01*
G37*
G36*
X117360000Y-93360000D02*
G01*
X116560000Y-93360000D01*
X116560000Y-92960000D01*
X117360000Y-92960000D01*
X117360000Y-93360000D01*
G37*
G36*
X131420000Y-93360000D02*
G01*
X130620000Y-93360000D01*
X130620000Y-92960000D01*
X131420000Y-92960000D01*
X131420000Y-93360000D01*
G37*
G36*
X152060000Y-93040000D02*
G01*
X150760000Y-93040000D01*
X150760000Y-92340000D01*
X152060000Y-92340000D01*
X152060000Y-93040000D01*
G37*
G36*
X153610000Y-93000000D02*
G01*
X152810000Y-93000000D01*
X152810000Y-92100000D01*
X153610000Y-92100000D01*
X153610000Y-93000000D01*
G37*
G36*
X155010000Y-93000000D02*
G01*
X154210000Y-93000000D01*
X154210000Y-92100000D01*
X155010000Y-92100000D01*
X155010000Y-93000000D01*
G37*
G36*
X122940000Y-92960000D02*
G01*
X121740000Y-92960000D01*
X121740000Y-91760000D01*
X122940000Y-91760000D01*
X122940000Y-92960000D01*
G37*
G36*
X124590000Y-92960000D02*
G01*
X123390000Y-92960000D01*
X123390000Y-91760000D01*
X124590000Y-91760000D01*
X124590000Y-92960000D01*
G37*
G36*
X126240000Y-92960000D02*
G01*
X125040000Y-92960000D01*
X125040000Y-91760000D01*
X126240000Y-91760000D01*
X126240000Y-92960000D01*
G37*
G36*
X146870000Y-92885000D02*
G01*
X146370000Y-92885000D01*
X146370000Y-92635000D01*
X146870000Y-92635000D01*
X146870000Y-92885000D01*
G37*
G36*
X149990000Y-92885000D02*
G01*
X149490000Y-92885000D01*
X149490000Y-92635000D01*
X149990000Y-92635000D01*
X149990000Y-92885000D01*
G37*
G36*
X180230285Y-90623060D02*
G01*
X180411397Y-90698079D01*
X180574393Y-90806990D01*
X180713010Y-90945607D01*
X180821921Y-91108603D01*
X180896940Y-91289715D01*
X180935185Y-91481983D01*
X180935185Y-91678017D01*
X180896940Y-91870285D01*
X180821921Y-92051397D01*
X180713010Y-92214393D01*
X180574393Y-92353010D01*
X180411397Y-92461921D01*
X180230285Y-92536940D01*
X180038017Y-92575185D01*
X179841983Y-92575185D01*
X179649715Y-92536940D01*
X179468603Y-92461921D01*
X179305607Y-92353010D01*
X179166990Y-92214393D01*
X179058079Y-92051397D01*
X178983060Y-91870285D01*
X178944815Y-91678017D01*
X178944815Y-91481983D01*
X178983060Y-91289715D01*
X179058079Y-91108603D01*
X179166990Y-90945607D01*
X179305607Y-90806990D01*
X179468603Y-90698079D01*
X179649715Y-90623060D01*
X179841983Y-90584815D01*
X180038017Y-90584815D01*
X180230285Y-90623060D01*
G37*
G36*
X172910000Y-92550000D02*
G01*
X171410000Y-92550000D01*
X171410000Y-91650000D01*
X172910000Y-91650000D01*
X172910000Y-92550000D01*
G37*
G36*
X117360000Y-92510000D02*
G01*
X116560000Y-92510000D01*
X116560000Y-92110000D01*
X117360000Y-92110000D01*
X117360000Y-92510000D01*
G37*
G36*
X131420000Y-92510000D02*
G01*
X130620000Y-92510000D01*
X130620000Y-92110000D01*
X131420000Y-92110000D01*
X131420000Y-92510000D01*
G37*
G36*
X146870000Y-92385000D02*
G01*
X146370000Y-92385000D01*
X146370000Y-92135000D01*
X146870000Y-92135000D01*
X146870000Y-92385000D01*
G37*
G36*
X149990000Y-92385000D02*
G01*
X149490000Y-92385000D01*
X149490000Y-92135000D01*
X149990000Y-92135000D01*
X149990000Y-92385000D01*
G37*
G36*
X135841913Y-88750381D02*
G01*
X135847370Y-88752641D01*
X135847373Y-88752642D01*
X135869777Y-88761922D01*
X135880804Y-88766490D01*
X135883510Y-88769196D01*
X135899619Y-88808087D01*
X135900000Y-88810000D01*
X135900000Y-88815909D01*
X135900000Y-89534853D01*
X135935147Y-89570000D01*
X136104853Y-89570000D01*
X136140000Y-89534853D01*
X136140000Y-88815909D01*
X136140000Y-88810000D01*
X136140381Y-88808087D01*
X136142641Y-88802630D01*
X136142642Y-88802626D01*
X136151922Y-88780222D01*
X136151923Y-88780220D01*
X136156490Y-88769196D01*
X136159196Y-88766490D01*
X136170220Y-88761923D01*
X136170222Y-88761922D01*
X136192626Y-88752642D01*
X136192630Y-88752641D01*
X136198087Y-88750381D01*
X136200000Y-88750000D01*
X136490000Y-88750000D01*
X136491913Y-88750381D01*
X136497370Y-88752641D01*
X136497373Y-88752642D01*
X136519777Y-88761922D01*
X136530804Y-88766490D01*
X136533510Y-88769196D01*
X136549619Y-88808087D01*
X136550000Y-88810000D01*
X136550000Y-88815909D01*
X136550000Y-89534853D01*
X136585147Y-89570000D01*
X136774090Y-89570000D01*
X136780000Y-89570000D01*
X136781913Y-89570381D01*
X136787370Y-89572641D01*
X136787373Y-89572642D01*
X136809777Y-89581922D01*
X136820804Y-89586490D01*
X136823510Y-89589196D01*
X136839619Y-89628087D01*
X136840000Y-89630000D01*
X136840000Y-91410000D01*
X136839619Y-91411913D01*
X136823510Y-91450804D01*
X136820804Y-91453510D01*
X136781913Y-91469619D01*
X136780000Y-91470000D01*
X136774090Y-91470000D01*
X136585147Y-91470000D01*
X136550000Y-91505147D01*
X136550000Y-92230000D01*
X136549619Y-92231913D01*
X136533510Y-92270804D01*
X136530804Y-92273510D01*
X136491913Y-92289619D01*
X136490000Y-92290000D01*
X136484090Y-92290000D01*
X136205910Y-92290000D01*
X136200000Y-92290000D01*
X136198087Y-92289619D01*
X136159196Y-92273510D01*
X136156490Y-92270804D01*
X136151922Y-92259777D01*
X136142642Y-92237373D01*
X136142641Y-92237370D01*
X136140381Y-92231913D01*
X136140000Y-92230000D01*
X136140000Y-91495147D01*
X136104853Y-91460000D01*
X135935147Y-91460000D01*
X135900000Y-91495147D01*
X135900000Y-92230000D01*
X135899619Y-92231913D01*
X135883510Y-92270804D01*
X135880804Y-92273510D01*
X135841913Y-92289619D01*
X135840000Y-92290000D01*
X135834090Y-92290000D01*
X135555910Y-92290000D01*
X135550000Y-92290000D01*
X135548087Y-92289619D01*
X135509196Y-92273510D01*
X135506490Y-92270804D01*
X135501922Y-92259777D01*
X135492642Y-92237373D01*
X135492641Y-92237370D01*
X135490381Y-92231913D01*
X135490000Y-92230000D01*
X135490000Y-91495147D01*
X135454853Y-91460000D01*
X135260000Y-91460000D01*
X135258087Y-91459619D01*
X135219196Y-91443510D01*
X135216490Y-91440804D01*
X135211922Y-91429777D01*
X135202642Y-91407373D01*
X135202641Y-91407370D01*
X135200381Y-91401913D01*
X135200000Y-91400000D01*
X135200000Y-89630000D01*
X135200381Y-89628087D01*
X135202641Y-89622630D01*
X135202642Y-89622626D01*
X135211922Y-89600222D01*
X135211923Y-89600220D01*
X135216490Y-89589196D01*
X135219196Y-89586490D01*
X135230220Y-89581923D01*
X135230222Y-89581922D01*
X135252626Y-89572642D01*
X135252630Y-89572641D01*
X135258087Y-89570381D01*
X135260000Y-89570000D01*
X135454853Y-89570000D01*
X135490000Y-89534853D01*
X135490000Y-88815909D01*
X135490000Y-88810000D01*
X135490381Y-88808087D01*
X135492641Y-88802630D01*
X135492642Y-88802626D01*
X135501922Y-88780222D01*
X135501923Y-88780220D01*
X135506490Y-88769196D01*
X135509196Y-88766490D01*
X135520220Y-88761923D01*
X135520222Y-88761922D01*
X135542626Y-88752642D01*
X135542630Y-88752641D01*
X135548087Y-88750381D01*
X135550000Y-88750000D01*
X135840000Y-88750000D01*
X135841913Y-88750381D01*
G37*
G36*
X147555000Y-92010000D02*
G01*
X147305000Y-92010000D01*
X147305000Y-91510000D01*
X147555000Y-91510000D01*
X147555000Y-92010000D01*
G37*
G36*
X148055000Y-92010000D02*
G01*
X147805000Y-92010000D01*
X147805000Y-91510000D01*
X148055000Y-91510000D01*
X148055000Y-92010000D01*
G37*
G36*
X148555000Y-92010000D02*
G01*
X148305000Y-92010000D01*
X148305000Y-91510000D01*
X148555000Y-91510000D01*
X148555000Y-92010000D01*
G37*
G36*
X149055000Y-92010000D02*
G01*
X148805000Y-92010000D01*
X148805000Y-91510000D01*
X149055000Y-91510000D01*
X149055000Y-92010000D01*
G37*
G36*
X146870000Y-91885000D02*
G01*
X146370000Y-91885000D01*
X146370000Y-91635000D01*
X146870000Y-91635000D01*
X146870000Y-91885000D01*
G37*
G36*
X149990000Y-91885000D02*
G01*
X149490000Y-91885000D01*
X149490000Y-91635000D01*
X149990000Y-91635000D01*
X149990000Y-91885000D01*
G37*
G36*
X141440000Y-91850000D02*
G01*
X138440000Y-91850000D01*
X138440000Y-90550000D01*
X141440000Y-90550000D01*
X141440000Y-91850000D01*
G37*
G36*
X157063536Y-90283964D02*
G01*
X157064895Y-90287248D01*
X157066162Y-90287500D01*
X158553838Y-90287500D01*
X158555104Y-90287248D01*
X158556464Y-90283964D01*
X158560000Y-90282500D01*
X159110000Y-90282500D01*
X159113536Y-90283964D01*
X159114701Y-90286778D01*
X159171327Y-90286778D01*
X159175263Y-90286778D01*
X159176557Y-90286948D01*
X159302636Y-90320730D01*
X159303842Y-90321230D01*
X159307244Y-90323194D01*
X159307246Y-90323195D01*
X159413473Y-90384525D01*
X159413475Y-90384526D01*
X159416881Y-90386493D01*
X159417917Y-90387287D01*
X159510213Y-90479583D01*
X159511007Y-90480619D01*
X159576270Y-90593658D01*
X159576770Y-90594864D01*
X159610552Y-90720943D01*
X159610722Y-90722237D01*
X159610722Y-90782798D01*
X159613536Y-90783964D01*
X159615000Y-90787500D01*
X159615000Y-91287500D01*
X159613536Y-91291036D01*
X159610722Y-91292201D01*
X159610722Y-91352763D01*
X159610552Y-91354057D01*
X159576770Y-91480136D01*
X159576270Y-91481342D01*
X159511007Y-91594381D01*
X159510213Y-91595417D01*
X159417917Y-91687713D01*
X159416881Y-91688507D01*
X159303842Y-91753770D01*
X159302636Y-91754270D01*
X159176557Y-91788052D01*
X159175263Y-91788222D01*
X159114701Y-91788222D01*
X159113536Y-91791036D01*
X159110000Y-91792500D01*
X159098066Y-91792500D01*
X158571934Y-91792500D01*
X158560000Y-91792500D01*
X158556464Y-91791036D01*
X158555104Y-91787751D01*
X158553838Y-91787500D01*
X157066162Y-91787500D01*
X157064895Y-91787751D01*
X157063536Y-91791036D01*
X157060000Y-91792500D01*
X157048066Y-91792500D01*
X156521934Y-91792500D01*
X156510000Y-91792500D01*
X156506464Y-91791036D01*
X156505299Y-91788222D01*
X156448673Y-91788222D01*
X156444737Y-91788222D01*
X156443443Y-91788052D01*
X156317364Y-91754270D01*
X156316158Y-91753770D01*
X156203119Y-91688507D01*
X156202083Y-91687713D01*
X156109787Y-91595417D01*
X156108993Y-91594381D01*
X156063686Y-91515908D01*
X156045695Y-91484746D01*
X156045694Y-91484744D01*
X156043730Y-91481342D01*
X156043230Y-91480136D01*
X156009448Y-91354057D01*
X156009278Y-91352763D01*
X156009278Y-91292201D01*
X156006464Y-91291036D01*
X156005000Y-91287500D01*
X156005000Y-90787500D01*
X156006464Y-90783964D01*
X156009278Y-90782798D01*
X156009278Y-90722237D01*
X156009448Y-90720943D01*
X156043230Y-90594864D01*
X156043730Y-90593658D01*
X156045692Y-90590258D01*
X156045695Y-90590253D01*
X156107025Y-90484026D01*
X156107028Y-90484020D01*
X156108993Y-90480619D01*
X156109787Y-90479583D01*
X156202083Y-90387287D01*
X156203119Y-90386493D01*
X156206520Y-90384528D01*
X156206526Y-90384525D01*
X156312753Y-90323195D01*
X156312758Y-90323192D01*
X156316158Y-90321230D01*
X156317364Y-90320730D01*
X156443443Y-90286948D01*
X156444737Y-90286778D01*
X156505299Y-90286778D01*
X156506464Y-90283964D01*
X156510000Y-90282500D01*
X157060000Y-90282500D01*
X157063536Y-90283964D01*
G37*
G36*
X143000000Y-91720000D02*
G01*
X142200000Y-91720000D01*
X142200000Y-90820000D01*
X143000000Y-90820000D01*
X143000000Y-91720000D01*
G37*
G36*
X144400000Y-91720000D02*
G01*
X143600000Y-91720000D01*
X143600000Y-90820000D01*
X144400000Y-90820000D01*
X144400000Y-91720000D01*
G37*
G36*
X117360000Y-91660000D02*
G01*
X116560000Y-91660000D01*
X116560000Y-91260000D01*
X117360000Y-91260000D01*
X117360000Y-91660000D01*
G37*
G36*
X131420000Y-91660000D02*
G01*
X130620000Y-91660000D01*
X130620000Y-91260000D01*
X131420000Y-91260000D01*
X131420000Y-91660000D01*
G37*
G36*
X137945000Y-91640000D02*
G01*
X137095000Y-91640000D01*
X137095000Y-91400000D01*
X137945000Y-91400000D01*
X137945000Y-91640000D01*
G37*
G36*
X134920000Y-91635000D02*
G01*
X134120000Y-91635000D01*
X134120000Y-91405000D01*
X134920000Y-91405000D01*
X134920000Y-91635000D01*
G37*
G36*
X151590000Y-91310000D02*
G01*
X150790000Y-91310000D01*
X150790000Y-90410000D01*
X151590000Y-90410000D01*
X151590000Y-91310000D01*
G37*
G36*
X152990000Y-91310000D02*
G01*
X152190000Y-91310000D01*
X152190000Y-90410000D01*
X152990000Y-90410000D01*
X152990000Y-91310000D01*
G37*
G36*
X182741256Y-89468754D02*
G01*
X182904257Y-89536271D01*
X183050954Y-89634291D01*
X183175709Y-89759046D01*
X183273729Y-89905743D01*
X183341246Y-90068744D01*
X183375666Y-90241785D01*
X183375666Y-90418215D01*
X183341246Y-90591256D01*
X183273729Y-90754257D01*
X183175709Y-90900954D01*
X183050954Y-91025709D01*
X182904257Y-91123729D01*
X182741256Y-91191246D01*
X182568215Y-91225666D01*
X182391785Y-91225666D01*
X182218744Y-91191246D01*
X182055743Y-91123729D01*
X181909046Y-91025709D01*
X181784291Y-90900954D01*
X181686271Y-90754257D01*
X181618754Y-90591256D01*
X181584334Y-90418215D01*
X181584334Y-90241785D01*
X181618754Y-90068744D01*
X181686271Y-89905743D01*
X181784291Y-89759046D01*
X181909046Y-89634291D01*
X182055743Y-89536271D01*
X182218744Y-89468754D01*
X182391785Y-89434334D01*
X182568215Y-89434334D01*
X182741256Y-89468754D01*
G37*
G36*
X137945000Y-91140000D02*
G01*
X137095000Y-91140000D01*
X137095000Y-90900000D01*
X137945000Y-90900000D01*
X137945000Y-91140000D01*
G37*
G36*
X134920000Y-91135000D02*
G01*
X134120000Y-91135000D01*
X134120000Y-90905000D01*
X134920000Y-90905000D01*
X134920000Y-91135000D01*
G37*
G36*
X176115000Y-90930000D02*
G01*
X175305000Y-90930000D01*
X175305000Y-90070000D01*
X176115000Y-90070000D01*
X176115000Y-90930000D01*
G37*
G36*
X177615000Y-90930000D02*
G01*
X176805000Y-90930000D01*
X176805000Y-90070000D01*
X177615000Y-90070000D01*
X177615000Y-90930000D01*
G37*
G36*
X149650000Y-90815000D02*
G01*
X148790000Y-90815000D01*
X148790000Y-90005000D01*
X149650000Y-90005000D01*
X149650000Y-90815000D01*
G37*
G36*
X117360000Y-90810000D02*
G01*
X116560000Y-90810000D01*
X116560000Y-90410000D01*
X117360000Y-90410000D01*
X117360000Y-90810000D01*
G37*
G36*
X131420000Y-90810000D02*
G01*
X130620000Y-90810000D01*
X130620000Y-90410000D01*
X131420000Y-90410000D01*
X131420000Y-90810000D01*
G37*
G36*
X146270000Y-90735000D02*
G01*
X145410000Y-90735000D01*
X145410000Y-89925000D01*
X146270000Y-89925000D01*
X146270000Y-90735000D01*
G37*
G36*
X147870000Y-90715000D02*
G01*
X147010000Y-90715000D01*
X147010000Y-89905000D01*
X147870000Y-89905000D01*
X147870000Y-90715000D01*
G37*
G36*
X137945000Y-90640000D02*
G01*
X137095000Y-90640000D01*
X137095000Y-90400000D01*
X137945000Y-90400000D01*
X137945000Y-90640000D01*
G37*
G36*
X134920000Y-90635000D02*
G01*
X134120000Y-90635000D01*
X134120000Y-90405000D01*
X134920000Y-90405000D01*
X134920000Y-90635000D01*
G37*
G36*
X162385000Y-90372500D02*
G01*
X161525000Y-90372500D01*
X161525000Y-89562500D01*
X162385000Y-89562500D01*
X162385000Y-90372500D01*
G37*
G36*
X137945000Y-90140000D02*
G01*
X137095000Y-90140000D01*
X137095000Y-89900000D01*
X137945000Y-89900000D01*
X137945000Y-90140000D01*
G37*
G36*
X134920000Y-90135000D02*
G01*
X134120000Y-90135000D01*
X134120000Y-89905000D01*
X134920000Y-89905000D01*
X134920000Y-90135000D01*
G37*
G36*
X142990000Y-90010000D02*
G01*
X142190000Y-90010000D01*
X142190000Y-89110000D01*
X142990000Y-89110000D01*
X142990000Y-90010000D01*
G37*
G36*
X144390000Y-90010000D02*
G01*
X143590000Y-90010000D01*
X143590000Y-89110000D01*
X144390000Y-89110000D01*
X144390000Y-90010000D01*
G37*
G36*
X117360000Y-89960000D02*
G01*
X116560000Y-89960000D01*
X116560000Y-89560000D01*
X117360000Y-89560000D01*
X117360000Y-89960000D01*
G37*
G36*
X131420000Y-89960000D02*
G01*
X130620000Y-89960000D01*
X130620000Y-89560000D01*
X131420000Y-89560000D01*
X131420000Y-89960000D01*
G37*
G36*
X141440000Y-89750000D02*
G01*
X138440000Y-89750000D01*
X138440000Y-88450000D01*
X141440000Y-88450000D01*
X141440000Y-89750000D01*
G37*
G36*
X137945000Y-89640000D02*
G01*
X137095000Y-89640000D01*
X137095000Y-89400000D01*
X137945000Y-89400000D01*
X137945000Y-89640000D01*
G37*
G36*
X134920000Y-89635000D02*
G01*
X134120000Y-89635000D01*
X134120000Y-89405000D01*
X134920000Y-89405000D01*
X134920000Y-89635000D01*
G37*
G36*
X159755000Y-89632500D02*
G01*
X158895000Y-89632500D01*
X158895000Y-88822500D01*
X159755000Y-88822500D01*
X159755000Y-89632500D01*
G37*
G36*
X151200000Y-89600000D02*
G01*
X150400000Y-89600000D01*
X150400000Y-88700000D01*
X151200000Y-88700000D01*
X151200000Y-89600000D01*
G37*
G36*
X152600000Y-89600000D02*
G01*
X151800000Y-89600000D01*
X151800000Y-88700000D01*
X152600000Y-88700000D01*
X152600000Y-89600000D01*
G37*
G36*
X149650000Y-89315000D02*
G01*
X148790000Y-89315000D01*
X148790000Y-88505000D01*
X149650000Y-88505000D01*
X149650000Y-89315000D01*
G37*
G36*
X146270000Y-89235000D02*
G01*
X145410000Y-89235000D01*
X145410000Y-88425000D01*
X146270000Y-88425000D01*
X146270000Y-89235000D01*
G37*
G36*
X147870000Y-89215000D02*
G01*
X147010000Y-89215000D01*
X147010000Y-88405000D01*
X147870000Y-88405000D01*
X147870000Y-89215000D01*
G37*
G36*
X176220000Y-89210000D02*
G01*
X175420000Y-89210000D01*
X175420000Y-88310000D01*
X176220000Y-88310000D01*
X176220000Y-89210000D01*
G37*
G36*
X177620000Y-89210000D02*
G01*
X176820000Y-89210000D01*
X176820000Y-88310000D01*
X177620000Y-88310000D01*
X177620000Y-89210000D01*
G37*
G36*
X117360000Y-89110000D02*
G01*
X116560000Y-89110000D01*
X116560000Y-88710000D01*
X117360000Y-88710000D01*
X117360000Y-89110000D01*
G37*
G36*
X131420000Y-89110000D02*
G01*
X130620000Y-89110000D01*
X130620000Y-88710000D01*
X131420000Y-88710000D01*
X131420000Y-89110000D01*
G37*
G36*
X162385000Y-88872500D02*
G01*
X161525000Y-88872500D01*
X161525000Y-88062500D01*
X162385000Y-88062500D01*
X162385000Y-88872500D01*
G37*
G36*
X142690000Y-88540000D02*
G01*
X142090000Y-88540000D01*
X142090000Y-87540000D01*
X142690000Y-87540000D01*
X142690000Y-88540000D01*
G37*
G36*
X144590000Y-88540000D02*
G01*
X143990000Y-88540000D01*
X143990000Y-87540000D01*
X144590000Y-87540000D01*
X144590000Y-88540000D01*
G37*
G36*
X158280000Y-88475000D02*
G01*
X157420000Y-88475000D01*
X157420000Y-87665000D01*
X158280000Y-87665000D01*
X158280000Y-88475000D01*
G37*
G36*
X163895000Y-88472500D02*
G01*
X163035000Y-88472500D01*
X163035000Y-87662500D01*
X163895000Y-87662500D01*
X163895000Y-88472500D01*
G37*
G36*
X135940000Y-88330000D02*
G01*
X135140000Y-88330000D01*
X135140000Y-87430000D01*
X135940000Y-87430000D01*
X135940000Y-88330000D01*
G37*
G36*
X137340000Y-88330000D02*
G01*
X136540000Y-88330000D01*
X136540000Y-87430000D01*
X137340000Y-87430000D01*
X137340000Y-88330000D01*
G37*
G36*
X117360000Y-88260000D02*
G01*
X116560000Y-88260000D01*
X116560000Y-87860000D01*
X117360000Y-87860000D01*
X117360000Y-88260000D01*
G37*
G36*
X131420000Y-88260000D02*
G01*
X130620000Y-88260000D01*
X130620000Y-87860000D01*
X131420000Y-87860000D01*
X131420000Y-88260000D01*
G37*
G36*
X155455000Y-88170000D02*
G01*
X154205000Y-88170000D01*
X154205000Y-87470000D01*
X155455000Y-87470000D01*
X155455000Y-88170000D01*
G37*
G36*
X159755000Y-88132500D02*
G01*
X158895000Y-88132500D01*
X158895000Y-87322500D01*
X159755000Y-87322500D01*
X159755000Y-88132500D01*
G37*
G36*
X138705000Y-87885000D02*
G01*
X137875000Y-87885000D01*
X137875000Y-87255000D01*
X138705000Y-87255000D01*
X138705000Y-87885000D01*
G37*
G36*
X140985000Y-87885000D02*
G01*
X140155000Y-87885000D01*
X140155000Y-87255000D01*
X140985000Y-87255000D01*
X140985000Y-87885000D01*
G37*
G36*
X170310000Y-87620000D02*
G01*
X168910000Y-87620000D01*
X168910000Y-86620000D01*
X170310000Y-86620000D01*
X170310000Y-87620000D01*
G37*
G36*
X146400000Y-87525000D02*
G01*
X145540000Y-87525000D01*
X145540000Y-86715000D01*
X146400000Y-86715000D01*
X146400000Y-87525000D01*
G37*
G36*
X156790000Y-87505000D02*
G01*
X155930000Y-87505000D01*
X155930000Y-86695000D01*
X156790000Y-86695000D01*
X156790000Y-87505000D01*
G37*
G36*
X176210000Y-87470000D02*
G01*
X175410000Y-87470000D01*
X175410000Y-86570000D01*
X176210000Y-86570000D01*
X176210000Y-87470000D01*
G37*
G36*
X177610000Y-87470000D02*
G01*
X176810000Y-87470000D01*
X176810000Y-86570000D01*
X177610000Y-86570000D01*
X177610000Y-87470000D01*
G37*
G36*
X118240000Y-87430000D02*
G01*
X117840000Y-87430000D01*
X117840000Y-86630000D01*
X118240000Y-86630000D01*
X118240000Y-87430000D01*
G37*
G36*
X119090000Y-87430000D02*
G01*
X118690000Y-87430000D01*
X118690000Y-86630000D01*
X119090000Y-86630000D01*
X119090000Y-87430000D01*
G37*
G36*
X119940000Y-87430000D02*
G01*
X119540000Y-87430000D01*
X119540000Y-86630000D01*
X119940000Y-86630000D01*
X119940000Y-87430000D01*
G37*
G36*
X120790000Y-87430000D02*
G01*
X120390000Y-87430000D01*
X120390000Y-86630000D01*
X120790000Y-86630000D01*
X120790000Y-87430000D01*
G37*
G36*
X121640000Y-87430000D02*
G01*
X121240000Y-87430000D01*
X121240000Y-86630000D01*
X121640000Y-86630000D01*
X121640000Y-87430000D01*
G37*
G36*
X122490000Y-87430000D02*
G01*
X122090000Y-87430000D01*
X122090000Y-86630000D01*
X122490000Y-86630000D01*
X122490000Y-87430000D01*
G37*
G36*
X123340000Y-87430000D02*
G01*
X122940000Y-87430000D01*
X122940000Y-86630000D01*
X123340000Y-86630000D01*
X123340000Y-87430000D01*
G37*
G36*
X124190000Y-87430000D02*
G01*
X123790000Y-87430000D01*
X123790000Y-86630000D01*
X124190000Y-86630000D01*
X124190000Y-87430000D01*
G37*
G36*
X125040000Y-87430000D02*
G01*
X124640000Y-87430000D01*
X124640000Y-86630000D01*
X125040000Y-86630000D01*
X125040000Y-87430000D01*
G37*
G36*
X125890000Y-87430000D02*
G01*
X125490000Y-87430000D01*
X125490000Y-86630000D01*
X125890000Y-86630000D01*
X125890000Y-87430000D01*
G37*
G36*
X126740000Y-87430000D02*
G01*
X126340000Y-87430000D01*
X126340000Y-86630000D01*
X126740000Y-86630000D01*
X126740000Y-87430000D01*
G37*
G36*
X127590000Y-87430000D02*
G01*
X127190000Y-87430000D01*
X127190000Y-86630000D01*
X127590000Y-86630000D01*
X127590000Y-87430000D01*
G37*
G36*
X128440000Y-87430000D02*
G01*
X128040000Y-87430000D01*
X128040000Y-86630000D01*
X128440000Y-86630000D01*
X128440000Y-87430000D01*
G37*
G36*
X129290000Y-87430000D02*
G01*
X128890000Y-87430000D01*
X128890000Y-86630000D01*
X129290000Y-86630000D01*
X129290000Y-87430000D01*
G37*
G36*
X130140000Y-87430000D02*
G01*
X129740000Y-87430000D01*
X129740000Y-86630000D01*
X130140000Y-86630000D01*
X130140000Y-87430000D01*
G37*
G36*
X162385000Y-87412500D02*
G01*
X161525000Y-87412500D01*
X161525000Y-86602500D01*
X162385000Y-86602500D01*
X162385000Y-87412500D01*
G37*
G36*
X117390000Y-87410000D02*
G01*
X116590000Y-87410000D01*
X116590000Y-86610000D01*
X117390000Y-86610000D01*
X117390000Y-87410000D01*
G37*
G36*
X131390000Y-87410000D02*
G01*
X130590000Y-87410000D01*
X130590000Y-86610000D01*
X131390000Y-86610000D01*
X131390000Y-87410000D01*
G37*
G36*
X153455000Y-87220000D02*
G01*
X152205000Y-87220000D01*
X152205000Y-86520000D01*
X153455000Y-86520000D01*
X153455000Y-87220000D01*
G37*
G36*
X148670000Y-87070000D02*
G01*
X147270000Y-87070000D01*
X147270000Y-86070000D01*
X148670000Y-86070000D01*
X148670000Y-87070000D01*
G37*
G36*
X151030000Y-87070000D02*
G01*
X149630000Y-87070000D01*
X149630000Y-86070000D01*
X151030000Y-86070000D01*
X151030000Y-87070000D01*
G37*
G36*
X158280000Y-86975000D02*
G01*
X157420000Y-86975000D01*
X157420000Y-86165000D01*
X158280000Y-86165000D01*
X158280000Y-86975000D01*
G37*
G36*
X163895000Y-86972500D02*
G01*
X163035000Y-86972500D01*
X163035000Y-86162500D01*
X163895000Y-86162500D01*
X163895000Y-86972500D01*
G37*
G36*
X134260000Y-86790000D02*
G01*
X133360000Y-86790000D01*
X133360000Y-85990000D01*
X134260000Y-85990000D01*
X134260000Y-86790000D01*
G37*
G36*
X182741256Y-84968754D02*
G01*
X182904257Y-85036271D01*
X183050954Y-85134291D01*
X183175709Y-85259046D01*
X183273729Y-85405743D01*
X183341246Y-85568744D01*
X183375666Y-85741785D01*
X183375666Y-85918215D01*
X183341246Y-86091256D01*
X183273729Y-86254257D01*
X183175709Y-86400954D01*
X183050954Y-86525709D01*
X182904257Y-86623729D01*
X182741256Y-86691246D01*
X182568215Y-86725666D01*
X182391785Y-86725666D01*
X182218744Y-86691246D01*
X182055743Y-86623729D01*
X181909046Y-86525709D01*
X181784291Y-86400954D01*
X181686271Y-86254257D01*
X181618754Y-86091256D01*
X181584334Y-85918215D01*
X181584334Y-85741785D01*
X181618754Y-85568744D01*
X181686271Y-85405743D01*
X181784291Y-85259046D01*
X181909046Y-85134291D01*
X182055743Y-85036271D01*
X182218744Y-84968754D01*
X182391785Y-84934334D01*
X182568215Y-84934334D01*
X182741256Y-84968754D01*
G37*
G36*
X135795000Y-86720000D02*
G01*
X134985000Y-86720000D01*
X134985000Y-85860000D01*
X135795000Y-85860000D01*
X135795000Y-86720000D01*
G37*
G36*
X137295000Y-86720000D02*
G01*
X136485000Y-86720000D01*
X136485000Y-85860000D01*
X137295000Y-85860000D01*
X137295000Y-86720000D01*
G37*
G36*
X138920000Y-86640000D02*
G01*
X137920000Y-86640000D01*
X137920000Y-82840000D01*
X138920000Y-82840000D01*
X138920000Y-86640000D01*
G37*
G36*
X140920000Y-86640000D02*
G01*
X139920000Y-86640000D01*
X139920000Y-82840000D01*
X140920000Y-82840000D01*
X140920000Y-86640000D01*
G37*
G36*
X161045000Y-86637500D02*
G01*
X159795000Y-86637500D01*
X159795000Y-85937500D01*
X161045000Y-85937500D01*
X161045000Y-86637500D01*
G37*
G36*
X166680000Y-86577500D02*
G01*
X165430000Y-86577500D01*
X165430000Y-85877500D01*
X166680000Y-85877500D01*
X166680000Y-86577500D01*
G37*
G36*
X142690000Y-86340000D02*
G01*
X142090000Y-86340000D01*
X142090000Y-85340000D01*
X142690000Y-85340000D01*
X142690000Y-86340000D01*
G37*
G36*
X143640000Y-86340000D02*
G01*
X143040000Y-86340000D01*
X143040000Y-85340000D01*
X143640000Y-85340000D01*
X143640000Y-86340000D01*
G37*
G36*
X144590000Y-86340000D02*
G01*
X143990000Y-86340000D01*
X143990000Y-85340000D01*
X144590000Y-85340000D01*
X144590000Y-86340000D01*
G37*
G36*
X155455000Y-86270000D02*
G01*
X154205000Y-86270000D01*
X154205000Y-85570000D01*
X155455000Y-85570000D01*
X155455000Y-86270000D01*
G37*
G36*
X146400000Y-86025000D02*
G01*
X145540000Y-86025000D01*
X145540000Y-85215000D01*
X146400000Y-85215000D01*
X146400000Y-86025000D01*
G37*
G36*
X152700000Y-86005000D02*
G01*
X151840000Y-86005000D01*
X151840000Y-85195000D01*
X152700000Y-85195000D01*
X152700000Y-86005000D01*
G37*
G36*
X156790000Y-86005000D02*
G01*
X155930000Y-86005000D01*
X155930000Y-85195000D01*
X156790000Y-85195000D01*
X156790000Y-86005000D01*
G37*
G36*
X162385000Y-85912500D02*
G01*
X161525000Y-85912500D01*
X161525000Y-85102500D01*
X162385000Y-85102500D01*
X162385000Y-85912500D01*
G37*
G36*
X159045000Y-85687500D02*
G01*
X157795000Y-85687500D01*
X157795000Y-84987500D01*
X159045000Y-84987500D01*
X159045000Y-85687500D01*
G37*
G36*
X164680000Y-85627500D02*
G01*
X163430000Y-85627500D01*
X163430000Y-84927500D01*
X164680000Y-84927500D01*
X164680000Y-85627500D01*
G37*
G36*
X118270000Y-85605000D02*
G01*
X117410000Y-85605000D01*
X117410000Y-84795000D01*
X118270000Y-84795000D01*
X118270000Y-85605000D01*
G37*
G36*
X180230285Y-83623060D02*
G01*
X180411397Y-83698079D01*
X180574393Y-83806990D01*
X180713010Y-83945607D01*
X180821921Y-84108603D01*
X180896940Y-84289715D01*
X180935185Y-84481983D01*
X180935185Y-84678017D01*
X180896940Y-84870285D01*
X180821921Y-85051397D01*
X180713010Y-85214393D01*
X180574393Y-85353010D01*
X180411397Y-85461921D01*
X180230285Y-85536940D01*
X180038017Y-85575185D01*
X179841983Y-85575185D01*
X179649715Y-85536940D01*
X179468603Y-85461921D01*
X179305607Y-85353010D01*
X179166990Y-85214393D01*
X179058079Y-85051397D01*
X178983060Y-84870285D01*
X178944815Y-84678017D01*
X178944815Y-84481983D01*
X178983060Y-84289715D01*
X179058079Y-84108603D01*
X179166990Y-83945607D01*
X179305607Y-83806990D01*
X179468603Y-83698079D01*
X179649715Y-83623060D01*
X179841983Y-83584815D01*
X180038017Y-83584815D01*
X180230285Y-83623060D01*
G37*
G36*
X129271342Y-84568060D02*
G01*
X129384381Y-84633323D01*
X129476677Y-84725619D01*
X129541940Y-84838658D01*
X129575722Y-84964737D01*
X129575722Y-85095263D01*
X129541940Y-85221342D01*
X129476677Y-85334381D01*
X129384381Y-85426677D01*
X129271342Y-85491940D01*
X129145263Y-85525722D01*
X129014737Y-85525722D01*
X128888658Y-85491940D01*
X128775619Y-85426677D01*
X128683323Y-85334381D01*
X128618060Y-85221342D01*
X128584278Y-85095263D01*
X128584278Y-84964737D01*
X128618060Y-84838658D01*
X128683323Y-84725619D01*
X128775619Y-84633323D01*
X128888658Y-84568060D01*
X129014737Y-84534278D01*
X129145263Y-84534278D01*
X129271342Y-84568060D01*
G37*
G36*
X170310000Y-85520000D02*
G01*
X168910000Y-85520000D01*
X168910000Y-84520000D01*
X170310000Y-84520000D01*
X170310000Y-85520000D01*
G37*
G36*
X134260000Y-85390000D02*
G01*
X133360000Y-85390000D01*
X133360000Y-84590000D01*
X134260000Y-84590000D01*
X134260000Y-85390000D01*
G37*
G36*
X126350000Y-85335000D02*
G01*
X125490000Y-85335000D01*
X125490000Y-84525000D01*
X126350000Y-84525000D01*
X126350000Y-85335000D01*
G37*
G36*
X120450000Y-85300000D02*
G01*
X119050000Y-85300000D01*
X119050000Y-84300000D01*
X120450000Y-84300000D01*
X120450000Y-85300000D01*
G37*
G36*
X148670000Y-84970000D02*
G01*
X147270000Y-84970000D01*
X147270000Y-83970000D01*
X148670000Y-83970000D01*
X148670000Y-84970000D01*
G37*
G36*
X151030000Y-84970000D02*
G01*
X149630000Y-84970000D01*
X149630000Y-83970000D01*
X151030000Y-83970000D01*
X151030000Y-84970000D01*
G37*
G36*
X161045000Y-84737500D02*
G01*
X159795000Y-84737500D01*
X159795000Y-84037500D01*
X161045000Y-84037500D01*
X161045000Y-84737500D01*
G37*
G36*
X166680000Y-84677500D02*
G01*
X165430000Y-84677500D01*
X165430000Y-83977500D01*
X166680000Y-83977500D01*
X166680000Y-84677500D01*
G37*
G36*
X144805000Y-84535000D02*
G01*
X143945000Y-84535000D01*
X143945000Y-83725000D01*
X144805000Y-83725000D01*
X144805000Y-84535000D01*
G37*
G36*
X146335000Y-84535000D02*
G01*
X145475000Y-84535000D01*
X145475000Y-83725000D01*
X146335000Y-83725000D01*
X146335000Y-84535000D01*
G37*
G36*
X152700000Y-84505000D02*
G01*
X151840000Y-84505000D01*
X151840000Y-83695000D01*
X152700000Y-83695000D01*
X152700000Y-84505000D01*
G37*
G36*
X156775000Y-84492500D02*
G01*
X155965000Y-84492500D01*
X155965000Y-83632500D01*
X156775000Y-83632500D01*
X156775000Y-84492500D01*
G37*
G36*
X158275000Y-84492500D02*
G01*
X157465000Y-84492500D01*
X157465000Y-83632500D01*
X158275000Y-83632500D01*
X158275000Y-84492500D01*
G37*
G36*
X163890000Y-84435000D02*
G01*
X163030000Y-84435000D01*
X163030000Y-83625000D01*
X163890000Y-83625000D01*
X163890000Y-84435000D01*
G37*
G36*
X174681342Y-83358060D02*
G01*
X174794381Y-83423323D01*
X174886677Y-83515619D01*
X174951940Y-83628658D01*
X174985722Y-83754737D01*
X174985722Y-83885263D01*
X174951940Y-84011342D01*
X174886677Y-84124381D01*
X174794381Y-84216677D01*
X174681342Y-84281940D01*
X174555263Y-84315722D01*
X174424737Y-84315722D01*
X174298658Y-84281940D01*
X174185619Y-84216677D01*
X174093323Y-84124381D01*
X174028060Y-84011342D01*
X173994278Y-83885263D01*
X173994278Y-83754737D01*
X174028060Y-83628658D01*
X174093323Y-83515619D01*
X174185619Y-83423323D01*
X174298658Y-83358060D01*
X174424737Y-83324278D01*
X174555263Y-83324278D01*
X174681342Y-83358060D01*
G37*
G36*
X177280000Y-84275000D02*
G01*
X176420000Y-84275000D01*
X176420000Y-83465000D01*
X177280000Y-83465000D01*
X177280000Y-84275000D01*
G37*
G36*
X124770000Y-84250000D02*
G01*
X123870000Y-84250000D01*
X123870000Y-83450000D01*
X124770000Y-83450000D01*
X124770000Y-84250000D01*
G37*
G36*
X118270000Y-84105000D02*
G01*
X117410000Y-84105000D01*
X117410000Y-83295000D01*
X118270000Y-83295000D01*
X118270000Y-84105000D01*
G37*
G36*
X126350000Y-83835000D02*
G01*
X125490000Y-83835000D01*
X125490000Y-83025000D01*
X126350000Y-83025000D01*
X126350000Y-83835000D01*
G37*
G36*
X130530000Y-83420000D02*
G01*
X129430000Y-83420000D01*
X129430000Y-82820000D01*
X130530000Y-82820000D01*
X130530000Y-83420000D01*
G37*
G36*
X133230000Y-83420000D02*
G01*
X132130000Y-83420000D01*
X132130000Y-82820000D01*
X133230000Y-82820000D01*
X133230000Y-83420000D01*
G37*
G36*
X170195000Y-83320000D02*
G01*
X169385000Y-83320000D01*
X169385000Y-82460000D01*
X170195000Y-82460000D01*
X170195000Y-83320000D01*
G37*
G36*
X171695000Y-83320000D02*
G01*
X170885000Y-83320000D01*
X170885000Y-82460000D01*
X171695000Y-82460000D01*
X171695000Y-83320000D01*
G37*
G36*
X115149017Y-77749561D02*
G01*
X115455139Y-77819431D01*
X115751514Y-77923137D01*
X116034413Y-78059374D01*
X116300280Y-78226430D01*
X116545770Y-78422202D01*
X116767798Y-78644230D01*
X116963570Y-78889720D01*
X117130626Y-79155587D01*
X117266863Y-79438486D01*
X117370569Y-79734861D01*
X117440439Y-80040983D01*
X117475595Y-80353003D01*
X117475595Y-80666997D01*
X117440439Y-80979017D01*
X117370569Y-81285139D01*
X117266863Y-81581514D01*
X117130626Y-81864413D01*
X116963570Y-82130280D01*
X116767798Y-82375770D01*
X116545770Y-82597798D01*
X116300280Y-82793570D01*
X116034413Y-82960626D01*
X115751514Y-83096863D01*
X115455139Y-83200569D01*
X115149017Y-83270439D01*
X114836997Y-83305595D01*
X114523003Y-83305595D01*
X114210983Y-83270439D01*
X113904861Y-83200569D01*
X113608486Y-83096863D01*
X113325587Y-82960626D01*
X113059720Y-82793570D01*
X112814230Y-82597798D01*
X112592202Y-82375770D01*
X112396430Y-82130280D01*
X112229374Y-81864413D01*
X112093137Y-81581514D01*
X111989431Y-81285139D01*
X111919561Y-80979017D01*
X111884405Y-80666997D01*
X111884405Y-80353003D01*
X111919561Y-80040983D01*
X111989431Y-79734861D01*
X112093137Y-79438486D01*
X112229374Y-79155587D01*
X112396430Y-78889720D01*
X112592202Y-78644230D01*
X112814230Y-78422202D01*
X113059720Y-78226430D01*
X113325587Y-78059374D01*
X113608486Y-77923137D01*
X113904861Y-77819431D01*
X114210983Y-77749561D01*
X114523003Y-77714405D01*
X114836997Y-77714405D01*
X115149017Y-77749561D01*
G37*
G36*
X182149017Y-77749561D02*
G01*
X182455139Y-77819431D01*
X182751514Y-77923137D01*
X183034413Y-78059374D01*
X183300280Y-78226430D01*
X183545770Y-78422202D01*
X183767798Y-78644230D01*
X183963570Y-78889720D01*
X184130626Y-79155587D01*
X184266863Y-79438486D01*
X184370569Y-79734861D01*
X184440439Y-80040983D01*
X184475595Y-80353003D01*
X184475595Y-80666997D01*
X184440439Y-80979017D01*
X184370569Y-81285139D01*
X184266863Y-81581514D01*
X184130626Y-81864413D01*
X183963570Y-82130280D01*
X183767798Y-82375770D01*
X183545770Y-82597798D01*
X183300280Y-82793570D01*
X183034413Y-82960626D01*
X182751514Y-83096863D01*
X182455139Y-83200569D01*
X182149017Y-83270439D01*
X181836997Y-83305595D01*
X181523003Y-83305595D01*
X181210983Y-83270439D01*
X180904861Y-83200569D01*
X180608486Y-83096863D01*
X180325587Y-82960626D01*
X180059720Y-82793570D01*
X179814230Y-82597798D01*
X179592202Y-82375770D01*
X179396430Y-82130280D01*
X179229374Y-81864413D01*
X179093137Y-81581514D01*
X178989431Y-81285139D01*
X178919561Y-80979017D01*
X178884405Y-80666997D01*
X178884405Y-80353003D01*
X178919561Y-80040983D01*
X178989431Y-79734861D01*
X179093137Y-79438486D01*
X179229374Y-79155587D01*
X179396430Y-78889720D01*
X179592202Y-78644230D01*
X179814230Y-78422202D01*
X180059720Y-78226430D01*
X180325587Y-78059374D01*
X180608486Y-77923137D01*
X180904861Y-77819431D01*
X181210983Y-77749561D01*
X181523003Y-77714405D01*
X181836997Y-77714405D01*
X182149017Y-77749561D01*
G37*
G36*
X120450000Y-83200000D02*
G01*
X119050000Y-83200000D01*
X119050000Y-82200000D01*
X120450000Y-82200000D01*
X120450000Y-83200000D01*
G37*
G36*
X144805000Y-83035000D02*
G01*
X143945000Y-83035000D01*
X143945000Y-82225000D01*
X144805000Y-82225000D01*
X144805000Y-83035000D01*
G37*
G36*
X146335000Y-83035000D02*
G01*
X145475000Y-83035000D01*
X145475000Y-82225000D01*
X146335000Y-82225000D01*
X146335000Y-83035000D01*
G37*
G36*
X151175000Y-82990000D02*
G01*
X150365000Y-82990000D01*
X150365000Y-82130000D01*
X151175000Y-82130000D01*
X151175000Y-82990000D01*
G37*
G36*
X152675000Y-82990000D02*
G01*
X151865000Y-82990000D01*
X151865000Y-82130000D01*
X152675000Y-82130000D01*
X152675000Y-82990000D01*
G37*
G36*
X163890000Y-82935000D02*
G01*
X163030000Y-82935000D01*
X163030000Y-82125000D01*
X163890000Y-82125000D01*
X163890000Y-82935000D01*
G37*
G36*
X147855000Y-82920000D02*
G01*
X147155000Y-82920000D01*
X147155000Y-81220000D01*
X147855000Y-81220000D01*
X147855000Y-82920000D01*
G37*
G36*
X149095000Y-82920000D02*
G01*
X148395000Y-82920000D01*
X148395000Y-81220000D01*
X149095000Y-81220000D01*
X149095000Y-82920000D01*
G37*
G36*
X156630000Y-82920000D02*
G01*
X155930000Y-82920000D01*
X155930000Y-81220000D01*
X156630000Y-81220000D01*
X156630000Y-82920000D01*
G37*
G36*
X157870000Y-82920000D02*
G01*
X157170000Y-82920000D01*
X157170000Y-81220000D01*
X157870000Y-81220000D01*
X157870000Y-82920000D01*
G37*
G36*
X124770000Y-82850000D02*
G01*
X123870000Y-82850000D01*
X123870000Y-82050000D01*
X124770000Y-82050000D01*
X124770000Y-82850000D01*
G37*
G36*
X165180000Y-82820000D02*
G01*
X164480000Y-82820000D01*
X164480000Y-81120000D01*
X165180000Y-81120000D01*
X165180000Y-82820000D01*
G37*
G36*
X166420000Y-82820000D02*
G01*
X165720000Y-82820000D01*
X165720000Y-81120000D01*
X166420000Y-81120000D01*
X166420000Y-82820000D01*
G37*
G36*
X121870000Y-82787500D02*
G01*
X121170000Y-82787500D01*
X121170000Y-81087500D01*
X121870000Y-81087500D01*
X121870000Y-82787500D01*
G37*
G36*
X123110000Y-82787500D02*
G01*
X122410000Y-82787500D01*
X122410000Y-81087500D01*
X123110000Y-81087500D01*
X123110000Y-82787500D01*
G37*
G36*
X177280000Y-82775000D02*
G01*
X176420000Y-82775000D01*
X176420000Y-81965000D01*
X177280000Y-81965000D01*
X177280000Y-82775000D01*
G37*
G36*
X173900000Y-82770000D02*
G01*
X173200000Y-82770000D01*
X173200000Y-81070000D01*
X173900000Y-81070000D01*
X173900000Y-82770000D01*
G37*
G36*
X175140000Y-82770000D02*
G01*
X174440000Y-82770000D01*
X174440000Y-81070000D01*
X175140000Y-81070000D01*
X175140000Y-82770000D01*
G37*
G36*
X130530000Y-82470000D02*
G01*
X129430000Y-82470000D01*
X129430000Y-81870000D01*
X130530000Y-81870000D01*
X130530000Y-82470000D01*
G37*
G36*
X133230000Y-82470000D02*
G01*
X132130000Y-82470000D01*
X132130000Y-81870000D01*
X133230000Y-81870000D01*
X133230000Y-82470000D01*
G37*
G36*
X130530000Y-81520000D02*
G01*
X129430000Y-81520000D01*
X129430000Y-80920000D01*
X130530000Y-80920000D01*
X130530000Y-81520000D01*
G37*
G36*
X133230000Y-81520000D02*
G01*
X132130000Y-81520000D01*
X132130000Y-80920000D01*
X133230000Y-80920000D01*
X133230000Y-81520000D01*
G37*
G36*
X145945000Y-80820000D02*
G01*
X144145000Y-80820000D01*
X144145000Y-78320000D01*
X145945000Y-78320000D01*
X145945000Y-80820000D01*
G37*
G36*
X152105000Y-80820000D02*
G01*
X150305000Y-80820000D01*
X150305000Y-78320000D01*
X152105000Y-78320000D01*
X152105000Y-80820000D01*
G37*
G36*
X154720000Y-80820000D02*
G01*
X152920000Y-80820000D01*
X152920000Y-78320000D01*
X154720000Y-78320000D01*
X154720000Y-80820000D01*
G37*
G36*
X160880000Y-80820000D02*
G01*
X159080000Y-80820000D01*
X159080000Y-78320000D01*
X160880000Y-78320000D01*
X160880000Y-80820000D01*
G37*
G36*
X163270000Y-80720000D02*
G01*
X161470000Y-80720000D01*
X161470000Y-78220000D01*
X163270000Y-78220000D01*
X163270000Y-80720000D01*
G37*
G36*
X169430000Y-80720000D02*
G01*
X167630000Y-80720000D01*
X167630000Y-78220000D01*
X169430000Y-78220000D01*
X169430000Y-80720000D01*
G37*
G36*
X119960000Y-80687500D02*
G01*
X118160000Y-80687500D01*
X118160000Y-78187500D01*
X119960000Y-78187500D01*
X119960000Y-80687500D01*
G37*
G36*
X126120000Y-80687500D02*
G01*
X124320000Y-80687500D01*
X124320000Y-78187500D01*
X126120000Y-78187500D01*
X126120000Y-80687500D01*
G37*
G36*
X171990000Y-80670000D02*
G01*
X170190000Y-80670000D01*
X170190000Y-78170000D01*
X171990000Y-78170000D01*
X171990000Y-80670000D01*
G37*
G36*
X178150000Y-80670000D02*
G01*
X176350000Y-80670000D01*
X176350000Y-78170000D01*
X178150000Y-78170000D01*
X178150000Y-80670000D01*
G37*
G36*
X136820000Y-80580000D02*
G01*
X135320000Y-80580000D01*
X135320000Y-77180000D01*
X136820000Y-77180000D01*
X136820000Y-80580000D01*
G37*
G36*
X143520000Y-80580000D02*
G01*
X142020000Y-80580000D01*
X142020000Y-77180000D01*
X143520000Y-77180000D01*
X143520000Y-80580000D01*
G37*
G36*
X127425000Y-80310000D02*
G01*
X126615000Y-80310000D01*
X126615000Y-79450000D01*
X127425000Y-79450000D01*
X127425000Y-80310000D01*
G37*
G36*
X128925000Y-80310000D02*
G01*
X128115000Y-80310000D01*
X128115000Y-79450000D01*
X128925000Y-79450000D01*
X128925000Y-80310000D01*
G37*
G36*
X130515000Y-80015000D02*
G01*
X129445000Y-80015000D01*
X129445000Y-79485000D01*
X130515000Y-79485000D01*
X130515000Y-80015000D01*
G37*
G36*
X132815000Y-80015000D02*
G01*
X131745000Y-80015000D01*
X131745000Y-79485000D01*
X132815000Y-79485000D01*
X132815000Y-80015000D01*
G37*
G36*
X134350000Y-79800000D02*
G01*
X133450000Y-79800000D01*
X133450000Y-79000000D01*
X134350000Y-79000000D01*
X134350000Y-79800000D01*
G37*
G36*
X130515000Y-79065000D02*
G01*
X129445000Y-79065000D01*
X129445000Y-78535000D01*
X130515000Y-78535000D01*
X130515000Y-79065000D01*
G37*
G36*
X132815000Y-79065000D02*
G01*
X131745000Y-79065000D01*
X131745000Y-78535000D01*
X132815000Y-78535000D01*
X132815000Y-79065000D01*
G37*
G36*
X134350000Y-78400000D02*
G01*
X133450000Y-78400000D01*
X133450000Y-77600000D01*
X134350000Y-77600000D01*
X134350000Y-78400000D01*
G37*
G36*
X127630000Y-78310000D02*
G01*
X126630000Y-78310000D01*
X126630000Y-77310000D01*
X127630000Y-77310000D01*
X127630000Y-78310000D01*
G37*
G36*
X130515000Y-78115000D02*
G01*
X129445000Y-78115000D01*
X129445000Y-77585000D01*
X130515000Y-77585000D01*
X130515000Y-78115000D01*
G37*
G36*
X132815000Y-78115000D02*
G01*
X131745000Y-78115000D01*
X131745000Y-77585000D01*
X132815000Y-77585000D01*
X132815000Y-78115000D01*
G37*
M02*
