M48
; DRILL file {KiCad 9.0.0} date 2025-07-25T12:15:43+0200
; FORMAT={-:-/ absolute / inch / decimal}
; #@! TF.CreationDate,2025-07-25T12:15:43+02:00
; #@! TF.GenerationSoftware,Kicad,Pcbnew,9.0.0
; #@! TF.FileFunction,Plated,1,4,PTH
FMAT,2
INCH
; #@! TA.AperFunction,Plated,PTH,ViaDrill
T1C0.0118
; #@! TA.AperFunction,Plated,PTH,ComponentDrill
T2C0.0236
; #@! TA.AperFunction,Plated,PTH,ComponentDrill
T3C0.0256
; #@! TA.AperFunction,Plated,PTH,ComponentDrill
T4C0.0276
; #@! TA.AperFunction,Plated,PTH,ComponentDrill
T5C0.0315
; #@! TA.AperFunction,Plated,PTH,ComponentDrill
T6C0.0360
; #@! TA.AperFunction,Plated,PTH,ComponentDrill
T7C0.0472
; #@! TA.AperFunction,Plated,PTH,ComponentDrill
T8C0.0472
; #@! TA.AperFunction,Plated,PTH,ComponentDrill
T9C0.0551
; #@! TA.AperFunction,Plated,PTH,ComponentDrill
T10C0.1260
%
G90
G05
T1
X4.6528Y-3.9268
X4.678Y-3.702
X4.6783Y-3.5287
X4.6783Y-3.7717
X4.6803Y-3.6232
X4.6807Y-3.3728
X4.6882Y-3.8402
X4.6963Y-3.8994
X4.7224Y-3.474
X4.7228Y-3.6669
X4.7236Y-3.739
X4.7244Y-4.135
X4.7272Y-3.7972
X4.735Y-3.5811
X4.748Y-4.0252
X4.7508Y-3.2217
X4.7539Y-4.1571
X4.7543Y-4.1079
X4.7547Y-4.1335
X4.7563Y-4.0811
X4.7583Y-3.9055
X4.7587Y-3.8437
X4.765Y-3.528
X4.772Y-3.6358
X4.772Y-3.6996
X4.7728Y-4.1961
X4.774Y-3.7673
X4.7811Y-4.0213
X4.7858Y-4.1248
X4.7907Y-3.3825
X4.8055Y-4.1984
X4.8059Y-3.8657
X4.8114Y-3.2756
X4.8134Y-3.935
X4.8146Y-3.315
X4.8161Y-3.7339
X4.8169Y-3.6689
X4.8181Y-3.5902
X4.8181Y-3.8114
X4.822Y-4.2335
X4.8272Y-3.4799
X4.8276Y-3.1102
X4.8303Y-3.139
X4.8343Y-3.1697
X4.848Y-3.7681
X4.8484Y-3.6366
X4.8492Y-3.7012
X4.85Y-3.5287
X4.8567Y-4.0157
X4.8587Y-4.3339
X4.8807Y-3.6689
X4.8811Y-3.7343
X4.8823Y-3.5843
X4.8846Y-3.9043
X4.8854Y-4.1791
X4.8941Y-3.3441
X4.9091Y-3.4764
X4.9118Y-4.0256
X4.9134Y-3.6366
X4.9142Y-3.702
X4.9146Y-3.7661
X4.915Y-3.9079
X4.9236Y-3.5287
X4.9461Y-3.6709
X4.9461Y-3.7339
X4.9472Y-3.5878
X4.9492Y-3.9429
X4.9594Y-3.4661
X4.9764Y-3.2268
X4.9819Y-3.9106
X4.9898Y-3.8193
X5.0055Y-3.3435
X5.0063Y-3.5657
X5.0154Y-4.0173
X5.0295Y-3.661
X5.0303Y-3.1941
X5.035Y-3.772
X5.0402Y-3.3748
X5.0449Y-3.9118
X5.0488Y-3.5319
X5.0488Y-4.0
X5.0689Y-3.5909
X5.0717Y-3.0634
X5.0835Y-3.9362
X5.0846Y-3.7579
X5.0886Y-3.6913
X5.0913Y-4.2677
X5.0945Y-3.8094
X5.097Y-3.4821
X5.1091Y-3.7406
X5.1197Y-4.1861
X5.125Y-3.4624
X5.1285Y-3.8841
X5.1496Y-4.1303
X5.1591Y-3.3661
X5.187Y-4.0634
X5.2016Y-3.7311
X5.2016Y-3.802
X5.202Y-3.9402
X5.2142Y-3.3957
X5.215Y-3.3547
X5.2244Y-3.8929
X5.2311Y-3.8232
X5.239Y-3.0437
X5.2559Y-3.5783
X5.261Y-3.8276
X5.2673Y-3.1654
X5.2724Y-3.2
X5.2752Y-3.9665
X5.2831Y-3.2697
X5.2965Y-4.0465
X5.3201Y-3.261
X5.3311Y-3.8217
X5.3551Y-3.539
X5.3551Y-3.5634
X5.3555Y-3.587
X5.3579Y-3.7043
X5.3669Y-3.2543
X5.3894Y-3.3713
X5.4059Y-3.9625
X5.4075Y-3.7035
X5.4087Y-3.6299
X5.4331Y-3.7035
X5.4335Y-3.6299
X5.4433Y-3.9803
X5.5236Y-3.2362
X5.5343Y-3.2012
X5.5437Y-3.1685
X5.5575Y-4.1232
X5.5799Y-3.961
X5.5807Y-3.9874
X5.6047Y-3.4276
X5.6693Y-3.5594
X5.6941Y-3.6933
X5.6953Y-3.9717
X5.6976Y-3.4429
X5.6996Y-3.5
X5.7094Y-3.35
X5.7205Y-3.711
X5.727Y-3.7813
X5.7661Y-3.4661
X5.7705Y-3.5244
X5.7724Y-3.8177
X5.7984Y-4.063
X5.8047Y-3.6421
X5.8236Y-3.8098
X5.8315Y-3.648
X5.8421Y-3.5409
X5.8433Y-4.1809
X5.8437Y-3.8575
X5.8563Y-3.1772
X5.8634Y-3.6362
X5.8713Y-3.6913
X5.8823Y-3.8972
X5.8839Y-3.8535
X5.8949Y-3.8169
X5.9055Y-3.498
X6.0508Y-3.5409
X6.0705Y-3.5862
X6.084Y-4.2873
X6.0874Y-3.8984
X6.1146Y-4.0366
X6.1177Y-3.5874
X6.1185Y-3.35
X6.1264Y-3.8035
X6.1366Y-4.2496
X6.139Y-4.1661
X6.1413Y-3.6398
X6.1591Y-3.9764
X6.1657Y-3.4748
X6.1689Y-4.2717
X6.1878Y-3.848
X6.2016Y-3.1772
X6.2114Y-3.6453
X6.2122Y-3.8031
X6.2126Y-3.9815
X6.235Y-3.5098
X6.2618Y-3.6378
X6.3374Y-3.5035
X6.3416Y-3.3482
X6.4004Y-3.711
X6.411Y-3.3835
X6.4236Y-3.5614
X6.4819Y-3.8736
X6.5317Y-3.5967
X6.5382Y-3.1776
X6.55Y-3.872
X6.552Y-4.3106
X6.6093Y-3.4675
X6.637Y-4.3492
X6.8008Y-3.9406
X6.8165Y-4.1461
X6.8697Y-3.45
X6.8803Y-4.0063
X6.883Y-3.8697
X6.9177Y-3.6039
X6.9189Y-3.7425
X6.9217Y-3.4602
X6.9248Y-3.3764
X7.239Y-3.7657
T3
X5.4551Y-4.1134
X5.6835Y-4.113
T4
X5.9579Y-4.0343
X5.9579Y-4.0835
X5.9579Y-4.1323
X5.9579Y-4.1815
X5.9579Y-4.2311
X5.9579Y-4.2803
X6.778Y-3.626
X6.778Y-3.6752
X6.778Y-3.7244
X6.778Y-3.774
T5
X7.1358Y-3.8732
X7.1358Y-3.952
X7.1358Y-4.0307
T6
X7.0177Y-3.8732
X7.0177Y-4.0307
T7
X7.1843Y-3.3791
X7.1843Y-3.5563
T8
X7.2343Y-3.8732
X7.2343Y-4.0307
T9
X7.0843Y-3.3299
X7.0843Y-3.6055
T10
X4.515Y-3.1697
X4.515Y-4.2327
X7.1528Y-3.1697
X7.1528Y-4.2327
T2
G00X5.3992Y-4.072
M15
G01X5.3992Y-4.1154
M16
G05
G00X5.3992Y-4.2413
M15
G01X5.3992Y-4.2728
M16
G05
G00X5.7394Y-4.072
M15
G01X5.7394Y-4.1154
M16
G05
G00X5.7394Y-4.2413
M15
G01X5.7394Y-4.2728
M16
G05
M30
