%TF.GenerationSoftware,KiCad,Pcbnew,9.0.0*%
%TF.CreationDate,2025-07-25T12:15:42+02:00*%
%TF.ProjectId,Spruzzatore,53707275-7a7a-4617-946f-72652e6b6963,rev?*%
%TF.SameCoordinates,Original*%
%TF.FileFunction,Soldermask,Bot*%
%TF.FilePolarity,Negative*%
%FSLAX46Y46*%
G04 Gerber Fmt 4.6, Leading zero omitted, Abs format (unit mm)*
G04 Created by KiCad (PCBNEW 9.0.0) date 2025-07-25 12:15:42*
%MOMM*%
%LPD*%
G01*
G04 APERTURE LIST*
G04 APERTURE END LIST*
G36*
X115149017Y-104749561D02*
G01*
X115455139Y-104819431D01*
X115751514Y-104923137D01*
X116034413Y-105059374D01*
X116300280Y-105226430D01*
X116545770Y-105422202D01*
X116767798Y-105644230D01*
X116963570Y-105889720D01*
X117130626Y-106155587D01*
X117266863Y-106438486D01*
X117370569Y-106734861D01*
X117440439Y-107040983D01*
X117475595Y-107353003D01*
X117475595Y-107666997D01*
X117440439Y-107979017D01*
X117370569Y-108285139D01*
X117266863Y-108581514D01*
X117130626Y-108864413D01*
X116963570Y-109130280D01*
X116767798Y-109375770D01*
X116545770Y-109597798D01*
X116300280Y-109793570D01*
X116034413Y-109960626D01*
X115751514Y-110096863D01*
X115455139Y-110200569D01*
X115149017Y-110270439D01*
X114836997Y-110305595D01*
X114523003Y-110305595D01*
X114210983Y-110270439D01*
X113904861Y-110200569D01*
X113608486Y-110096863D01*
X113325587Y-109960626D01*
X113059720Y-109793570D01*
X112814230Y-109597798D01*
X112592202Y-109375770D01*
X112396430Y-109130280D01*
X112229374Y-108864413D01*
X112093137Y-108581514D01*
X111989431Y-108285139D01*
X111919561Y-107979017D01*
X111884405Y-107666997D01*
X111884405Y-107353003D01*
X111919561Y-107040983D01*
X111989431Y-106734861D01*
X112093137Y-106438486D01*
X112229374Y-106155587D01*
X112396430Y-105889720D01*
X112592202Y-105644230D01*
X112814230Y-105422202D01*
X113059720Y-105226430D01*
X113325587Y-105059374D01*
X113608486Y-104923137D01*
X113904861Y-104819431D01*
X114210983Y-104749561D01*
X114523003Y-104714405D01*
X114836997Y-104714405D01*
X115149017Y-104749561D01*
G37*
G36*
X182149017Y-104749561D02*
G01*
X182455139Y-104819431D01*
X182751514Y-104923137D01*
X183034413Y-105059374D01*
X183300280Y-105226430D01*
X183545770Y-105422202D01*
X183767798Y-105644230D01*
X183963570Y-105889720D01*
X184130626Y-106155587D01*
X184266863Y-106438486D01*
X184370569Y-106734861D01*
X184440439Y-107040983D01*
X184475595Y-107353003D01*
X184475595Y-107666997D01*
X184440439Y-107979017D01*
X184370569Y-108285139D01*
X184266863Y-108581514D01*
X184130626Y-108864413D01*
X183963570Y-109130280D01*
X183767798Y-109375770D01*
X183545770Y-109597798D01*
X183300280Y-109793570D01*
X183034413Y-109960626D01*
X182751514Y-110096863D01*
X182455139Y-110200569D01*
X182149017Y-110270439D01*
X181836997Y-110305595D01*
X181523003Y-110305595D01*
X181210983Y-110270439D01*
X180904861Y-110200569D01*
X180608486Y-110096863D01*
X180325587Y-109960626D01*
X180059720Y-109793570D01*
X179814230Y-109597798D01*
X179592202Y-109375770D01*
X179396430Y-109130280D01*
X179229374Y-108864413D01*
X179093137Y-108581514D01*
X178989431Y-108285139D01*
X178919561Y-107979017D01*
X178884405Y-107666997D01*
X178884405Y-107353003D01*
X178919561Y-107040983D01*
X178989431Y-106734861D01*
X179093137Y-106438486D01*
X179229374Y-106155587D01*
X179396430Y-105889720D01*
X179592202Y-105644230D01*
X179814230Y-105422202D01*
X180059720Y-105226430D01*
X180325587Y-105059374D01*
X180608486Y-104923137D01*
X180904861Y-104819431D01*
X181210983Y-104749561D01*
X181523003Y-104714405D01*
X181836997Y-104714405D01*
X182149017Y-104749561D01*
G37*
G36*
X152090000Y-109170000D02*
G01*
X150570000Y-109170000D01*
X150570000Y-108270000D01*
X152090000Y-108270000D01*
X152090000Y-109170000D01*
G37*
G36*
X137331342Y-107268060D02*
G01*
X137444381Y-107333323D01*
X137536677Y-107425619D01*
X137601940Y-107538658D01*
X137635722Y-107664737D01*
X137640000Y-107730000D01*
X137640000Y-108530000D01*
X137635722Y-108595263D01*
X137601940Y-108721342D01*
X137536677Y-108834381D01*
X137444381Y-108926677D01*
X137331342Y-108991940D01*
X137205263Y-109025722D01*
X137074737Y-109025722D01*
X136948658Y-108991940D01*
X136835619Y-108926677D01*
X136743323Y-108834381D01*
X136678060Y-108721342D01*
X136644278Y-108595263D01*
X136640000Y-108530000D01*
X136640000Y-107730000D01*
X136644278Y-107664737D01*
X136678060Y-107538658D01*
X136743323Y-107425619D01*
X136835619Y-107333323D01*
X136948658Y-107268060D01*
X137074737Y-107234278D01*
X137205263Y-107234278D01*
X137331342Y-107268060D01*
G37*
G36*
X145971342Y-107268060D02*
G01*
X146084381Y-107333323D01*
X146176677Y-107425619D01*
X146241940Y-107538658D01*
X146275722Y-107664737D01*
X146280000Y-107730000D01*
X146280000Y-108530000D01*
X146275722Y-108595263D01*
X146241940Y-108721342D01*
X146176677Y-108834381D01*
X146084381Y-108926677D01*
X145971342Y-108991940D01*
X145845263Y-109025722D01*
X145714737Y-109025722D01*
X145588658Y-108991940D01*
X145475619Y-108926677D01*
X145383323Y-108834381D01*
X145318060Y-108721342D01*
X145284278Y-108595263D01*
X145280000Y-108530000D01*
X145280000Y-107730000D01*
X145284278Y-107664737D01*
X145318060Y-107538658D01*
X145383323Y-107425619D01*
X145475619Y-107333323D01*
X145588658Y-107268060D01*
X145714737Y-107234278D01*
X145845263Y-107234278D01*
X145971342Y-107268060D01*
G37*
G36*
X151698737Y-107023850D02*
G01*
X151812208Y-107054254D01*
X151913943Y-107112991D01*
X151997009Y-107196057D01*
X152055746Y-107297792D01*
X152086150Y-107411263D01*
X152086150Y-107528737D01*
X152055746Y-107642208D01*
X151997009Y-107743943D01*
X151913943Y-107827009D01*
X151812208Y-107885746D01*
X151698737Y-107916150D01*
X151640000Y-107920000D01*
X151638029Y-107920000D01*
X151021971Y-107920000D01*
X151020000Y-107920000D01*
X150961263Y-107916150D01*
X150847792Y-107885746D01*
X150746057Y-107827009D01*
X150662991Y-107743943D01*
X150604254Y-107642208D01*
X150573850Y-107528737D01*
X150573850Y-107411263D01*
X150604254Y-107297792D01*
X150662991Y-107196057D01*
X150746057Y-107112991D01*
X150847792Y-107054254D01*
X150961263Y-107023850D01*
X151020000Y-107020000D01*
X151640000Y-107020000D01*
X151698737Y-107023850D01*
G37*
G36*
X151698737Y-105763850D02*
G01*
X151812208Y-105794254D01*
X151913943Y-105852991D01*
X151997009Y-105936057D01*
X152055746Y-106037792D01*
X152086150Y-106151263D01*
X152086150Y-106268737D01*
X152055746Y-106382208D01*
X151997009Y-106483943D01*
X151913943Y-106567009D01*
X151812208Y-106625746D01*
X151698737Y-106656150D01*
X151640000Y-106660000D01*
X151638029Y-106660000D01*
X151021971Y-106660000D01*
X151020000Y-106660000D01*
X150961263Y-106656150D01*
X150847792Y-106625746D01*
X150746057Y-106567009D01*
X150662991Y-106483943D01*
X150604254Y-106382208D01*
X150573850Y-106268737D01*
X150573850Y-106151263D01*
X150604254Y-106037792D01*
X150662991Y-105936057D01*
X150746057Y-105852991D01*
X150847792Y-105794254D01*
X150961263Y-105763850D01*
X151020000Y-105760000D01*
X151640000Y-105760000D01*
X151698737Y-105763850D01*
G37*
G36*
X151698737Y-104513850D02*
G01*
X151812208Y-104544254D01*
X151913943Y-104602991D01*
X151997009Y-104686057D01*
X152055746Y-104787792D01*
X152086150Y-104901263D01*
X152086150Y-105018737D01*
X152055746Y-105132208D01*
X151997009Y-105233943D01*
X151913943Y-105317009D01*
X151812208Y-105375746D01*
X151698737Y-105406150D01*
X151640000Y-105410000D01*
X151638029Y-105410000D01*
X151021971Y-105410000D01*
X151020000Y-105410000D01*
X150961263Y-105406150D01*
X150847792Y-105375746D01*
X150746057Y-105317009D01*
X150662991Y-105233943D01*
X150604254Y-105132208D01*
X150573850Y-105018737D01*
X150573850Y-104901263D01*
X150604254Y-104787792D01*
X150662991Y-104686057D01*
X150746057Y-104602991D01*
X150847792Y-104544254D01*
X150961263Y-104513850D01*
X151020000Y-104510000D01*
X151640000Y-104510000D01*
X151698737Y-104513850D01*
G37*
G36*
X137331342Y-102968060D02*
G01*
X137444381Y-103033323D01*
X137536677Y-103125619D01*
X137601940Y-103238658D01*
X137635722Y-103364737D01*
X137640000Y-103430000D01*
X137640000Y-104530000D01*
X137635722Y-104595263D01*
X137601940Y-104721342D01*
X137536677Y-104834381D01*
X137444381Y-104926677D01*
X137331342Y-104991940D01*
X137205263Y-105025722D01*
X137074737Y-105025722D01*
X136948658Y-104991940D01*
X136835619Y-104926677D01*
X136743323Y-104834381D01*
X136678060Y-104721342D01*
X136644278Y-104595263D01*
X136640000Y-104530000D01*
X136640000Y-103430000D01*
X136644278Y-103364737D01*
X136678060Y-103238658D01*
X136743323Y-103125619D01*
X136835619Y-103033323D01*
X136948658Y-102968060D01*
X137074737Y-102934278D01*
X137205263Y-102934278D01*
X137331342Y-102968060D01*
G37*
G36*
X145971342Y-102968060D02*
G01*
X146084381Y-103033323D01*
X146176677Y-103125619D01*
X146241940Y-103238658D01*
X146275722Y-103364737D01*
X146280000Y-103430000D01*
X146280000Y-104530000D01*
X146275722Y-104595263D01*
X146241940Y-104721342D01*
X146176677Y-104834381D01*
X146084381Y-104926677D01*
X145971342Y-104991940D01*
X145845263Y-105025722D01*
X145714737Y-105025722D01*
X145588658Y-104991940D01*
X145475619Y-104926677D01*
X145383323Y-104834381D01*
X145318060Y-104721342D01*
X145284278Y-104595263D01*
X145280000Y-104530000D01*
X145280000Y-103430000D01*
X145284278Y-103364737D01*
X145318060Y-103238658D01*
X145383323Y-103125619D01*
X145475619Y-103033323D01*
X145588658Y-102968060D01*
X145714737Y-102934278D01*
X145845263Y-102934278D01*
X145971342Y-102968060D01*
G37*
G36*
X138684372Y-104179739D02*
G01*
X138757847Y-104222160D01*
X138817840Y-104282153D01*
X138860261Y-104355628D01*
X138882220Y-104437579D01*
X138882220Y-104522421D01*
X138860261Y-104604372D01*
X138817840Y-104677847D01*
X138757847Y-104737840D01*
X138684372Y-104780261D01*
X138602421Y-104802220D01*
X138517579Y-104802220D01*
X138435628Y-104780261D01*
X138362153Y-104737840D01*
X138302160Y-104677847D01*
X138259739Y-104604372D01*
X138237780Y-104522421D01*
X138237780Y-104437579D01*
X138259739Y-104355628D01*
X138302160Y-104282153D01*
X138362153Y-104222160D01*
X138435628Y-104179739D01*
X138517579Y-104157780D01*
X138602421Y-104157780D01*
X138684372Y-104179739D01*
G37*
G36*
X144484372Y-104169739D02*
G01*
X144557847Y-104212160D01*
X144617840Y-104272153D01*
X144660261Y-104345628D01*
X144682220Y-104427579D01*
X144682220Y-104512421D01*
X144660261Y-104594372D01*
X144617840Y-104667847D01*
X144557847Y-104727840D01*
X144484372Y-104770261D01*
X144402421Y-104792220D01*
X144317579Y-104792220D01*
X144235628Y-104770261D01*
X144162153Y-104727840D01*
X144102160Y-104667847D01*
X144059739Y-104594372D01*
X144037780Y-104512421D01*
X144037780Y-104427579D01*
X144059739Y-104345628D01*
X144102160Y-104272153D01*
X144162153Y-104212160D01*
X144235628Y-104169739D01*
X144317579Y-104147780D01*
X144402421Y-104147780D01*
X144484372Y-104169739D01*
G37*
G36*
X151698737Y-103273850D02*
G01*
X151812208Y-103304254D01*
X151913943Y-103362991D01*
X151997009Y-103446057D01*
X152055746Y-103547792D01*
X152086150Y-103661263D01*
X152086150Y-103778737D01*
X152055746Y-103892208D01*
X151997009Y-103993943D01*
X151913943Y-104077009D01*
X151812208Y-104135746D01*
X151698737Y-104166150D01*
X151640000Y-104170000D01*
X151638029Y-104170000D01*
X151021971Y-104170000D01*
X151020000Y-104170000D01*
X150961263Y-104166150D01*
X150847792Y-104135746D01*
X150746057Y-104077009D01*
X150662991Y-103993943D01*
X150604254Y-103892208D01*
X150573850Y-103778737D01*
X150573850Y-103661263D01*
X150604254Y-103547792D01*
X150662991Y-103446057D01*
X150746057Y-103362991D01*
X150847792Y-103304254D01*
X150961263Y-103273850D01*
X151020000Y-103270000D01*
X151640000Y-103270000D01*
X151698737Y-103273850D01*
G37*
G36*
X184011256Y-101518754D02*
G01*
X184174257Y-101586271D01*
X184320954Y-101684291D01*
X184445709Y-101809046D01*
X184543729Y-101955743D01*
X184611246Y-102118744D01*
X184645666Y-102291785D01*
X184645666Y-102468215D01*
X184611246Y-102641256D01*
X184543729Y-102804257D01*
X184445709Y-102950954D01*
X184320954Y-103075709D01*
X184174257Y-103173729D01*
X184011256Y-103241246D01*
X183838215Y-103275666D01*
X183661785Y-103275666D01*
X183488744Y-103241246D01*
X183325743Y-103173729D01*
X183179046Y-103075709D01*
X183054291Y-102950954D01*
X182956271Y-102804257D01*
X182888754Y-102641256D01*
X182854334Y-102468215D01*
X182854334Y-102291785D01*
X182888754Y-102118744D01*
X182956271Y-101955743D01*
X183054291Y-101809046D01*
X183179046Y-101684291D01*
X183325743Y-101586271D01*
X183488744Y-101518754D01*
X183661785Y-101484334D01*
X183838215Y-101484334D01*
X184011256Y-101518754D01*
G37*
G36*
X178470616Y-101652725D02*
G01*
X178608262Y-101709740D01*
X178732139Y-101792512D01*
X178837488Y-101897861D01*
X178920260Y-102021738D01*
X178977275Y-102159384D01*
X179006340Y-102305507D01*
X179006340Y-102454493D01*
X178977275Y-102600616D01*
X178920260Y-102738262D01*
X178837488Y-102862139D01*
X178732139Y-102967488D01*
X178608262Y-103050260D01*
X178470616Y-103107275D01*
X178324493Y-103136340D01*
X178175507Y-103136340D01*
X178029384Y-103107275D01*
X177891738Y-103050260D01*
X177767861Y-102967488D01*
X177662512Y-102862139D01*
X177579740Y-102738262D01*
X177522725Y-102600616D01*
X177493660Y-102454493D01*
X177493660Y-102305507D01*
X177522725Y-102159384D01*
X177579740Y-102021738D01*
X177662512Y-101897861D01*
X177767861Y-101792512D01*
X177891738Y-101709740D01*
X178029384Y-101652725D01*
X178175507Y-101623660D01*
X178324493Y-101623660D01*
X178470616Y-101652725D01*
G37*
G36*
X181453199Y-101710142D02*
G01*
X181579978Y-101762655D01*
X181694075Y-101838893D01*
X181791107Y-101935925D01*
X181867345Y-102050022D01*
X181919858Y-102176801D01*
X181946629Y-102311388D01*
X181946629Y-102448612D01*
X181919858Y-102583199D01*
X181867345Y-102709978D01*
X181791107Y-102824075D01*
X181694075Y-102921107D01*
X181579978Y-102997345D01*
X181453199Y-103049858D01*
X181318612Y-103076629D01*
X181181388Y-103076629D01*
X181046801Y-103049858D01*
X180920022Y-102997345D01*
X180805925Y-102921107D01*
X180708893Y-102824075D01*
X180632655Y-102709978D01*
X180580142Y-102583199D01*
X180553371Y-102448612D01*
X180553371Y-102311388D01*
X180580142Y-102176801D01*
X180632655Y-102050022D01*
X180708893Y-101935925D01*
X180805925Y-101838893D01*
X180920022Y-101762655D01*
X181046801Y-101710142D01*
X181181388Y-101683371D01*
X181318612Y-101683371D01*
X181453199Y-101710142D01*
G37*
G36*
X151698737Y-102023850D02*
G01*
X151812208Y-102054254D01*
X151913943Y-102112991D01*
X151997009Y-102196057D01*
X152055746Y-102297792D01*
X152086150Y-102411263D01*
X152086150Y-102528737D01*
X152055746Y-102642208D01*
X151997009Y-102743943D01*
X151913943Y-102827009D01*
X151812208Y-102885746D01*
X151698737Y-102916150D01*
X151640000Y-102920000D01*
X151638029Y-102920000D01*
X151021971Y-102920000D01*
X151020000Y-102920000D01*
X150961263Y-102916150D01*
X150847792Y-102885746D01*
X150746057Y-102827009D01*
X150662991Y-102743943D01*
X150604254Y-102642208D01*
X150573850Y-102528737D01*
X150573850Y-102411263D01*
X150604254Y-102297792D01*
X150662991Y-102196057D01*
X150746057Y-102112991D01*
X150847792Y-102054254D01*
X150961263Y-102023850D01*
X151020000Y-102020000D01*
X151640000Y-102020000D01*
X151698737Y-102023850D01*
G37*
G36*
X181453199Y-99710142D02*
G01*
X181579978Y-99762655D01*
X181694075Y-99838893D01*
X181791107Y-99935925D01*
X181867345Y-100050022D01*
X181919858Y-100176801D01*
X181946629Y-100311388D01*
X181946629Y-100448612D01*
X181919858Y-100583199D01*
X181867345Y-100709978D01*
X181791107Y-100824075D01*
X181694075Y-100921107D01*
X181579978Y-100997345D01*
X181453199Y-101049858D01*
X181318612Y-101076629D01*
X181181388Y-101076629D01*
X181046801Y-101049858D01*
X180920022Y-100997345D01*
X180805925Y-100921107D01*
X180708893Y-100824075D01*
X180632655Y-100709978D01*
X180580142Y-100583199D01*
X180553371Y-100448612D01*
X180553371Y-100311388D01*
X180580142Y-100176801D01*
X180632655Y-100050022D01*
X180708893Y-99935925D01*
X180805925Y-99838893D01*
X180920022Y-99762655D01*
X181046801Y-99710142D01*
X181181388Y-99683371D01*
X181318612Y-99683371D01*
X181453199Y-99710142D01*
G37*
G36*
X184011256Y-97518754D02*
G01*
X184174257Y-97586271D01*
X184320954Y-97684291D01*
X184445709Y-97809046D01*
X184543729Y-97955743D01*
X184611246Y-98118744D01*
X184645666Y-98291785D01*
X184645666Y-98468215D01*
X184611246Y-98641256D01*
X184543729Y-98804257D01*
X184445709Y-98950954D01*
X184320954Y-99075709D01*
X184174257Y-99173729D01*
X184011256Y-99241246D01*
X183838215Y-99275666D01*
X183661785Y-99275666D01*
X183488744Y-99241246D01*
X183325743Y-99173729D01*
X183179046Y-99075709D01*
X183054291Y-98950954D01*
X182956271Y-98804257D01*
X182888754Y-98641256D01*
X182854334Y-98468215D01*
X182854334Y-98291785D01*
X182888754Y-98118744D01*
X182956271Y-97955743D01*
X183054291Y-97809046D01*
X183179046Y-97684291D01*
X183325743Y-97586271D01*
X183488744Y-97518754D01*
X183661785Y-97484334D01*
X183838215Y-97484334D01*
X184011256Y-97518754D01*
G37*
G36*
X178470616Y-97652725D02*
G01*
X178608262Y-97709740D01*
X178732139Y-97792512D01*
X178837488Y-97897861D01*
X178920260Y-98021738D01*
X178977275Y-98159384D01*
X179006340Y-98305507D01*
X179006340Y-98454493D01*
X178977275Y-98600616D01*
X178920260Y-98738262D01*
X178837488Y-98862139D01*
X178732139Y-98967488D01*
X178608262Y-99050260D01*
X178470616Y-99107275D01*
X178324493Y-99136340D01*
X178175507Y-99136340D01*
X178029384Y-99107275D01*
X177891738Y-99050260D01*
X177767861Y-98967488D01*
X177662512Y-98862139D01*
X177579740Y-98738262D01*
X177522725Y-98600616D01*
X177493660Y-98454493D01*
X177493660Y-98305507D01*
X177522725Y-98159384D01*
X177579740Y-98021738D01*
X177662512Y-97897861D01*
X177767861Y-97792512D01*
X177891738Y-97709740D01*
X178029384Y-97652725D01*
X178175507Y-97623660D01*
X178324493Y-97623660D01*
X178470616Y-97652725D01*
G37*
G36*
X181453199Y-97710142D02*
G01*
X181579978Y-97762655D01*
X181694075Y-97838893D01*
X181791107Y-97935925D01*
X181867345Y-98050022D01*
X181919858Y-98176801D01*
X181946629Y-98311388D01*
X181946629Y-98448612D01*
X181919858Y-98583199D01*
X181867345Y-98709978D01*
X181791107Y-98824075D01*
X181694075Y-98921107D01*
X181579978Y-98997345D01*
X181453199Y-99049858D01*
X181318612Y-99076629D01*
X181181388Y-99076629D01*
X181046801Y-99049858D01*
X180920022Y-98997345D01*
X180805925Y-98921107D01*
X180708893Y-98824075D01*
X180632655Y-98709978D01*
X180580142Y-98583199D01*
X180553371Y-98448612D01*
X180553371Y-98311388D01*
X180580142Y-98176801D01*
X180632655Y-98050022D01*
X180708893Y-97935925D01*
X180805925Y-97838893D01*
X180920022Y-97762655D01*
X181046801Y-97710142D01*
X181181388Y-97683371D01*
X181318612Y-97683371D01*
X181453199Y-97710142D01*
G37*
G36*
X172910000Y-96310000D02*
G01*
X171410000Y-96310000D01*
X171410000Y-95410000D01*
X172910000Y-95410000D01*
X172910000Y-96310000D01*
G37*
G36*
X172910000Y-95050000D02*
G01*
X171410000Y-95050000D01*
X171410000Y-94150000D01*
X172910000Y-94150000D01*
X172910000Y-95050000D01*
G37*
G36*
X172910000Y-93800000D02*
G01*
X171410000Y-93800000D01*
X171410000Y-92900000D01*
X172910000Y-92900000D01*
X172910000Y-93800000D01*
G37*
G36*
X180230285Y-90623060D02*
G01*
X180411397Y-90698079D01*
X180574393Y-90806990D01*
X180713010Y-90945607D01*
X180821921Y-91108603D01*
X180896940Y-91289715D01*
X180935185Y-91481983D01*
X180935185Y-91678017D01*
X180896940Y-91870285D01*
X180821921Y-92051397D01*
X180713010Y-92214393D01*
X180574393Y-92353010D01*
X180411397Y-92461921D01*
X180230285Y-92536940D01*
X180038017Y-92575185D01*
X179841983Y-92575185D01*
X179649715Y-92536940D01*
X179468603Y-92461921D01*
X179305607Y-92353010D01*
X179166990Y-92214393D01*
X179058079Y-92051397D01*
X178983060Y-91870285D01*
X178944815Y-91678017D01*
X178944815Y-91481983D01*
X178983060Y-91289715D01*
X179058079Y-91108603D01*
X179166990Y-90945607D01*
X179305607Y-90806990D01*
X179468603Y-90698079D01*
X179649715Y-90623060D01*
X179841983Y-90584815D01*
X180038017Y-90584815D01*
X180230285Y-90623060D01*
G37*
G36*
X172910000Y-92550000D02*
G01*
X171410000Y-92550000D01*
X171410000Y-91650000D01*
X172910000Y-91650000D01*
X172910000Y-92550000D01*
G37*
G36*
X182741256Y-89468754D02*
G01*
X182904257Y-89536271D01*
X183050954Y-89634291D01*
X183175709Y-89759046D01*
X183273729Y-89905743D01*
X183341246Y-90068744D01*
X183375666Y-90241785D01*
X183375666Y-90418215D01*
X183341246Y-90591256D01*
X183273729Y-90754257D01*
X183175709Y-90900954D01*
X183050954Y-91025709D01*
X182904257Y-91123729D01*
X182741256Y-91191246D01*
X182568215Y-91225666D01*
X182391785Y-91225666D01*
X182218744Y-91191246D01*
X182055743Y-91123729D01*
X181909046Y-91025709D01*
X181784291Y-90900954D01*
X181686271Y-90754257D01*
X181618754Y-90591256D01*
X181584334Y-90418215D01*
X181584334Y-90241785D01*
X181618754Y-90068744D01*
X181686271Y-89905743D01*
X181784291Y-89759046D01*
X181909046Y-89634291D01*
X182055743Y-89536271D01*
X182218744Y-89468754D01*
X182391785Y-89434334D01*
X182568215Y-89434334D01*
X182741256Y-89468754D01*
G37*
G36*
X182741256Y-84968754D02*
G01*
X182904257Y-85036271D01*
X183050954Y-85134291D01*
X183175709Y-85259046D01*
X183273729Y-85405743D01*
X183341246Y-85568744D01*
X183375666Y-85741785D01*
X183375666Y-85918215D01*
X183341246Y-86091256D01*
X183273729Y-86254257D01*
X183175709Y-86400954D01*
X183050954Y-86525709D01*
X182904257Y-86623729D01*
X182741256Y-86691246D01*
X182568215Y-86725666D01*
X182391785Y-86725666D01*
X182218744Y-86691246D01*
X182055743Y-86623729D01*
X181909046Y-86525709D01*
X181784291Y-86400954D01*
X181686271Y-86254257D01*
X181618754Y-86091256D01*
X181584334Y-85918215D01*
X181584334Y-85741785D01*
X181618754Y-85568744D01*
X181686271Y-85405743D01*
X181784291Y-85259046D01*
X181909046Y-85134291D01*
X182055743Y-85036271D01*
X182218744Y-84968754D01*
X182391785Y-84934334D01*
X182568215Y-84934334D01*
X182741256Y-84968754D01*
G37*
G36*
X180230285Y-83623060D02*
G01*
X180411397Y-83698079D01*
X180574393Y-83806990D01*
X180713010Y-83945607D01*
X180821921Y-84108603D01*
X180896940Y-84289715D01*
X180935185Y-84481983D01*
X180935185Y-84678017D01*
X180896940Y-84870285D01*
X180821921Y-85051397D01*
X180713010Y-85214393D01*
X180574393Y-85353010D01*
X180411397Y-85461921D01*
X180230285Y-85536940D01*
X180038017Y-85575185D01*
X179841983Y-85575185D01*
X179649715Y-85536940D01*
X179468603Y-85461921D01*
X179305607Y-85353010D01*
X179166990Y-85214393D01*
X179058079Y-85051397D01*
X178983060Y-84870285D01*
X178944815Y-84678017D01*
X178944815Y-84481983D01*
X178983060Y-84289715D01*
X179058079Y-84108603D01*
X179166990Y-83945607D01*
X179305607Y-83806990D01*
X179468603Y-83698079D01*
X179649715Y-83623060D01*
X179841983Y-83584815D01*
X180038017Y-83584815D01*
X180230285Y-83623060D01*
G37*
G36*
X115149017Y-77749561D02*
G01*
X115455139Y-77819431D01*
X115751514Y-77923137D01*
X116034413Y-78059374D01*
X116300280Y-78226430D01*
X116545770Y-78422202D01*
X116767798Y-78644230D01*
X116963570Y-78889720D01*
X117130626Y-79155587D01*
X117266863Y-79438486D01*
X117370569Y-79734861D01*
X117440439Y-80040983D01*
X117475595Y-80353003D01*
X117475595Y-80666997D01*
X117440439Y-80979017D01*
X117370569Y-81285139D01*
X117266863Y-81581514D01*
X117130626Y-81864413D01*
X116963570Y-82130280D01*
X116767798Y-82375770D01*
X116545770Y-82597798D01*
X116300280Y-82793570D01*
X116034413Y-82960626D01*
X115751514Y-83096863D01*
X115455139Y-83200569D01*
X115149017Y-83270439D01*
X114836997Y-83305595D01*
X114523003Y-83305595D01*
X114210983Y-83270439D01*
X113904861Y-83200569D01*
X113608486Y-83096863D01*
X113325587Y-82960626D01*
X113059720Y-82793570D01*
X112814230Y-82597798D01*
X112592202Y-82375770D01*
X112396430Y-82130280D01*
X112229374Y-81864413D01*
X112093137Y-81581514D01*
X111989431Y-81285139D01*
X111919561Y-80979017D01*
X111884405Y-80666997D01*
X111884405Y-80353003D01*
X111919561Y-80040983D01*
X111989431Y-79734861D01*
X112093137Y-79438486D01*
X112229374Y-79155587D01*
X112396430Y-78889720D01*
X112592202Y-78644230D01*
X112814230Y-78422202D01*
X113059720Y-78226430D01*
X113325587Y-78059374D01*
X113608486Y-77923137D01*
X113904861Y-77819431D01*
X114210983Y-77749561D01*
X114523003Y-77714405D01*
X114836997Y-77714405D01*
X115149017Y-77749561D01*
G37*
G36*
X182149017Y-77749561D02*
G01*
X182455139Y-77819431D01*
X182751514Y-77923137D01*
X183034413Y-78059374D01*
X183300280Y-78226430D01*
X183545770Y-78422202D01*
X183767798Y-78644230D01*
X183963570Y-78889720D01*
X184130626Y-79155587D01*
X184266863Y-79438486D01*
X184370569Y-79734861D01*
X184440439Y-80040983D01*
X184475595Y-80353003D01*
X184475595Y-80666997D01*
X184440439Y-80979017D01*
X184370569Y-81285139D01*
X184266863Y-81581514D01*
X184130626Y-81864413D01*
X183963570Y-82130280D01*
X183767798Y-82375770D01*
X183545770Y-82597798D01*
X183300280Y-82793570D01*
X183034413Y-82960626D01*
X182751514Y-83096863D01*
X182455139Y-83200569D01*
X182149017Y-83270439D01*
X181836997Y-83305595D01*
X181523003Y-83305595D01*
X181210983Y-83270439D01*
X180904861Y-83200569D01*
X180608486Y-83096863D01*
X180325587Y-82960626D01*
X180059720Y-82793570D01*
X179814230Y-82597798D01*
X179592202Y-82375770D01*
X179396430Y-82130280D01*
X179229374Y-81864413D01*
X179093137Y-81581514D01*
X178989431Y-81285139D01*
X178919561Y-80979017D01*
X178884405Y-80666997D01*
X178884405Y-80353003D01*
X178919561Y-80040983D01*
X178989431Y-79734861D01*
X179093137Y-79438486D01*
X179229374Y-79155587D01*
X179396430Y-78889720D01*
X179592202Y-78644230D01*
X179814230Y-78422202D01*
X180059720Y-78226430D01*
X180325587Y-78059374D01*
X180608486Y-77923137D01*
X180904861Y-77819431D01*
X181210983Y-77749561D01*
X181523003Y-77714405D01*
X181836997Y-77714405D01*
X182149017Y-77749561D01*
G37*
G36*
X122397403Y-80931418D02*
G01*
X122446066Y-80963934D01*
X122478582Y-81012597D01*
X122490000Y-81070000D01*
X122490000Y-82470000D01*
X122478582Y-82527403D01*
X122446066Y-82576066D01*
X122397403Y-82608582D01*
X122340000Y-82620000D01*
X122040000Y-82620000D01*
X121982597Y-82608582D01*
X121933934Y-82576066D01*
X121901418Y-82527403D01*
X121890000Y-82470000D01*
X121890000Y-81070000D01*
X121901418Y-81012597D01*
X121933934Y-80963934D01*
X121982597Y-80931418D01*
X122040000Y-80920000D01*
X122340000Y-80920000D01*
X122397403Y-80931418D01*
G37*
G36*
X123647403Y-80931418D02*
G01*
X123696066Y-80963934D01*
X123728582Y-81012597D01*
X123740000Y-81070000D01*
X123740000Y-82470000D01*
X123728582Y-82527403D01*
X123696066Y-82576066D01*
X123647403Y-82608582D01*
X123590000Y-82620000D01*
X123290000Y-82620000D01*
X123232597Y-82608582D01*
X123183934Y-82576066D01*
X123151418Y-82527403D01*
X123140000Y-82470000D01*
X123140000Y-81070000D01*
X123151418Y-81012597D01*
X123183934Y-80963934D01*
X123232597Y-80931418D01*
X123290000Y-80920000D01*
X123590000Y-80920000D01*
X123647403Y-80931418D01*
G37*
G36*
X124897403Y-80931418D02*
G01*
X124946066Y-80963934D01*
X124978582Y-81012597D01*
X124990000Y-81070000D01*
X124990000Y-82470000D01*
X124978582Y-82527403D01*
X124946066Y-82576066D01*
X124897403Y-82608582D01*
X124840000Y-82620000D01*
X124540000Y-82620000D01*
X124482597Y-82608582D01*
X124433934Y-82576066D01*
X124401418Y-82527403D01*
X124390000Y-82470000D01*
X124390000Y-81070000D01*
X124401418Y-81012597D01*
X124433934Y-80963934D01*
X124482597Y-80931418D01*
X124540000Y-80920000D01*
X124840000Y-80920000D01*
X124897403Y-80931418D01*
G37*
G36*
X120594850Y-77220964D02*
G01*
X120645040Y-77226787D01*
X120662189Y-77234359D01*
X120685671Y-77239030D01*
X120710810Y-77255827D01*
X120730696Y-77264608D01*
X120744277Y-77278189D01*
X120766777Y-77293223D01*
X120781810Y-77315722D01*
X120795391Y-77329303D01*
X120804170Y-77349186D01*
X120820970Y-77374329D01*
X120825641Y-77397812D01*
X120833212Y-77414959D01*
X120839033Y-77465139D01*
X120840000Y-77470000D01*
X120840000Y-79670000D01*
X120839032Y-79674863D01*
X120833212Y-79725040D01*
X120825641Y-79742185D01*
X120820970Y-79765671D01*
X120804169Y-79790815D01*
X120795391Y-79810696D01*
X120781812Y-79824274D01*
X120766777Y-79846777D01*
X120744274Y-79861812D01*
X120730696Y-79875391D01*
X120710815Y-79884169D01*
X120685671Y-79900970D01*
X120662185Y-79905641D01*
X120645040Y-79913212D01*
X120594861Y-79919032D01*
X120590000Y-79920000D01*
X120090000Y-79920000D01*
X120085138Y-79919032D01*
X120034959Y-79913212D01*
X120017812Y-79905641D01*
X119994329Y-79900970D01*
X119969186Y-79884170D01*
X119949303Y-79875391D01*
X119935722Y-79861810D01*
X119913223Y-79846777D01*
X119898189Y-79824277D01*
X119884608Y-79810696D01*
X119875827Y-79790810D01*
X119859030Y-79765671D01*
X119854359Y-79742189D01*
X119846787Y-79725040D01*
X119840964Y-79674849D01*
X119840000Y-79670000D01*
X119840000Y-77470000D01*
X119840964Y-77465150D01*
X119846787Y-77414959D01*
X119854359Y-77397808D01*
X119859030Y-77374329D01*
X119875826Y-77349191D01*
X119884608Y-77329303D01*
X119898191Y-77315719D01*
X119913223Y-77293223D01*
X119935719Y-77278191D01*
X119949303Y-77264608D01*
X119969191Y-77255826D01*
X119994329Y-77239030D01*
X120017808Y-77234359D01*
X120034959Y-77226787D01*
X120085151Y-77220964D01*
X120090000Y-77220000D01*
X120590000Y-77220000D01*
X120594850Y-77220964D01*
G37*
G36*
X126794850Y-77220964D02*
G01*
X126845040Y-77226787D01*
X126862189Y-77234359D01*
X126885671Y-77239030D01*
X126910810Y-77255827D01*
X126930696Y-77264608D01*
X126944277Y-77278189D01*
X126966777Y-77293223D01*
X126981810Y-77315722D01*
X126995391Y-77329303D01*
X127004170Y-77349186D01*
X127020970Y-77374329D01*
X127025641Y-77397812D01*
X127033212Y-77414959D01*
X127039033Y-77465139D01*
X127040000Y-77470000D01*
X127040000Y-79670000D01*
X127039032Y-79674863D01*
X127033212Y-79725040D01*
X127025641Y-79742185D01*
X127020970Y-79765671D01*
X127004169Y-79790815D01*
X126995391Y-79810696D01*
X126981812Y-79824274D01*
X126966777Y-79846777D01*
X126944274Y-79861812D01*
X126930696Y-79875391D01*
X126910815Y-79884169D01*
X126885671Y-79900970D01*
X126862185Y-79905641D01*
X126845040Y-79913212D01*
X126794861Y-79919032D01*
X126790000Y-79920000D01*
X126290000Y-79920000D01*
X126285138Y-79919032D01*
X126234959Y-79913212D01*
X126217812Y-79905641D01*
X126194329Y-79900970D01*
X126169186Y-79884170D01*
X126149303Y-79875391D01*
X126135722Y-79861810D01*
X126113223Y-79846777D01*
X126098189Y-79824277D01*
X126084608Y-79810696D01*
X126075827Y-79790810D01*
X126059030Y-79765671D01*
X126054359Y-79742189D01*
X126046787Y-79725040D01*
X126040964Y-79674849D01*
X126040000Y-79670000D01*
X126040000Y-77470000D01*
X126040964Y-77465150D01*
X126046787Y-77414959D01*
X126054359Y-77397808D01*
X126059030Y-77374329D01*
X126075826Y-77349191D01*
X126084608Y-77329303D01*
X126098191Y-77315719D01*
X126113223Y-77293223D01*
X126135719Y-77278191D01*
X126149303Y-77264608D01*
X126169191Y-77255826D01*
X126194329Y-77239030D01*
X126217808Y-77234359D01*
X126234959Y-77226787D01*
X126285151Y-77220964D01*
X126290000Y-77220000D01*
X126790000Y-77220000D01*
X126794850Y-77220964D01*
G37*
M02*
